<svg width="40" height="40" viewBox="0 0 40 40" fill="none" xmlns="http://www.w3.org/2000/svg">
<rect width="40" height="40" rx="8" fill="#FFF3D6"/>
<g clip-path="url(#clip0_631_8731)">
<path d="M26.3832 13.3246C24.1832 11.8246 21.4665 12.5246 19.9999 14.2412C18.5332 12.5246 15.8165 11.8162 13.6165 13.3246C12.4499 14.1246 11.7165 15.4746 11.6665 16.8996C11.5499 20.1329 14.4165 22.7246 18.7915 26.6996L18.8749 26.7746C19.5082 27.3496 20.4832 27.3496 21.1165 26.7662L21.2082 26.6829C25.5832 22.7162 28.4415 20.1246 28.3332 16.8912C28.2832 15.4746 27.5499 14.1246 26.3832 13.3246ZM20.0832 25.4579L19.9999 25.5412L19.9165 25.4579C15.9499 21.8662 13.3332 19.4912 13.3332 17.0829C13.3332 15.4162 14.5832 14.1662 16.2499 14.1662C17.5332 14.1662 18.7832 14.9912 19.2249 16.1329H20.7832C21.2165 14.9912 22.4665 14.1662 23.7499 14.1662C25.4165 14.1662 26.6665 15.4162 26.6665 17.0829C26.6665 19.4912 24.0499 21.8662 20.0832 25.4579Z" fill="#E16919"/>
</g>
<defs>
<clipPath id="clip0_631_8731">
<rect width="20" height="20" fill="white" transform="translate(10 10)"/>
</clipPath>
</defs>
</svg>
