<svg width="40" height="40" viewBox="0 0 40 40" fill="none" xmlns="http://www.w3.org/2000/svg">
<rect width="40" height="40" rx="8" fill="#FFF3D6"/>
<g clip-path="url(#clip0_631_8736)">
<path d="M17.4998 20.0003C19.1082 20.0003 20.4165 18.692 20.4165 17.0837C20.4165 15.4753 19.1082 14.167 17.4998 14.167C15.8915 14.167 14.5832 15.4753 14.5832 17.0837C14.5832 18.692 15.8915 20.0003 17.4998 20.0003ZM17.4998 15.8337C18.1915 15.8337 18.7498 16.392 18.7498 17.0837C18.7498 17.7753 18.1915 18.3337 17.4998 18.3337C16.8082 18.3337 16.2498 17.7753 16.2498 17.0837C16.2498 16.392 16.8082 15.8337 17.4998 15.8337ZM17.4998 21.4587C15.5498 21.4587 11.6665 22.4337 11.6665 24.3753V25.0003C11.6665 25.4587 12.0415 25.8337 12.4998 25.8337H22.4998C22.9582 25.8337 23.3332 25.4587 23.3332 25.0003V24.3753C23.3332 22.4337 19.4498 21.4587 17.4998 21.4587ZM13.6165 24.167C14.3165 23.6837 16.0082 23.1253 17.4998 23.1253C18.9915 23.1253 20.6832 23.6837 21.3832 24.167H13.6165ZM23.3665 21.5087C24.3332 22.2087 24.9998 23.142 24.9998 24.3753V25.8337H27.4998C27.9582 25.8337 28.3332 25.4587 28.3332 25.0003V24.3753C28.3332 22.692 25.4165 21.7337 23.3665 21.5087ZM22.4998 20.0003C24.1082 20.0003 25.4165 18.692 25.4165 17.0837C25.4165 15.4753 24.1082 14.167 22.4998 14.167C22.0498 14.167 21.6332 14.2753 21.2498 14.4587C21.7748 15.2003 22.0832 16.1087 22.0832 17.0837C22.0832 18.0587 21.7748 18.967 21.2498 19.7087C21.6332 19.892 22.0498 20.0003 22.4998 20.0003Z" fill="#E16919"/>
</g>
<defs>
<clipPath id="clip0_631_8736">
<rect width="20" height="20" fill="white" transform="translate(10 10)"/>
</clipPath>
</defs>
</svg>
