<svg width="181" height="181" viewBox="0 0 181 181" fill="none" xmlns="http://www.w3.org/2000/svg">
<path d="M90.8569 136.029C118.503 136.029 140.915 113.658 140.915 86.061C140.915 58.4643 118.503 36.0928 90.8569 36.0928C63.2106 36.0928 40.7988 58.4643 40.7988 86.061C40.7988 113.658 63.2106 136.029 90.8569 136.029Z" fill="white"/>
<g filter="url(#filter0_d_867_20080)">
<path d="M40.7982 86.0591C40.7981 95.9417 43.7338 105.602 49.2341 113.82C54.7344 122.037 62.5523 128.441 71.699 132.223C80.8458 136.005 90.9106 136.995 100.621 135.067C110.331 133.139 119.25 128.38 126.251 121.392C133.252 114.404 138.019 105.501 139.951 95.8078C141.882 86.1151 140.891 76.0683 137.102 66.9379C133.314 57.8075 126.898 50.0037 118.666 44.5132C110.434 39.0227 100.756 36.0921 90.8554 36.0921C84.275 36.068 77.7549 37.3439 71.6708 39.8464C65.5867 42.3489 60.0588 46.0285 55.4058 50.6732C50.7527 55.3178 47.0664 60.8358 44.5593 66.9089C42.0523 72.9821 40.774 79.4905 40.7982 86.0591Z" fill="white"/>
</g>
<path d="M113.564 59.3439C113.315 72.5121 114.241 76.8919 118.397 84.0743C121.903 90.1294 103.24 86.3052 94.9963 84.9358L100.946 54.5374C100.946 54.5374 113.651 54.7197 113.564 59.3439Z" fill="#003143"/>
<path d="M85.139 55.033C83.285 68.4264 83.7263 72.4844 79.3065 79.8085C75.6436 85.8791 90.9066 85.7632 99.1575 87.1604L98.2 54.4315C98.2 54.4315 85.7904 50.3297 85.139 55.033Z" fill="#003143"/>
<path d="M86.188 80.7228C86.2416 80.7155 86.8407 90.6344 98.384 89.7696C106.375 89.1721 109.224 80.7086 109.408 80.7086C108.495 80.5571 107.594 80.3391 106.712 80.0563C105.454 79.3812 103.897 78.6787 103.492 76.2398C103.258 74.8336 103.654 67.641 103.532 66.2168L91.2656 68.95C91.4372 71.9543 92.6387 78.919 88.4335 80.1514C87.7328 80.357 86.9788 80.5446 86.188 80.7228Z" fill="#F9B995"/>
<path d="M91.0938 77.3079C91.286 76.6898 91.4097 76.0524 91.4628 75.4074C91.5978 73.9356 91.5711 72.4534 91.383 70.9874C93.8762 70.6515 102.839 68.4573 104.777 66.8555C105.004 67.6954 103.137 70.1894 102.791 70.9874C102.135 72.496 95.5599 77.3079 91.0938 77.3079Z" fill="#C36937"/>
<path d="M93.6448 74.4565C98.5004 74.6355 104.632 72.3367 105.544 65.8422L106.368 59.982C107.28 53.4876 104.603 47.7451 98.4773 46.8889C92.3516 46.0328 87.0332 50.6588 86.1207 57.152L85.7566 59.7482C85.4065 62.2384 84.9817 74.1375 93.6448 74.4565Z" fill="#F9B995"/>
<path d="M112.319 61.4626L106.838 61.1908C96.0664 59.8686 92.9466 51.4409 92.9466 51.4409C92.9466 51.4409 88.831 57.6633 84.9545 56.5211C84.9545 56.5211 85.3239 42.0856 102.322 43.6079C109 44.2058 113.085 49.4601 113.522 56.8076C113.843 62.2092 112.319 61.4626 112.319 61.4626Z" fill="#003143"/>
<path d="M104.886 67.7686C106.747 68.0286 108.535 66.2518 108.796 64.3934C109.058 62.5349 107.693 61.2992 105.831 61.0391L104.697 62.1501L103.285 67.5449L104.886 67.7686Z" fill="#F9B995"/>
<path d="M67.5981 130.314C65.6302 129.457 64.158 128.541 60.7976 126.013C58.7499 124.479 56.8243 122.79 55.0379 120.961C54.4463 120.355 54.329 119.436 54.7234 118.687L71.3197 87.1631C71.7341 86.3763 72.7074 86.0739 73.4948 86.4871L85.8593 92.9758C86.8383 93.4895 87.2147 94.7 86.6997 95.6783L74.1329 119.551C74.093 119.623 74.0822 119.708 74.1028 119.789L74.1878 120.12" fill="#D2F2F5"/>
<path d="M71.0186 124.777C72.0777 118.952 71.4599 97.858 71.0186 88.0391L81.6098 109.222L71.0186 124.777Z" fill="#BCE5E9"/>
<path d="M124.981 103.95C124.528 108.81 124.43 116.368 124.461 123.088C117.955 128.979 110.01 133.056 101.425 134.909C92.8397 136.763 83.9169 136.327 75.5539 133.646C74.5305 123.512 73.0085 108.619 72.1507 99.4489C71.2813 89.9501 68.7247 86.813 75.7024 82.2641C79.5472 80.3104 85.6421 80.1387 88.3815 80.1387C87.4517 89.1423 106.461 90.2504 106.933 80.1387C121.151 81.4657 127.733 81.7955 124.981 103.95Z" fill="#D2F2F5"/>
<path d="M70.0769 105.529H60.376C59.2714 105.529 58.376 106.425 58.376 107.529V120.302C58.376 121.407 59.2714 122.302 60.376 122.302H70.0769C71.1814 122.302 72.0769 121.407 72.0769 120.302V107.529C72.0769 106.425 71.1814 105.529 70.0769 105.529Z" fill="white"/>
<path d="M66.4668 113.917C66.4671 112.809 66.7963 111.727 67.4131 110.806C68.0298 109.885 68.9062 109.167 69.9315 108.743C70.9569 108.32 72.085 108.209 73.1734 108.425C74.2617 108.641 75.2614 109.175 76.0459 109.958C76.8305 110.742 77.3647 111.74 77.5811 112.826C77.7974 113.913 77.6862 115.039 77.2614 116.062C76.8366 117.086 76.1174 117.96 75.1946 118.576C74.2719 119.191 73.1871 119.519 72.0773 119.519C70.5896 119.517 69.1632 118.927 68.1113 117.876C67.0595 116.826 66.468 115.402 66.4668 113.917ZM68.7646 113.917C68.7646 114.571 68.9589 115.21 69.3229 115.754C69.6869 116.298 70.2043 116.722 70.8096 116.972C71.4149 117.222 72.081 117.288 72.7236 117.16C73.3662 117.033 73.9565 116.718 74.4198 116.255C74.8831 115.793 75.1986 115.204 75.3264 114.562C75.4542 113.921 75.3886 113.256 75.1379 112.652C74.8871 112.047 74.4625 111.531 73.9178 111.168C73.373 110.804 72.7325 110.61 72.0773 110.61C71.1991 110.611 70.3571 110.96 69.736 111.58C69.115 112.2 68.7657 113.04 68.7646 113.917Z" fill="white"/>
<path d="M71.967 115.99C72.013 115.706 72.1576 115.448 72.3755 115.26C72.5934 115.072 72.8706 114.966 73.1586 114.962C73.1507 114.951 73.145 114.938 73.1418 114.924L72.7338 114.836C72.4494 114.78 72.1931 114.627 72.0084 114.404C71.8237 114.181 71.7219 113.901 71.7202 113.612C71.7229 113.43 71.7658 113.251 71.846 113.088C71.9262 112.926 72.0416 112.782 72.184 112.669C72.3263 112.556 72.492 112.476 72.6691 112.435C72.8461 112.394 73.0302 112.392 73.2079 112.431L74.1704 112.638C74.1704 112.634 74.1704 112.631 74.1704 112.627C74.1726 112.62 74.1755 112.612 74.179 112.605C73.9282 112.487 73.7247 112.288 73.6017 112.04C73.4787 111.792 73.4436 111.51 73.5019 111.24C73.607 110.529 74.4613 110.295 75.087 110.43L77.5801 110.876L76.7386 110.319C76.4731 110.135 76.2874 109.858 76.2188 109.543C76.1502 109.228 76.204 108.899 76.3692 108.622C76.4594 108.482 76.5773 108.362 76.7156 108.269C76.8539 108.176 77.0097 108.112 77.1736 108.081C77.3375 108.05 77.5059 108.053 77.6687 108.089C77.8315 108.125 77.9851 108.194 78.1203 108.292L88.1695 119.771L85.9382 118.761C85.2457 119.777 84.2648 120.564 83.1212 121.021C81.9776 121.477 80.7235 121.583 79.5196 121.323L74.07 120.137C73.7855 120.081 73.5292 119.929 73.3444 119.706C73.1596 119.482 73.0578 119.202 73.056 118.913C73.0601 118.652 73.1475 118.399 73.3057 118.191C73.4638 117.983 73.6844 117.831 73.9352 117.757C73.9273 117.738 73.9245 117.718 73.9271 117.698C73.9301 117.68 73.9377 117.662 73.9492 117.647C73.9608 117.632 73.9759 117.62 73.9932 117.613L72.9874 117.396C72.6705 117.334 72.3889 117.155 72.1995 116.894C72.0101 116.633 71.927 116.31 71.967 115.99Z" fill="#F9B995"/>
<path d="M75.9904 113.041C76.0166 113.036 76.0401 113.021 76.0567 113C76.0733 112.979 76.0822 112.953 76.0817 112.927C76.0812 112.9 76.0714 112.874 76.0539 112.854C76.0365 112.833 76.0125 112.82 75.9861 112.815L74.3028 112.531C74.2876 112.528 74.2719 112.527 74.2566 112.531C74.2414 112.534 74.2269 112.54 74.2141 112.548C74.2012 112.557 74.1903 112.568 74.1819 112.581C74.1735 112.594 74.1678 112.609 74.1652 112.624C74.1626 112.64 74.1631 112.655 74.1667 112.67C74.1703 112.685 74.177 112.7 74.1862 112.712C74.1954 112.725 74.2071 112.735 74.2205 112.743C74.2339 112.751 74.2487 112.756 74.2642 112.758L75.9475 113.042C75.9617 113.045 75.9763 113.044 75.9904 113.041Z" fill="#C36937"/>
<path d="M75.5842 115.419C75.6104 115.413 75.6339 115.399 75.6506 115.378C75.6673 115.357 75.6762 115.331 75.6758 115.304C75.6754 115.277 75.6657 115.252 75.6483 115.231C75.631 115.211 75.6071 115.197 75.5807 115.192L73.2748 114.784C73.2595 114.781 73.2437 114.78 73.2283 114.783C73.2129 114.786 73.1982 114.792 73.1851 114.8C73.172 114.809 73.1609 114.82 73.1523 114.833C73.1437 114.846 73.1378 114.861 73.1351 114.876C73.1323 114.892 73.1328 114.907 73.1363 114.923C73.1399 114.938 73.1465 114.952 73.1558 114.965C73.1651 114.977 73.1769 114.988 73.1904 114.996C73.2039 115.004 73.2189 115.009 73.2344 115.011L75.5404 115.419C75.5549 115.422 75.5698 115.422 75.5842 115.419Z" fill="#C36937"/>
<path d="M75.1612 117.995C75.1876 117.989 75.2112 117.974 75.2279 117.953C75.2446 117.932 75.2533 117.906 75.2526 117.879C75.2518 117.852 75.2416 117.826 75.2237 117.806C75.2058 117.786 75.1814 117.772 75.1547 117.768L74.0609 117.601C74.0316 117.598 74.0023 117.607 73.979 117.625C73.9558 117.643 73.9403 117.669 73.9359 117.698C73.9314 117.728 73.9383 117.757 73.9551 117.781C73.9719 117.806 73.9973 117.822 74.0262 117.829L75.12 117.996C75.1337 117.998 75.1476 117.998 75.1612 117.995Z" fill="#C36937"/>
<path d="M110.073 114.848C112.224 112.698 110.294 102.492 109.08 98.2994L119.34 92.3418L121.988 123.454L97.1649 122.461L84.2568 109.553C87.4563 110.435 108.087 116.834 110.073 114.848Z" fill="#BCE5E9"/>
<path d="M102.13 134.704L79.9546 123.782L116.031 128.747C111.53 132.454 104.998 134.153 102.13 134.704Z" fill="#BCE5E9"/>
<path d="M131.728 113.677C131.876 114.244 131.771 114.848 131.427 115.322C125.29 123.795 116.646 130.146 106.701 133.473C106.698 133.474 106.696 133.473 106.694 133.472C106.694 133.471 106.693 133.47 106.692 133.47C104.702 133.08 87.9618 126.533 81.8031 124.489C80.7411 124.137 80.0468 123.016 80.2817 121.922L82.5807 111.216C82.8101 110.148 83.8505 109.46 84.9107 109.724C92.2091 111.539 103.238 115.922 110.898 117.97C112.292 118.342 113.522 117.095 113.211 115.686L108.15 92.7825C107.943 91.6388 107.965 90.4655 108.216 89.3305C108.466 88.1954 108.94 87.1213 109.61 86.1704C110.279 85.2195 111.131 84.4108 112.116 83.791C113.101 83.1713 114.199 82.7529 115.347 82.5601C116.496 82.3673 117.671 82.404 118.805 82.668C119.939 82.932 121.009 83.4181 121.953 84.098C122.897 84.778 123.697 85.6383 124.306 86.6291C124.914 87.6199 125.32 88.7214 125.499 89.8698L131.728 113.677Z" fill="#D2F2F5"/>
<defs>
<filter id="filter0_d_867_20080" x="0.797852" y="0.0917969" width="180.115" height="179.935" filterUnits="userSpaceOnUse" color-interpolation-filters="sRGB">
<feFlood flood-opacity="0" result="BackgroundImageFix"/>
<feColorMatrix in="SourceAlpha" type="matrix" values="0 0 0 0 0 0 0 0 0 0 0 0 0 0 0 0 0 0 127 0" result="hardAlpha"/>
<feOffset dy="4"/>
<feGaussianBlur stdDeviation="20"/>
<feComposite in2="hardAlpha" operator="out"/>
<feColorMatrix type="matrix" values="0 0 0 0 0.109804 0 0 0 0 0.737255 0 0 0 0 0.737255 0 0 0 0.08 0"/>
<feBlend mode="normal" in2="BackgroundImageFix" result="effect1_dropShadow_867_20080"/>
<feBlend mode="normal" in="SourceGraphic" in2="effect1_dropShadow_867_20080" result="shape"/>
</filter>
</defs>
</svg>
