<svg width="110" height="111" viewBox="0 0 110 111" fill="none" xmlns="http://www.w3.org/2000/svg">
<path d="M54.9688 110.042C85.3305 110.042 109.944 85.4733 109.944 55.1661C109.944 24.8589 85.3305 0.290039 54.9688 0.290039C24.6072 0.290039 -0.00585938 24.8589 -0.00585938 55.1661C-0.00585938 85.4733 24.6072 110.042 54.9688 110.042Z" fill="white"/>
<path d="M109.944 55.1646C109.944 66.0179 106.72 76.6275 100.679 85.6517C94.6385 94.6758 86.0527 101.709 76.0075 105.863C65.9624 110.016 54.909 111.103 44.2451 108.985C33.5812 106.868 23.7858 101.642 16.0976 93.9673C8.40936 86.2928 3.17361 76.515 1.05243 65.8703C-1.06875 55.2255 0.0199062 44.1919 4.18075 34.1648C8.34159 24.1377 15.3877 15.5673 24.4281 9.53758C33.4685 3.50781 44.0972 0.289436 54.97 0.289436C62.1967 0.262768 69.3573 1.66395 76.0391 4.41225C82.7209 7.16054 88.7918 11.2016 93.9019 16.3025C99.012 21.4035 103.06 27.4635 105.814 34.1333C108.567 40.8031 109.971 47.9508 109.944 55.1646Z" fill="#96D4DB"/>
<path d="M30.6352 22.7993C30.6352 22.7993 30.0825 31.0833 28.2151 34.0889C22.8401 42.7413 21.2829 52.4752 26.6656 57.5617C32.0483 62.6481 66.3813 62.718 68.9822 51.021C71.1706 41.1736 66.4727 40.1148 65.3296 31.9914C64.8121 28.3159 63.3888 20.6084 63.3888 20.6084" fill="#003143"/>
<path d="M60.0961 49.3066C60.0369 49.2989 59.3795 60.1919 46.702 59.244C37.926 58.5878 34.797 49.2929 34.5957 49.2929C35.5419 49.0925 37.1352 48.8003 37.5565 48.5768C38.9383 47.8353 40.6482 47.0643 41.0936 44.3851C41.3511 42.8431 40.9147 34.942 41.0507 33.3799L54.522 36.3812C54.3341 39.6794 53.0163 47.3294 57.6339 48.683C58.3999 48.9053 59.2276 49.1113 60.0961 49.3066Z" fill="#F9B995"/>
<path d="M54.7081 45.5553C54.4973 44.8764 54.3615 44.1765 54.3031 43.468C54.155 41.8516 54.1845 40.2238 54.391 38.6137C51.6531 38.2451 49.0736 37.1173 46.9456 35.3584C46.6955 36.2806 41.3612 37.3264 41.7427 38.2032C42.464 39.8587 49.8039 45.5553 54.7081 45.5553Z" fill="#C36937"/>
<path d="M52.9657 42.1609C47.6542 42.6749 40.7821 40.553 39.3588 33.4927L38.0741 27.1221C36.6507 20.0619 39.2116 13.5919 45.8709 12.2542C52.5306 10.9161 58.6625 15.6381 60.0858 22.7L60.6548 25.5202C61.2011 28.2294 62.442 41.2456 52.9657 42.1609Z" fill="#F9B995"/>
<path d="M32.7607 29.409L38.7313 28.2448C43.2412 26.3602 44.5207 18.5165 44.5207 18.5165C44.5207 18.5165 50.0867 23.8077 63.3889 20.6081C63.3889 20.6081 60.4993 2.07145 40.8575 7.69805C34.5239 9.51205 30.0376 15.9563 30.7049 24.4913C31.1722 30.4739 32.7607 29.409 32.7607 29.409Z" fill="#003143"/>
<path d="M40.206 35.562C38.1824 35.9685 36.1059 34.137 35.7004 32.1165C35.2949 30.0961 36.7088 28.6526 38.7329 28.2461L40.0485 29.3902L41.9478 35.2125L40.206 35.562Z" fill="#F9B995"/>
<path d="M38.736 28.1476C42.7494 26.6565 44.0809 23.8899 44.4916 21.8309C44.7568 20.4578 44.732 19.0446 44.4186 17.6816L44.2942 17.7159C44.6031 19.0611 44.6269 20.4559 44.3641 21.8108C43.9595 23.8355 42.6477 26.558 38.6909 28.0272L38.736 28.1476Z" fill="#003143"/>
<path d="M89.4768 47.1361L91.8797 38.9978C91.9325 38.819 92.0221 38.6531 92.1426 38.5108C92.2631 38.3684 92.412 38.2526 92.5798 38.1708C92.7476 38.089 92.9306 38.043 93.1171 38.0357C93.3037 38.0283 93.4898 38.0599 93.6635 38.1282C93.9802 38.2644 94.2351 38.5132 94.3785 38.8263C94.5219 39.1394 94.5437 39.4945 94.4398 39.8227L93.9248 41.5678L98.067 36.8227C98.5184 36.2868 99.4152 35.9176 99.9838 36.4629C100.216 36.6583 100.376 36.9266 100.436 37.224C100.496 37.5214 100.453 37.8303 100.315 38.1004C100.321 38.1033 100.327 38.1069 100.332 38.1111C100.335 38.1149 100.339 38.119 100.341 38.1235L101.037 37.2973C101.166 37.1444 101.328 37.0222 101.51 36.9395C101.692 36.8569 101.891 36.8158 102.091 36.8194C102.291 36.8231 102.488 36.8712 102.667 36.9604C102.847 37.0496 103.004 37.1775 103.127 37.335C103.316 37.5868 103.413 37.8958 103.402 38.2104C103.39 38.525 103.27 38.8261 103.063 39.0633L102.767 39.4149C102.774 39.4283 102.777 39.4429 102.778 39.4578C103.033 39.2668 103.348 39.1726 103.667 39.1922C103.985 39.2117 104.286 39.3437 104.516 39.5644C104.761 39.8133 104.903 40.1451 104.913 40.4936C104.923 40.8421 104.801 41.1816 104.572 41.4444L103.836 42.3173C103.855 42.3122 103.875 42.3117 103.894 42.3159C103.914 42.3201 103.932 42.3288 103.947 42.3413C103.964 42.3573 103.977 42.378 103.983 42.4009C104.258 42.2939 104.56 42.2802 104.844 42.3619C105.127 42.4436 105.376 42.616 105.552 42.8528C105.732 43.1046 105.821 43.4097 105.805 43.7185C105.79 44.0274 105.67 44.322 105.466 44.5545L99.2595 51.9219C98.3911 52.9523 97.2343 53.7003 95.9373 54.0701C94.6403 54.44 93.2623 54.4147 91.9797 53.9976C90.8739 53.6381 89.952 52.8623 89.4101 51.835C88.8682 50.8078 88.749 49.6101 89.0777 48.4965L89.4768 47.1361Z" fill="#F9B995"/>
<path d="M96.2362 42.8189C96.2612 42.8389 96.2929 42.8487 96.3248 42.8461C96.3568 42.8434 96.3865 42.8286 96.4078 42.8047L100.341 38.2871C100.363 38.2623 100.373 38.2299 100.371 38.1971C100.369 38.1644 100.353 38.1339 100.329 38.1123C100.304 38.0908 100.271 38.08 100.238 38.0823C100.206 38.0847 100.175 38.0999 100.153 38.1247L96.2203 42.642C96.2096 42.6542 96.2015 42.6685 96.1963 42.6839C96.1912 42.6994 96.1891 42.7157 96.1903 42.7319C96.1914 42.7481 96.1958 42.764 96.2031 42.7785C96.2104 42.7931 96.2204 42.8061 96.2328 42.8167L96.2362 42.8189Z" fill="#C36937"/>
<path d="M98.1839 44.6056C98.2088 44.6259 98.2406 44.6358 98.2726 44.6331C98.3046 44.6305 98.3343 44.6155 98.3555 44.5915L102.745 39.55C102.756 39.5377 102.764 39.5234 102.769 39.508C102.774 39.4925 102.776 39.4762 102.775 39.46C102.774 39.4438 102.769 39.4279 102.762 39.4134C102.755 39.3988 102.745 39.3859 102.732 39.3752C102.707 39.3548 102.675 39.3447 102.642 39.347C102.61 39.3493 102.58 39.3638 102.557 39.3876L98.171 44.4291C98.1603 44.4414 98.1522 44.4557 98.147 44.4711C98.1419 44.4865 98.1398 44.5028 98.1409 44.5191C98.1421 44.5353 98.1464 44.5511 98.1537 44.5657C98.161 44.5802 98.1711 44.5932 98.1835 44.6039L98.1839 44.6056Z" fill="#C36937"/>
<path d="M100.282 46.5531C100.307 46.5734 100.339 46.5833 100.371 46.5807C100.403 46.578 100.433 46.5631 100.454 46.539L103.955 42.5178C103.975 42.4927 103.984 42.4611 103.981 42.4295C103.978 42.3979 103.963 42.3687 103.939 42.3479C103.915 42.327 103.884 42.3162 103.852 42.3175C103.82 42.3188 103.79 42.3322 103.768 42.355L100.266 46.3767C100.256 46.3889 100.247 46.4032 100.242 46.4186C100.237 46.4341 100.235 46.4504 100.236 46.4666C100.237 46.4828 100.242 46.4987 100.249 46.5132C100.256 46.5278 100.266 46.5408 100.279 46.5514L100.282 46.5531Z" fill="#C36937"/>
<path d="M102.147 50.2583C103.227 50.4958 103.909 51.5637 103.67 52.6428L94.8118 92.7595C94.7688 92.9483 94.6732 93.1199 94.5385 93.2591C92.5091 95.3564 90.3178 97.2917 87.9847 99.047C87.6344 99.3073 87.2841 99.5651 86.9289 99.8174C86.66 100.008 86.3459 100.129 86.0165 100.146C85.8746 100.153 85.7325 100.157 85.5903 100.157C83.9345 100.156 82.308 99.7211 80.874 98.8948C79.4399 98.0686 78.2488 96.8804 77.4202 95.4494L60.7192 66.6028C60.1651 65.6457 60.4929 64.4206 61.451 63.8681L74.3346 56.439C75.2903 55.8879 76.5118 56.2148 77.0645 57.1696L81.604 65.0107L85.2323 48.5823C85.4704 47.5043 86.5369 46.8231 87.615 47.0604L102.147 50.2583Z" fill="#EEF9FA"/>
<path d="M83.7757 100.094C74.1774 85.2002 75.6116 73.2851 74.1774 64.6797L58.2905 70.9682C65.9692 88.9733 77.8181 98.4393 83.7757 100.094Z" fill="#CBEBEE"/>
<path d="M75.51 69.868C75.4543 70.5357 75.3427 71.7269 75.1882 73.2946C74.4158 81.3088 72.6093 99.1703 71.7725 107.424C61.2017 110.798 49.8579 110.913 39.2207 107.754H39.2164C31.3607 105.407 24.132 101.332 18.0615 95.8293C18.0959 88.4491 17.9886 80.148 17.4908 74.8109C16.0018 58.8636 17.4093 56.3669 19.7222 54.0581C19.911 53.8697 20.1084 53.6855 20.3058 53.5056C22.6959 51.3382 25.6953 49.9247 30.0679 49.3332C32.96 48.9438 37.3111 48.6611 37.3111 48.6611C37.3111 48.6611 37.6802 56.1052 46.464 56.5164C58.4231 57.0779 57.625 48.6611 57.685 48.6611C60.6931 48.6611 67.3871 48.8496 71.6095 50.9955C71.6138 50.9955 71.6138 50.9956 71.6181 50.9998C72.4683 51.4129 73.2418 51.9677 73.9052 52.6403C78.7412 57.7547 76.3554 59.9417 75.51 69.868Z" fill="#EEF9FA"/>
<path d="M64.7451 87.12L72.8015 83.5284C72.9784 83.4499 73.1698 83.409 73.3634 83.4082C73.557 83.4075 73.7487 83.4469 73.9263 83.524C74.1038 83.6012 74.2633 83.7143 74.3947 83.8563C74.5261 83.9982 74.6265 84.1659 74.6896 84.3487C74.7955 84.6899 74.7708 85.0583 74.6202 85.3823C74.4695 85.7064 74.2037 85.9631 73.8743 86.1027L72.1467 86.8737L78.6931 86.941C79.4226 86.9358 80.3177 87.3941 80.2696 88.2097C80.2717 88.5247 80.1668 88.8311 79.9719 89.079C79.7771 89.3268 79.5039 89.5014 79.1969 89.5743C79.1987 89.581 79.1997 89.588 79.1999 89.5949C79.1992 89.6002 79.1982 89.6055 79.1969 89.6108L80.3194 89.603C80.5271 89.6017 80.7325 89.6466 80.9206 89.7344C81.1087 89.8223 81.2749 89.9509 81.4069 90.1109C81.539 90.2709 81.6336 90.4583 81.684 90.6594C81.7344 90.8605 81.7392 91.0703 81.6981 91.2736C81.6263 91.5924 81.447 91.877 81.1902 92.0797C80.9334 92.2824 80.6146 92.391 80.2872 92.3872L79.8096 92.3906C79.8034 92.4045 79.7947 92.4171 79.7839 92.4279C80.1071 92.5004 80.394 92.6853 80.5933 92.9495C80.7926 93.2137 80.8912 93.54 80.8717 93.8701C80.8394 94.2306 80.6722 94.5658 80.4034 94.8087C80.1346 95.0517 79.7839 95.1845 79.4213 95.1808L78.2348 95.189C78.2517 95.2006 78.2655 95.2162 78.2752 95.2343C78.2848 95.2524 78.2899 95.2725 78.2902 95.293C78.2892 95.3173 78.2813 95.3407 78.2674 95.3607C78.5377 95.5053 78.7529 95.7345 78.8799 96.0131C79.0068 96.2918 79.0384 96.6044 78.9699 96.9027C78.8919 97.2143 78.711 97.4904 78.4562 97.6866C78.2015 97.8827 77.8879 97.9873 77.5663 97.9834L67.5557 98.0545C66.1552 98.0644 64.7837 97.6567 63.6169 96.8834C62.4501 96.1102 61.5412 95.0068 61.0067 93.7146C60.5456 92.6004 60.538 91.3506 60.9854 90.2308C61.4328 89.111 62.3001 88.2096 63.4028 87.7179L64.7451 87.12Z" fill="#F9B995"/>
<path d="M72.7173 89.5396C72.7173 89.5737 72.7308 89.6064 72.755 89.6305C72.7791 89.6546 72.8119 89.6681 72.846 89.6681L79.0715 89.7242C79.1056 89.7245 79.1385 89.7113 79.1628 89.6874C79.1872 89.6635 79.201 89.6309 79.2013 89.5968C79.2015 89.5627 79.1883 89.5299 79.1643 89.5056C79.1404 89.4813 79.1077 89.4675 79.0736 89.4672L72.8473 89.4111C72.8132 89.4111 72.7804 89.4247 72.7563 89.4488C72.7321 89.4729 72.7186 89.5055 72.7186 89.5396H72.7173Z" fill="#C36937"/>
<path d="M72.6161 92.2818C72.6161 92.3159 72.6297 92.3486 72.6539 92.3727C72.678 92.3968 72.7107 92.4103 72.7449 92.4103L79.6921 92.4728C79.7262 92.4728 79.759 92.4593 79.7831 92.4352C79.8072 92.4111 79.8208 92.3784 79.8208 92.3444C79.8198 92.3106 79.806 92.2784 79.782 92.2545C79.7581 92.2307 79.7259 92.2168 79.6921 92.2159L72.7444 92.1533C72.7103 92.1533 72.6776 92.1668 72.6534 92.1909C72.6293 92.215 72.6157 92.2477 72.6157 92.2818H72.6161Z" fill="#C36937"/>
<path d="M72.4902 95.2453C72.4902 95.2793 72.5038 95.312 72.5279 95.3361C72.5521 95.3602 72.5848 95.3738 72.619 95.3738L78.1609 95.4239C78.195 95.4239 78.2277 95.4104 78.2519 95.3863C78.276 95.3622 78.2896 95.3295 78.2896 95.2954C78.2896 95.2613 78.276 95.2286 78.2519 95.2045C78.2277 95.1804 78.195 95.1669 78.1609 95.1669L72.619 95.1172C72.5848 95.1172 72.5521 95.1307 72.5279 95.1548C72.5038 95.1789 72.4902 95.2116 72.4902 95.2457V95.2453Z" fill="#C36937"/>
<path d="M37.1083 87.5174C34.1295 84.2077 35.4534 74.2784 35.4534 66.335L24.2002 91.1582L53.9881 103.404L64.2483 86.1935C55.8636 87.7381 39.83 90.5416 37.1083 87.5174Z" fill="#CBEBEE"/>
<path d="M44.7208 109.029L67.2272 101.417L34.7915 106.051C38.2337 107.904 42.8453 108.809 44.7208 109.029Z" fill="#CBEBEE"/>
<path d="M66.7738 99.6022C66.9309 100.639 66.2612 101.62 65.2389 101.852L39.2227 107.754C39.2215 107.754 39.2202 107.755 39.219 107.755C39.2174 107.755 39.2158 107.754 39.2142 107.754C31.3595 105.407 24.1315 101.332 18.0617 95.8298C17.4095 95.2387 16.7715 94.6331 16.1479 94.0132C15.2684 93.1369 14.4197 92.2322 13.602 91.2992C13.233 90.8783 13.0677 90.3179 13.1369 89.7625L16.9246 59.3485C17.3497 56.8266 18.761 54.5765 20.848 53.0932C22.9351 51.61 25.5269 51.015 28.0534 51.4393C30.5799 51.8636 32.834 53.2724 34.32 55.3557C35.8059 57.439 36.4019 60.0262 35.9768 62.5482L33.7418 89.204C33.6288 90.551 34.8571 91.6198 36.1756 91.3219L62.4505 85.3848C63.583 85.1288 64.6947 85.8879 64.8687 87.0358L66.7738 99.6022Z" fill="#EEF9FA"/>
</svg>
