<svg width="20" height="20" viewBox="0 0 20 20" fill="none" xmlns="http://www.w3.org/2000/svg">
<g clip-path="url(#clip0_5310_879)">
<path d="M17.5 15.8333V4.16667C17.5 3.25 16.75 2.5 15.8333 2.5H4.16667C3.25 2.5 2.5 3.25 2.5 4.16667V15.8333C2.5 16.75 3.25 17.5 4.16667 17.5H15.8333C16.75 17.5 17.5 16.75 17.5 15.8333ZM7.41667 11.65L9.16667 13.7583L11.75 10.4333C11.9167 10.2167 12.25 10.2167 12.4167 10.4417L15.3417 14.3417C15.55 14.6167 15.35 15.0083 15.0083 15.0083H5.01667C4.66667 15.0083 4.475 14.6083 4.69167 14.3333L6.76667 11.6667C6.925 11.45 7.24167 11.4417 7.41667 11.65Z" fill="#109DAD"/>
</g>
<defs>
<clipPath id="clip0_5310_879">
<rect width="20" height="20" fill="white"/>
</clipPath>
</defs>
</svg>
