<svg width="106" height="106" viewBox="0 0 106 106" fill="none" xmlns="http://www.w3.org/2000/svg">
<path d="M52.7265 105.168C81.7122 105.168 105.21 81.7125 105.21 52.7788C105.21 23.8451 81.7122 0.389648 52.7265 0.389648C23.7407 0.389648 0.243164 23.8451 0.243164 52.7788C0.243164 81.7125 23.7407 105.168 52.7265 105.168Z" fill="white"/>
<path d="M52.7265 105.168C81.7122 105.168 105.21 81.7125 105.21 52.7788C105.21 23.8451 81.7122 0.389648 52.7265 0.389648C23.7407 0.389648 0.243164 23.8451 0.243164 52.7788C0.243164 81.7125 23.7407 105.168 52.7265 105.168Z" fill="#96D4DB"/>
<path d="M45.3566 8.66504C45.3566 8.66504 30.1317 8.66504 39.399 32.4953L40.9225 31.0178L43.3761 30.742" fill="#003143"/>
<path d="M63.5166 49.1761C63.4565 49.1684 62.7871 60.2529 49.887 59.2848C40.9564 58.617 37.7721 49.159 37.5674 49.159C38.5303 48.9547 39.7202 48.645 40.1931 48.5383C41.2238 48.2996 42.1572 47.7532 42.8693 46.9719C43.5813 46.1906 44.0381 45.2114 44.179 44.1646C44.4403 42.5935 43.9971 34.5554 44.1335 32.9658L57.8417 36.0198C57.6503 39.3776 56.3098 47.1608 61.0085 48.5383C61.7908 48.7666 62.6331 48.9765 63.5166 49.1761Z" fill="#D1876A"/>
<path d="M58.0342 45.3583C57.8197 44.6675 57.6815 43.9554 57.6219 43.2346C57.4713 41.5897 57.5014 39.9334 57.7115 38.295C54.9253 37.9196 52.3005 36.7716 50.1353 34.9814C49.8804 35.9199 48.4807 40.0204 48.8681 40.9122C49.601 42.5981 53.0437 45.3583 58.0342 45.3583Z" fill="#77371E"/>
<path d="M55.7961 41.8293C50.3894 42.3146 43.41 40.1091 42.0107 32.9148L40.7479 26.4234C39.3486 19.2274 41.9996 12.6632 48.7854 11.3482C55.5713 10.0328 61.7779 14.882 63.1776 22.0763L63.7354 24.95C63.9104 25.94 64.0174 26.9407 64.0555 27.9453C64.1766 30.601 64.3503 34.6372 63.0716 37.621C61.865 40.4385 59.2513 41.5197 55.7961 41.8293Z" fill="#D1876A"/>
<path d="M42.8598 35.0246C40.7975 35.4243 38.6975 33.546 38.2967 31.4874C37.8959 29.4289 39.3476 27.9699 41.4094 27.5703L42.7396 28.7435L44.632 34.6811L42.8598 35.0246Z" fill="#D1876A"/>
<path d="M44.315 31.3383C44.315 31.3383 43.1628 21.009 46.1481 19.8191C48.1361 19.0262 53.672 21.0445 58.1488 19.3243C60.1073 18.5713 62.1241 18.7247 62.4931 19.646C62.6394 20.0105 64.8392 12.8826 60.9133 9.32619C57.7877 6.4949 46.9417 7.56744 43.3716 9.32618C33.4863 14.1959 41.0649 28.0962 41.0649 28.0962L42.1677 31.5297L44.315 31.3383Z" fill="#003143"/>
<path d="M35.1657 69.5011L22.2239 95.4196C22.1381 95.3553 22.0565 95.2954 21.9707 95.2397L34.8953 69.3683C34.9139 69.3323 34.9458 69.3049 34.9843 69.2921C35.0228 69.2793 35.0648 69.2821 35.1013 69.2998C35.1366 69.3179 35.1632 69.3494 35.1752 69.3871C35.1873 69.4249 35.1839 69.4659 35.1657 69.5011Z" fill="white"/>
<path d="M100.784 73.87C98.2043 79.7055 94.5823 85.0236 90.0948 89.5642L78.9295 80.2393L64.7476 68.3916L77.6808 52.676L77.7194 52.6289L100.784 73.87Z" fill="white"/>
<path d="M90.0388 89.4221C79.4476 80.626 80.5508 66.6951 79.4476 61.6201L70.5112 73.2043L90.0388 89.4221Z" fill="#F0F0F0"/>
<path d="M81.346 60.6319C81.3975 64.1828 80.0072 68.1749 79.5438 73.5805C79.4494 74.677 79.2262 77.0928 78.9301 80.2411C78.4452 85.4539 77.7587 92.6628 77.1579 99.1606C68.5668 103.662 58.895 105.701 49.2141 105.052C39.5332 104.404 30.2212 101.092 22.3098 95.4855C22.121 95.3441 21.9322 95.2071 21.7434 95.0743C21.2413 87.7283 20.6492 80.0183 20.1085 75.1482C19.0915 66.0546 17.7055 61.5271 18.4822 58.4688C18.5444 58.2084 18.6276 57.9534 18.7311 57.7064C20.9667 52.2922 28.0855 49.8764 32.9087 49.2254C35.8523 48.827 40.2807 48.54 40.2807 48.54C40.2807 48.54 40.654 56.113 49.5923 56.5328C61.7617 57.1067 60.9507 48.54 61.0107 48.54C62.9803 48.54 73.7122 49.9707 76.3941 51.7183C76.8438 52.0096 77.2738 52.3302 77.6814 52.6777C78.8467 53.6479 79.7803 54.8654 80.4143 56.2414C81.0482 57.6175 81.3666 59.1175 81.346 60.6319Z" fill="white"/>
<path d="M38.0753 103.323C22.1884 93.394 34.1036 72.5425 36.4204 66.2539L17.8857 89.7532C22.5194 98.3586 34.5449 102.661 38.0753 103.323Z" fill="#F0F0F0"/>
<path d="M36.539 66.1217L22.3099 95.4841C22.1211 95.3427 21.9323 95.2056 21.7435 95.0728C16.2275 91.0355 11.5495 85.9673 7.96924 80.1497L18.4823 58.4674L18.8985 57.6064L36.539 66.1217Z" fill="white"/>
</svg>
