<svg width="182" height="182" viewBox="0 0 182 182" fill="none" xmlns="http://www.w3.org/2000/svg">
<path d="M90.8183 137.27C118.658 137.27 141.227 114.742 141.227 86.9519C141.227 59.162 118.658 36.6338 90.8183 36.6338C62.9784 36.6338 40.4097 59.162 40.4097 86.9519C40.4097 114.742 62.9784 137.27 90.8183 137.27Z" fill="white"/>
<g filter="url(#filter0_d_867_20043)">
<path d="M90.8183 137.27C118.658 137.27 141.227 114.742 141.227 86.9519C141.227 59.162 118.658 36.6338 90.8183 36.6338C62.9784 36.6338 40.4097 59.162 40.4097 86.9519C40.4097 114.742 62.9784 137.27 90.8183 137.27Z" fill="white"/>
</g>
<path d="M76.9365 58.4123C76.9365 58.4123 77.4828 73.5672 87.6161 74.2637L89.3325 54.2793L76.9365 58.4123Z" fill="#003143"/>
<path d="M78.8874 77.3588C82.2029 77.3588 84.8906 74.6759 84.8906 71.3664C84.8906 68.0569 82.2029 65.374 78.8874 65.374C75.572 65.374 72.8843 68.0569 72.8843 71.3664C72.8843 74.6759 75.572 77.3588 78.8874 77.3588Z" fill="#003143"/>
<path d="M102.376 81.2972C102.323 81.2899 101.73 91.1168 90.2932 90.2601C82.3758 89.6694 79.5532 81.2843 79.3721 81.2843C80.2768 81.1343 81.1693 80.9183 82.0424 80.638C83.2889 79.9693 84.8316 79.2737 85.2332 76.8571C85.4649 75.4641 85.0723 68.3379 85.1929 66.9287L97.346 69.6366C97.1743 72.6127 95.9874 79.5128 100.153 80.7344C100.846 80.9361 101.592 81.122 102.376 81.2972Z" fill="#D1876A"/>
<path d="M97.5158 77.913C97.3253 77.3 97.2027 76.668 97.1502 76.0283C97.0167 74.5701 97.0434 73.1018 97.2296 71.6494C94.7595 71.3165 92.4325 70.2988 90.5128 68.7119C90.2871 69.5437 89.0461 73.179 89.3898 73.9693C90.0395 75.4667 93.0917 77.913 97.5158 77.913Z" fill="#77371E"/>
<path d="M95.6117 75.2646C90.7984 75.3259 84.7811 72.9015 84.0353 66.4474L83.3625 60.622C82.6163 54.1679 85.4076 48.543 91.4957 47.8435C97.5834 47.1428 102.738 51.8506 103.484 58.3052L103.782 60.8833C104.068 63.3612 104.2 75.1558 95.6117 75.2646Z" fill="#D1876A"/>
<path d="M78.0211 62.2944C78.2725 62.382 78.5499 62.2636 78.8146 62.2346L83.6664 61.704C83.801 61.6893 83.9345 61.6621 84.0615 61.6152C88.1184 60.1158 89.8084 53.3722 89.8084 53.3722C89.8084 53.3722 93.1789 57.1981 102.994 55.9516C103.98 55.8263 104.679 54.9519 104.486 53.9764C103.745 50.2338 100.599 41.7903 87.3329 43.3705C81.4323 44.0743 76.9829 49.981 76.937 57.7043C76.9159 61.3052 77.5765 62.1393 78.0211 62.2944Z" fill="#003143"/>
<path d="M84.6414 68.3702C82.7911 68.5844 81.0631 66.7802 80.8499 64.9332C80.6366 63.0863 82.0183 61.8955 83.8686 61.6826L84.965 62.81L86.2321 68.1869L84.6414 68.3702Z" fill="#D1876A"/>
<path d="M131.811 116.238C128.815 120.41 125.199 124.102 121.087 127.186C119.734 128.206 118.329 129.155 116.878 130.03L101.181 95.5837L118.757 87.5996L131.811 116.238Z" fill="#109DAD"/>
<path d="M117.858 121.353C114.946 117.381 115.1 107.342 115.541 102.818C108.392 110.497 113.445 124.111 116.865 129.958L121.83 126.649C121.72 126.538 120.771 125.325 117.858 121.353Z" fill="#0F8C9A"/>
<path d="M119.457 91.6471C119.422 95.0781 118.242 99.1687 117.822 104.112C117.71 105.431 114.873 109.247 114.461 113.492C113.942 118.898 115.097 127.327 115.251 130.973C107.278 135.377 98.2582 137.543 89.1503 137.241C80.0424 136.94 71.1864 134.181 63.5229 129.259C63.3169 119.896 63.0723 108.335 62.7591 105.564C61.7421 96.4145 62.0167 90.6277 63.4843 87.9207C65.8829 83.5002 70.1525 82.151 74.6195 81.5428C77.3486 81.1744 81.4466 80.9131 81.4466 80.9131C81.4466 80.9131 81.7941 87.9249 90.0759 88.3147C101.348 88.8458 100.597 80.9131 100.653 80.9131C104.743 80.9131 112.492 81.8897 115.462 83.9114C118.611 86.0488 119.495 88.5846 119.457 91.6471Z" fill="#109DAD"/>
<path d="M79.1342 135.916C70.6612 126.119 72.294 108.665 74.1695 101.163L62.2544 128.303C69.6683 133.864 76.5967 135.695 79.1342 135.916Z" fill="#0F8C9A"/>
<path d="M80.5116 96.9842L65.2184 130.298C59.3465 126.838 54.2375 122.226 50.1997 116.742L62.957 88.9512L80.5116 96.9842Z" fill="#109DAD"/>
<defs>
<filter id="filter0_d_867_20043" x="0.409668" y="0.633789" width="180.817" height="180.637" filterUnits="userSpaceOnUse" color-interpolation-filters="sRGB">
<feFlood flood-opacity="0" result="BackgroundImageFix"/>
<feColorMatrix in="SourceAlpha" type="matrix" values="0 0 0 0 0 0 0 0 0 0 0 0 0 0 0 0 0 0 127 0" result="hardAlpha"/>
<feOffset dy="4"/>
<feGaussianBlur stdDeviation="20"/>
<feComposite in2="hardAlpha" operator="out"/>
<feColorMatrix type="matrix" values="0 0 0 0 0.109804 0 0 0 0 0.737255 0 0 0 0 0.737255 0 0 0 0.08 0"/>
<feBlend mode="normal" in2="BackgroundImageFix" result="effect1_dropShadow_867_20043"/>
<feBlend mode="normal" in="SourceGraphic" in2="effect1_dropShadow_867_20043" result="shape"/>
</filter>
</defs>
</svg>
