<svg width="188" height="188" viewBox="0 0 188 188" fill="none" xmlns="http://www.w3.org/2000/svg">
<path d="M147.96 91.9677C147.616 100.657 145.169 109.133 140.829 116.673C136.489 124.213 130.385 130.592 123.039 135.265C115.692 139.938 107.321 142.766 98.6416 143.507C89.9619 144.248 81.2315 142.881 73.1964 139.522C69.4278 137.945 65.8536 135.941 62.5443 133.548C56.2192 128.99 50.9548 123.122 47.1112 116.346V116.34C43.0129 109.092 40.6541 100.994 40.2201 92.6822C39.7861 84.3707 41.2888 76.072 44.61 68.438C47.9313 60.804 52.9806 54.0428 59.3613 48.6855C65.7421 43.3281 73.2804 39.5207 81.384 37.5623C89.4877 35.6039 97.9359 35.5478 106.065 37.3985C114.194 39.2492 121.782 42.9563 128.234 48.2285C134.685 53.5006 139.824 60.1943 143.247 67.7835C146.669 75.3727 148.283 83.6508 147.959 91.9673L147.96 91.9677Z" fill="white"/>
<g filter="url(#filter0_d_867_19983)">
<path d="M147.96 91.9677C147.616 100.657 145.169 109.133 140.829 116.673C136.489 124.213 130.385 130.592 123.039 135.265C115.692 139.938 107.321 142.766 98.6416 143.507C89.9619 144.248 81.2315 142.881 73.1964 139.522C69.4278 137.945 65.8536 135.941 62.5443 133.548C56.2191 128.99 50.9548 123.122 47.1112 116.346V116.34C43.0129 109.092 40.6541 100.994 40.2201 92.6822C39.7861 84.3707 41.2888 76.072 44.61 68.438C47.9313 60.804 52.9806 54.0428 59.3613 48.6855C65.7421 43.3281 73.2804 39.5207 81.384 37.5623C89.4877 35.6039 97.9359 35.5478 106.065 37.3985C114.194 39.2492 121.782 42.9563 128.234 48.2285C134.685 53.5006 139.824 60.1943 143.247 67.7835C146.669 75.3727 148.283 83.6512 147.96 91.9677Z" fill="white"/>
</g>
<path d="M106.826 48.8857C106.826 48.8857 119.718 49.0434 115.273 66.7786L114.063 66.8377L111.605 66.9572" fill="#003143"/>
<path d="M92.4302 85.3841C92.4903 85.3785 92.728 96.4407 105.609 95.9759C114.527 95.6555 118.064 86.3611 118.268 86.3688C117.317 86.1285 115.714 85.7692 115.297 85.5267C113.926 84.7219 112.224 83.8733 111.878 81.1414C111.679 79.5669 112.431 71.581 112.357 69.9932L98.5895 72.5053C98.6505 75.8558 99.6842 83.6566 94.9525 84.8469C94.1646 85.044 93.318 85.22 92.4302 85.3841Z" fill="#86452B"/>
<path d="M98.0361 81.7943C98.2768 81.1148 98.4422 80.411 98.5292 79.6955C98.7428 78.0635 98.7769 76.413 98.6309 74.7735C101.42 74.5072 104.078 73.4655 106.303 71.7666C106.52 72.7089 107.755 76.8475 107.333 77.7204C106.539 79.3712 103.005 81.9871 98.0361 81.7943Z" fill="#003143"/>
<path d="M101.161 79.841C106.558 79.4555 113.069 76.1758 113.295 68.8757L113.499 62.29C113.725 54.9912 110.066 48.9555 103.184 48.7431C96.2992 48.5289 90.9697 54.2883 90.7435 61.5871L90.6534 64.5028C90.6397 65.5048 90.6945 66.5066 90.8173 67.5011C91.1229 70.1311 91.5975 74.13 93.3323 76.8607C94.9698 79.4384 97.7135 80.0865 101.161 79.841Z" fill="#86452B"/>
<path d="M112.798 71.0875C114.89 71.1518 116.655 68.9698 116.72 66.8817C116.785 64.7936 115.124 63.5891 113.033 63.5244L111.911 64.8904L110.999 71.0318L112.798 71.0875Z" fill="#86452B"/>
<path d="M91.0979 69.7065C91.4758 70.1538 91.9598 70.4997 92.5059 70.7126C93.052 70.9255 93.6427 70.9987 94.2243 70.9255C95.4687 70.7692 96.2939 71.2789 97.3328 71.1765C98.2047 71.0909 98.3558 70.6887 99.8439 70.6009C105.588 70.2612 109.899 69.8997 110.179 62.7041L113.834 59.4629C113.834 59.4629 115.468 79.4027 104.664 82.0532C98.0245 83.6809 91.7978 83.086 90.997 76.8618C90.3465 71.8045 91.0979 69.7065 91.0979 69.7065Z" fill="#003143"/>
<path d="M110.777 67.6951C110.777 67.6951 110.259 57.3525 107.133 56.6573C105.05 56.1943 99.9285 59.0616 95.2499 58.0824C93.2035 57.654 91.2447 58.1252 91.0284 59.0907C90.9426 59.4728 89.3231 56.0842 92.6161 51.9611C95.2375 48.6783 103.762 47.7548 107.554 48.9156C118.055 52.1307 113.456 63.99 113.456 63.99L112.92 67.5426L110.777 67.6951Z" fill="#003143"/>
<path d="M115.549 59.3543C118.64 59.3543 121.145 56.8532 121.145 53.768C121.145 50.6827 118.64 48.1816 115.549 48.1816C112.458 48.1816 109.953 50.6827 109.953 53.768C109.953 56.8532 112.458 59.3543 115.549 59.3543Z" fill="#003143"/>
<path d="M63.1768 85.6852L63.545 76.5895C63.5534 76.3895 63.52 76.1899 63.4468 76.0035C63.3736 75.8171 63.2623 75.6479 63.12 75.5069C62.9776 75.3658 62.8074 75.2559 62.6202 75.1842C62.4329 75.1125 62.2327 75.0805 62.0324 75.0903C61.6634 75.1201 61.3187 75.2855 61.065 75.5546C60.8113 75.8237 60.6667 76.1772 60.6593 76.5467L60.5803 78.4973L58.007 72.2509C57.7332 71.5514 56.9488 70.8678 56.1829 71.2263C55.8791 71.345 55.6247 71.5629 55.461 71.8445C55.2974 72.1261 55.2342 72.4548 55.2817 72.7769C55.2745 72.7778 55.2673 72.7794 55.2603 72.7816C55.2554 72.7843 55.2508 72.7875 55.2465 72.791L54.8243 71.7125C54.746 71.5127 54.624 71.3329 54.4673 71.1861C54.3105 71.0393 54.123 70.9293 53.9182 70.8641C53.7135 70.7989 53.4967 70.7801 53.2838 70.8091C53.0709 70.8382 52.8671 70.9143 52.6874 71.0319C52.408 71.2227 52.2027 71.5035 52.106 71.8273C52.0092 72.1511 52.0267 72.4983 52.1557 72.8107L52.3355 73.2695C52.3246 73.2809 52.3158 73.2941 52.3093 73.3085C52.1159 73.0268 51.8284 72.8229 51.4983 72.7332C51.1682 72.6435 50.8169 72.6739 50.5071 72.8189C50.1727 72.9879 49.9145 73.2765 49.7839 73.6272C49.6533 73.9779 49.6599 74.3648 49.8025 74.7108L50.2488 75.851C50.2311 75.8393 50.211 75.832 50.1899 75.8296C50.1689 75.8272 50.1476 75.8299 50.1277 75.8373C50.1047 75.8476 50.085 75.8642 50.0711 75.8853C49.8289 75.6819 49.5265 75.5636 49.2103 75.5485C48.8941 75.5334 48.5818 75.6224 48.3212 75.8018C48.0515 75.9959 47.8553 76.2752 47.7643 76.5944C47.6734 76.9137 47.693 77.2542 47.82 77.561L51.5863 87.1809C52.1131 88.5267 53.0306 89.6848 54.2211 90.5067C55.4116 91.3286 56.8209 91.7769 58.2683 91.7941C59.5164 91.8088 60.7211 91.3372 61.6265 90.4795C62.5319 89.6218 63.0667 88.4456 63.1172 87.2006L63.1768 85.6852Z" fill="#86452B"/>
<g opacity="0.2">
<path d="M57.7982 78.9722C57.7657 78.9848 57.7294 78.9842 57.6973 78.9704C57.6652 78.9566 57.6398 78.9308 57.6266 78.8986L55.188 72.9546C55.1803 72.9382 55.176 72.9205 55.1754 72.9024C55.1748 72.8843 55.1778 72.8663 55.1844 72.8495C55.191 72.8327 55.2009 72.8173 55.2136 72.8044C55.2263 72.7916 55.2415 72.7814 55.2583 72.7746C55.275 72.7677 55.293 72.7644 55.3111 72.7647C55.3292 72.765 55.347 72.769 55.3635 72.7764C55.3801 72.7838 55.3949 72.7945 55.4071 72.8079C55.4194 72.8212 55.4288 72.8368 55.4347 72.8539L57.8733 78.7979C57.88 78.8141 57.8834 78.8314 57.8833 78.8489C57.8832 78.8664 57.8797 78.8836 57.8729 78.8998C57.8662 78.9159 57.8563 78.9305 57.8438 78.9428C57.8314 78.9551 57.8166 78.9648 57.8004 78.9714L57.7982 78.9722Z" fill="#003143"/>
</g>
<g opacity="0.2">
<path d="M55.2006 80.1185C55.168 80.1312 55.1317 80.1305 55.0995 80.1166C55.0674 80.1028 55.042 80.0768 55.029 80.0444L52.3076 73.4108C52.2948 73.3784 52.2953 73.3423 52.3089 73.3102C52.3226 73.2782 52.3483 73.2528 52.3805 73.2395C52.413 73.2279 52.4487 73.2289 52.4805 73.2423C52.5122 73.2557 52.5378 73.2805 52.5522 73.3118L55.2735 79.9455C55.2869 79.9781 55.2867 80.0147 55.273 80.0473C55.2593 80.0798 55.2333 80.1056 55.2006 80.1189V80.1185Z" fill="#003143"/>
</g>
<g opacity="0.2">
<path d="M52.3959 81.3756C52.3632 81.3883 52.3269 81.3876 52.2948 81.3738C52.2627 81.3599 52.2373 81.3339 52.2242 81.3015L50.0534 76.0103C50.04 75.9777 50.0402 75.9411 50.0538 75.9086C50.0674 75.8762 50.0934 75.8504 50.1261 75.8371C50.1588 75.8237 50.1954 75.8239 50.2279 75.8375C50.2605 75.8511 50.2863 75.8771 50.2997 75.9097L52.4718 81.1996C52.4851 81.2322 52.4849 81.2689 52.4713 81.3014C52.4576 81.3339 52.4316 81.3597 52.3989 81.3731L52.3959 81.3756Z" fill="#003143"/>
</g>
<path d="M93.3394 99.947L71.1633 133.981C70.3564 135.218 69.2761 136.254 68.0055 137.009C66.1156 135.969 64.2917 134.813 62.5443 133.549C58.8197 130.866 55.454 127.719 52.529 124.184L48.1198 90.0587C47.9812 88.9864 48.7199 87.9982 49.7874 87.8275L64.4639 85.48C65.583 85.301 66.6271 86.0868 66.7649 87.2118L68.638 102.505L77.1549 89.4353L93.3394 99.947Z" fill="#109DAD"/>
<path d="M62.6104 133.583C72.672 124.316 78.2766 113.062 78.8282 108.76C84.9182 117.498 75.1875 132.921 68.2369 137.224L62.6104 133.583Z" fill="#0F8C9A"/>
<path d="M134.749 113.007C134.269 116.624 133.801 121.591 133.383 126.727C131.749 128.463 130.001 130.09 128.152 131.596C126.977 132.549 125.763 133.455 124.512 134.314C117.748 138.923 110.023 141.937 101.92 143.128C93.8177 144.318 85.55 143.655 77.7421 141.187C77.6357 136.416 77.4906 129.981 77.3464 124.085C77.1812 117.285 77.0143 111.195 76.9246 109.195C76.5547 101.254 74.4461 95.9562 76.0402 91.624C76.5168 90.3417 77.2832 89.1862 78.2797 88.2475C81.9936 84.6191 91.2189 84.7017 94.9191 84.8452C94.9835 84.8478 93.8403 93.3721 106.014 93.2693C114.963 93.196 115.634 85.6475 115.634 85.6475C115.634 85.6475 120.043 86.1054 122.971 86.6129C127.761 87.4503 130.875 89.2039 133.298 91.8228C135.559 94.2647 136.893 96.857 134.749 113.007Z" fill="#109DAD"/>
<path d="M112.918 140.203C119.538 131.201 120.31 114.277 119.869 107.105L131.453 128.288C124.039 136.231 115.897 139.21 112.918 140.203Z" fill="#0F8C9A"/>
<path d="M140.762 116.834C137.485 122.474 133.213 127.476 128.152 131.597C126.976 132.551 125.763 133.457 124.512 134.316L115.851 101.423L135.357 96.3018L140.762 116.834Z" fill="#109DAD"/>
<defs>
<filter id="filter0_d_867_19983" x="0.146973" y="0.0507812" width="187.853" height="187.652" filterUnits="userSpaceOnUse" color-interpolation-filters="sRGB">
<feFlood flood-opacity="0" result="BackgroundImageFix"/>
<feColorMatrix in="SourceAlpha" type="matrix" values="0 0 0 0 0 0 0 0 0 0 0 0 0 0 0 0 0 0 127 0" result="hardAlpha"/>
<feOffset dy="4"/>
<feGaussianBlur stdDeviation="20"/>
<feComposite in2="hardAlpha" operator="out"/>
<feColorMatrix type="matrix" values="0 0 0 0 0.109804 0 0 0 0 0.737255 0 0 0 0 0.737255 0 0 0 0.08 0"/>
<feBlend mode="normal" in2="BackgroundImageFix" result="effect1_dropShadow_867_19983"/>
<feBlend mode="normal" in="SourceGraphic" in2="effect1_dropShadow_867_19983" result="shape"/>
</filter>
</defs>
</svg>
