<svg width="140" height="94" viewBox="0 0 140 94" fill="none" xmlns="http://www.w3.org/2000/svg">
<path d="M35.6753 70.9837C37.2472 70.9837 38.7364 71.0664 40.3083 70.9837C41.5493 70.901 42.7075 70.9009 43.9485 70.8182C44.6931 70.7355 45.5204 70.8182 46.2649 70.6528C47.0095 70.57 47.7541 70.6528 48.4987 70.4873C49.1606 70.4046 49.9052 70.4046 50.567 70.3218C51.808 70.1564 53.049 70.1564 54.2899 69.9909C55.3654 69.9082 56.5237 69.8254 57.5992 69.66C58.6747 69.5772 59.7502 69.4945 60.8257 69.3291C61.8185 69.2463 62.8113 69.1636 63.8041 68.9981C64.7968 68.9154 65.7069 68.8327 66.6997 68.6672C67.527 68.5845 68.3543 68.5017 69.1816 68.3363C70.2571 68.1708 71.3326 68.1708 72.4081 67.9226C72.8218 67.8399 73.3182 67.8399 73.7318 67.7572C74.3937 67.6744 74.9728 67.5917 75.6347 67.5089C76.8756 67.4262 78.1166 67.2608 79.3576 67.0126C80.0194 66.9299 80.764 66.8471 81.4259 66.6816C82.6668 66.5162 83.8251 66.3507 85.0661 66.1025C85.397 66.0198 85.8107 66.0198 86.1416 65.9371C87.2998 65.7716 88.3753 65.6061 89.5336 65.4407C90.6091 65.2752 91.6846 65.027 92.7601 64.8616C93.7529 64.6961 94.6629 64.5306 95.6557 64.2824C96.7312 64.0342 97.8067 63.786 98.7995 63.4551C99.7095 63.2069 100.62 62.9587 101.53 62.6278C102.605 62.2969 103.598 61.8832 104.673 61.4696C106.411 60.8077 108.148 59.9804 109.803 59.1531C111.209 58.4085 112.616 57.5812 113.857 56.6711C115.511 55.5129 117.083 54.2719 118.407 52.7827C119.648 51.3763 120.723 49.8871 121.468 48.1498C121.882 47.2397 122.13 46.3297 122.295 45.4196C122.461 44.5096 122.626 43.5168 122.543 42.6068C122.461 41.7795 122.461 40.9521 122.13 40.2075C121.882 39.6284 121.385 39.2148 120.806 38.9666C120.227 38.7184 119.565 38.5529 118.986 38.4702C118.159 38.3047 117.331 38.3875 116.504 38.3047C115.925 38.222 115.429 38.1393 114.849 38.222C113.443 38.3874 111.954 38.222 110.547 38.3875C108.314 38.5529 106.163 38.5529 103.929 38.4702C102.853 38.4702 101.695 38.3047 100.702 37.8911C99.6268 37.4774 98.8822 36.8155 98.4686 35.74C98.2204 34.9955 98.1376 34.3336 98.3031 33.589C98.7168 30.9416 99.875 28.7079 101.364 26.4741C102.274 24.9849 103.432 23.6612 104.673 22.503C106.328 20.9311 108.231 19.6074 110.299 18.6146C111.209 18.201 112.119 17.7873 113.112 17.4564C113.774 17.2082 114.518 17.0427 115.263 16.96C117.745 16.4636 120.144 16.5463 122.626 16.5463C122.709 16.5463 122.874 16.5463 122.957 16.5463C123.288 16.7118 123.536 16.8772 123.536 17.2909C123.536 18.2837 123.536 19.2765 123.536 20.2692C123.536 20.6002 123.454 20.6002 123.123 20.6002C122.461 20.6002 121.882 20.6002 121.22 20.6002C119.896 20.5174 118.655 20.6829 117.331 20.7656C116.421 20.8483 115.594 21.0965 114.684 21.262C113.36 21.5929 112.119 22.1721 110.961 22.8339C109.224 23.8267 107.652 25.1504 106.411 26.6396C105.087 28.2115 104.094 30.0316 103.184 31.9344C103.019 32.2653 102.936 32.5962 102.936 33.0099C102.936 33.5063 103.184 33.7545 103.681 33.92C105.004 34.2509 106.328 34.2509 107.735 34.1681C108.562 34.0854 109.389 34.0854 110.216 34.0854C112.864 33.8372 115.511 33.8372 118.076 34.0027C119.648 34.0854 121.22 34.3336 122.626 35.0782C124.364 35.9055 125.605 37.3119 126.515 38.9666C127.507 40.7867 127.59 42.6895 127.425 44.6751C127.259 45.916 126.928 47.0743 126.432 48.2325C125.605 50.3835 124.364 52.2864 122.957 54.1065C121.551 55.9265 119.896 57.5812 118.076 59.0703C116.587 60.2286 115.098 61.3041 113.443 62.2969C112.45 62.876 111.457 63.2896 110.465 63.786C109.389 64.2824 108.314 64.7788 107.238 65.1925C106.328 65.5234 105.418 65.8543 104.508 66.1853C103.515 66.5162 102.44 66.8471 101.447 67.178C100.62 67.4262 99.7923 67.5917 98.965 67.8399C98.2204 68.0881 97.4758 68.1708 96.7312 68.419C96.2348 68.5845 95.6557 68.6672 95.1593 68.7499C94.4975 68.9154 93.8356 69.0808 93.1738 69.1636C92.5119 69.329 91.9328 69.4118 91.2709 69.4945C90.6091 69.66 89.8645 69.66 89.2026 69.9082C88.8717 69.9909 88.5408 69.9909 88.2099 70.0736C87.4653 70.1564 86.638 70.3218 85.8934 70.4873C85.1488 70.6528 84.3215 70.7355 83.5769 70.901C83.1632 70.9837 82.7496 71.0664 82.2532 71.0664C81.3431 71.2319 80.3504 71.3146 79.4403 71.4801C79.0267 71.5628 78.6957 71.5628 78.2821 71.6455C77.703 71.7283 77.1238 71.811 76.5447 71.8937C75.6347 72.0592 74.7246 72.0592 73.8146 72.3074C73.4009 72.3901 72.9873 72.3901 72.5736 72.4728C71.9945 72.5556 71.4154 72.6383 70.7535 72.7211C69.678 72.8865 68.6025 72.9693 67.6097 73.1347C67.196 73.2174 66.6997 73.2174 66.286 73.3002C65.5414 73.3829 64.8796 73.4656 64.135 73.5484C63.1422 73.6311 62.1494 73.7138 61.1566 73.8793C60.1639 73.962 59.1711 74.0448 58.261 74.2102C57.0201 74.2929 55.7791 74.4584 54.5381 74.5411C53.959 74.6239 53.3799 74.5411 52.8835 74.7066C52.0562 74.8721 51.3116 74.7894 50.4843 74.8721C49.8224 74.9548 49.0778 74.8721 48.416 75.0375C47.5059 75.203 46.5959 75.0375 45.6858 75.203C44.6103 75.3685 43.5348 75.203 42.542 75.3685C40.8047 75.5339 39.0673 75.4512 37.2472 75.5339C36.6681 75.5339 36.089 75.6167 35.5098 75.6167C33.0279 75.4512 30.4632 75.6167 27.9813 75.4512C27.2367 75.4512 26.5748 75.3685 25.8303 75.2857C25.0029 75.203 24.0929 75.1203 23.2656 74.9548C22.1901 74.7893 21.1146 74.5411 20.039 74.293C19.3772 74.1275 18.6326 73.962 17.9708 73.7966C17.2262 73.5484 16.4816 73.3002 15.737 72.9692C14.7442 72.5556 13.8342 72.0592 12.8414 71.5628C11.6004 70.901 10.4422 70.1564 9.36668 69.2463C8.45663 68.419 7.62931 67.509 6.80199 66.5989C5.80922 65.3579 5.06464 63.9515 4.40278 62.5451C3.90639 61.5523 3.49273 60.5595 3.07907 59.5667C2.66542 58.6567 2.33449 57.6639 2.0863 56.7538C1.8381 56.092 1.75537 55.4301 1.58991 54.7683C1.42445 54.1892 1.34171 53.5273 1.17625 52.9482C1.09352 52.6173 1.09352 52.2036 1.01078 51.79C0.928053 51.0454 0.845325 50.3008 0.762594 49.5562C0.59713 47.5707 0.679863 45.6678 0.679863 43.6823C0.679863 42.524 0.845321 41.4485 1.01078 40.2903C1.09352 39.463 1.25898 38.6356 1.42444 37.8911C1.67264 36.8983 1.92083 35.9882 2.25176 35.0782C2.74815 33.5063 3.41 32.0171 4.15459 30.6107C4.81644 29.287 5.56102 28.046 6.38834 26.805C7.62931 24.9022 9.03575 23.1649 10.5249 21.5102C11.435 20.6002 12.345 19.6074 13.2551 18.7801C14.7442 17.4564 16.2334 16.2981 17.888 15.1399C19.3772 14.0644 20.9491 13.1543 22.521 12.2443C23.6792 11.5824 24.8375 10.9206 26.0785 10.3415C27.4022 9.76234 28.6431 9.10048 30.0496 8.60409C30.9596 8.27316 31.8697 7.77678 32.8624 7.44585C33.7725 7.11493 34.6825 6.78399 35.6753 6.45306C36.5026 6.20487 37.33 5.87394 38.1573 5.62575C38.7364 5.46029 39.3982 5.29482 39.9774 5.12935C40.5565 4.96389 41.1356 4.79844 41.7147 4.63297C42.2111 4.46751 42.7075 4.38478 43.2039 4.21932C43.9485 4.05385 44.6931 3.80566 45.4376 3.6402C46.1822 3.47473 47.0095 3.22653 47.7541 3.1438C48.416 3.06107 48.9951 2.89561 49.657 2.73014C49.9879 2.64741 50.2361 2.64742 50.567 2.56468C51.6425 2.31649 52.6353 2.15103 53.7108 1.98557C54.5381 1.90283 55.2827 1.73737 56.11 1.57191C56.8546 1.48918 57.6819 1.40644 58.4265 1.15825C58.7574 1.07552 59.1711 1.07551 59.502 0.992776C60.0811 0.910045 60.6602 0.827323 61.2394 0.744592C62.2321 0.579129 63.2249 0.579129 64.135 0.330934H64.2177C64.9623 0.330934 65.6241 0.165461 66.3687 0.165461C67.196 0.165461 68.0234 0 68.9334 0C69.678 0 70.1744 0.2482 70.5053 0.910052C70.8362 1.65464 70.919 2.39922 70.588 3.1438C70.4226 3.55746 70.0089 3.64019 69.678 3.72292C68.8507 3.97112 67.9406 4.13658 67.0306 4.21932C66.0378 4.30205 64.9623 4.46751 63.9695 4.63297C63.6386 4.7157 63.2249 4.7157 62.8113 4.79843C62.1494 4.88117 61.5703 4.9639 60.9084 5.04663C60.0811 5.12936 59.1711 5.21209 58.3438 5.46029C58.0128 5.54302 57.5992 5.54302 57.2683 5.62575C56.4409 5.79121 55.6136 5.79121 54.7863 5.95667C54.1245 6.12213 53.3799 6.12213 52.718 6.37033C52.3871 6.45306 52.0562 6.45307 51.7252 6.5358C51.0634 6.70126 50.4015 6.70126 49.8224 6.86672C48.9951 7.03219 48.1678 7.19765 47.4232 7.36312C46.9268 7.52858 46.3477 7.61131 45.8513 7.69404C45.1067 7.8595 44.3621 8.02497 43.6175 8.27317C43.1212 8.43863 42.7075 8.52136 42.2111 8.60409C41.5493 8.76955 40.9701 9.01773 40.3083 9.1832C39.7292 9.34866 39.2328 9.51413 38.6536 9.67959C37.9918 9.92779 37.2472 10.0933 36.5854 10.3415C35.9235 10.5897 35.2617 10.8378 34.5998 11.086C33.4416 11.4997 32.3661 11.9961 31.2905 12.4097C29.7186 13.0716 28.1467 13.8162 26.5748 14.6435C25.0857 15.3881 23.6792 16.2154 22.3555 17.1254C20.2045 18.5319 18.219 20.021 16.3989 21.7584C15.3234 22.7512 14.2478 23.744 13.2551 24.8195C11.5177 26.805 9.9458 28.9561 8.70482 31.2725C7.96024 32.679 7.21565 34.0854 6.63653 35.5746C6.22288 36.5674 5.89195 37.6429 5.64376 38.6356C5.47829 39.3802 5.31283 40.1248 5.14736 40.8694C4.81644 42.6895 4.81644 44.5923 4.81644 46.4124C4.81644 46.8261 4.81644 47.2397 4.81644 47.6534C4.89917 48.8116 4.9819 49.9699 5.14736 51.1281C5.23009 51.9554 5.39556 52.8655 5.56102 53.6928C5.80922 54.6028 5.97468 55.5129 6.22288 56.4229C6.47107 57.0848 6.63654 57.7466 6.88473 58.4912C7.29839 59.6495 7.79477 60.8077 8.3739 61.8832C9.44941 64.0342 11.1868 65.5234 13.0896 66.9298C13.9996 67.5917 14.9097 68.1708 15.9025 68.6672C16.7298 69.0809 17.5571 69.4118 18.4672 69.66C19.5427 69.9909 20.5354 70.2391 21.6109 70.4046C22.521 70.57 23.431 70.7355 24.3411 70.8182C25.3339 70.9837 26.3266 71.0664 27.3194 71.1492C27.8985 71.2319 28.5604 71.2319 29.1395 71.2319C31.6215 71.0664 33.6898 70.9837 35.6753 70.9837Z" fill="#5F7691"/>
<path d="M104.426 5.79068C105.418 5.79068 106.494 5.70794 107.487 5.79068C108.479 5.87341 109.472 5.8734 110.382 5.95614C111.292 6.03887 112.12 6.12161 113.03 6.28707C114.022 6.45253 115.098 6.61799 116.091 6.86619C116.835 7.03165 117.58 7.19712 118.242 7.36258C119.317 7.69351 120.393 7.94169 121.386 8.35535C122.957 8.93447 124.364 9.59634 125.77 10.3409C126.929 10.92 127.921 11.6646 128.997 12.4919C130.238 13.4847 131.396 14.5602 132.472 15.7185C133.713 17.1249 134.788 18.6141 135.615 20.2687C136.194 21.2615 136.608 22.337 137.105 23.4125C137.435 24.2398 137.684 25.0671 137.932 25.8944C138.18 26.8045 138.428 27.7145 138.594 28.6246C138.676 29.0382 138.759 29.3692 138.842 29.7828C139.007 30.8584 139.09 31.8511 139.256 32.9266C139.256 33.0921 139.256 33.2576 139.256 33.423C139.256 34.9949 139.338 36.6495 139.256 38.2214C139.256 39.297 139.09 40.4552 138.925 41.5307C138.842 42.2753 138.676 43.1026 138.511 43.8472C138.263 44.9227 138.015 45.9155 137.684 46.991C137.27 48.3147 136.774 49.6384 136.277 50.8794C135.781 52.0376 135.202 53.1131 134.54 54.1887C133.382 56.1742 131.975 58.077 130.486 59.8971C129.162 61.469 127.673 62.8755 126.184 64.2819C124.198 66.102 121.965 67.5912 119.731 69.0803C117.332 70.5695 114.932 71.8932 112.368 73.0514C111.21 73.5478 110.134 74.0442 108.976 74.5406C108.148 74.8715 107.321 75.2025 106.494 75.5334C105.749 75.8643 104.922 76.1125 104.095 76.3607C102.854 76.7744 101.613 77.188 100.289 77.5189C99.4617 77.7671 98.5516 77.9326 97.7243 78.1808C96.7315 78.429 95.8215 78.6772 94.8287 78.9254C94.2496 79.0908 93.5877 79.1736 92.9259 79.2563C92.3467 79.4218 91.6849 79.5045 91.1058 79.67C90.7748 79.7527 90.4439 79.7527 90.113 79.8354C89.0375 80.0009 87.962 80.2491 86.8865 80.3318C86.2246 80.4145 85.48 80.58 84.8182 80.6628C83.9909 80.7455 83.2463 80.8282 82.419 80.9937C81.5916 81.0764 80.6816 81.1591 79.8543 81.3246C78.8615 81.4073 77.786 81.5728 76.7932 81.6555C75.7177 81.7382 74.7249 81.9037 73.6494 81.9037C73.0703 81.9037 72.4912 81.821 71.9948 81.6555C71.5811 81.4901 71.4157 81.2419 71.3329 80.7455C71.2502 80.3318 71.2502 79.9181 71.2502 79.5045C71.2502 78.6772 71.7466 78.3463 72.3257 78.1808C73.2357 77.9326 74.1458 77.7671 75.0558 77.6844C76.3795 77.5189 77.6205 77.3535 78.9442 77.188C79.8543 77.1053 80.6816 77.0226 81.5916 76.8571C82.8326 76.6916 84.0736 76.6089 85.3973 76.4434C86.0591 76.3607 86.8037 76.278 87.4656 76.1125C88.4584 75.9471 89.5339 75.7816 90.5266 75.6161C91.1885 75.4507 91.9331 75.3679 92.5949 75.2025C93.4222 75.037 94.2496 74.8715 95.0769 74.7061C95.656 74.5406 96.1524 74.4579 96.7315 74.3751C97.2279 74.2924 97.7243 74.0442 98.2207 73.9615C98.6343 73.8788 99.1307 73.7133 99.5444 73.6306C100.124 73.4651 100.785 73.2996 101.364 73.1342C101.944 72.9687 102.44 72.7205 103.019 72.555C103.681 72.3896 104.343 72.0587 105.005 71.8932C105.832 71.645 106.577 71.3141 107.321 70.9831C108.397 70.5695 109.472 70.0731 110.465 69.5767C111.871 68.9148 113.195 68.253 114.519 67.5084C115.677 66.8466 116.753 66.1847 117.828 65.4401C119.317 64.4473 120.806 63.2891 122.213 62.1309C123.702 60.8899 125.026 59.5662 126.349 58.1598C127.839 56.5879 129.162 54.9332 130.321 53.1131C131.231 51.7894 131.975 50.383 132.637 48.9766C133.133 47.901 133.547 46.9083 133.878 45.75C134.126 44.9227 134.374 44.0127 134.54 43.1853C134.705 42.1926 134.871 41.2825 135.036 40.2897C135.367 38.1387 135.367 35.905 135.284 33.7539C135.284 32.8439 135.119 31.8511 134.954 30.9411C134.788 29.8656 134.54 28.7901 134.292 27.7146C133.795 25.729 132.968 23.8261 131.975 22.0061C131.396 21.0133 130.734 20.0205 129.99 19.1105C129.245 18.2831 128.5 17.4558 127.673 16.7112C126.515 15.6357 125.191 14.8084 123.785 13.9811C122.627 13.3193 121.386 12.8229 120.145 12.3265C119.483 12.0783 118.738 11.8301 117.994 11.6646C117.332 11.4991 116.67 11.3337 116.008 11.0855C115.76 11.0028 115.429 11.0028 115.181 10.92C114.353 10.7546 113.526 10.6718 112.699 10.5064C111.292 10.3409 109.803 10.2582 108.397 10.1755C106.494 10.01 104.508 10.01 102.605 10.0927C101.282 10.1754 99.958 10.0927 98.6343 10.2582C97.6416 10.3409 96.5661 10.2582 95.5733 10.4236C94.746 10.5064 93.9186 10.4236 93.1741 10.5891C92.3467 10.6718 91.5194 10.6719 90.6921 10.7546C90.0303 10.8373 89.4511 10.7546 88.7893 10.92C87.962 11.0855 87.2174 11.0028 86.3901 11.0855C85.8109 11.1682 85.2318 11.1682 84.6527 11.1682C83.2463 11.3337 81.7571 11.4164 80.3507 11.4992C79.7716 11.5819 79.1924 11.5819 78.696 11.6646C77.5378 11.8301 76.3795 11.8301 75.2213 11.9956C74.2285 12.0783 73.153 12.161 72.1602 12.3265C71.1675 12.4092 70.2574 12.4919 69.2646 12.6574C68.4373 12.7401 67.61 12.8229 66.7827 12.9883C65.8726 13.1538 64.9626 13.1538 64.0525 13.402C63.6389 13.4847 63.2252 13.4847 62.8116 13.5675C61.9015 13.7329 61.0742 13.8156 60.1642 13.8984C59.0886 14.0638 58.0959 14.312 57.1031 14.4775C56.7722 14.5602 56.3585 14.5602 56.0276 14.643C54.9521 14.8084 53.9593 14.9739 52.8838 15.2221C52.2219 15.3875 51.6428 15.4703 50.981 15.553C50.4846 15.6357 49.9882 15.8012 49.4091 15.9667C48.8299 16.0494 48.3335 16.2148 47.7544 16.2976C47.0098 16.463 46.348 16.6285 45.6034 16.8767C45.107 16.9594 44.6934 17.1249 44.197 17.2076C43.6178 17.3731 43.0387 17.5386 42.4596 17.704C41.8805 17.8695 41.3014 18.0349 40.7222 18.2831C40.0604 18.5313 39.3158 18.7795 38.654 19.0277C37.9094 19.2759 37.1648 19.5241 36.4202 19.8551C35.9238 20.0205 35.3447 20.2687 34.8483 20.5169C33.5246 21.1787 32.1182 21.7579 30.7945 22.4197C29.4707 23.1643 28.2298 23.9089 26.9888 24.7362C25.0032 26.0599 23.2659 27.5491 21.694 29.3692C20.3703 30.8584 19.2948 32.4302 18.3847 34.2503C17.8883 35.3259 17.3919 36.4014 17.061 37.4769C16.8956 38.1387 16.6474 38.8006 16.5646 39.4624C16.3164 40.4552 16.2337 41.448 15.9855 42.358V42.4408C15.7373 44.6745 15.7373 46.991 15.82 49.2248C15.9028 50.3003 16.0682 51.293 16.2337 52.3685C16.5646 53.9404 17.061 55.5123 17.8883 56.9188C18.7156 58.3252 19.8739 59.5662 21.4458 60.228C21.694 60.3108 22.0249 60.3935 22.3558 60.4762C23.5968 60.6417 24.7551 60.6417 25.996 60.559C26.7406 60.4762 27.5679 60.3935 28.3125 60.228C30.7945 59.6489 32.6973 58.1597 34.4347 56.3397C35.7584 54.9332 37.0821 53.5268 38.4058 52.1204C38.5712 51.9549 38.7367 51.9549 38.9021 52.0376C39.8122 52.7822 40.7222 53.5268 41.5496 54.3541C41.7978 54.6023 41.7978 54.7678 41.6323 55.016C41.0532 55.926 40.3086 56.6706 39.6467 57.4979C38.6539 58.6562 37.5784 59.8144 36.4202 60.8072C35.0965 61.9654 33.6073 62.9582 31.9527 63.62C30.9599 64.0337 29.9671 64.3646 28.9744 64.5301C28.147 64.6956 27.3197 64.861 26.4924 64.861C26.1615 64.861 25.7478 65.0265 25.4169 64.9438C24.5896 64.861 23.6795 64.861 22.8522 64.7783C21.2803 64.5301 19.7084 64.1992 18.302 63.4546C16.9783 62.71 15.9028 61.7172 14.91 60.559C14.0827 59.4835 13.5036 58.3252 13.0072 57.167C12.759 56.5051 12.5108 55.7606 12.3453 55.016C12.0971 54.0232 11.9317 53.1131 11.7662 52.1204C11.6835 51.4585 11.6007 50.7139 11.4353 50.0521C11.1043 47.9838 11.1043 45.9155 11.1871 43.9299C11.2698 42.8544 11.3525 41.6962 11.6007 40.6207C11.6835 39.9588 11.8489 39.297 12.0144 38.6351C12.1799 37.8078 12.4281 37.0632 12.6762 36.2359C13.0072 35.3258 13.3381 34.4158 13.7518 33.5058C14.2481 32.4303 14.8273 31.3547 15.4891 30.2792C16.8128 28.2109 18.4675 26.3081 20.2875 24.6535C21.5285 23.578 22.7695 22.5024 24.1759 21.5924C25.5824 20.5996 27.0715 19.6896 28.5607 18.8623C29.9671 18.1177 31.3736 17.3731 32.8627 16.794C33.8555 16.3803 34.931 15.9667 35.9238 15.553C36.6684 15.2221 37.4957 14.9739 38.2403 14.7257C39.1503 14.3948 40.0604 14.1466 40.9704 13.8156C41.7978 13.5674 42.6251 13.402 43.4524 13.1538C44.1142 12.9883 44.8588 12.7401 45.5207 12.5747C46.0998 12.4092 46.5962 12.3265 47.1753 12.2437C47.7544 12.0783 48.3335 11.9955 48.8299 11.8301C49.4091 11.6646 49.9882 11.5819 50.4846 11.4992C51.1464 11.3337 51.8083 11.251 52.4701 11.0855C52.801 11.0028 53.0492 11.0028 53.3802 10.92C54.4557 10.7546 55.4485 10.5064 56.4412 10.4236C57.434 10.2582 58.3441 10.0927 59.3368 10.01C60.4124 9.84451 61.4879 9.67907 62.4806 9.51361C63.7216 9.34815 64.8799 9.18268 66.1208 9.01721C66.9482 8.93448 67.7755 8.85176 68.6028 8.68629C69.5128 8.60356 70.5056 8.52081 71.4157 8.35535C72.4084 8.27262 73.4012 8.18989 74.394 8.02443C75.4695 7.94169 76.6277 7.85897 77.7033 7.6935C78.2824 7.61077 78.7788 7.61076 79.3579 7.52803C80.6816 7.36257 81.9226 7.27984 83.2463 7.19711C83.8254 7.11438 84.4045 7.19713 84.9836 7.03166C85.811 6.8662 86.6383 6.94892 87.4656 6.86619C88.0447 6.78346 88.7066 6.86619 89.2857 6.70073C90.113 6.53526 91.023 6.618 91.8504 6.53527C92.5122 6.45254 93.0913 6.53526 93.7532 6.45253C94.9114 6.28707 96.0697 6.3698 97.1452 6.28707C98.1379 6.20434 99.048 6.28707 100.041 6.20433C101.282 5.79068 102.854 5.79068 104.426 5.79068Z" fill="#5F7691"/>
<path d="M74.7246 64.7788C73.8972 64.7788 73.0699 64.7788 72.3253 64.7788C72.0771 64.7788 71.9117 64.696 71.829 64.4478C71.498 63.3723 71.0844 62.2968 70.7534 61.304C70.3398 60.063 69.9261 58.8221 69.5125 57.6638C69.0988 56.5883 68.7679 55.4301 68.3542 54.3546C68.0233 53.5273 67.7751 52.6999 67.5269 51.8726C67.2787 51.0453 66.9478 50.218 66.6996 49.4734C66.5341 48.8116 66.2859 48.1497 66.0377 47.4879C65.7895 46.826 65.5413 46.1642 65.2931 45.4196C65.045 44.7577 64.8795 44.0959 64.6313 43.434C64.5486 43.1031 64.4658 42.8549 64.3004 42.6067C64.2176 42.4412 64.1349 42.524 64.0522 42.524C62.3148 43.3513 60.6602 44.1786 58.9228 45.0059C57.1855 45.8332 55.4481 46.6605 53.7107 47.4879C53.1316 47.7361 52.5525 48.067 51.8906 48.3152C51.3942 48.4806 51.3942 48.977 51.2288 49.3907C50.8979 50.218 50.6497 51.0453 50.3187 51.8726C49.9878 52.7827 49.6569 53.6927 49.326 54.6028C48.9123 55.6783 48.4986 56.6711 48.1677 57.7466C47.7541 58.9048 47.3404 60.1458 46.9267 61.304C46.5131 62.545 46.0167 63.7033 45.603 64.9442C45.5203 65.1097 45.4376 65.1924 45.1894 65.1924C43.2866 65.1097 41.4665 65.0269 39.5636 65.0269C39.3982 65.0269 39.3154 64.9442 39.3982 64.7788C39.7291 63.8687 40.06 62.9587 40.391 61.9659C40.8873 60.6422 41.3837 59.4012 41.8801 58.0775C42.3765 56.7538 42.7902 55.4301 43.2866 54.1891C43.6175 53.1963 44.0311 52.2036 44.4448 51.2108C44.8585 50.218 45.1894 49.1425 45.5203 48.1497C45.934 47.1569 46.3476 46.1641 46.6785 45.1714C46.9267 44.4268 47.1749 43.7649 47.5059 43.0204C47.9195 41.9449 48.3332 40.8693 48.7468 39.8765C49.0778 38.8838 49.4914 37.891 49.8223 36.8982C50.4015 35.4918 50.8979 34.0026 51.477 32.5962C51.9734 31.107 52.5525 29.7006 53.0489 28.2114C53.5453 26.9704 54.0417 25.6467 54.538 24.4058C55.0344 22.9993 55.5308 21.5929 56.11 20.1864C56.5236 19.0282 57.02 17.9527 57.4337 16.7944C57.5164 16.629 57.5991 16.4635 57.5991 16.3808C57.6819 15.8844 57.93 15.8017 58.3437 15.8844C59.0883 15.8844 59.8329 15.8844 60.6602 15.8844C60.8257 15.8844 60.9911 15.8844 61.0738 16.1326C61.2393 16.7117 61.4875 17.2081 61.653 17.7872C61.9839 18.6973 62.2321 19.6073 62.563 20.5174C62.8112 21.3447 63.0594 22.2547 63.3903 23.0821C63.6385 23.9094 63.9695 24.7367 64.2176 25.564C64.4658 26.2259 64.6313 26.9704 64.8795 27.6323C65.1277 28.3769 65.3759 29.0387 65.6241 29.7833C65.8723 30.4452 66.0377 31.107 66.2859 31.7689C66.5341 32.5135 66.7823 33.1753 67.0305 33.8372C67.196 34.2508 67.2787 34.5817 67.3614 34.9954C67.3614 35.1609 67.5269 35.2436 67.6096 35.1609C67.9406 34.9127 67.9406 35.3263 67.9406 35.409C68.2715 36.3191 68.5197 37.3119 68.9333 38.3047C69.0988 38.801 69.2643 39.3802 69.5125 39.8765C69.5952 40.042 69.6779 40.2075 69.4297 40.2902C69.1815 40.3729 69.2643 40.5384 69.347 40.6211C69.7607 41.6966 70.1743 42.7722 70.5052 43.8477C71.0016 45.2541 71.4153 46.6605 71.9117 48.067C72.4081 49.4734 72.8217 50.8798 73.4008 52.2863C73.8145 53.4445 74.1454 54.52 74.5591 55.6783C74.9728 56.9193 75.4691 58.1602 75.8828 59.4012C76.2137 60.3113 76.5446 61.304 76.8756 62.2141C77.1238 62.9587 77.4547 63.786 77.7029 64.5306C77.8683 64.9442 77.7856 65.0269 77.372 65.0269C76.2965 64.7787 75.4691 64.7788 74.7246 64.7788ZM59.2538 26.8877C58.9228 26.8877 58.8401 26.9704 58.7574 27.3014C58.7574 27.5496 58.6746 27.715 58.5919 27.8805C58.1782 28.7905 57.93 29.7833 57.5991 30.6933C57.3509 31.3552 57.1855 31.9343 56.9373 32.5962C56.6891 33.258 56.4409 33.8371 56.1927 34.499C55.9445 35.1609 55.6963 35.8227 55.4481 36.4846C55.1999 37.1464 55.0344 37.7255 54.7862 38.3874C54.538 39.0492 54.3726 39.7111 54.1244 40.2902C54.1244 40.3729 54.0417 40.4557 54.1244 40.5384C54.2071 40.6211 54.2899 40.5384 54.3726 40.5384C55.2826 40.1248 56.1099 39.7111 57.02 39.2974C58.0128 38.8838 58.9228 38.3047 59.9156 37.891C60.8256 37.4773 61.653 37.0637 62.4803 36.65C62.563 36.5673 62.7285 36.5673 62.6457 36.4018C62.4803 35.9054 62.3148 35.3263 62.1494 34.8299C61.9012 34.0026 61.5702 33.1753 61.322 32.348C61.0738 31.5207 60.8257 30.6933 60.4947 29.866C60.2465 28.956 59.9156 28.1287 59.5847 27.2186C59.5847 27.0532 59.5019 26.8877 59.2538 26.8877Z" fill="#5F7691"/>
<path d="M84.3216 19.6901C85.0662 19.6901 85.8935 19.6901 86.6381 19.6901C86.969 19.6901 87.0518 19.7729 86.969 20.1038C86.8863 20.5174 86.8863 21.0138 86.8863 21.4275C86.8863 21.6757 86.969 21.7584 87.1345 21.5929C89.8647 20.1865 92.5948 18.8628 95.2422 17.4564C97.0623 16.5463 98.8824 15.6363 100.62 14.7262C100.785 14.6435 100.868 14.6435 100.868 14.8917C100.868 16.4636 100.868 17.9528 100.868 19.5247C100.868 19.7729 100.702 19.7729 100.537 19.8556C98.9651 20.6829 97.3932 21.5102 95.8213 22.4203C93.8358 23.4958 91.8502 24.4886 89.8647 25.5641C88.9546 26.0605 88.1273 26.5568 87.1345 26.9705C86.8863 27.0532 86.8036 27.3014 86.8036 27.6324C86.8036 35.0782 86.8036 42.4413 86.8036 49.8871C86.8036 50.4663 86.8036 51.0454 86.8036 51.6245C86.6381 55.9266 86.7209 60.3113 86.7209 64.6134C86.7209 64.8616 86.6381 64.9443 86.3899 64.9443C84.9007 64.9443 83.4116 64.9443 81.9224 64.9443C81.5915 64.9443 81.5915 64.8616 81.5915 64.5306C81.5915 62.4624 81.5915 60.3941 81.5915 58.3258C81.426 49.0598 81.5088 39.7112 81.5088 30.4452C81.5088 30.0316 81.426 30.0316 81.0124 30.197C78.7786 31.3553 76.6276 32.4308 74.3938 33.589C73.732 33.9199 72.9874 34.2509 72.3256 34.6645C71.9946 34.9127 71.9946 34.6645 71.9946 34.4163C71.9946 33.1754 71.9946 31.9344 71.9946 30.6934C71.9946 29.7006 71.9946 29.7007 72.8219 29.287C74.3111 28.4597 75.8003 27.6324 77.3722 26.805C78.4477 26.2259 79.5232 25.5641 80.5987 25.0677C81.2606 24.7368 81.426 24.3231 81.426 23.5785C81.3433 22.4203 81.426 21.262 81.426 20.1038C81.426 19.7729 81.5088 19.6074 81.9224 19.6901C82.7497 19.7729 83.577 19.6901 84.3216 19.6901Z" fill="#5F7691"/>
<path d="M30.7946 89.8469C30.4636 90.0124 30.2982 90.1779 30.2982 90.5088C30.3809 91.0879 29.8018 91.5843 29.3054 91.667C29.0572 91.7498 28.809 91.8325 28.4781 91.667C28.2299 91.5843 27.9817 91.4188 27.899 91.1706C27.8162 90.9224 27.899 90.6743 28.1472 90.4261C28.3126 90.2606 28.4781 90.0951 28.7263 90.0124C28.9745 89.8469 28.8917 89.6815 28.809 89.516C28.6435 89.3505 28.5608 89.516 28.4781 89.5987C28.3954 89.6815 28.3126 89.7642 28.2299 89.7642C27.899 89.9297 27.7335 90.1779 27.8162 90.5088C27.8162 91.0052 27.3198 91.5016 26.8235 91.5843C26.5753 91.667 26.3271 91.7498 26.0789 91.667C25.6652 91.5016 25.417 91.3361 25.3343 90.8397C25.1688 90.9225 25.0034 91.0879 24.9206 91.1706C24.507 91.4188 24.0933 91.3361 23.9278 90.8397C23.8451 90.5915 23.6797 90.2606 23.5969 89.9297C23.5969 89.7642 23.5142 89.7642 23.3487 89.7642C23.1005 89.7642 22.8523 89.7642 22.6041 89.7642C22.025 89.7642 21.6941 90.3433 21.9423 90.8397C22.025 91.0052 21.9423 91.0879 21.8596 91.0879C21.6941 91.1706 21.5286 91.2534 21.3632 91.2534C21.115 91.2534 20.9495 91.3361 20.784 91.0879C20.6186 90.8397 20.7013 90.5915 20.784 90.4261C20.8668 90.2606 20.9495 90.0951 21.0322 89.9297V89.8469C20.784 89.8469 20.5359 90.1779 20.4531 90.0124C20.2877 89.8469 20.5359 89.5988 20.6186 89.3506C20.7013 89.0196 21.0322 88.9369 21.2804 88.9369C21.7768 88.9369 21.9423 88.6887 22.1078 88.3578C22.5214 87.8614 22.9351 87.365 23.3487 86.8686C23.6797 86.5377 24.0933 86.455 24.507 86.3722C24.7552 86.2895 24.7552 86.5377 24.6724 86.7031C24.507 87.2823 24.507 87.8614 24.5897 88.3578C24.6724 88.9369 24.7552 89.5988 24.9206 90.1779C25.0034 90.4261 25.1688 90.5915 25.3343 90.6742C25.4997 90.757 25.4997 90.6743 25.5825 90.5915C25.7479 90.3433 26.0789 90.0951 26.3271 90.0124C26.658 89.8469 26.5753 89.7642 26.4098 89.516C26.2443 89.1851 26.0789 88.9369 26.0789 88.5232C26.0789 88.0269 26.4098 87.5304 26.9062 87.365C27.2371 87.2823 27.4026 87.5305 27.568 87.6959C27.7335 87.8614 27.7335 88.1096 27.568 88.275C27.3198 88.5232 27.3198 88.7714 27.4853 89.1024C27.568 89.2678 27.6508 89.2678 27.7335 89.1851C28.1472 88.9369 28.5608 88.606 28.7263 88.1096C28.809 87.7787 29.1399 87.5305 29.4709 87.4477C29.7191 87.365 29.8845 87.6132 30.05 87.7786C30.2154 88.0268 30.2154 88.1923 30.05 88.3578C29.8018 88.606 29.8018 88.8542 30.05 89.1024C30.1327 89.1851 30.1327 89.2678 30.2982 89.1851C30.5464 89.0196 30.7118 88.8542 30.96 88.6887C31.0428 88.6887 31.0428 88.606 31.0428 88.5232C30.8773 88.0269 31.291 88.0268 31.5392 87.9441C31.7046 87.8614 31.8701 87.9441 31.6219 87.6959C31.3737 87.365 31.5391 86.9513 32.0355 86.8686C32.5319 86.7859 32.8629 86.3722 33.1938 86.124C33.2765 86.0413 33.2765 85.8758 33.442 85.9586C33.5247 86.0413 33.442 86.124 33.442 86.2067C33.2765 86.8686 32.9456 87.4477 32.2837 87.7786C32.1183 87.8614 31.9528 87.9441 32.201 88.1096C32.3665 88.1923 32.3665 88.4405 32.3665 88.606C32.201 88.9369 32.2837 89.3506 32.1183 89.6815C32.0355 89.8469 31.9528 90.0124 32.1183 90.1779C32.2837 90.2606 32.3665 90.1779 32.5319 90.0124C33.1111 89.516 33.6902 88.9369 33.9384 88.1096C34.0211 87.6959 34.352 87.4477 34.7657 87.2823C34.9311 87.1995 35.1793 87.365 35.2621 87.5305C35.3448 87.6132 35.4275 87.6959 35.4275 87.8614C35.593 87.7786 35.6757 87.6959 35.6757 87.6132C35.8412 87.365 36.0067 87.1995 36.3376 87.1995C36.5858 87.1995 36.6685 87.1168 36.7512 86.8686C36.9994 86.2068 37.5786 86.124 38.0749 86.124C38.3231 86.124 38.4886 86.2895 38.2404 86.455C38.1577 86.5377 38.1577 86.6204 38.0749 86.7031C37.9095 86.9513 37.9922 87.0341 38.2404 87.0341C38.7368 87.0341 39.2332 87.0341 39.7296 86.7859C39.895 86.7031 39.9778 86.7859 39.895 86.9513C39.8123 87.1995 39.8123 87.365 40.226 87.1995C41.0533 86.9513 41.8806 87.5305 41.7151 88.275C41.5497 88.8542 41.136 89.1024 40.6396 89.3506C40.3914 89.4333 40.226 89.516 39.9778 89.516C39.895 89.516 39.8123 89.516 39.7296 89.6815C39.7296 89.8469 39.895 89.8469 39.9778 89.8469C40.4742 89.9297 40.8878 89.7642 41.2187 89.4333C41.6324 89.1023 42.1288 88.6887 42.377 88.1923C42.4597 88.1096 42.5425 87.9441 42.4597 87.8614C42.1288 87.5305 42.4597 87.5305 42.6252 87.4477C43.1216 87.1995 43.3698 87.2823 43.618 87.7786C43.7007 87.9441 43.7007 87.9441 43.8662 87.8614C44.1144 87.6132 44.3625 87.365 44.6935 87.1995C45.1899 86.8686 45.8517 87.365 45.9344 88.0269C45.9344 88.4405 45.9344 88.8542 45.9344 89.2678C45.9344 89.4333 45.9344 89.5988 46.0999 89.6815C46.2654 89.7642 46.3481 89.516 46.4308 89.4333C46.7618 89.1023 46.9272 88.606 47.1754 88.1923C47.6718 87.365 48.9128 86.9513 49.6574 87.2823C50.071 87.4477 50.1538 88.1096 49.7401 88.3578C49.5746 88.4405 49.4092 88.5232 49.2437 88.606C49.0782 88.6887 48.8301 88.7714 48.9128 88.3578C48.9128 88.275 48.9955 88.1096 48.9128 88.0269C48.8301 87.9441 48.6646 87.9441 48.5819 88.0269C48.0855 88.3578 47.6718 89.1024 48.0027 89.6815C48.1682 90.0124 48.4991 90.0951 48.83 89.9297C49.4092 89.6815 49.8228 89.2678 50.1538 88.8542C50.3192 88.606 50.7329 88.3578 50.4019 87.8614C50.3192 87.7786 50.4847 87.6959 50.5674 87.6959C50.8156 87.6132 51.2293 87.6959 50.8983 87.1995C50.7329 86.9513 51.0638 86.6204 51.312 86.5377C51.8084 86.4549 52.1393 86.0413 52.553 85.7931C52.6357 85.7104 52.6357 85.5449 52.8012 85.6276C52.9666 85.7104 52.8012 85.8758 52.8012 85.9586C52.6357 86.6204 52.3048 87.1995 51.6429 87.5305C51.4775 87.6132 51.3947 87.6959 51.5602 87.9441C51.8911 88.3578 51.5602 88.8542 51.5602 89.3506C51.5602 89.5988 51.3947 89.8469 51.5602 90.0124C51.7257 90.1779 51.8911 89.847 52.0566 89.7642C52.4702 89.4333 52.7184 89.0196 53.0494 88.5232C53.463 87.7787 54.0421 87.2823 54.8695 87.2823C55.0349 87.2823 55.1177 87.2823 55.2831 87.365C55.5313 87.4477 55.6968 87.4477 55.945 87.365C56.1932 87.1995 56.4414 87.2823 56.6895 87.2823C56.855 87.2823 56.855 87.365 56.7723 87.5305C56.3586 88.1096 56.3586 88.7714 56.2759 89.4333C56.2759 89.6815 56.4413 89.7642 56.6068 89.6815C57.2687 89.1851 57.8478 88.6887 57.9305 87.8614C58.0133 87.6132 57.9305 87.2823 58.096 87.0341C58.2614 86.7031 58.0132 86.6204 57.8478 86.5377C57.5169 86.3722 57.2687 85.9586 57.3514 85.6276C57.3514 85.3794 57.5169 85.3794 57.6823 85.4622C58.2614 85.7931 58.7578 85.7104 59.2542 85.3794C59.337 85.2967 59.4197 85.2967 59.5024 85.3794C59.5851 85.4622 59.5024 85.5449 59.5024 85.6276C59.2542 86.6204 59.0888 87.6132 58.9233 88.606C58.8406 88.9369 58.8406 89.3506 58.6751 89.6815C58.5924 89.7642 58.5924 89.9297 58.7578 90.0951C58.9233 90.2606 59.006 90.0951 59.0888 90.0124C59.5024 89.7642 59.7506 89.2678 59.9988 88.8542C60.0815 88.6887 60.247 88.5232 60.3297 88.3578C60.5779 87.9441 60.5779 87.9441 60.9916 88.275C61.1571 88.3578 61.2398 88.4405 61.0743 88.6887C60.6607 89.4333 60.1643 90.2606 59.4197 90.8397C58.5924 91.5016 57.7651 91.1707 57.5169 90.1779C57.2687 90.3433 57.0205 90.5088 56.7723 90.757C56.4414 91.0052 56.0277 91.0052 55.6968 90.9225C55.2831 90.8397 55.2004 90.5088 55.0349 90.1779C54.7867 90.4261 54.6213 90.6743 54.2903 90.8397C53.6285 91.3361 53.1321 91.4188 52.6357 90.6742C52.4702 90.5088 52.3875 90.5915 52.3048 90.6742C52.0566 90.8397 51.7257 91.0052 51.3947 91.1706C50.8983 91.3361 50.3192 91.0879 50.1538 90.5915C50.071 90.2606 49.9056 90.2606 49.7401 90.5088C49.2437 90.9225 48.6646 91.3361 47.92 91.2534C47.4236 91.2534 47.0927 91.0879 46.8445 90.6742C46.7618 90.5088 46.5963 90.4261 46.4308 90.6742C46.1826 91.0052 45.8517 91.1706 45.4381 91.0879C45.1071 91.0879 44.8589 90.8397 44.6935 90.5088C44.528 90.0124 44.6107 89.4333 44.528 88.9369C44.528 88.8542 44.528 88.6887 44.4453 88.606C44.2798 88.5232 44.2798 88.6887 44.1971 88.7714C43.7834 89.3506 43.3698 89.9297 43.1216 90.5915C43.1216 90.6743 43.0388 90.6743 43.0388 90.757C43.3698 91.2534 42.7906 91.1706 42.6252 91.2534C42.377 91.4188 42.0461 91.0879 41.9633 90.8397V90.757C41.9633 90.5088 42.0461 90.2606 41.8806 90.1779C41.7151 90.0951 41.5497 90.4261 41.3842 90.5088C40.8878 90.8397 40.3087 91.1706 39.7296 91.2534C39.1505 91.3361 38.6541 91.1706 38.3231 90.6742C38.1577 90.5088 38.1577 90.5088 37.9922 90.6742C37.6613 90.9224 37.3304 91.0879 36.9994 91.2534C36.503 91.4188 35.8412 91.0052 35.7585 90.4261C35.7585 90.3433 35.7585 90.2606 35.7585 90.2606C35.6757 90.1779 35.7585 89.9297 35.5103 89.9297C35.2621 89.9297 35.2621 90.0951 35.2621 90.2606C35.3448 90.757 35.1793 91.0879 34.7657 91.3361C34.1038 91.8325 33.2765 91.7498 32.9456 91.2534C32.8629 91.1706 32.7801 91.0879 32.8629 91.0052C32.9456 90.5915 32.7801 90.5915 32.4492 90.8397C32.0355 91.0879 31.6219 91.4188 31.0428 91.0879C30.6291 90.9224 30.4636 90.5915 30.4636 90.1779C30.7118 90.1779 30.7118 90.0124 30.7946 89.8469ZM38.0749 88.1923C37.9095 88.1923 37.744 88.1923 37.5786 88.1923C37.4958 88.1923 37.3304 88.1923 37.3304 88.3578C37.2476 88.8542 36.9994 89.3505 36.9994 89.9297C36.9994 90.0951 36.9994 90.2606 37.1649 90.2606C37.3304 90.3433 37.4958 90.3433 37.5786 90.1779C37.9922 89.7642 38.4059 89.4333 38.5713 88.7714C38.6541 88.5232 38.985 88.4405 38.8195 88.1923C38.5713 88.1096 38.3231 88.275 38.0749 88.1923ZM54.704 88.5232C54.5385 88.5232 54.3731 88.5232 54.2903 88.6887C53.8767 89.1024 53.7939 89.516 53.7939 90.0124C53.7939 90.1779 53.8767 90.2606 53.9594 90.2606C54.0421 90.3433 54.1249 90.1779 54.2076 90.1779C54.5385 89.847 54.8695 89.3506 55.2004 88.9369C55.3658 88.6887 55.2004 88.606 55.0349 88.5232C54.8695 88.5232 54.7867 88.5232 54.704 88.5232ZM35.9239 88.1923C35.593 88.3578 35.1793 88.4405 34.8484 88.606C34.683 88.6887 34.8484 88.9369 34.9311 89.1024C35.0139 89.1851 35.0966 89.4333 35.2621 89.2678C35.593 89.0196 36.0067 88.8542 36.1721 88.4405C36.2548 88.275 36.1721 88.1923 35.9239 88.1923ZM39.7296 89.2678C39.895 89.2678 40.3914 88.8542 40.4742 88.6887C40.4742 88.606 40.4742 88.5232 40.3914 88.5232C40.3087 88.4405 40.226 88.5232 40.1432 88.5232C39.895 88.606 39.7296 88.8542 39.5641 89.1024C39.5641 89.1024 39.5641 89.2678 39.7296 89.2678ZM23.266 88.606C23.266 88.5232 23.3487 88.275 23.1833 88.1923C23.0178 88.1096 22.9351 88.3578 22.8523 88.4405C22.7696 88.5232 22.6869 88.606 22.6041 88.6887C22.5214 88.7714 22.4387 88.8542 22.5214 88.9369C22.6041 89.0196 22.6869 89.0196 22.7696 89.0196C23.266 89.1023 23.3487 88.9369 23.266 88.606ZM33.2765 90.4261C33.5247 90.2606 33.7729 90.1779 34.0211 90.0951C34.1038 90.0124 34.1866 89.9297 34.1038 89.8469C34.1038 89.7642 34.1038 89.7642 34.0211 89.7642C33.9384 89.7642 33.8556 89.7642 33.7729 89.8469C33.6074 90.0124 33.442 90.1779 33.2765 90.4261Z" fill="#5F7691"/>
<path d="M91.1053 89.1025C90.7744 89.5161 90.5262 89.847 90.278 90.2607C90.1126 90.5089 89.8644 90.7571 89.8644 91.088C89.8644 91.2535 89.368 91.419 89.1198 91.3362C88.8716 91.2535 88.7061 90.9225 88.7061 90.6744C88.7888 90.178 89.037 89.7643 88.9543 89.1025C88.6234 89.5161 88.4579 89.9298 88.2097 90.2607C88.0443 90.5089 87.9615 90.6744 88.0443 91.0053C88.0443 91.2535 87.4651 91.4189 87.2169 91.2535C86.886 91.088 86.8033 90.6744 86.9688 90.2607C87.0515 90.0125 87.0515 89.6816 87.0515 89.4334C87.0515 89.2679 86.9687 89.2679 86.8033 89.2679C86.3069 89.1852 86.2242 89.4334 86.0587 89.847C85.7278 90.7571 84.8177 91.3362 83.9904 91.3362C83.494 91.3362 83.0804 91.1707 82.8322 90.7571C82.6667 90.5089 82.584 90.5916 82.4185 90.6744C82.0876 90.9225 81.8394 91.1708 81.4257 91.2535C80.9293 91.4189 80.433 91.1707 80.3502 90.6744C80.3502 90.5916 80.3502 90.5089 80.2675 90.4262C80.1848 90.4262 80.102 90.5089 80.0193 90.5089C79.7711 90.8398 79.4402 91.088 79.0265 91.2535C78.6129 91.4189 78.0338 91.2535 77.8683 90.6744C77.7856 90.3434 77.6201 89.9298 77.7855 89.5989C77.8683 89.4334 77.8683 89.2679 77.6201 89.1852C77.4546 89.1852 77.3719 89.2679 77.3719 89.4334C77.1237 90.5089 76.2136 91.2535 75.2209 91.2535C74.7245 91.2535 74.2281 91.0053 73.9799 90.5089C73.8972 90.3434 73.8144 90.2607 73.649 90.4262C73.2353 90.8398 72.6562 91.088 72.1598 91.1707C71.6634 91.2535 71.167 91.2535 70.7534 90.7571C70.5052 90.5089 70.3397 90.4262 70.0088 90.6744C69.5124 91.088 69.016 91.0053 68.6851 90.5916C68.5196 90.3434 68.4369 90.0952 68.4369 89.847C68.4369 89.5161 68.4369 89.1852 68.4369 88.937C68.4369 88.8543 68.5196 88.6888 68.3542 88.6061C68.1887 88.5233 68.106 88.6888 68.0232 88.7715C67.6923 89.1025 67.4441 89.5161 67.2786 90.0125C67.1132 90.2607 66.9477 90.5089 66.9477 90.9226C66.9477 91.1708 66.6168 91.2535 66.3686 91.2535C66.1204 91.2535 65.9549 91.1708 65.8722 90.8398C65.7895 90.2607 66.0377 89.7643 66.1204 89.2679C66.2031 88.937 66.2031 88.6061 66.3686 88.2751C66.5341 87.8615 66.5341 87.4478 66.6168 87.0342C66.6168 86.9514 66.6168 86.9515 66.6168 86.8687C66.5341 86.8687 66.4513 86.786 66.3686 86.8687C65.9549 87.2824 65.3758 87.3651 64.7967 87.3651C64.6312 87.3651 64.5485 87.4478 64.4658 87.6133C64.3003 88.5233 64.0521 89.3506 63.8866 90.2607C63.8866 90.3434 63.8866 90.4262 63.8866 90.5089C63.8866 91.0053 63.6384 91.1707 63.2248 91.1707C62.8111 91.1707 62.6457 90.9226 62.7284 90.5089C62.8939 89.8471 63.0593 89.1025 63.1421 88.4406C63.2248 88.1097 63.2248 87.8615 63.3075 87.5306C63.3903 87.3651 63.3075 87.2824 63.2248 87.2824C62.8939 87.2824 62.5629 87.1996 62.232 87.3651C62.1493 87.4478 61.9838 87.4478 61.8184 87.3651C61.6529 87.2824 61.8184 87.1169 61.9011 87.0342C61.9838 86.455 62.232 86.2896 62.8939 86.2896C63.6385 86.2896 64.383 86.2896 65.1276 86.2896C65.7067 86.2896 65.7067 86.2068 65.7067 85.7105C65.7067 85.6277 65.7067 85.545 65.7067 85.3795C66.0377 85.545 66.3686 85.7932 66.7822 85.7105C67.1959 85.7105 67.5268 85.4623 68.0232 85.4623C67.775 85.7932 67.8578 86.2068 67.775 86.5378C67.6923 86.8687 67.6096 87.2824 67.5268 87.6133C67.5268 87.696 67.4441 87.7787 67.6096 87.7787C67.6923 87.8615 67.6923 87.696 67.775 87.696C68.106 87.4478 68.4369 87.2824 68.8505 87.4478C69.2642 87.6133 69.5124 87.9442 69.5124 88.3579C69.5124 88.7715 69.5124 89.1025 69.5124 89.5161C69.5124 89.5988 69.5124 89.7643 69.6779 89.7643C69.8433 89.8471 69.8433 89.6816 69.9261 89.5989C70.257 89.2679 70.4224 88.937 70.5879 88.5234C71.0016 87.7788 71.5807 87.4478 72.408 87.3651C72.8217 87.3651 73.2353 87.5306 73.4008 87.9442C73.5662 88.3579 73.4835 88.7715 73.1526 89.1025C72.7389 89.5161 72.3253 89.6816 71.8289 89.847C71.6634 89.847 71.4979 89.847 71.4979 90.0125C71.4979 90.178 71.7461 90.178 71.8289 90.178C72.0771 90.178 72.3253 90.178 72.5735 90.0125C73.1526 89.6816 73.649 89.2679 73.9799 88.6061C74.2281 88.1097 74.6417 87.7788 75.2209 87.696C75.3863 87.696 75.4691 87.6133 75.5518 87.4478C75.7173 87.0342 75.9655 87.1996 76.2137 87.1996C76.4619 87.2824 76.71 87.4478 76.8755 87.6133C77.1237 87.8615 77.3719 88.027 77.7028 88.1097C78.0337 88.1924 78.2819 88.1097 78.4474 87.9442C79.0265 87.4478 79.6056 87.1169 80.3502 87.4478C80.5984 87.5306 80.5984 87.2824 80.6812 87.1169C80.6812 86.9514 80.9293 86.7032 80.5984 86.6205C80.0193 86.455 79.8538 85.9587 79.8538 85.4623C79.8538 85.2968 79.9366 85.2968 80.0193 85.3795C80.5984 85.7932 81.1775 85.7105 81.7567 85.4623C82.0876 85.3795 82.1703 85.4623 82.1703 85.7932C81.9221 86.8687 81.6739 88.0269 81.4257 89.1025C81.343 89.3507 81.2603 89.6816 81.5085 89.847C81.7567 90.0125 81.9221 89.6816 82.0876 89.5161C82.3358 89.2679 82.584 89.0197 82.7494 88.6888C82.9976 88.1924 83.4113 87.7788 84.0732 87.6133C84.2386 87.6133 84.3213 87.5306 84.4041 87.4478C84.5695 87.0342 84.8177 87.1169 85.1487 87.1996C85.3968 87.2824 85.6451 87.4478 85.8932 87.696C86.1414 88.027 86.4724 88.1097 86.8033 88.1924C86.886 88.1924 87.0515 88.2752 87.0515 88.027C87.1342 87.5306 87.5479 87.6133 87.7961 87.6133C88.127 87.5306 88.2925 87.7788 88.3752 88.1097C88.3752 88.1924 88.3752 88.2751 88.4579 88.3579C88.7061 87.9442 89.0371 87.6133 89.4507 87.4478C89.9471 87.2824 90.278 87.5306 90.3607 87.9442C90.3607 88.027 90.278 88.1924 90.4435 88.2751C90.5262 88.2751 90.6089 88.1924 90.6917 88.1097C90.9399 87.8615 91.1881 87.6133 91.519 87.4478C91.8499 87.2824 92.0981 87.3651 92.2636 87.5306C92.429 87.696 92.5945 88.0269 92.5118 88.2751C92.429 88.6888 92.3463 89.1852 92.2636 89.6816C92.2636 89.7643 92.1808 89.847 92.3463 89.9298C92.429 89.9298 92.5118 89.847 92.5945 89.847C92.9254 89.5161 93.1736 89.1025 93.4218 88.6888C93.5045 88.5233 93.5045 88.4406 93.4218 88.2751C93.2563 88.1097 93.3391 88.027 93.5873 88.027C93.67 88.027 93.8355 87.9442 93.9182 87.9442C94.0837 87.9442 94.0837 87.7788 94.0009 87.6133C93.8355 87.1169 93.9182 86.9514 94.4146 86.786C94.9937 86.6205 95.3246 86.2069 95.7383 85.7932C95.9038 86.1241 95.6556 86.3723 95.5728 86.7032C95.4901 87.1169 95.0765 87.4478 94.7455 87.696C94.4973 87.8615 94.3319 87.8615 94.5801 88.1924C94.8283 88.6061 94.5801 89.0197 94.4973 89.4334C94.4973 89.6816 94.3319 90.0125 94.4973 90.0952C94.6628 90.2607 94.911 89.9298 95.0764 89.847C95.4901 89.5161 95.821 89.1025 96.0692 88.6061C96.152 88.4406 96.2347 88.2752 96.0692 88.1097C95.9865 88.027 95.9865 87.9442 96.0692 87.8615C96.4002 87.7788 96.6483 87.6133 96.9793 87.696C97.1447 87.7788 97.2275 87.8615 97.3102 88.027C97.3102 88.1097 97.3102 88.2751 97.3929 88.2751C97.4757 88.2751 97.5584 88.1924 97.5584 88.1097C97.8066 87.8615 98.1375 87.6133 98.4684 87.4478C98.8821 87.2824 99.1303 87.3651 99.3785 87.7787C99.4612 87.9442 99.544 88.0269 99.7922 87.8615C99.8749 87.7788 100.04 87.7788 100.206 87.696C100.454 87.6133 100.619 87.6133 100.702 87.3651C100.785 87.1169 101.033 87.1996 101.199 87.1996C101.53 87.2824 101.86 87.4478 102.109 87.7787C102.274 87.9442 102.44 88.0269 102.688 88.1924C103.019 88.3579 103.35 88.2752 103.681 88.1097C104.094 87.8615 104.094 88.1924 104.177 88.3579C104.342 88.5233 104.26 88.6888 104.011 88.7715C103.598 89.0197 103.184 89.1852 102.688 89.0197C102.522 88.937 102.522 89.1025 102.522 89.1852C102.357 89.9298 101.943 90.5089 101.281 90.8398C100.454 91.2535 99.4612 91.088 99.0476 90.3434C98.7994 89.9298 98.6339 89.5161 98.8821 89.0197C98.9648 88.7715 98.9648 88.7715 98.7166 88.7715C98.7166 88.7715 98.6339 88.7715 98.6339 88.6888C98.4684 88.3579 98.303 88.5233 98.1375 88.6888C97.5584 89.2679 97.1447 89.847 96.9793 90.6744C96.8965 91.088 96.6483 91.088 96.3174 91.088C95.9865 91.088 95.821 90.9226 95.7383 90.5916C95.7383 90.5089 95.7383 90.4262 95.6556 90.3434C95.4901 90.2607 95.4901 90.4262 95.4074 90.5089C95.0765 90.7571 94.7455 91.0053 94.3319 91.088C93.9182 91.1707 93.5873 91.088 93.4218 90.7571C93.1736 90.4262 93.0082 90.5089 92.76 90.6744C92.5945 90.8398 92.429 90.9226 92.1808 91.0053C91.519 91.2535 91.0226 90.9225 90.9399 90.2607C90.9399 89.9298 91.0226 89.5989 91.1053 89.1852C91.1881 89.3507 91.1881 89.2679 91.1053 89.1025ZM74.8899 89.847C74.8899 90.0952 74.9727 90.3434 75.2209 90.5089C75.5518 90.5916 75.8827 90.5916 76.0482 90.2607C76.2964 89.9298 76.3791 89.5989 76.3791 89.1852C76.3791 88.8543 75.9655 88.6061 75.7173 88.6888C75.2209 88.8543 74.8072 89.4334 74.8899 89.847ZM99.9576 89.6816C99.9576 90.0125 99.9576 90.3434 100.206 90.4262C100.537 90.5089 100.785 90.5089 101.033 90.178C101.281 89.9298 101.364 89.5989 101.447 89.2679C101.53 88.8543 100.95 88.5233 100.619 88.6888C100.206 88.937 99.8749 89.2679 99.9576 89.6816ZM85.0659 89.2679C84.9832 89.1852 85.2314 88.937 84.9005 88.7715C84.5695 88.6061 84.4041 88.6888 84.1559 88.8543C83.9077 89.0197 83.7422 89.2679 83.6595 89.5989C83.5768 89.9298 83.5768 90.2607 83.9077 90.4262C84.0731 90.5916 84.5695 90.5089 84.735 90.2607C84.9832 90.0125 85.1487 89.6816 85.0659 89.2679ZM79.0265 90.3434C79.5229 89.9298 79.8538 89.4334 80.2675 88.937C80.433 88.6888 80.3502 88.6061 80.1848 88.5234C79.9366 88.4406 79.6056 88.3579 79.4402 88.6061C79.0265 89.1025 78.8611 89.6816 79.0265 90.3434ZM71.6634 89.2679C71.8289 89.2679 72.408 88.8543 72.408 88.6888C72.408 88.6061 72.408 88.5233 72.3253 88.4406C72.2425 88.3579 72.1598 88.4406 72.1598 88.4406C71.9116 88.6061 71.7461 88.7715 71.5807 89.0197C71.5807 89.0197 71.5807 89.1852 71.6634 89.2679Z" fill="#5F7691"/>
<path d="M128.583 91.0049C128.417 91.0049 128.252 91.0049 128.252 90.9221C127.838 90.343 127.507 90.7567 127.094 90.9221C126.432 91.253 126.018 91.1703 125.605 90.5085C125.522 90.4257 125.439 90.2603 125.274 90.5085C125.025 90.9221 124.612 91.1703 124.115 91.3358C123.785 91.5012 123.371 91.3358 123.123 90.9221C122.957 90.6739 122.874 90.6739 122.626 90.8394C122.378 91.0876 122.047 91.253 121.716 91.3358C121.054 91.5012 120.393 91.0048 120.475 90.0121C120.558 89.6811 120.641 89.3502 120.723 88.9366C120.723 88.6056 120.558 88.192 120.227 88.192C119.979 88.192 119.731 88.192 119.482 88.192C119.317 88.192 119.234 88.2747 119.152 88.4402C119.069 88.9366 118.903 89.3502 118.903 89.8466C118.903 90.0121 118.903 90.1775 119.069 90.343C119.234 90.4257 119.4 90.343 119.482 90.2603C119.813 90.0948 119.813 89.6811 120.062 89.5157C120.144 89.5984 120.144 89.7639 120.227 89.8466C120.393 90.0948 120.31 90.5912 120.062 90.8394C119.731 91.0876 119.4 91.3358 118.986 91.4185C118.572 91.5012 118.076 91.3358 117.828 90.9221C117.662 90.5912 117.58 90.7567 117.497 90.8394C117.249 91.0876 116.918 91.3358 116.504 91.3358C116.09 91.3358 115.76 90.9221 115.677 90.5912C115.594 90.0948 115.594 89.5984 115.594 89.102C115.594 89.0193 115.594 88.9366 115.511 88.8538C115.429 88.8538 115.429 88.9366 115.346 89.0193C114.85 89.5984 114.519 90.2603 114.188 90.9221C114.105 91.0876 114.188 91.3358 113.857 91.4185C113.443 91.5012 113.112 91.4185 113.112 90.9221C113.112 90.7567 113.195 90.5085 113.029 90.4257C112.781 90.343 112.698 90.5912 112.533 90.6739C112.202 90.9221 111.871 91.1703 111.458 91.1703C111.044 91.1703 110.713 91.0876 110.547 90.6739C110.547 90.5912 110.465 90.5085 110.382 90.343C110.134 90.5912 109.886 90.9221 109.637 91.0876C108.893 91.584 108.562 91.584 108.066 91.0049C107.817 90.5912 107.817 90.1775 107.9 89.6811C108.066 89.0193 108.396 88.4402 108.976 88.0265C109.472 87.6956 109.886 87.5301 110.465 87.7783C110.713 87.861 110.878 87.861 111.127 87.7783C111.209 87.7783 111.292 87.6956 111.375 87.6956C111.623 87.6956 111.871 87.6129 112.037 87.6956C112.285 87.9438 111.954 88.0265 111.871 88.192C111.706 88.6884 111.54 89.2675 111.54 89.8466C111.54 90.1775 111.706 90.1775 111.871 90.0121C112.368 89.6811 112.699 89.2675 113.029 88.7711C113.112 88.6884 113.112 88.6056 113.029 88.5229C112.699 87.9438 113.278 88.1092 113.443 88.0265C113.774 87.8611 114.105 88.0265 114.188 88.3574C114.188 88.4402 114.188 88.6056 114.27 88.6056C114.436 88.6056 114.436 88.5229 114.519 88.4402C114.684 88.2747 114.85 88.1092 115.015 88.0265C115.76 87.5301 116.339 87.861 116.421 88.6884C116.504 89.1848 116.587 89.5984 116.587 90.0948C116.587 90.1775 116.504 90.343 116.67 90.343C116.752 90.343 116.835 90.2603 116.918 90.1775C117.249 89.7639 117.58 89.3502 117.745 88.8538C117.828 88.6884 117.828 88.5229 117.745 88.4402C117.662 88.2747 117.497 88.4402 117.414 88.5229C117.331 88.5229 117.249 88.5229 117.166 88.6056C117.001 88.6884 116.918 88.8538 116.752 88.6884C116.67 88.5229 116.835 88.4402 116.918 88.3574C117.166 87.9438 117.414 87.6129 117.993 87.6956C118.159 87.6956 118.242 87.4474 118.242 87.3647C118.49 86.7855 119.152 86.6201 119.648 86.7028C119.813 86.7028 119.896 86.7855 119.731 86.951C119.565 87.1165 119.317 87.3647 119.4 87.5301C119.482 87.7783 119.896 87.6129 120.062 87.6129C120.393 87.6129 120.723 87.6129 120.972 87.2819C121.054 87.1165 121.303 87.1992 121.468 87.1165C121.882 86.951 122.213 86.6201 122.544 86.3719C122.626 86.2892 122.709 86.2064 122.792 86.2892C122.874 86.3719 122.709 86.4546 122.709 86.4546C122.626 87.2819 122.13 87.7783 121.468 88.192C121.303 88.2747 121.303 88.3574 121.468 88.4402C121.634 88.5229 121.716 88.7711 121.634 89.0193C121.551 89.4329 121.468 89.8466 121.385 90.1775C121.385 90.343 121.303 90.5085 121.385 90.5912C121.468 90.6739 121.634 90.5912 121.716 90.5085C122.213 90.1775 122.544 89.7639 122.874 89.2675C123.288 88.4402 123.867 87.861 124.86 87.861C125.025 87.861 125.108 87.8611 125.191 87.9438C125.439 88.0265 125.687 88.0265 125.853 87.9438C126.101 87.8611 126.349 87.861 126.597 87.861C126.763 87.861 126.846 87.9438 126.68 88.1093C126.266 88.6884 126.266 89.3502 126.266 90.0121C126.266 90.0948 126.266 90.2603 126.349 90.2603C126.432 90.2603 126.515 90.2603 126.68 90.1775C127.094 89.8466 127.425 89.433 127.673 88.9366C128.087 88.3574 128.583 87.861 129.328 87.861C129.907 87.861 130.403 87.6956 130.982 87.6129C131.065 87.6129 131.23 87.5301 131.313 87.6129C131.396 87.6956 131.313 87.8611 131.313 87.9438C131.065 88.4402 131.065 88.9366 130.982 89.4329C130.982 89.5984 130.982 89.6811 131.148 89.5984C131.479 89.3502 131.727 89.102 131.975 88.8538C132.223 88.6056 132.471 88.3574 132.885 88.2747C133.133 88.192 133.381 88.192 133.464 87.861C133.547 87.6129 133.795 87.6956 133.961 87.7783C134.291 87.861 134.622 88.0265 134.788 88.2747C135.284 88.7711 135.863 89.0193 136.525 88.6056C136.773 88.4402 136.856 88.7711 136.939 88.8538C137.022 89.0193 137.104 89.1848 136.939 89.2675C136.525 89.5157 136.194 89.6811 135.698 89.5984C135.45 89.5157 135.45 89.6811 135.367 89.9293C135.036 91.0048 134.291 91.6667 133.299 91.7494C132.637 91.7494 131.975 91.4185 131.727 90.7566C131.727 90.6739 131.727 90.5085 131.561 90.5912C131.313 90.5912 130.817 91.0876 130.817 91.4185C130.734 92.3286 130.403 92.9904 129.576 93.4041C128.997 93.6523 128.5 93.735 127.921 93.4868C127.342 93.2386 127.259 92.4113 127.673 91.9976C128.252 91.3358 128.5 91.2531 128.583 91.0049ZM133.133 89.7639C133.133 90.0121 133.05 90.343 133.381 90.4257C133.712 90.5085 133.961 90.5085 134.209 90.1775C134.457 89.8466 134.622 89.5157 134.622 89.102C134.622 88.7711 134.209 88.5229 133.878 88.6056C133.464 88.8538 133.05 89.433 133.133 89.7639ZM110.217 88.4402C109.968 88.4402 109.968 88.4402 109.886 88.5229C109.472 88.9366 109.389 89.4329 109.307 89.9293C109.307 90.0948 109.389 90.0948 109.472 90.1775C109.555 90.2603 109.637 90.0948 109.72 90.0948C110.051 89.7639 110.382 89.3502 110.713 88.8538C110.878 88.6056 110.796 88.5229 110.547 88.4402C110.382 88.5229 110.299 88.5229 110.217 88.4402ZM124.115 89.6811C124.115 89.8466 124.115 89.8466 124.115 89.9293C124.115 90.0121 124.115 90.1775 124.198 90.2603C124.364 90.343 124.446 90.1775 124.529 90.0948C124.86 89.6811 125.191 89.2675 125.439 88.8538C125.522 88.7711 125.522 88.6884 125.356 88.6056C125.108 88.4402 124.612 88.4402 124.446 88.6884C124.364 89.0193 124.115 89.3502 124.115 89.6811ZM129.824 88.4402C129.328 88.4402 128.666 89.3502 128.831 89.8466C128.914 89.9293 128.914 90.0121 129.079 89.9293C129.493 89.6811 129.741 89.3502 130.072 88.9366C130.155 88.8538 130.32 88.7711 130.238 88.6056C130.155 88.4402 129.907 88.5229 129.824 88.4402ZM130.072 91.3358C129.576 91.4185 129.245 91.7494 128.997 91.9976C128.914 92.1631 128.831 92.2458 129.079 92.3285C129.41 92.4113 129.576 92.3286 129.824 92.0804C129.989 91.8322 129.907 91.584 130.072 91.3358Z" fill="#5F7691"/>
<path d="M14.6616 90.0947C14.5789 90.3429 14.5789 90.6738 14.4962 90.922C14.0825 91.7493 13.0897 91.9975 12.4279 91.5011C12.097 91.2529 12.097 90.922 12.3451 90.5911C12.5106 90.3429 12.7588 90.1774 13.007 90.0947C13.1725 90.012 13.2552 90.012 13.1725 89.8465C13.007 89.5156 12.8415 89.1847 12.6761 88.8537C12.6761 88.771 12.5933 88.6883 12.5106 88.8537C12.4279 88.9365 12.3452 89.0192 12.2624 89.1019C12.097 89.1847 12.0142 89.2674 11.9315 89.0192C11.8488 88.771 11.766 88.8537 11.6006 89.0192C10.9387 89.5983 10.4423 90.3429 10.2769 91.2529C10.1941 91.5011 9.94593 91.5011 9.78047 91.5839C9.53228 91.6666 9.36681 91.5011 9.28408 91.3357C9.20135 91.0048 9.03588 91.0047 8.78769 91.1702C8.45676 91.4184 8.0431 91.5839 7.62945 91.3357C7.29852 91.1702 7.29852 90.8393 7.05033 90.5911C6.7194 90.8393 6.55394 91.1702 6.22301 91.3357C5.72662 91.6666 5.3957 91.6666 4.98204 91.4184C4.56838 91.1702 4.48565 90.5084 4.56838 90.0947C4.73384 89.5983 4.73384 89.1019 4.89931 88.6055C4.89931 88.5228 4.89931 88.5228 4.89931 88.4401C4.81658 88.0264 4.81658 88.0264 5.23024 88.0264C6.14028 88.0264 6.05755 88.4401 5.89208 89.1019C5.80935 89.5156 5.64389 89.8465 5.64389 90.3429C5.64389 90.4256 5.64389 90.5084 5.72662 90.5911C5.80936 90.5911 5.89208 90.5084 5.89208 90.5084C6.4712 90.012 6.80213 89.3501 7.13306 88.6883C7.13306 88.6055 7.21579 88.5228 7.13306 88.4401C7.13306 88.2746 7.05033 88.0264 7.38125 87.9437C7.71218 87.861 7.96038 87.861 8.20857 88.0264C8.37403 88.1919 8.37403 88.4401 8.2913 88.6055C8.12584 89.1019 8.0431 89.5983 8.0431 90.1774C8.0431 90.3429 8.04311 90.5084 8.2913 90.3429C8.87042 90.012 9.11862 89.4329 9.44954 88.8537V88.771C9.44954 88.6055 9.03588 88.4401 9.53227 88.2746C10.2769 88.0264 10.4423 88.1091 10.6078 88.6055C10.6905 88.771 10.6905 88.771 10.856 88.6055C11.1042 88.3573 11.3524 88.0264 11.766 87.9437C12.097 87.7782 12.4279 87.7782 12.6761 88.1092C12.7588 88.2746 12.8415 88.2746 13.007 88.1092C13.4207 87.6955 13.6689 87.6128 13.9171 87.8609C14.1652 88.1091 14.248 88.5228 13.9998 88.8537C13.8343 89.1019 13.8343 89.3501 14.0825 89.5983C14.1652 89.681 14.1652 89.681 14.248 89.5983C14.4134 89.4329 14.7444 89.3501 14.9098 89.0192C15.158 88.6055 15.4889 88.3573 15.9853 88.1919C16.2335 88.1091 16.4817 88.0264 16.6472 87.7782C16.7299 87.6127 16.9781 87.6955 17.0608 87.6955C17.3918 87.7782 17.7227 87.9437 17.9709 88.2746C18.3018 88.6055 19.0464 88.8537 19.4601 88.5228C19.6255 88.3574 19.791 88.3573 19.8737 88.6055C19.9565 88.771 20.2874 89.0192 19.8737 89.1847C19.4601 89.3501 19.1291 89.5983 18.6327 89.4328C18.4673 89.3501 18.3846 89.5156 18.3018 89.6811C18.1364 90.4256 17.7227 90.922 17.0608 91.3357C16.0681 91.8321 14.9098 91.5011 14.6616 90.4256C14.7444 90.1774 14.7444 90.1774 14.6616 90.0947ZM17.3918 89.2674C17.3918 88.8537 17.0608 88.5228 16.7299 88.6883C16.2335 88.8537 15.8199 89.5156 15.9026 90.012C15.9853 90.2602 16.0681 90.4256 16.399 90.5084C16.8954 90.5911 17.3918 89.8465 17.3918 89.2674Z" fill="#5F7691"/>
<path d="M0.0181747 89.4328C-0.0645569 88.0264 0.928221 86.9508 2.16919 86.5372C2.66558 86.3717 3.2447 86.3717 3.82383 86.6199C4.07202 86.7854 4.23748 86.9509 4.23748 87.2818C4.23748 87.6127 3.98929 87.8609 3.7411 87.9436C3.4929 88.0264 3.4929 87.7782 3.41017 87.6955C3.16197 87.2818 2.74832 87.1163 2.33466 87.2818C1.83827 87.4473 1.59007 87.8609 1.34188 88.2746C1.17642 88.6882 1.17642 89.1846 1.17642 89.5983C1.17642 90.1774 1.83827 90.591 2.41739 90.4256C2.91378 90.2601 3.24471 90.0119 3.57563 89.681C3.7411 89.5155 3.82382 89.3501 3.90656 89.7637C3.98929 90.2601 3.98929 90.5083 3.57563 90.7565C3.07925 91.1702 2.50012 91.3356 1.83827 91.3356C0.845488 91.4184 -0.147288 90.6738 0.0181747 89.4328Z" fill="#5F7691"/>
<path d="M107.073 86.5371C107.238 86.5371 107.321 86.5371 107.487 86.5371C107.818 86.5371 107.983 86.7026 108.148 86.9508C108.314 87.199 108.148 87.4472 107.983 87.6126C107.818 87.9436 107.735 88.0263 107.487 87.6126C107.404 87.3644 107.073 87.2817 106.825 87.2817C106.577 87.2817 106.494 87.4472 106.411 87.6126C106.328 87.7781 106.494 87.9436 106.577 88.0263C106.99 88.44 107.404 88.7709 107.652 89.1845C108.148 89.9291 107.818 90.8392 107.238 91.1701C106.577 91.5837 105.832 91.7492 105.087 91.3356C104.674 91.1701 104.508 90.8392 104.591 90.4255C104.591 90.1773 105.005 89.7637 105.336 89.6809C105.584 89.5982 105.501 89.8464 105.501 89.9291C105.501 90.26 105.501 90.5082 105.832 90.6737C106.163 90.8392 106.659 90.7564 106.825 90.5082C107.073 90.1773 106.825 89.9291 106.577 89.7637C106.328 89.5155 106.08 89.2673 105.832 89.0191C105.418 88.6054 105.17 88.109 105.418 87.5299C105.667 86.9508 106.163 86.5371 106.825 86.5371C106.907 86.5371 106.99 86.5371 107.073 86.5371Z" fill="#5F7691"/>
<path d="M140 89.1015C139.918 89.3497 139.752 89.5979 139.669 89.7634C139.256 90.508 138.842 91.1698 138.511 91.9144C138.428 92.1626 138.263 92.1626 138.097 91.9971C138.015 91.9144 137.849 91.8317 137.766 91.7489C137.601 91.6662 137.601 91.5007 137.684 91.418C138.097 90.7562 138.428 90.0116 138.842 89.3497C138.925 89.1843 139.09 88.936 139.173 88.7706C139.256 88.6051 139.338 88.5224 139.504 88.6878C139.587 88.7706 139.918 88.8533 140 89.1015Z" fill="#5F7691"/>
</svg>
