<svg width="121" height="81" viewBox="0 0 121 81" fill="none" xmlns="http://www.w3.org/2000/svg">
<path d="M0 79.6804C0.205782 79.3717 0.257228 79.1145 0 78.8572V78.8058C0.154337 79.1145 0.308673 79.1145 0.514456 78.9087C0.617347 78.7544 0.720244 78.6 0.874581 78.4457C0.977472 78.4457 1.02891 78.3428 1.02891 78.2399C2.21216 76.8509 3.24107 75.359 4.11565 73.7642C4.26998 73.5584 4.42434 73.404 4.52724 73.1982C4.99025 72.6323 5.4018 72.0665 5.86481 71.4491H5.96771L6.01914 71.3462C6.89371 71.3462 7.71685 71.0375 8.43709 70.5745C8.95154 70.3173 9.46601 70.1115 9.92902 69.8543C10.5978 69.8028 11.1123 69.0826 11.8839 69.3398C11.8839 70.2658 12.3984 70.0601 13.0158 69.9572C14.4562 69.6485 15.9481 69.4427 17.4401 69.2884C24.591 68.671 31.639 69.134 38.79 69.9572C44.2432 70.5745 49.3363 72.3237 54.6867 73.1982C55.304 73.4555 56.0757 74.0728 56.1786 72.6838C56.3844 72.6323 56.5901 72.6323 56.7959 72.5809C57.0532 72.5809 57.2589 72.478 57.2589 72.1693C57.5162 72.015 57.7734 71.8606 58.0306 71.6549C58.648 71.6549 58.8538 71.1404 59.2139 70.8318C59.6769 70.3173 60.037 70.8318 60.4485 70.9346C61.0659 70.9346 61.7347 70.9346 62.352 70.8832C62.9179 71.1404 63.0723 72.1693 63.9983 71.8607C64.7185 72.015 64.9243 72.9925 65.7989 72.8896C66.2619 73.404 66.622 72.941 66.9821 72.7352C72.6926 69.2369 79.0204 68.4138 85.5025 68.208C88.4864 68.7225 91.4702 68.7225 94.4541 68.208C100.113 68.2595 105.721 69.0312 111.328 69.8028C112.203 71.089 113.489 70.1115 114.569 70.3687L114.518 70.4716L114.569 70.3687C114.775 70.8832 115.29 70.9861 115.753 71.1919C115.701 71.552 115.753 71.8606 116.216 71.9121C117.707 74.33 119.251 76.748 121 79.5775C116.73 77.9827 112.82 76.748 108.807 75.9763C94.8656 73.3526 81.1811 74.3815 67.8053 79.1145C66.7764 79.4746 66.1076 79.4746 65.2844 78.6C62.1463 75.1532 59.8827 75.0503 56.6416 78.3943C55.7156 79.3717 54.9953 79.4232 53.8121 79.1659C45.7351 77.3653 37.6067 76.1306 29.2725 75.8734C21.247 75.6162 13.4273 76.285 5.65901 78.1885C4.88733 78.3942 4.1671 78.6515 3.44686 78.9087C2.62373 79.2174 1.85204 79.526 1.02891 79.7833C0.823129 79.8347 0.617372 79.9376 0.41159 79.9891C0.154362 80.1434 0.0514456 79.9891 0 79.6804Z" fill="#5F7691"/>
<path d="M71.4068 3.95312C71.7155 5.70227 71.8698 7.45142 72.3842 9.09768C72.9501 10.8468 72.2299 11.7728 70.9438 12.6474C66.5709 15.6827 61.5807 16.403 56.4876 16.8145C53.7609 17.0203 51.0343 17.0717 48.3077 16.5058C44.8609 15.7856 44.1406 14.911 44.1406 11.4127C44.1406 10.3838 44.1921 9.35489 44.1921 8.27453C47.3817 8.27453 50.6228 8.2231 53.8124 8.2231C54.0696 8.2231 54.3268 8.27453 54.6355 8.27453C55.4072 8.78899 56.1789 8.58322 57.002 8.48033C58.0309 8.68611 59.0084 8.73755 59.7801 7.86298C61.0148 7.91442 62.0437 7.45142 62.9183 6.67973C63.0212 6.5254 63.1755 6.42251 63.2784 6.26818C64.2558 6.31962 65.1819 6.11384 66.0564 5.75372C67.7541 5.08493 69.4518 4.10746 71.4068 3.95312Z" fill="#5F7691"/>
<path d="M71.4064 3.95271C69.4515 4.10705 67.7538 5.0845 66.0046 5.80474C65.0786 6.16486 64.204 6.42209 63.2265 6.3192C63.1237 6.47353 62.9693 6.57642 62.8664 6.73076C61.6832 6.7822 60.6028 7.03945 59.7283 7.91403C57.7733 7.91403 55.7669 7.91403 53.812 7.91403C50.5709 7.91403 47.3299 7.91403 44.0888 7.91403L43.9859 7.86256C41.0535 7.14233 38.0697 7.55388 35.0858 7.50244C34.6228 7.50244 34.2113 7.50244 33.7482 7.50244C33.7482 7.39955 33.6968 7.29667 33.6968 7.19378C37.5037 6.01053 41.2593 4.82727 45.0663 3.64402C46.8154 3.12957 48.5646 2.66657 50.2623 2.04922C54.7895 0.351517 59.4196 -0.162951 64.204 0.0428309C69.0914 0.197168 73.9787 0.0942954 79.0718 0.0942954C78.0429 1.17465 76.6024 1.07175 75.6764 1.94632C75.3163 2.255 74.9047 2.15212 74.4931 2.15212C73.5671 3.02669 71.8694 2.46079 71.4064 3.95271Z" fill="#5F7691"/>
<path d="M46.3527 24.0158C47.2273 23.8615 47.999 23.7071 46.8671 22.6782C46.1984 22.0609 45.6839 21.2892 44.9122 20.7233C41.3625 18.151 41.3625 14.5498 41.9798 10.6914C42.2885 16.762 46.8157 19.9002 50.5198 23.6557C53.8123 26.9997 57.0534 30.4465 58.6482 35.0252C59.0083 36.0541 61.169 36.0541 61.6835 35.0252C64.9245 28.543 69.5032 23.2441 74.8021 18.4082C76.0882 17.2764 76.1911 15.2701 76.9113 13.6238C77.3229 12.6463 77.7345 11.6174 78.2489 10.6914C78.3518 13.0579 77.9917 15.3215 77.5802 17.6366C76.0882 19.3343 74.5963 21.0834 73.0015 22.7297C72.2298 23.5528 72.4356 23.8615 73.4131 24.0158C73.2073 24.1702 73.0529 24.3245 72.8472 24.5303C71.9726 24.2216 71.3038 24.4788 70.6864 25.2505C69.709 26.4337 68.7315 27.617 67.6511 28.6974C66.8795 29.469 66.828 30.1893 67.4454 31.0639C67.2396 31.0639 66.9824 31.0639 66.7766 31.1153C65.7991 30.1378 65.7477 31.3725 65.439 31.7327C62.6095 35.5911 62.5066 40.3755 61.3748 44.7998C61.0147 46.549 60.6031 48.2981 60.243 50.0473C60.1401 50.0473 60.0372 50.0473 59.9343 50.0473C59.4713 48.0923 59.0597 46.086 58.5967 44.131C58.7511 43.8224 58.6996 43.5651 58.4938 43.3079C58.0823 41.353 57.6707 39.398 57.2077 37.4431C56.5903 34.8194 55.3042 32.5043 53.7608 30.3436C53.4007 30.2407 53.2978 30.4465 53.2978 30.7552C52.3204 30.2407 53.5551 28.3887 51.8059 28.3372C51.703 29.8806 51.2914 31.2182 49.388 31.1667C48.1018 31.1667 47.2273 30.3436 47.2273 29.1089C47.1758 26.9482 48.925 26.7424 50.6741 26.691C48.5134 24.2731 48.5134 24.273 46.3527 24.736C46.3527 24.4788 46.3527 24.2216 46.3527 24.0158ZM51.6516 27.617C51.6001 27.6685 51.5487 27.7199 51.4973 27.7713C51.4973 27.8228 51.6001 27.8742 51.6001 27.9257C51.6516 27.8742 51.703 27.8228 51.7545 27.7713C51.7545 27.7199 51.6516 27.6685 51.6516 27.617Z" fill="#5F7691"/>
<path d="M40.5907 60.3888C40.0248 59.4627 39.5103 58.5367 38.9444 57.6107C38.7901 57.2506 38.6358 56.839 38.43 56.4789C38.3271 56.3245 38.2757 56.1187 38.1728 55.9644C38.2242 55.8615 38.1728 55.7586 38.0699 55.7072C37.8641 55.1927 37.6583 54.6268 37.4525 54.1124C37.3497 53.8552 37.2468 53.5979 37.1953 53.2892C36.9895 52.3632 36.8352 51.3857 36.6294 50.4597C36.6808 48.9164 36.7837 47.373 36.8352 45.8296C36.8866 44.3891 37.6069 43.2059 38.5329 42.2284C39.2531 41.4568 40.0248 40.7365 41.2081 41.1481C42.3399 41.5597 42.9572 42.5371 43.0087 43.7204C43.0601 45.2123 43.0087 46.7042 42.7514 48.1961C42.1855 52.0031 42.2884 55.7072 43.626 59.3084C43.7803 59.9772 43.163 61.0061 44.3977 61.2633C44.5006 61.3147 44.552 61.3662 44.5006 61.4691C44.0376 62.1893 43.5231 62.0865 42.9058 61.6749C42.1341 61.1604 41.3109 60.8003 40.5907 60.3888Z" fill="#5F7691"/>
<path d="M78.0435 58.948C78.0435 58.7422 78.0435 58.5879 78.0435 58.3821C78.0949 58.1249 78.1463 57.9191 78.1978 57.6618C78.6608 57.0445 78.5579 56.3243 78.6094 55.6555C79.0724 54.8838 78.9181 54.1121 78.8666 53.289C78.7123 50.7681 78.7123 48.2473 78.4036 45.7779C78.1464 43.823 78.5579 42.3311 80.1527 41.1993C82.5707 41.1478 83.3938 43.0513 84.4227 44.6461C84.5771 45.1606 84.6799 45.6751 84.8343 46.241C84.8343 47.7843 84.8343 49.3791 84.8343 50.9225C84.7828 51.1283 84.7828 51.3855 84.7314 51.5913C84.3713 52.7745 83.9597 54.0092 83.5996 55.1925C83.2909 55.3982 83.2395 55.6555 83.2909 56.0156C83.1366 56.3757 82.9822 56.7358 82.8279 57.096C82.3649 57.9191 81.9019 58.7422 81.4389 59.5653C80.873 59.5139 80.5129 59.874 80.0498 60.1313C78.8666 60.6972 78.0435 60.4399 78.0435 58.948Z" fill="#5F7691"/>
<path d="M66.3644 42.3826C64.9754 41.971 63.9465 43.5658 62.4546 43.0514C63.7407 41.4051 65.6442 41.508 67.3419 41.1479C70.3258 40.4791 73.1553 39.5016 75.7275 37.7525C80.6149 34.46 83.29 26.3316 78.5571 20.5182C80.1519 20.3124 80.2548 21.9072 81.1808 22.4217C83.4444 25.5599 82.7241 29.0067 82.0553 32.4021C81.3866 33.8941 80.7178 35.3345 80.1004 36.8264C79.9975 36.9808 79.8946 37.1351 79.7918 37.2895C79.6889 37.3924 79.586 37.4953 79.5345 37.6496C79.3802 37.8554 79.2259 38.1126 79.0201 38.3184C78.6085 38.5242 78.4027 38.8328 78.2484 39.2444C78.1455 39.2444 78.0941 39.2444 78.0941 39.3473C77.8368 39.6045 77.5796 39.8617 77.3224 40.119C77.2195 40.2219 77.168 40.2733 77.0651 40.3762C76.8594 40.4791 76.6536 40.6334 76.4478 40.7363H76.3449L76.2935 40.8392C75.3674 41.0964 74.4414 41.3022 73.5668 41.5594C73.3096 41.6109 73.0524 41.6109 72.7951 41.6623C72.2292 41.6623 71.6633 41.508 71.2518 42.0225C71.0974 42.0225 70.9945 42.0739 70.8402 42.0739C69.2454 42.1253 67.7535 41.6623 66.3644 42.3826Z" fill="#5F7691"/>
<path d="M48.6162 41.611C43.3173 41.6625 40.6421 38.3185 38.9444 33.9456C37.1438 29.3155 36.5779 24.6854 40.5907 20.7241C40.8993 20.4155 41.1051 19.901 41.671 20.0553L41.6196 20.0039C41.4652 20.364 41.4138 20.7756 41.208 21.0843C36.2692 28.4924 41.1566 37.0838 47.8959 39.6561C49.0792 40.1191 50.4682 40.1705 51.4457 41.1995C50.6225 42.0226 49.5422 41.3538 48.6162 41.611Z" fill="#5F7691"/>
<path d="M107.881 66.2532C107.367 66.2532 106.852 66.2018 106.441 66.5104C106.338 66.6133 106.235 66.7677 106.132 66.8706C105.566 66.6648 105.103 66.2532 104.434 66.5104C104.486 66.4075 104.486 66.3561 104.383 66.3047C106.235 65.2758 108.447 65.7387 110.505 64.8642C107.058 63.7838 103.508 63.8353 100.216 62.7549C94.9685 61.0572 89.9268 62.9607 84.7823 63.3208C82.8274 63.4751 80.9239 64.4526 78.9175 64.0925C81.5927 62.7035 84.5765 62.6006 87.4574 62.2919C93.1164 61.6745 98.6211 60.3884 103.92 58.3306C104.64 58.3306 105.309 58.0219 105.875 57.6104C106.389 57.7132 106.955 57.456 107.418 57.919C104.692 58.845 102.017 59.7196 99.3414 60.6971C98.9298 60.8514 98.3125 60.8514 98.3639 61.4688C98.4153 62.1376 99.0327 61.9318 99.4443 62.0347C103.303 62.8063 107.161 63.5266 111.02 64.2983C111.637 64.4012 112.614 64.2983 112.151 65.4815C111.74 65.533 111.328 65.5844 110.917 65.6358C109.939 65.6873 108.91 65.8416 107.881 66.2532ZM98.0552 61.3659C97.9009 61.1086 97.7466 61.2115 97.5922 61.3144C97.3864 61.3659 97.3864 61.4688 97.5922 61.5202C97.6951 61.5716 97.8495 61.6231 97.9523 61.6231C98.0038 61.6231 98.0038 61.4688 98.0552 61.3659Z" fill="#5F7691"/>
<path d="M16.2571 59.1529C25.1057 62.857 34.7775 63.1657 43.9862 65.2235C43.9348 65.3778 43.9348 65.5836 43.8834 65.738C41.9284 65.4293 39.9735 65.1721 38.0186 64.7605C33.9029 63.9888 29.7358 63.32 25.5173 63.1142C23.6138 63.0114 21.7103 63.7316 19.7554 64.0917C18.2635 64.3489 16.823 64.6576 15.3311 64.9148C15.3311 64.7091 15.3311 64.5033 15.3311 64.3489C18.2635 63.783 21.1444 63.1657 24.5913 62.4969C21.4531 61.5194 18.7779 60.6963 16.1542 59.8732C15.897 59.7703 15.5883 59.6674 15.3311 59.616C13.8392 59.0501 12.3987 58.5356 10.9067 57.9697C12.4501 57.4038 13.8906 58.0211 15.3311 58.0726C14.8681 59.1015 15.7941 58.9471 16.2571 59.1529Z" fill="#5F7691"/>
<path d="M74.4418 2.15208C74.8533 2.15208 75.2649 2.25496 75.625 1.94629C76.3967 5.44459 75.9337 9.04578 76.1395 12.5955C76.1909 13.1614 75.8822 13.3672 75.3163 13.3672C74.4932 13.4187 74.3389 13.0071 74.3389 12.2869C74.3903 8.89146 74.4418 5.54749 74.4418 2.15208Z" fill="#5F7691"/>
<path d="M46.3525 24.6854C42.8542 26.8975 42.8542 30.6531 46.301 32.7109C48.4617 33.997 50.3138 33.534 52.0629 31.2704C52.7317 30.4473 52.7317 30.4473 53.1947 31.0132C51.8571 33.1225 50.1595 34.7173 47.4843 34.0485C45.0149 33.4826 43.4715 31.7849 42.957 29.2641C42.4426 26.7432 43.5229 25.0455 46.301 24.0166C46.3525 24.2224 46.3525 24.4796 46.3525 24.6854Z" fill="#5F7691"/>
<path d="M16.2567 59.1536C15.7937 58.9478 14.8677 59.1022 15.3821 58.0732C22.3787 58.8964 29.3753 59.668 36.3719 60.4912C36.6806 61.6744 35.806 61.0571 35.4974 61.0056C31.3303 60.4912 27.1632 59.9767 22.9961 59.4622C21.1955 59.2565 19.3949 58.9992 17.5943 58.8964C17.1827 58.8449 16.5654 58.4333 16.2567 59.1536Z" fill="#5F7691"/>
<path d="M48.6162 41.6109C49.5422 41.3022 50.5711 41.971 51.4457 41.1993C53.7093 40.7878 55.7672 41.2508 57.5163 42.7942C57.825 43.0514 58.0308 43.4115 58.4938 43.3086C58.6996 43.5658 58.751 43.8231 58.5967 44.1317C55.5099 42.3826 52.0631 42.0225 48.6162 41.6109Z" fill="#5F7691"/>
<path d="M68.5254 64.8652C71.2006 63.2189 74.133 62.2415 77.0139 61.1611C77.3226 61.2126 77.6313 61.264 77.9399 61.3155C77.8885 61.4184 77.8371 61.5212 77.7342 61.6241C77.4255 61.6241 77.1168 61.6241 76.911 61.8814C74.133 62.7559 71.4578 63.9392 68.8341 65.1739C68.7312 65.071 68.6283 64.9681 68.5254 64.8652Z" fill="#5F7691"/>
<path d="M76.9113 64.3496C76.8598 64.6068 77.0656 64.9155 76.7055 65.0184C74.0303 65.5843 71.5095 66.6647 69.143 68.0023C68.8858 68.1566 68.8343 67.9508 68.7314 67.7965C71.0979 65.8415 73.9274 64.967 76.9113 64.3496Z" fill="#5F7691"/>
<path d="M107.47 57.9186C107.007 57.4555 106.441 57.7128 105.927 57.6099C105.567 57.507 104.641 58.0729 105.001 56.9411C106.698 56.9926 108.447 56.3237 110.66 56.9925C109.322 57.4041 108.396 57.6613 107.47 57.9186Z" fill="#5F7691"/>
<path d="M11.1125 65.841C12.2957 66.7156 13.8391 66.2011 15.0738 66.9728C15.0738 67.1271 15.0223 67.3329 15.0223 67.4873C14.3535 67.3844 13.7362 67.2814 13.0674 67.1786C11.8841 66.9728 10.7009 66.5612 9.46619 66.6641C9.20896 66.2525 8.79738 65.7895 9.51762 65.4294C10.0321 65.378 10.5465 65.2751 11.061 65.2236C11.061 65.4294 11.061 65.6352 11.1125 65.841Z" fill="#5F7691"/>
<path d="M77.9402 61.3151C77.6315 61.2636 77.3229 61.2122 77.0142 61.1607C77.2714 60.7492 77.6315 60.2861 76.8599 59.9774V59.926C76.9628 59.926 77.0142 59.926 77.1171 59.9774C77.5801 60.2861 77.6315 59.9775 77.6315 59.6174C77.7859 59.4116 77.8888 59.2058 78.0431 59C78.0431 60.4919 78.8662 60.6977 79.998 60.1832C80.461 59.9775 80.8212 59.6174 81.3871 59.6174C81.2327 59.926 82.5189 60.0289 81.5929 60.4405C80.7183 60.8006 79.7923 60.9549 78.9177 61.2122C78.5576 61.2122 78.2489 61.2636 77.9402 61.3151Z" fill="#5F7691"/>
<path d="M52.2692 65.8933C50.1599 65.0187 47.8963 64.4528 45.9414 63.1152C48.2565 63.5268 50.5201 64.1956 52.2692 65.8933Z" fill="#5F7691"/>
<path d="M44.0376 7.91406C47.2787 7.91406 50.5197 7.91406 53.7608 7.91406C53.7608 8.01695 53.7608 8.11982 53.7608 8.27416C50.5712 8.27416 47.3301 8.32562 44.1405 8.32562C44.089 8.22273 44.089 8.0684 44.0376 7.91406Z" fill="#5F7691"/>
<path d="M40.5905 60.3887C41.3622 60.8002 42.1338 61.1603 42.9055 61.6233C43.5743 62.0349 44.0888 62.0864 44.5003 61.4176C44.7575 61.8291 45.0662 62.2922 45.3235 62.7037C45.1177 62.7552 44.9119 62.8066 44.7061 62.8066C43.6258 62.4979 42.4939 62.0864 41.4136 61.8806C40.3847 61.6748 40.2304 61.2118 40.5905 60.3887Z" fill="#5F7691"/>
<path d="M64.41 68.2084C64.4614 69.3917 62.6094 69.546 62.9695 70.8836C62.8152 70.8836 62.6608 70.9351 62.5065 70.9351C61.8891 70.9351 61.2204 70.9351 60.603 70.9865C61.7863 70.7293 62.5579 69.9576 63.2267 69.0316C63.4325 68.6715 63.6383 68.0027 64.41 68.2084Z" fill="#5F7691"/>
<path d="M91.316 58.5359C93.168 58.3816 95.0715 58.2273 96.9236 58.0215C96.8207 58.2273 96.7692 58.4845 96.6663 58.6903C94.7629 58.8446 92.9108 59.0504 91.0073 59.2047C91.1102 58.9989 91.2131 58.7417 91.316 58.5359Z" fill="#5F7691"/>
<path d="M35.0859 7.50274C38.0698 7.55418 41.0536 7.14262 43.986 7.86286C41.0022 7.75997 38.0183 7.65707 35.0859 7.50274Z" fill="#5F7691"/>
<path d="M85.5542 60.0287C85.6571 59.8229 85.7085 59.5656 85.8114 59.3599C87.3033 59.1541 88.7953 58.9997 90.2357 58.7939C90.1843 59.0512 90.0814 59.257 90.0299 59.5142C89.8242 59.5656 89.6698 59.5656 89.4641 59.6171C89.2068 59.6171 88.9496 59.6685 88.6924 59.6685C87.6635 59.7714 86.5831 59.9258 85.5542 60.0287Z" fill="#5F7691"/>
<path d="M11.1125 65.8418C11.1125 65.6361 11.1125 65.4303 11.061 65.2245C12.5015 64.9673 13.942 64.6586 15.4339 64.4014C15.4339 64.6071 15.4339 64.8129 15.4339 64.9673C13.9934 65.2759 12.553 65.5332 11.1125 65.8418Z" fill="#5F7691"/>
<path d="M58.0819 71.7066C58.5963 69.9574 56.59 69.7516 56.127 68.5684C57.8247 68.4655 57.979 70.4204 59.2651 70.832C58.905 71.1921 58.6992 71.7066 58.0819 71.7066Z" fill="#5F7691"/>
<path d="M64.77 70.1624C65.0272 69.3907 65.9533 69.3393 66.4163 68.8248C67.2394 68.5676 67.7539 67.7959 68.6799 67.7959C67.7539 69.1849 66.4677 70.0081 64.77 70.1624Z" fill="#5F7691"/>
<path d="M111.431 69.8541C111.585 69.6997 111.688 69.5454 111.843 69.3911C112.614 68.9281 113.129 69.8026 113.798 69.8026C113.952 69.9055 114.055 69.957 114.209 70.0599C114.364 70.2142 114.518 70.3171 114.724 70.4714C113.592 70.1628 112.306 71.1402 111.431 69.8541Z" fill="#5F7691"/>
<path d="M54.6353 67.4372C53.7607 67.3858 53.2977 66.717 52.6289 66.254C52.6289 66.0997 52.6289 65.9454 52.6289 65.791C53.4006 66.254 54.378 66.3569 54.6353 67.4372Z" fill="#5F7691"/>
<path d="M11.8324 69.3919C11.678 68.9289 12.1925 69.0318 12.2954 68.7746C12.5526 68.6717 12.8098 68.5173 13.1185 68.4145C13.4786 68.3116 13.8902 68.2601 14.2503 68.1572C13.6844 69.0832 12.8613 69.4434 11.8324 69.3919Z" fill="#5F7691"/>
<path d="M56.1788 68.6202C55.51 68.4144 54.8927 68.1057 54.584 67.4369C55.51 67.334 56.0244 67.6942 56.1788 68.6202Z" fill="#5F7691"/>
<path d="M67.5995 65.9444C67.1364 66.4589 66.622 66.819 65.6445 67.2306C66.1075 66.2531 66.7249 65.9444 67.2908 65.6357C67.4451 65.7386 67.548 65.8415 67.5995 65.9444Z" fill="#5F7691"/>
<path d="M44.3977 61.16C43.163 60.9028 43.7803 59.8739 43.626 59.2051C43.8832 59.8739 44.1404 60.4912 44.3977 61.16Z" fill="#5F7691"/>
<path d="M68.8342 65.1726C68.4227 65.4299 68.0625 65.6871 67.6509 65.9443C67.5481 65.8414 67.4452 65.7385 67.3423 65.6356C67.7538 65.3784 68.114 65.1212 68.5255 64.8125C68.6284 64.9668 68.7313 65.0697 68.8342 65.1726Z" fill="#5F7691"/>
<path d="M114.93 70.3691C115.187 70.4206 115.393 70.5235 115.65 70.5749C115.701 70.7807 115.753 70.9865 115.856 71.2437C115.393 71.0894 114.878 70.9351 114.672 70.4206C114.775 70.3692 114.878 70.3691 114.93 70.3691Z" fill="#5F7691"/>
<path d="M44.7061 62.807C44.9118 62.7555 45.1176 62.7041 45.3234 62.7041C45.5806 62.807 46.0951 62.5497 45.9922 63.1671C45.4777 63.27 45.0662 63.1671 44.7061 62.807Z" fill="#5F7691"/>
<path d="M116.318 72.0152C115.855 71.9637 115.804 71.655 115.855 71.2949C116.01 71.5007 116.164 71.7579 116.318 72.0152Z" fill="#5F7691"/>
<path d="M111.843 69.3917C111.483 69.4431 111.123 69.4431 111.02 68.9801C111.534 68.6714 111.792 68.7743 111.843 69.3917Z" fill="#5F7691"/>
<path d="M111.071 68.9801C110.711 69.0315 110.351 69.0315 110.248 68.5685C110.66 68.4142 111.071 68.3113 111.071 68.9801Z" fill="#5F7691"/>
<path d="M110.3 68.6194C109.94 68.6708 109.528 68.7737 109.477 68.2078C109.888 68.0535 110.248 68.002 110.3 68.6194Z" fill="#5F7691"/>
<path d="M109.476 68.2085C109.064 68.3114 108.756 68.3114 108.653 67.7969C108.962 67.8998 109.476 67.5397 109.476 68.2085Z" fill="#5F7691"/>
<path d="M52.6289 65.791C52.6289 65.9454 52.6289 66.0997 52.6289 66.254C52.3716 66.254 52.2173 66.1511 52.2173 65.8424C52.3716 65.8424 52.526 65.791 52.6289 65.791Z" fill="#5F7691"/>
<path d="M38.1729 55.9131C38.2757 56.0674 38.3272 56.2732 38.4301 56.4275C38.3786 56.2732 38.2757 56.1189 38.1729 55.9131Z" fill="#5F7691"/>
<path d="M79.3804 37.6492C79.4833 37.5463 79.5862 37.392 79.6376 37.2891C79.5862 37.4434 79.4833 37.5463 79.3804 37.6492Z" fill="#5F7691"/>
<path d="M53.4517 30.8583C53.3488 30.8583 53.2974 30.8068 53.2974 30.7039C53.2974 30.3953 53.4002 30.1895 53.7604 30.2924C53.6575 30.4467 53.5546 30.6525 53.4517 30.8583Z" fill="#5F7691"/>
<path d="M0.823016 78.3945C0.720125 78.5489 0.617227 78.7032 0.462891 78.8575C0.617227 78.7032 0.720125 78.5489 0.823016 78.3945Z" fill="#5F7691"/>
<path d="M41.6709 20.0557C41.7223 19.9528 41.7224 19.85 41.7738 19.7471C42.1339 20.0043 41.7738 20.0043 41.6709 20.0557Z" fill="#5F7691"/>
<path d="M76.3452 40.7371C76.551 40.6342 76.7568 40.4798 76.9626 40.377C76.7568 40.4798 76.551 40.6342 76.3452 40.7371Z" fill="#5F7691"/>
<path d="M54.6865 73.1985C52.4229 71.1407 49.4905 70.369 46.661 69.4944C45.3748 69.0828 44.0887 68.8771 42.854 68.4141C47.7928 68.4141 51.9084 70.6777 56.1784 72.684C56.1269 74.0731 55.3553 73.4557 54.6865 73.1985Z" fill="#5F7691"/>
<path d="M67.6513 71.0886C67.3941 72.0147 65.3877 71.2944 65.9022 72.9407C65.0276 73.0436 64.8218 72.0661 64.1016 71.9118C64.1016 71.8089 64.1016 71.706 64.1016 71.6031C65.3877 72.0661 66.2623 70.9343 67.3426 70.7285C67.4455 70.8314 67.5484 70.9343 67.6513 71.0886Z" fill="#5F7691"/>
<path d="M64.1009 71.6039C64.1009 71.7068 64.1009 71.8097 64.1009 71.9126C63.1748 72.2213 63.0205 71.2438 62.4546 70.9351C62.6089 70.9351 62.7633 70.8837 62.9176 70.8837C63.2777 70.9866 63.6893 70.4207 63.998 70.9351C64.0494 71.1409 64.0494 71.3981 64.1009 71.6039Z" fill="#5F7691"/>
<path d="M56.8472 72.5811C56.7443 72.2724 56.6415 72.0152 56.5386 71.7065C56.5386 71.5008 56.59 71.3464 56.59 71.1406C57.2074 71.1921 57.2588 71.6551 57.3103 72.1181C57.3103 72.4782 57.1045 72.5811 56.8472 72.5811Z" fill="#5F7691"/>
<path d="M14.9707 67.8482C14.9707 67.7453 14.9707 67.591 14.9707 67.4881C14.9707 67.3338 15.0221 67.128 15.0221 66.9736C21.4014 67.0251 27.7806 67.0251 34.1599 67.0765C34.1599 67.2309 34.1599 67.3852 34.1085 67.5395C27.7807 67.6424 21.4014 67.7453 14.9707 67.8482Z" fill="#5F7691"/>
<path d="M34.1597 67.5401C34.1597 67.3858 34.1597 67.2315 34.2111 67.0771C36.8863 67.3344 39.51 67.643 42.1852 67.9003C42.1852 68.106 42.1337 68.3118 42.1337 68.5176C39.4586 68.3633 36.7834 68.0546 34.1597 67.5401Z" fill="#5F7691"/>
<path d="M52.2173 68.8775C49.6965 67.5913 47.0728 66.7167 44.5005 65.7393C47.33 66.0994 50.0052 67.0254 52.2173 68.8775Z" fill="#5F7691"/>
<path d="M52.2173 68.877C53.3491 69.1342 53.915 69.3914 54.5838 70.4203C53.5034 70.0602 52.989 69.7001 52.2173 68.877Z" fill="#5F7691"/>
<path d="M56.076 71.4496C55.4586 71.1924 54.8413 70.9351 54.2754 70.0605C55.3557 70.2663 55.9217 70.7808 56.539 71.1924C56.3847 71.2438 56.2303 71.3467 56.076 71.4496Z" fill="#5F7691"/>
<path d="M14.1987 68.2075C14.3016 67.7445 14.6617 67.7445 15.0218 67.7959C14.9704 68.4133 14.7132 68.5162 14.1987 68.2075Z" fill="#5F7691"/>
<path d="M56.5901 71.1924C56.5901 71.3982 56.5387 71.5525 56.5387 71.7583C56.3844 71.6554 56.23 71.5525 56.0757 71.4496C56.23 71.3467 56.3844 71.2953 56.5387 71.1924H56.5901Z" fill="#5F7691"/>
<path d="M53.7607 8.27416C53.7607 8.17127 53.7607 8.0684 53.7607 7.91406C55.7157 7.91406 57.7221 7.91406 59.677 7.91406C58.9053 8.78864 57.9279 8.68572 56.8989 8.53138C56.1273 8.06837 55.3556 8.32562 54.5324 8.32562C54.2752 8.32562 54.018 8.3256 53.7607 8.27416Z" fill="#5F7691"/>
<path d="M59.6768 7.91472C60.5513 7.04014 61.6317 6.78289 62.815 6.73145C61.9404 7.50313 60.9115 7.96616 59.6768 7.91472Z" fill="#5F7691"/>
<path d="M54.584 8.32615C55.3557 8.32615 56.1788 8.0689 56.9505 8.53191C56.1273 8.6348 55.3042 8.8406 54.584 8.32615Z" fill="#5F7691"/>
<path d="M62.8154 6.78168C62.9183 6.62734 63.0727 6.52445 63.1756 6.37012C63.0727 6.47301 62.9698 6.62734 62.8154 6.78168Z" fill="#5F7691"/>
<path d="M104.435 66.3052C104.538 66.3566 104.538 66.4081 104.486 66.5109C100.473 66.9225 96.4093 66.5624 92.3965 66.6653C90.6474 66.7167 88.8982 66.6138 87.1491 66.6138C87.1491 66.4081 87.0977 66.2537 87.0977 66.048C92.8596 66.1508 98.6214 65.4306 104.435 66.3052Z" fill="#5F7691"/>
<path d="M87.0461 66.0479C87.0461 66.2536 87.0975 66.408 87.0975 66.6137C84.5253 66.871 82.0044 67.1796 79.4321 67.4369C81.9015 66.3051 84.4738 66.3051 87.0461 66.0479Z" fill="#5F7691"/>
<path d="M74.1846 67.9003C75.5736 67.643 76.9626 67.3344 78.3002 67.0771C78.3517 67.2315 78.4031 67.4373 78.4545 67.5916C77.0141 67.8488 75.625 68.106 74.1846 68.4147C74.236 68.2089 74.1846 68.0546 74.1846 67.9003Z" fill="#5F7691"/>
<path d="M67.3423 70.7289C68.3712 70.2145 69.4515 69.7 70.4805 69.1855C69.7602 70.3173 68.7313 70.7289 67.5995 71.089C67.5481 70.9347 67.4452 70.8318 67.3423 70.7289Z" fill="#5F7691"/>
<path d="M70.9434 69.2882C71.4064 68.7223 71.8694 68.4136 72.6925 68.6708C72.2295 69.2367 71.7665 69.5454 70.9434 69.2882Z" fill="#5F7691"/>
<path d="M74.1842 67.8994C74.1842 68.0538 74.1842 68.2081 74.2357 68.3624C73.8756 68.6711 73.5154 68.774 73.001 68.5168C73.2582 68.0023 73.7727 68.0023 74.1842 67.8994Z" fill="#5F7691"/>
<path d="M63.9981 70.9862C63.7923 70.2145 64.3068 70.266 64.8212 70.1631C65.027 70.9348 64.4611 70.8833 63.9981 70.9862Z" fill="#5F7691"/>
<path d="M106.441 66.5098C106.544 66.6127 106.698 66.8184 106.698 66.8699C106.544 67.1271 106.338 67.0242 106.132 66.8699C106.235 66.767 106.338 66.6641 106.441 66.5098Z" fill="#5F7691"/>
<path d="M67.4455 31.0132C68.5773 32.5051 69.9148 33.7398 72.0241 33.2768C73.9276 32.8652 75.2137 31.6305 75.8825 29.8299C76.7571 27.3606 75.8825 25.7658 72.8987 24.5311C73.1045 24.3767 73.2588 24.2224 73.4646 24.0166C75.9854 24.8912 77.0658 26.2802 77.0143 28.4924C76.9115 31.1161 74.8022 33.5855 72.3328 34.0999C70.1206 34.5629 68.2172 33.4826 66.8281 31.0132C66.9825 31.0646 67.2397 31.0132 67.4455 31.0132Z" fill="#5F7691"/>
<path d="M51.6514 27.6182C51.7028 27.6696 51.7543 27.721 51.7543 27.7725C51.7543 27.8239 51.6514 27.8754 51.6 27.9268C51.5485 27.8754 51.4971 27.8239 51.4971 27.7725C51.4971 27.6696 51.6 27.6696 51.6514 27.6182Z" fill="#5F7691"/>
<path d="M69.1431 28.9553C69.3488 27.6692 70.0177 26.7432 71.4067 26.7432C72.7443 26.7432 73.6703 27.5148 73.7217 28.8524C73.7732 30.2415 72.95 31.1675 71.4581 31.1675C70.0176 31.116 69.4003 30.19 69.1431 28.9553Z" fill="#5F7691"/>
</svg>
