<svg width="121" height="81" viewBox="0 0 121 81" fill="none" xmlns="http://www.w3.org/2000/svg">
<path d="M104.734 44.2654C105.837 44.7615 106.829 45.4229 107.545 46.4701C107.821 46.856 107.931 47.2969 107.821 47.793C107.435 49.5568 107.16 51.3757 107.105 53.1947C107.049 54.0215 107.215 54.8482 107.545 55.675C108.097 56.9979 107.931 58.4861 107.821 59.8641C107.49 62.9507 106.884 65.9823 106.939 69.124C106.939 69.8957 107.049 70.6674 107.27 71.3839C107.601 72.3761 107.325 73.4233 107.16 74.4155V74.4706C106.939 77.7226 104.569 78.9904 101.978 80.0376C101.923 80.0376 101.923 80.0927 101.868 80.1478C101.648 80.1478 101.427 80.1478 101.207 80.1478C100.821 79.762 100.325 79.7069 99.8288 79.5966C98.8367 79.4313 97.8446 79.5415 96.8524 79.6518C95.9154 79.762 94.9232 79.762 94.0413 80.1478C93.4901 80.1478 92.9941 80.1478 92.4429 80.1478C92.0571 80.1478 91.6712 80.0927 91.2303 80.0927C89.0806 80.0376 86.8759 79.9825 84.7263 79.6518C83.1278 79.4313 81.5844 79.1557 79.986 79.2108C78.1119 79.3211 76.2379 79.3211 74.419 79.3211C69.5685 79.3762 64.718 79.4864 59.8675 79.762C58.71 79.8172 57.5526 79.762 56.4502 80.1478C56.1746 80.1478 55.899 80.1478 55.6234 80.1478C55.458 79.9274 55.2376 80.0376 55.0171 80.0376C54.2454 80.0376 53.4737 80.0376 52.7021 80.0376C51.3792 79.9274 50.1115 79.4313 48.7886 79.6518C47.6862 79.8171 46.5839 79.8171 45.4815 80.203C43.9933 80.203 42.45 80.203 40.9618 80.203C40.2452 79.9274 39.4736 80.0376 38.7019 79.9825C37.5995 79.8722 36.442 79.762 35.3396 79.5966C33.686 79.4313 32.749 78.4392 32.0324 77.0061C31.9222 76.7856 31.812 76.5651 31.7568 76.3446C31.5364 75.1871 31.2057 74.0296 31.812 72.9824C32.4183 71.8249 32.4734 70.5572 32.5285 69.2894C32.6388 66.5335 32.5286 63.7775 32.3632 61.0216C32.3081 60.1397 32.1978 59.2026 32.1427 58.3207C32.1427 56.9428 31.8671 55.6199 32.1978 54.2419C32.5837 52.5883 32.6939 50.8797 32.2529 49.171C31.8671 47.6828 32.4183 46.1394 33.686 45.2575C33.9065 45.0922 34.0719 45.0371 34.3475 45.0371C36.2215 45.0371 38.0955 44.9268 40.0247 44.9268C42.946 44.9268 45.8673 44.7614 48.7886 44.5961C49.9461 44.541 51.1037 44.3756 52.206 44.2103C53.9699 43.9898 55.7337 43.8796 57.4424 44.2103C59.5369 44.5961 61.6865 44.6512 63.781 44.541C65.9307 44.4307 68.0803 44.1552 70.2299 44.1C73.3166 44.0449 76.3481 44.0449 79.4348 44.2103C81.1986 44.2654 82.9073 44.3756 84.6711 44.4307C86.8207 44.4859 88.9152 44.9819 91.0098 44.8717C91.6712 44.8166 92.3878 44.7615 93.0492 44.7615C95.254 44.7063 97.4587 44.5961 99.6084 44.3756C101.317 44.1 103.026 43.7142 104.734 44.2654ZM48.7886 67.4705C48.7886 68.0768 48.7886 68.7382 48.7886 69.3445C48.8437 70.6674 49.5052 71.3288 50.8281 71.3288C52.3163 71.3288 53.7494 71.1635 55.2376 71.2186C56.4502 71.2737 56.8911 70.6122 56.836 69.3996C56.7809 68.187 56.7258 67.0295 56.7809 65.8169C56.8911 63.6121 57.0565 61.4625 56.8912 59.2578C56.836 58.2105 56.836 57.1632 56.8912 56.116C57.0014 54.6278 56.6155 54.0766 55.0722 53.9663C53.3635 53.8561 51.6548 53.9663 49.9461 53.9663C48.7335 53.9663 48.3477 54.3522 48.3477 55.5648C48.5131 59.5885 48.6233 63.5019 48.7886 67.4705ZM42.4499 48.3993C41.4027 48.3993 40.4105 48.3993 39.4184 48.5096C38.4263 48.6198 38.0404 49.0056 38.0404 49.9978C38.0404 51.9821 38.0404 53.9663 37.9853 55.8955C37.82 60.6357 38.0404 65.4311 38.0404 70.1713C38.0404 70.8879 38.3712 71.2186 39.0326 71.2186C39.8594 71.2186 40.3003 70.8879 40.3003 70.1713C40.3003 68.7933 40.3003 67.3603 40.2452 65.9823C40.1901 64.0531 40.1901 62.124 40.135 60.1948C40.135 59.7538 40.2452 59.5334 40.7964 59.5334C41.8436 59.5334 42.8909 59.4782 43.9933 59.5885C45.3713 59.7538 46.198 58.9822 46.3083 57.6042C46.3634 57.1632 46.3634 56.7774 46.3634 56.3365C46.5287 54.3522 46.7492 52.3128 46.8595 50.3285C46.9146 49.0607 46.5288 48.6749 45.3162 48.3993C44.3791 48.2891 43.387 48.4544 42.4499 48.3993ZM100.49 58.4861C100.49 57.4939 100.435 56.5018 100.325 55.5097C100.27 54.6829 99.9942 54.3522 99.1123 54.1868C97.569 53.8561 95.9705 53.8561 94.4272 53.9663C93.4902 54.0214 92.9941 54.6829 92.9941 55.6199C92.9941 56.7774 92.9941 57.99 92.9941 59.1475C92.939 62.8405 92.7185 66.4783 93.1043 70.1713C93.1594 70.9981 93.4901 71.2737 94.2618 71.2737C94.9783 71.2737 95.4745 70.8328 95.4745 70.1162C95.4745 68.9587 95.5295 67.8012 95.4193 66.6437C95.3642 65.872 95.254 65.0452 95.254 64.2736C95.254 63.6673 95.6949 63.2814 96.1359 63.1712C96.4666 63.061 96.5217 63.6121 96.6319 63.8877C97.6792 65.9823 98.3406 68.2421 99.2225 70.4469C99.5532 71.2186 100.27 71.5493 101.041 71.2737C101.758 70.9981 101.979 70.3918 101.538 69.565C100.435 67.4705 99.7186 65.2657 98.7816 63.0609C98.6162 62.6751 98.6714 62.5649 99.0572 62.3995C100.049 62.0137 100.435 61.2972 100.38 60.2499C100.49 59.6436 100.49 59.0924 100.49 58.4861ZM67.5842 68.4075C67.5842 68.6831 67.5842 68.9587 67.5842 69.2894C67.5842 69.565 67.5842 69.8406 67.6394 70.1713C67.6394 71.1083 67.9149 71.439 68.9071 71.439C70.3953 71.439 71.9386 71.3839 73.4269 71.3839C74.86 71.3839 75.1906 71.0532 75.1906 69.6201C75.1906 68.0768 75.1355 66.5335 75.1906 65.0453C75.356 61.7932 75.5214 58.4861 75.6867 55.2341C75.7418 54.3522 75.356 53.9663 74.4741 53.9663C73.6473 53.9663 73.3166 54.3522 73.3166 55.2341C73.3166 59.2578 73.041 63.2814 72.9308 67.25C72.8757 69.1792 72.8205 69.1792 70.9465 69.3445C70.0095 69.3996 70.0094 69.3997 70.0094 68.4626C70.0094 64.0531 70.0646 59.6436 70.285 55.2341C70.3402 54.4073 69.9544 53.9663 69.2929 53.9663C68.411 53.9663 68.0252 54.297 68.0252 55.1789C68.0252 56.1711 68.0803 57.2183 67.9701 58.2105C67.6394 61.5727 67.8047 64.9901 67.5842 68.4075ZM88.805 60.6357C88.805 61.2972 88.7499 61.9586 88.805 62.62C88.8601 63.2263 88.6397 63.3366 88.0885 63.2814C87.2617 63.2263 86.4349 63.1712 85.6081 63.1161C84.6711 63.1161 83.9546 63.7775 83.9546 64.6594C83.8995 66.4232 83.9546 68.187 84.2302 69.8957C84.3404 70.8327 84.6711 71.0532 85.6081 71.0532C86.8208 71.0532 88.0334 71.0532 89.246 71.1083C90.5137 71.2186 90.7342 70.943 90.7893 69.6752C90.7893 67.7461 90.7893 65.8169 90.8444 63.8877C90.9547 60.9113 90.6791 57.8798 90.624 54.9033C90.624 54.2419 90.183 53.8561 89.4665 53.801C88.0885 53.7458 86.6554 53.8561 85.2774 54.0766C84.5058 54.1868 84.2302 54.5175 84.2853 55.1238C84.3404 55.675 84.6711 55.9506 85.4428 55.9506C86.3247 56.0057 87.1515 55.8955 88.0334 55.7853C88.3641 55.7853 88.4743 55.8404 88.5294 56.2262C88.6948 57.8247 88.805 59.2578 88.805 60.6357ZM58.8754 68.3524C58.8754 69.0138 58.8754 69.7304 58.8754 70.3918C58.8754 70.9981 59.2061 71.2737 59.8124 71.3288C60.7495 71.3839 61.1904 70.9981 61.1353 70.0611C61.0802 67.8012 61.0802 65.5964 61.0251 63.3365C61.0251 62.8956 61.0802 62.6751 61.6314 62.6751C62.2928 62.7303 62.8991 62.6751 63.5605 62.7302C64.8283 62.8405 65.4897 62.3444 65.655 61.0767C65.8204 59.3129 65.9858 57.6042 66.096 55.8404C66.1511 54.6829 65.7653 54.1317 64.6078 54.0766C63.0645 53.9663 61.5211 53.9663 59.9778 54.1317C59.2613 54.1868 58.9305 54.6277 58.9305 55.3443C58.8754 57.4388 58.8754 59.5334 58.8203 61.5728C58.7652 63.8326 58.8203 66.0925 58.8754 68.3524ZM79.4348 69.2894C79.4348 69.0689 79.4348 68.8484 79.4348 68.6831C79.4899 65.376 79.7655 62.1239 79.9309 58.8719C79.986 57.5491 80.1514 56.2813 80.0962 54.9585C80.0411 54.2971 79.6002 53.8561 78.9939 53.8561C78.3324 53.8561 78.0017 54.1317 77.9466 54.8482C77.8364 56.5018 77.7812 58.1002 77.7261 59.7538C77.5607 62.2893 77.5056 64.8248 77.23 67.3603C77.1198 68.187 77.1198 69.0138 77.0647 69.8957C77.0647 70.502 77.5056 71.2186 78.0017 71.2737C79.1592 71.3839 80.3167 71.439 81.4742 71.1634C82.0254 71.0532 82.5766 70.2264 82.5215 69.7855C82.3561 69.1792 81.9151 68.9036 81.0332 69.0689C80.4821 69.1241 79.986 69.1792 79.4348 69.2894Z" fill="#5F7691"/>
<path d="M52.6475 80.0921C52.6475 80.037 52.6475 80.037 52.6475 79.9819V79.9268C53.4191 79.9268 54.1908 79.9268 54.9625 79.9268C55.183 79.9268 55.4034 79.8717 55.5688 80.037C54.5767 80.0921 53.5845 80.0921 52.6475 80.0921Z" fill="#5F7691"/>
<path d="M86.105 6.7284C87.2625 7.27959 88.3097 7.941 89.0263 9.04338C89.2467 9.31897 89.3019 9.59457 89.1917 9.98041C88.7507 11.7993 88.42 13.6734 88.3649 15.5474C88.3098 16.3742 88.4751 17.1459 88.8058 17.9176C89.357 19.0751 89.2468 20.2877 89.1917 21.5003C89.0814 23.209 88.6955 24.8626 88.5302 26.5712C88.3648 28.2248 88.1444 29.8784 88.1995 31.532C88.1995 32.2485 88.3098 32.9099 88.5854 33.6265C88.9161 34.4533 88.7507 35.3903 88.5854 36.2722C88.4751 36.9887 88.2546 37.7053 88.1444 38.4218C87.9239 39.1935 87.5932 39.8549 86.8766 40.2407C86.2152 40.5715 85.664 41.0675 85.0577 41.4534C83.6798 42.2802 82.3018 42.5006 80.6482 41.9494C79.3254 41.5085 77.782 41.7841 76.3489 42.0597C72.6559 42.7211 69.0181 42.3353 65.3251 42.0597C63.0101 41.8943 60.6951 41.2329 58.325 41.5085C57.9392 41.5636 57.5533 41.5636 57.1124 41.6187C54.1359 41.6738 51.1595 41.6187 48.1831 41.729C45.2618 41.8392 42.3956 41.8943 39.4743 42.0046C36.3325 42.1148 33.1907 42.5557 30.049 42.4455C29.7182 42.4455 29.4427 42.3904 29.112 42.3904C28.0096 42.2801 26.9072 41.8392 25.8048 41.9494C24.8678 42.0597 23.8756 42.0597 22.9386 42.225C20.0173 42.7211 17.0409 42.4455 14.1195 42.2802C12.9069 42.225 11.7494 42.0597 10.5368 41.9494C8.71789 41.7841 7.4502 40.7919 6.73366 39.1935C6.67854 39.0281 6.5683 38.8076 6.45806 38.6423C6.45806 38.532 6.45801 38.4218 6.40289 38.3116C6.07218 37.099 6.07222 35.9415 6.78876 34.784C7.00924 34.5084 7.06434 34.0674 7.11946 33.6816C7.28482 32.5241 7.39506 31.3666 7.39506 30.154C7.39506 26.6264 7.17457 23.1539 6.89897 19.6814C6.84385 18.6892 6.73366 17.6971 7.00925 16.6498C7.4502 14.7758 7.45015 12.9017 6.95408 11.0277C6.56825 9.53947 7.50527 8.43709 8.60765 7.55519C8.88324 7.33471 9.15889 7.27959 9.48961 7.27959C12.0802 7.27959 14.7259 7.33471 17.3165 7.16935C19.4661 7.05911 21.5606 7.11422 23.7103 6.94886C25.5292 6.83862 27.3481 6.78352 29.112 6.45281C30.6553 6.17721 32.2537 6.50792 33.7971 6.34257C33.9073 6.34257 34.0175 6.34255 34.1278 6.39767C36.8286 7.16934 39.5846 6.89373 42.3405 6.83862C44.8209 6.7835 47.3012 6.39767 49.8367 6.39767C51.7107 6.39767 53.5848 6.39769 55.4037 6.45281C57.7738 6.56305 60.0888 6.56303 62.459 6.67327C63.4511 6.72838 64.3881 6.83864 65.3802 6.89376C66.7031 6.94887 68.026 7.22448 69.3488 7.27959C71.7189 7.33471 74.0891 7.16934 76.4592 7.05911C77.8923 6.94887 79.2702 6.89376 80.7033 6.7284C82.5222 6.34257 84.3412 6.06698 86.105 6.7284ZM75.026 32.0831C75.026 32.6895 75.026 33.3509 75.026 33.9572C75.0812 35.28 75.7426 35.8863 77.0655 35.8863C78.5537 35.8863 80.0419 35.721 81.5301 35.7761C82.6876 35.8312 83.1837 35.1698 83.1286 34.0123C83.0183 32.6895 83.0183 31.3666 83.0735 30.0437C83.1286 28.335 83.2939 26.6263 83.2388 24.8625C83.1285 23.4846 83.1837 22.0515 83.2388 20.6735C83.2939 19.2404 82.9632 18.6892 81.5301 18.579C79.7663 18.4136 78.0576 18.6341 76.2938 18.579C75.1363 18.5239 74.6953 19.0199 74.7504 20.1223C74.8056 24.0909 74.9158 28.1146 75.026 32.0831ZM38.3719 23.0436C38.3719 22.0515 38.3168 21.1145 38.2066 20.1223C38.1515 19.2404 37.8758 18.9097 36.9939 18.7443C35.4506 18.4136 33.9073 18.4136 32.364 18.5238C31.3718 18.579 30.9308 19.2404 30.9308 20.2326C30.9308 21.3901 30.9308 22.5476 30.9308 23.705C30.8757 27.398 30.6553 31.0359 31.0411 34.7288C31.0962 35.5556 31.4269 35.8863 32.1986 35.8863C32.9703 35.8863 33.4664 35.3903 33.4664 34.6186C33.4664 33.406 33.5215 32.2485 33.3561 31.0359C33.2459 30.3193 33.1908 29.6028 33.1908 28.8311C33.1908 28.2248 33.6317 27.8941 34.0727 27.7838C34.5136 27.6736 34.4585 28.2248 34.5688 28.4453C35.6711 30.5398 36.3325 32.8548 37.2144 35.0595C37.5451 35.8312 38.3168 36.1619 39.0885 35.8312C39.7499 35.5556 39.9704 34.9493 39.5295 34.1777C38.4271 32.0831 37.7105 29.8784 36.7735 27.7287C36.6082 27.3429 36.6633 27.1775 37.0491 27.0122C37.9861 26.6815 38.3719 25.9098 38.3719 24.9177C38.3719 24.2011 38.3719 23.5948 38.3719 23.0436ZM57.7187 22.0515C57.829 22.1066 57.884 22.1066 57.884 22.1066C59.2069 23.3743 60.1439 24.9728 61.4668 26.2956C61.577 26.4059 61.5771 26.5712 61.5771 26.7366C61.4117 29.3272 61.4668 31.9729 61.5219 34.5635C61.5219 35.4454 62.018 35.8863 62.8999 35.8863C63.7266 35.8312 64.0023 35.5005 63.9471 34.5635C63.6164 31.3666 63.6715 28.1697 63.9471 24.9177C64.1125 23.3192 64.2227 21.7208 64.4432 20.1223C64.4983 19.6262 64.4984 19.1853 64.0574 18.8546C63.6165 18.5239 63.1203 18.4136 62.6243 18.6341C62.0731 18.8546 62.0731 19.3506 62.1283 19.8467C62.1283 19.957 62.1283 20.0672 62.1283 20.1774C62.0731 21.3349 62.018 22.4924 61.9078 23.6499C61.577 23.5948 61.4668 23.3743 61.3566 23.209C60.2542 21.7759 58.9313 20.5082 57.7187 19.1302C57.2778 18.6341 56.7266 18.579 56.1203 18.7994C55.514 19.0199 55.4589 19.4609 55.514 20.0121C55.7344 23.0436 55.4037 26.1303 55.514 29.1618C55.5691 31.091 55.5691 33.0201 55.5691 34.9493C55.5691 35.5556 55.8998 35.7761 56.451 35.8312C57.388 35.9415 57.8841 35.5005 57.8289 34.343C57.7187 32.6894 57.7738 31.0359 57.7187 29.3823C57.6085 26.9571 57.5534 24.5318 57.7187 22.0515ZM21.2299 32.965C21.2299 33.5162 21.2299 34.1225 21.2299 34.6737C21.2299 35.5556 21.5055 35.8863 22.4426 35.8863C24.1513 35.8863 25.915 35.8863 27.6237 35.8312C28.1749 35.8312 28.6159 35.5005 28.671 34.8942C28.7261 34.5635 28.7813 34.2328 28.7813 33.9021C28.7261 31.3666 28.8363 28.776 28.9466 26.2405C29.0568 23.9806 29.2222 21.7759 29.3324 19.516C29.3876 18.6892 29.0017 18.3034 28.1749 18.3034C27.3481 18.3034 26.9623 18.6341 26.9623 19.5711C26.9072 23.7602 26.6867 27.8941 26.5213 32.0831C26.4662 33.5714 26.4111 33.5713 24.978 33.6265C24.8127 33.6265 24.6473 33.6265 24.5371 33.6816C23.6 33.7367 23.6001 33.7367 23.6001 32.7997C23.6001 28.3902 23.6552 23.9255 23.8757 19.516C23.9308 18.7443 23.5449 18.3585 22.8284 18.3585C21.9465 18.3585 21.6158 18.6892 21.6158 19.4609C21.6158 20.5081 21.6709 21.6105 21.5606 22.6578C21.2299 26.1303 21.3953 29.5477 21.2299 32.965ZM14.8912 29.3823C14.9463 29.3823 14.9464 29.3823 15.0015 29.3823C15.0015 28.0043 15.0015 26.6263 15.0015 25.2484C15.0566 22.0515 15.2771 18.8546 15.5527 15.6025C15.6078 15.0514 15.8283 14.8309 16.3795 14.886C17.096 14.9411 17.8126 14.9962 18.5842 15.1065C19.4661 15.2167 19.6866 15.0514 19.7417 14.1695C19.7968 13.5632 19.5212 13.2875 18.7496 13.1773C17.4267 13.0119 16.0487 13.0671 14.6707 13.012C13.403 12.9568 13.0723 13.2876 13.0723 14.5002C13.0172 16.5396 12.9621 18.5239 12.907 20.5633C12.7416 25.0279 12.466 29.4374 12.5763 33.9021C12.5763 35.28 13.0172 35.721 14.34 35.7761C15.5527 35.8312 16.8204 35.8312 18.0882 35.7761C19.2457 35.7761 19.411 35.5556 19.411 34.3981C19.411 33.7918 19.1354 33.5162 18.5842 33.5713C17.8126 33.6264 17.0409 33.7367 16.2692 33.7918C15.2771 33.9021 15.0015 33.6265 15.0015 32.6343C14.8913 31.6422 14.8912 30.4847 14.8912 29.3823ZM44.3799 35.8863C44.9862 35.8863 45.5925 35.9415 46.1988 35.8863C47.4666 35.8863 47.9075 35.5005 48.0177 34.2879C48.1831 32.1934 48.2934 30.0437 48.4036 27.8941C48.4587 26.5161 47.9626 26.02 46.5847 26.1303C45.813 26.1854 45.0413 26.0752 44.2697 25.9649C43.8287 25.9098 43.6083 25.7444 43.6634 25.2484C43.6634 24.0358 43.7185 22.8783 43.7736 21.6656C43.8287 20.7286 43.939 20.6184 44.876 20.5082C45.9784 20.3979 47.0807 20.5633 48.1831 20.5633C48.6241 20.5633 48.8997 20.453 49.0099 20.0121C49.2855 19.075 48.9548 18.579 47.9626 18.579C46.3091 18.579 44.6555 18.579 42.9468 18.579C42.0649 18.579 41.5137 19.0199 41.5137 19.9018C41.5689 22.3271 41.2381 24.6972 41.2381 27.0673C41.2381 27.7287 41.5688 28.1146 42.1751 28.2248C43.0019 28.3902 43.8287 28.2799 44.6555 28.335C45.0964 28.335 45.6477 28.1697 45.9233 28.4453C46.0886 28.6106 45.9233 29.217 45.9233 29.6028C45.9233 29.6579 45.9233 29.713 45.9233 29.8232C45.9233 30.9807 45.8681 32.1934 45.7028 33.3509C45.6476 33.5162 45.7579 33.8469 45.4272 33.8469C44.876 33.8469 44.3799 34.0123 43.8287 33.9572C43.3326 33.9021 42.8366 33.7918 42.2854 33.8469C41.5137 33.902 41.0176 34.343 41.0728 34.8942C41.1279 35.5005 41.624 35.9966 42.3405 35.9966C43.0019 35.8863 43.7185 35.8863 44.3799 35.8863ZM73.0969 32.4689C73.0418 32.4689 73.0418 32.4689 72.9867 32.4689C72.9867 31.6973 72.9867 30.9807 72.9867 30.2091C72.9315 29.3272 72.656 29.0516 71.7741 29.0516C71.1678 29.0516 70.5614 29.1067 69.9551 29.1067C68.1362 29.1618 68.3567 29.4374 68.522 27.6185C68.7425 24.9728 68.7425 22.3271 69.0181 19.6814C69.1284 18.6892 68.6323 18.3034 67.6401 18.4136C67.0338 18.4687 66.7031 18.9097 66.7031 19.7365C66.7582 21.8861 66.5377 23.9806 66.3724 26.1303C66.207 28.9965 66.2621 31.8626 66.1519 34.784C66.1519 35.6107 66.5378 35.9415 67.3646 35.9415C68.0811 35.9415 68.3566 35.5556 68.4118 34.784C68.4118 34.1776 68.4118 33.5162 68.4669 32.9099C68.5221 32.469 68.1913 31.8075 68.7425 31.532C69.1835 31.2564 69.7897 31.4217 70.3409 31.4217C70.6716 31.4768 70.7819 31.587 70.7819 31.9178C70.7268 32.8548 70.7268 33.7918 70.7268 34.7288C70.7268 35.6108 71.0575 35.8863 71.8843 35.8863C72.7111 35.8863 73.0969 35.6107 73.0969 34.784C73.0969 34.0123 73.0969 33.2406 73.0969 32.4689ZM53.254 29.1618C53.3092 29.1618 53.3092 29.1618 53.254 29.1618C53.254 28.0043 53.1989 26.7917 53.254 25.6342C53.3643 23.5948 53.3092 21.6105 53.254 19.5711C53.1989 18.8546 52.8682 18.3585 52.317 18.3034C51.7107 18.1932 51.1595 18.579 50.9391 19.2955C50.8839 19.4609 50.8289 19.6813 50.8289 19.9018C50.7737 20.7837 50.7737 21.6105 50.7737 22.4924C50.7186 26.2405 50.6084 29.9335 50.5533 33.6816C50.5533 34.2328 50.4981 34.784 50.7186 35.3351C50.9391 35.8863 51.38 36.2171 52.0414 36.2171C52.7029 36.2171 52.9234 35.7761 53.0336 35.2249C53.1439 34.8391 53.1989 34.4532 53.1989 34.0674C53.3092 32.4138 53.254 30.7603 53.254 29.1618ZM52.2619 17.642C52.9234 17.642 53.3092 17.2561 53.254 16.7049C53.254 16.1537 52.8682 15.823 52.2619 15.823C51.38 15.823 51.1045 16.0435 51.1045 16.6498C51.1596 17.201 51.6005 17.642 52.2619 17.642Z" fill="#5F7691"/>
<path d="M3.42603 35.4459C0.725196 34.7293 -0.873282 31.0914 0.504693 28.6111C0.890526 27.9497 0.945645 27.178 1.05588 26.4063C1.33148 22.8787 1.05586 19.3511 0.890499 15.8235C0.83538 14.4455 0.614904 13.0676 0.614904 11.6896C0.614904 10.973 0.835434 10.2014 0.945672 9.48483C1.22127 7.88638 1.22124 6.34302 0.780288 4.74457C0.394455 3.42172 1.44172 1.49256 2.70945 0.996488C2.87481 0.941369 3.04018 0.941382 3.20554 0.941382C6.73315 0.886263 10.2607 0.886236 13.7884 0.775998C17.0955 0.66576 20.4027 0.555529 23.6547 0.059458C23.7098 0.059458 23.7649 0.059458 23.7649 0.059458C25.4736 0.169696 27.1272 -0.0507665 28.8359 0.279947C31.0957 0.776018 33.4659 0.66576 35.7257 0.500403C40.7967 0.11457 45.9227 -0.0507598 50.9937 0.114597C54.5213 0.224835 57.9938 0.390192 61.5214 0.665787C66.427 1.05162 71.3326 0.610648 76.2382 0.059458C78.7737 -0.216137 80.9233 0.445304 82.5769 2.48471C82.8525 2.81542 83.0729 3.091 82.9627 3.53195C81.7501 3.091 80.5375 2.98077 79.2698 3.20125C75.1909 3.75244 71.057 3.86269 66.9231 3.97293C65.2695 4.02805 63.671 3.64221 62.0175 3.58709C58.9859 3.47685 56.0095 3.31149 52.978 3.20125C48.7889 3.09101 44.655 3.09101 40.466 3.47684C38.151 3.69732 35.7809 3.86268 33.4659 3.58709C31.3162 3.31149 29.1115 2.92565 26.9067 3.20125C23.324 3.58708 19.7412 3.80755 16.1585 3.91779C12.9065 4.02803 9.65443 4.02802 6.34729 4.08314C6.12682 4.08314 5.85126 4.02804 5.63079 4.13828C4.25281 4.79971 3.37088 6.67374 3.81183 8.16196C4.19767 9.37457 4.14256 10.6423 4.03232 11.91C3.92208 13.1227 3.48111 14.2802 3.59134 15.5479C3.97718 19.9574 4.25279 24.4221 4.08743 28.8316C4.03231 29.7135 4.0874 30.6505 3.64645 31.367C2.98502 32.745 3.04019 34.0679 3.42603 35.4459Z" fill="#D8DEE9"/>
<path d="M3.42623 35.4456C3.04039 34.0676 2.98525 32.7447 3.81203 31.4219C4.25298 30.7053 4.19789 29.7683 4.25301 28.8864C4.41837 24.4217 4.14276 20.0122 3.75693 15.6027C3.64669 14.335 4.0876 13.1775 4.19784 11.9649C4.30808 10.6971 4.30813 9.42937 3.97742 8.21676C3.53646 6.78366 4.41833 4.8545 5.7963 4.19308C6.01678 4.08284 6.2924 4.13797 6.51288 4.13797C9.7649 4.08285 13.0169 4.08286 16.324 3.97262C19.9068 3.86238 23.4895 3.64188 27.0722 3.25605C29.2219 3.03557 31.4266 3.36629 33.6314 3.64189C35.9464 3.9726 38.3166 3.75212 40.6316 3.53164C44.8206 3.14581 48.9545 3.14581 53.1435 3.25605C56.1751 3.31117 59.1515 3.53165 62.1831 3.64189C63.8366 3.69701 65.4351 4.08285 67.0887 4.02773C71.2226 3.91749 75.3565 3.86236 79.4353 3.25605C80.6479 3.09069 81.9157 3.20095 83.1283 3.58678C84.3409 4.08285 85.3331 4.85452 86.1047 5.90179C86.2701 6.12226 86.4354 6.39784 86.27 6.67343C84.5062 6.012 82.6873 6.34271 80.8684 6.56319C79.4353 6.72854 78.0573 6.8388 76.6242 6.89392C74.2541 7.05928 71.884 7.1695 69.5139 7.11438C68.191 7.05926 66.8682 6.83881 65.5453 6.72857C64.5532 6.67345 63.6161 6.5632 62.624 6.50808C60.2539 6.45296 57.9389 6.39783 55.5688 6.28759C53.6947 6.17735 51.8207 6.17737 50.0018 6.23249C47.5214 6.23249 44.9859 6.61831 42.5055 6.67343C39.7496 6.72855 36.9937 7.05927 34.2929 6.23249C34.1826 6.17737 34.0723 6.17738 33.9621 6.17738C32.4188 6.39786 30.8203 6.012 29.277 6.28759C27.5132 6.61831 25.6392 6.67344 23.8754 6.78368C21.7257 6.89391 19.6312 6.89393 17.4816 7.00417C14.8359 7.16952 12.2452 7.05926 9.65463 7.11438C9.32392 7.11438 9.04834 7.1695 8.77274 7.38997C7.67036 8.27188 6.73334 9.37428 7.11917 10.8625C7.61524 12.7917 7.61523 14.6106 7.17428 16.4846C6.9538 17.5319 7.00895 18.524 7.06407 19.5162C7.33966 22.9886 7.56015 26.5163 7.56015 29.9888C7.56015 31.1463 7.50503 32.3589 7.28456 33.5164C7.22944 33.9022 7.17427 34.2881 6.95379 34.6188C6.23724 35.7211 6.23727 36.9338 6.56798 38.1464C6.6231 38.2566 6.62309 38.3669 6.62309 38.4771C5.24511 38.2015 4.47345 37.2645 3.86714 36.107C3.59154 35.9416 3.53646 35.666 3.42623 35.4456Z" fill="#A7B3C8"/>
<path d="M30.0484 42.3909C33.1902 42.5012 36.332 42.0602 39.4738 41.95C42.3951 41.8397 45.2613 41.7846 48.1826 41.6744C51.159 41.5641 54.1354 41.6193 57.1119 41.5641C57.4977 41.5641 57.8836 41.509 58.3245 41.4539C60.6946 41.2334 63.0096 41.8949 65.3246 42.0051C69.0176 42.2807 72.6554 42.6114 76.3484 42.0051C77.7815 41.7846 79.2697 41.509 80.6477 41.8949C82.3013 42.3909 83.6793 42.2256 85.0572 41.3988C86.0494 41.6744 87.0415 41.6193 88.0337 41.5641C91.1203 41.4539 94.207 41.3988 97.2936 41.0129C98.7267 40.8476 100.16 40.6271 101.593 41.1232C102.861 41.6193 103.853 42.3909 104.569 43.4933C104.735 43.7138 104.9 43.9343 104.79 44.2099C103.081 43.6587 101.372 44.0445 99.6638 44.2099C97.459 44.4303 95.3093 44.5957 93.1046 44.5957C92.4432 44.5957 91.7266 44.6508 91.0652 44.7059C88.9156 44.8162 86.821 44.3201 84.7265 44.265C82.9627 44.2099 81.254 44.0996 79.4902 44.0445C76.4036 43.8791 73.372 43.8792 70.2853 43.9343C68.1357 43.9894 65.9861 44.265 63.8364 44.3752C61.6868 44.4855 59.5923 44.4303 57.4977 44.0445C55.789 43.7138 54.0252 43.824 52.2614 44.0445C51.1039 44.2098 50.0015 44.3201 48.844 44.4303C45.9227 44.5957 43.0014 44.7059 40.0801 44.7611C38.2061 44.7611 36.332 44.8162 34.4029 44.8713C34.1273 44.8713 33.9619 44.9264 33.7415 45.0918C32.4737 45.9737 31.9225 47.517 32.3083 49.0052C32.7493 50.7139 32.6942 52.4226 32.2532 54.0762C31.9225 55.4541 32.1981 56.8321 32.1981 58.155C32.1981 59.0369 32.3635 59.9739 32.4186 60.8558C32.5288 63.6117 32.639 66.3677 32.5839 69.1236C32.5288 70.3914 32.4737 71.604 31.8674 72.8166C31.3162 73.919 31.5918 75.0765 31.8123 76.1789C30.5446 76.0135 29.7729 75.1316 29.1666 74.0843C29.0012 73.7536 28.8358 73.4229 28.7256 73.0371C28.45 71.8245 28.2295 70.6118 28.8359 69.3992C29.0563 68.9583 29.2216 68.4622 29.2768 67.9661C29.4421 66.8638 29.4973 65.7614 29.4973 64.659C29.4973 61.0212 29.3319 57.3282 29.0563 53.6903C29.0012 52.7533 29.0012 51.8163 29.2217 50.8793C29.5524 49.391 29.7178 47.8477 29.3319 46.4146C28.7256 44.9264 29.0012 43.6035 30.0484 42.3909Z" fill="#A7B3C8"/>
<path d="M30.0486 42.3914C29.0013 43.604 28.7257 44.8718 29.1667 46.4702C29.5525 47.9585 29.3872 49.4467 29.0565 50.9349C28.836 51.8719 28.836 52.8089 28.8911 53.746C29.1667 57.3838 29.3872 61.0216 29.3321 64.7146C29.3321 65.817 29.2769 66.9194 29.1116 68.0218C29.0564 68.5178 28.8911 69.0139 28.6706 69.4549C28.0643 70.6124 28.2297 71.8801 28.5604 73.0927C26.5761 72.6518 25.7493 71.1635 25.3083 69.3997C25.0327 68.2422 25.0878 67.1399 25.6941 66.0375C26.1902 65.1005 26.1351 63.943 26.1902 62.8957C26.3005 58.6515 26.08 54.4074 25.7493 50.1632C25.6942 49.2262 25.8595 48.3443 25.9697 47.4624C26.2453 45.8088 26.3556 44.1001 25.8595 42.4466C25.8044 42.2261 25.8044 42.0056 25.8044 41.7851C26.9619 41.6749 28.0092 42.1158 29.1116 42.2261C29.4423 42.3363 29.7178 42.3914 30.0486 42.3914Z" fill="#D8DEE9"/>
<path d="M101.538 41.1771C100.105 40.6811 98.6719 40.9015 97.2388 41.0669C94.1522 41.4527 91.0655 41.563 87.9788 41.6181C86.9867 41.6732 85.9946 41.7283 85.0024 41.4527C85.6088 41.0118 86.1599 40.5708 86.8213 40.2401C87.593 39.7992 87.8686 39.1377 88.0891 38.4212C90.4592 38.3109 92.7742 38.2007 95.0892 37.8149C97.6798 37.429 99.8294 38.1456 101.318 40.4055C101.538 40.6259 101.648 40.8464 101.538 41.1771Z" fill="#D8DEE9"/>
<path d="M115.042 58.7609C116.475 58.7609 117.853 58.7609 119.286 58.7609C119.782 58.7609 119.892 58.5955 119.837 58.0995C119.672 56.6112 120.113 56.6664 118.349 56.5561C115.814 56.3908 113.278 56.3908 110.688 56.3357C110.357 56.3357 110.026 56.3908 109.916 56.0049C109.751 55.5089 110.026 55.123 110.633 55.123C111.404 55.123 112.121 55.1782 112.892 55.2333C115.152 55.3986 117.467 55.5089 119.727 55.4537C120.719 55.4537 120.83 55.564 120.83 56.5561C120.83 57.438 120.885 58.2648 120.885 59.1467C120.885 59.6979 120.664 59.9735 120.058 59.9184C117.743 59.8633 115.428 59.8081 113.168 59.753C112.341 59.753 111.514 59.753 110.633 59.753C110.247 59.753 109.861 59.753 109.861 59.2018C109.861 58.6506 110.247 58.5955 110.633 58.5955C112.066 58.5955 113.499 58.5955 114.932 58.5955C115.042 58.6507 115.042 58.7058 115.042 58.7609Z" fill="#5F7691"/>
<path d="M114.601 74.3595C114.215 74.3595 113.774 74.3595 113.333 74.3595C112.892 74.3595 112.617 74.1391 112.617 73.6981C112.617 72.8713 112.562 71.9894 112.617 71.1626C112.617 70.3909 112.892 70.2256 113.664 70.2256C115.759 70.2807 117.853 70.3358 119.948 70.3358C120.664 70.3358 120.83 70.5012 120.885 71.2178C120.885 71.8241 120.94 72.4304 120.94 73.0367C120.94 73.9186 120.664 74.1942 119.782 74.2493C118.074 74.2493 116.365 74.2493 114.601 74.3595ZM116.089 73.202C117.192 73.2571 118.239 73.1469 119.286 73.0367C119.948 72.9816 119.727 72.3752 119.782 71.9894C119.837 71.6036 119.672 71.4382 119.231 71.4382C117.798 71.3831 116.31 71.2177 114.877 71.328C113.664 71.3831 113.664 71.3831 113.774 72.5957C113.829 73.0367 113.995 73.202 114.436 73.202C115.042 73.202 115.593 73.202 116.089 73.202Z" fill="#5F7691"/>
<path d="M110.081 51.7609C110.081 51.2649 110.081 50.7688 110.081 50.2728C110.081 49.942 110.081 49.6113 110.522 49.6113C110.963 49.6113 111.073 49.8869 111.018 50.2728C110.963 50.8791 110.963 51.4854 111.018 52.0917C111.018 52.6429 111.239 52.9736 111.845 52.9736C112.617 52.9736 113.333 53.0287 114.105 53.0838C114.491 53.0838 114.711 52.9736 114.766 52.5326C114.876 52.0366 114.876 51.5405 114.876 50.9893C114.876 50.383 115.097 50.0523 115.758 50.1074C117.136 50.1625 118.569 50.2176 119.947 50.3279C120.719 50.383 120.884 50.6035 120.884 51.3751C120.884 52.0917 120.884 52.8634 120.884 53.5799C120.884 54.0209 120.774 54.3515 120.278 54.3515C119.782 54.2964 119.782 53.9106 119.837 53.5248C119.892 53.0287 119.892 52.5326 119.892 51.9814C119.837 51.6507 119.727 51.4854 119.396 51.4854C118.404 51.4302 117.412 51.3751 116.42 51.32C116.089 51.32 115.979 51.4302 115.979 51.7609C115.979 52.3673 115.979 52.9736 115.979 53.5799C115.979 54.076 115.758 54.3516 115.152 54.2964C113.829 54.1862 112.451 54.076 111.128 54.076C110.301 54.076 110.136 53.8555 110.136 53.0287C110.136 52.8082 110.136 52.5878 110.136 52.3673C110.081 52.1468 110.081 51.9263 110.081 51.7609Z" fill="#5F7691"/>
<path d="M115.758 48.5644C114.16 48.5644 112.617 48.5644 111.018 48.5644C110.357 48.5644 110.081 48.2889 110.081 47.6825C110.081 46.9109 110.081 46.1943 110.081 45.4226C110.081 44.5407 110.467 44.21 111.349 44.3203C112.341 44.4305 113.333 44.4856 114.325 44.5959C115.152 44.651 115.428 45.0368 115.372 45.8636C115.207 47.5723 115.207 47.5723 116.861 47.5723C117.963 47.5723 119.065 47.5172 120.168 47.5172C120.609 47.5172 120.884 47.6825 120.884 48.1235C120.884 48.5644 120.609 48.6196 120.223 48.6196C118.735 48.5645 117.246 48.5644 115.758 48.5644ZM114.325 46.6353C114.325 45.6431 114.325 45.6431 113.333 45.588C113.002 45.588 112.672 45.5329 112.341 45.4778C111.073 45.3675 110.908 45.5329 110.963 46.8006C110.963 47.1313 111.073 47.3518 111.459 47.3518C112.065 47.4069 112.672 47.4621 113.333 47.5172C114.27 47.6274 114.38 47.5723 114.325 46.6353Z" fill="#5F7691"/>
<path d="M118.184 78.1081C118.735 78.1081 119.452 78.1081 120.168 78.1081C120.609 78.1081 120.885 78.2183 120.885 78.7143C120.885 79.1553 120.609 79.2104 120.224 79.2104C117.137 79.3207 113.995 79.2656 110.908 79.2104C110.357 79.2104 110.137 78.9899 110.137 78.4388C110.137 77.5568 110.082 76.7301 110.137 75.8482C110.192 75.1316 110.468 74.856 111.239 74.9111C112.342 74.9662 113.389 75.0765 114.491 75.1867C115.208 75.2418 115.483 75.6277 115.428 76.3993C115.318 78.2183 115.318 78.2183 117.137 78.1632C117.357 78.1632 117.688 78.1081 118.184 78.1081ZM114.326 77.2261C114.16 77.0057 114.601 76.3994 113.995 76.3442C113.223 76.234 112.397 76.1789 111.625 76.1237C111.184 76.1237 110.964 76.4545 111.019 76.8954C111.074 77.2813 110.743 77.9427 111.515 77.9978C112.121 78.0529 112.727 78.108 113.389 78.1632C114.216 78.2734 114.381 78.1632 114.326 77.2261Z" fill="#5F7691"/>
<path d="M116.86 64.6583C118.073 64.7685 119.175 64.548 120.278 64.7134C120.664 64.7685 121.049 64.8237 120.994 65.3197C120.939 65.7607 120.608 65.9811 120.223 65.926C117.908 65.8709 115.593 65.8158 113.222 65.8158C112.837 65.8158 112.506 65.6504 112.506 65.2095C112.506 64.7134 112.892 64.7134 113.278 64.6583C114.49 64.6032 115.703 64.6583 116.86 64.6583Z" fill="#5F7691"/>
<path d="M119.893 68.2419C119.837 67.9664 119.837 67.7459 119.782 67.5254C119.727 67.1947 119.782 66.9191 120.168 66.864C120.499 66.8089 120.719 67.0293 120.83 67.3049C120.995 67.8561 120.94 68.4073 120.885 68.9585C120.83 69.2892 120.499 69.4546 120.168 69.3994C118.184 69.1238 116.144 69.2341 114.16 68.9585C113.829 68.9034 113.499 68.9585 113.168 68.9585C112.837 68.9585 112.507 68.8483 112.562 68.4624C112.562 68.0766 112.837 67.9112 113.168 67.9112C114.215 67.9664 115.318 68.0215 116.365 68.0766C117.467 68.0766 118.625 68.1868 119.893 68.2419Z" fill="#5F7691"/>
<path d="M112.231 65.2094C112.231 65.485 112.066 65.7055 111.735 65.7055C111.349 65.7055 111.349 65.4299 111.294 65.1543C111.294 64.8787 111.459 64.6582 111.735 64.6582C112.066 64.6582 112.231 64.8787 112.231 65.2094Z" fill="#5F7691"/>
<path d="M54.576 61.7373C54.6311 63.887 54.6312 66.0366 54.4658 68.1863C54.4107 68.7374 54.2453 69.013 53.6941 69.013C53.4185 69.013 53.1429 69.0682 52.8122 69.013C51.2138 68.8477 51.2689 68.8477 51.1036 67.2492C50.9382 65.6508 50.7177 63.9972 50.7728 62.3988C50.8279 60.5798 50.7728 58.816 50.828 56.9971C50.828 56.7215 50.9382 56.5561 51.2138 56.501C52.0957 56.3908 52.9776 56.3356 53.8595 56.1703C54.3556 56.1152 54.5209 56.2805 54.5209 56.7766C54.576 58.4853 54.576 60.1389 54.576 61.7373Z" fill="#5F7691"/>
<path d="M40.1899 55.1788C40.1899 53.9111 40.4104 52.6433 40.5206 51.3205C40.5758 50.6591 40.7963 50.3284 41.5679 50.3284C42.1191 50.3284 42.7254 50.2181 43.2766 50.2732C44.1034 50.3835 44.5444 50.7693 44.4893 51.6512C44.4341 53.1394 44.379 54.6827 44.1585 56.171C44.1585 56.2812 44.1034 56.3363 44.1034 56.4465C43.9931 57.4938 43.9932 57.4938 42.8908 57.5489C42.2845 57.5489 41.623 57.5489 41.0167 57.5489C40.4655 57.5489 40.1899 57.2733 40.1899 56.7221C40.1899 56.2812 40.1899 55.73 40.1899 55.1788Z" fill="#5F7691"/>
<path d="M95.4194 60.1384C95.4194 58.9809 95.4194 57.8234 95.4194 56.6108C95.4194 56.4454 95.3644 56.225 95.5297 56.1147C96.136 55.784 96.7974 56.0045 97.4589 56.0596C97.8998 56.1147 98.0101 56.4454 98.0652 56.7762C98.3408 57.9337 98.1754 59.1463 98.1754 60.3589C98.1754 60.6345 98.0101 60.7447 97.7896 60.8549C97.1281 61.0754 96.4667 61.351 95.8053 61.5715C95.4746 61.6818 95.2541 61.6817 95.3092 61.2408C95.3643 60.9101 95.3092 60.5243 95.3092 60.1935C95.3092 60.1384 95.3643 60.1384 95.4194 60.1384Z" fill="#5F7691"/>
<path d="M88.7504 67.1395C88.7504 67.4702 88.7504 67.8009 88.7504 68.1316C88.6953 68.5174 88.9709 69.0686 88.5851 69.234C87.9237 69.4545 87.2071 69.3993 86.4905 69.234C86.3252 69.1789 86.3252 69.0135 86.3252 68.8481C86.1598 67.7458 86.1047 66.5883 86.1598 65.4859C86.1598 65.1552 86.2701 64.9898 86.6559 65.045H86.711C87.3725 65.1552 88.2543 64.7694 88.6953 65.2103C89.026 65.5961 88.6953 66.478 88.7504 67.1395Z" fill="#5F7691"/>
<path d="M60.9697 58.9814C61.0248 58.0995 61.08 57.2176 61.2453 56.3357C61.3004 56.0049 61.4107 55.9498 61.6863 55.9498C63.6155 55.7293 63.7808 55.8396 63.6706 57.7687C63.6155 58.5955 63.5052 59.3672 63.4501 60.194C63.4501 60.5247 63.2848 60.5798 63.0643 60.5798C62.5131 60.5798 62.017 60.5798 61.4658 60.6349C61.08 60.6349 61.0249 60.4144 61.0249 60.1389C60.9698 59.753 60.9697 59.3672 60.9697 58.9814Z" fill="#5F7691"/>
<path d="M80.8681 26.2965C80.9232 28.4462 80.9232 30.6509 80.7578 32.8006C80.7027 33.3518 80.5374 33.5171 80.0413 33.5722C79.3248 33.6273 78.6082 33.5171 77.8917 33.3518C77.561 33.2966 77.4507 33.0762 77.4507 32.8006C77.3405 30.8163 77.0649 28.8871 77.12 26.9028C77.1751 25.139 77.12 23.4303 77.1751 21.6665C77.1751 21.2807 77.3405 21.1705 77.6712 21.1153C78.5531 21.0051 79.3799 20.95 80.2618 20.7846C80.7027 20.7295 80.9232 20.8949 80.9232 21.3358C80.8681 22.9894 80.8681 24.643 80.8681 26.2965Z" fill="#5F7691"/>
<path d="M33.19 26.2409C33.0798 24.4219 33.3003 22.7684 33.3003 21.0597C33.3003 20.6739 33.5207 20.6187 33.7963 20.5636C34.3475 20.5085 34.8987 20.5636 35.4499 20.6739C35.7255 20.729 35.8358 21.0046 35.946 21.2802C36.2216 22.4928 36.0562 23.7605 36.0562 24.9731C36.0562 25.1385 35.946 25.3039 35.7806 25.359C34.8987 25.6897 34.072 26.0755 33.19 26.2409Z" fill="#5F7691"/>
</svg>
