<svg width="132" height="97" viewBox="0 0 132 97" fill="none" xmlns="http://www.w3.org/2000/svg">
<path d="M129.571 91.8052C126.893 91.7365 124.215 91.8052 121.537 91.6678C119.958 91.5992 118.31 91.5992 116.731 91.5992C105.95 91.3245 95.2385 91.5305 84.4581 91.4618C81.8488 91.4618 79.2395 91.4618 76.6303 91.4618C76.0123 91.4618 75.3256 91.5305 74.7763 91.8052C74.0896 92.0798 73.4716 92.5605 72.991 93.1098C72.2357 93.9338 71.343 94.5518 70.3131 95.1011C69.4891 95.5131 68.6651 95.8564 67.7725 96.0624C67.2231 96.1997 66.6738 96.2684 66.1245 96.3371C65.7812 96.3371 65.4378 96.4744 65.1632 96.4057C64.4765 96.3371 63.7212 96.2684 63.0346 96.1311C62.0732 95.9251 61.1806 95.5817 60.3566 95.1011C59.6013 94.6891 58.9833 94.2771 58.3653 93.7278C57.5414 92.9725 56.8547 92.1485 56.2367 91.1872C55.8934 90.6379 55.6187 89.9512 55.3441 89.4019C54.7948 88.3719 54.0394 87.6166 52.9408 87.2046C52.2541 86.9299 51.5675 86.6553 50.8808 86.3806C50.2629 86.106 49.5762 85.8313 48.9582 85.5566C48.2029 85.2133 47.4476 84.9387 46.6923 84.5953C45.8683 84.252 45.0443 83.9087 44.2203 83.5654C43.3963 83.222 42.5724 82.8787 41.7484 82.5354C40.7184 82.1234 39.6884 81.7114 38.6584 81.2994C37.7658 80.9561 36.8732 80.5441 35.9805 80.1321C35.2252 79.7888 34.4699 79.5141 33.7146 79.2395C33.0966 78.9648 32.4786 78.7588 31.9293 78.4841C31.174 78.2095 30.4873 77.8661 29.732 77.5915C28.9767 77.2482 28.2214 76.9735 27.466 76.6302C26.6421 76.2868 25.7494 75.9435 24.9254 75.6002C24.3761 75.3255 23.7581 75.1195 23.2088 74.8449C22.5221 74.5702 21.8355 74.2956 21.2175 74.0209C20.3935 73.6776 19.5695 73.3343 18.7456 72.9909C17.9216 72.6476 17.0976 72.3043 16.2736 71.961C15.175 71.4803 14.0763 70.9996 12.909 70.519C12.0164 70.1757 11.1237 69.7637 10.2311 69.4203C9.26978 69.0083 8.30849 68.5964 7.34717 68.1844C6.1112 67.7037 4.94388 67.2231 3.70791 66.6737C2.88393 66.3304 2.12861 65.9871 1.30463 65.6438C1.02997 65.5064 0.755324 65.4378 0.480664 65.2318C0.137339 65.0258 0 64.6824 0 64.2705C0.0686651 63.7898 0.205987 63.3091 0.549312 62.8972C0.823973 62.4852 1.44196 62.4165 1.99128 62.6912C2.7466 63.0345 3.50193 63.3091 4.25724 63.6525C4.87523 63.9271 5.4932 64.1331 6.04252 64.4078C6.79784 64.6825 7.4845 65.0258 8.23981 65.3691C8.99513 65.7124 9.75044 65.9871 10.5058 66.3304C11.5357 66.7424 12.4971 67.1544 13.527 67.5664C14.557 67.9784 15.587 68.459 16.617 68.871C17.5096 69.283 18.4023 69.6263 19.3636 69.9697C20.1189 70.313 20.8742 70.5877 21.5608 70.931C22.3848 71.2743 23.2775 71.6176 24.1015 71.961C24.7881 72.2356 25.4748 72.5103 26.1614 72.7849C26.9167 73.1283 27.672 73.4029 28.496 73.7463C29.1827 74.0209 29.8693 74.2956 30.556 74.6389C31.3113 74.9822 32.0666 75.2569 32.8219 75.6002C33.5086 75.8749 34.1952 76.2182 34.8819 76.4929C35.4312 76.6989 35.9805 76.9735 36.5298 77.1795C37.1478 77.4542 37.7658 77.6601 38.3838 77.9348C39.1391 78.2095 39.8258 78.5528 40.5811 78.8275C41.3364 79.1708 42.0917 79.4454 42.847 79.7888C43.9457 80.2694 45.0443 80.6814 46.143 81.1621C46.9669 81.5054 47.7909 81.8487 48.6149 82.1921C49.4389 82.5354 50.2628 82.8787 51.0868 83.222C51.7735 83.4967 52.3915 83.7714 53.0781 84.046C53.3528 84.1833 53.6961 84.252 54.0394 84.3207C55.4127 84.7327 56.5801 85.488 57.4727 86.724C58.0907 87.6166 58.5027 88.5779 58.9146 89.5392C59.258 90.2945 59.7386 90.9812 60.4253 91.5992C61.1119 92.2858 61.9359 92.6978 62.8286 93.0411C64.0645 93.5218 65.3005 93.5218 66.5365 93.3845C67.7038 93.2471 68.8024 92.7665 69.8324 92.0798C70.6564 91.5305 71.343 90.7752 72.0297 89.9512C72.5103 89.4019 73.0597 89.0586 73.6776 88.8526C74.0896 88.7152 74.5703 88.6466 75.0509 88.7152C77.1796 88.7152 79.3082 88.7839 81.5055 88.7152C85.3507 88.5779 89.196 88.6466 93.0412 88.6466C93.6592 88.6466 94.3458 88.5779 94.9638 88.6466C96.4058 88.7839 97.9164 88.6466 99.3584 88.7839C101.487 88.9212 103.547 88.8526 105.676 88.9212C112.199 89.1272 118.722 88.9899 125.245 88.9899C126.962 88.9899 128.678 88.9899 130.464 88.9899C131.219 88.9899 131.768 89.4019 131.768 90.2259C131.768 90.5005 131.837 90.7065 131.768 90.9812C131.631 91.3932 131.288 91.8738 130.876 91.8738C130.258 91.7365 129.914 91.8738 129.571 91.8052Z" fill="#5F7691"/>
<path d="M126.893 79.4444C126.275 79.8564 125.657 80.1997 125.039 80.4744C124.559 80.6804 124.009 80.8864 123.529 81.0237C123.117 81.161 122.773 81.2297 122.361 81.2984C121.812 81.4357 121.263 81.5044 120.713 81.6417C120.37 81.7104 120.027 81.7103 119.683 81.779C118.035 81.985 116.387 81.9163 114.74 81.9163C113.984 81.9163 113.229 81.779 112.474 81.779C111.856 81.7103 111.169 81.6417 110.551 81.573C109.796 81.4357 108.972 81.367 108.216 81.2297C107.53 81.0924 106.912 81.0237 106.225 80.8864C105.401 80.749 104.577 80.543 103.753 80.4057C103.135 80.2684 102.448 80.131 101.83 80.0624C101.212 79.9937 100.595 79.8564 100.045 79.7191C99.2899 79.5131 98.6032 79.4444 97.8479 79.3071C97.2299 79.1697 96.6119 79.1011 95.9939 79.0324C95.3073 78.8951 94.6206 78.8951 93.934 78.6891C93.5907 78.6204 93.2474 78.6204 92.8354 78.5518C91.1187 78.3458 89.4021 78.3458 87.6168 78.4144C86.8615 78.4831 86.1062 78.5517 85.2822 78.6891C84.8015 78.8264 84.2522 78.8951 83.7716 78.9637C83.2909 79.1011 82.7416 79.2384 82.2609 79.3757C81.5743 79.5817 80.9563 79.8564 80.2696 80.131C79.2397 80.6117 78.2097 81.161 77.2484 81.779C75.9437 82.6717 74.7078 83.7016 73.6091 84.8689C73.6091 84.8689 73.5405 84.9376 73.6091 84.9376C73.8151 85.0749 74.0211 84.8689 74.1584 84.8003C74.8451 84.5943 75.5317 84.4569 76.2184 84.251C76.6991 84.1136 77.2484 84.045 77.729 83.9763C78.347 83.839 78.965 83.839 79.583 83.633H79.6517C80.3383 83.633 80.9563 83.4956 81.6429 83.4956C82.5356 83.427 83.4969 83.4956 84.3895 83.3583C85.3509 83.221 86.3808 83.221 87.3422 83.2896C88.5781 83.3583 89.8141 83.2896 91.0501 83.427C91.874 83.4956 92.698 83.427 93.522 83.5643C94.2773 83.7016 95.0326 83.5643 95.788 83.7016C96.4746 83.839 97.2299 83.7016 97.9166 83.839C98.6032 83.9763 99.3585 83.839 100.045 83.9763C100.801 84.1136 101.624 83.9763 102.38 84.1136C103.341 84.2509 104.302 84.1136 105.264 84.251C107.118 84.4569 109.04 84.3196 110.894 84.3883C112.13 84.3883 113.366 84.457 114.602 84.3196C115.289 84.251 116.044 84.3196 116.731 84.1823C117.211 84.1136 117.692 84.1136 118.173 84.045C118.928 83.9076 119.752 83.9076 120.507 83.7703C121.057 83.7016 121.606 83.633 122.155 83.5643C122.842 83.4956 123.597 83.3583 124.284 83.221C124.902 83.0836 125.589 83.015 126.207 82.809C126.413 82.7403 126.55 82.8777 126.687 82.9463C126.687 82.9463 126.756 83.0836 126.619 83.0836C126.275 83.221 125.932 83.3583 125.52 83.427C124.902 83.633 124.284 83.839 123.666 83.9763C123.254 84.1136 122.911 84.1823 122.499 84.251C122.018 84.3883 121.606 84.4569 121.125 84.5943C120.919 84.6629 120.645 84.663 120.439 84.7316C119.821 84.8003 119.203 84.9376 118.585 85.0063C117.898 85.1436 117.28 85.1436 116.593 85.2809C116.181 85.3496 115.769 85.3496 115.426 85.4183C114.671 85.4869 113.916 85.5556 113.229 85.6243C112.405 85.6929 111.65 85.6929 110.826 85.7616C108.422 85.9676 106.019 85.8302 103.616 85.8302C102.38 85.8302 101.213 85.7616 99.9765 85.6929C99.2212 85.6243 98.4659 85.6929 97.7106 85.5556C97.0239 85.4869 96.3373 85.5556 95.7193 85.4183C95.1013 85.2809 94.4833 85.4183 93.8653 85.2809C93.316 85.1436 92.698 85.2809 92.1487 85.1436C91.5307 85.0063 90.8441 85.1436 90.2261 85.0063C89.6768 84.9376 89.1274 85.0063 88.5781 84.8689C87.6168 84.7316 86.7242 84.8689 85.7628 84.7316C84.3895 84.5943 83.0162 84.6629 81.6429 84.6629C80.9563 84.6629 80.201 84.6629 79.5143 84.8003C78.8277 84.8689 78.141 84.9376 77.4544 85.0063C76.7677 85.1436 76.0811 85.2809 75.3944 85.4183C74.7764 85.5556 74.1585 85.7616 73.5405 85.9676C72.8538 86.1736 72.2358 86.4482 71.5492 86.6542C71.4805 86.6542 71.4118 86.7229 71.3432 86.7229C71.2745 86.7229 71.1372 86.9289 71.0685 86.7916C70.9999 86.6542 71.1372 86.5856 71.2059 86.4482C71.5492 86.0363 72.0985 85.7616 72.5792 85.4869C72.9911 85.2809 73.3345 85.0749 73.4031 84.4569C73.4718 83.4956 74.0211 82.809 74.7078 82.191C75.2571 81.6417 75.8064 81.0924 76.4244 80.543C77.523 79.5817 78.6903 78.6204 79.995 77.9338C80.9563 77.3844 81.9176 76.9724 82.9476 76.5605C83.4969 76.3545 84.1149 76.1485 84.6642 76.0111C85.2822 75.8051 85.9688 75.7365 86.5868 75.5991C86.8615 75.5305 87.1361 75.5305 87.4108 75.4618C88.0975 75.3932 88.7155 75.2558 89.4021 75.3245C90.0201 75.3932 90.7067 75.1185 91.3247 75.2558C92.1487 75.3932 92.904 75.3245 93.728 75.3932C94.4833 75.4618 95.17 75.5305 95.9253 75.5991C96.4746 75.6678 97.0926 75.7365 97.6419 75.8052C98.3286 75.9425 99.0152 76.0111 99.7019 76.1485C100.526 76.2858 101.35 76.4918 102.174 76.6291C102.929 76.7665 103.616 76.9725 104.371 77.1098C105.126 77.2471 105.813 77.4531 106.568 77.5904C107.255 77.7278 108.01 77.9338 108.697 78.0711C109.452 78.2771 110.208 78.4144 111.032 78.5518C111.65 78.6891 112.268 78.8264 112.817 78.8951C113.572 79.0324 114.328 79.1697 115.083 79.2384C115.769 79.3071 116.456 79.3757 117.143 79.5131C117.761 79.5817 118.379 79.5131 118.997 79.6504C119.752 79.7877 120.576 79.7191 121.331 79.7191C121.949 79.7191 122.567 79.6504 123.185 79.5817C123.803 79.5131 124.421 79.4444 124.971 79.3757C125.451 79.3071 125.863 79.1697 126.344 79.1697C126.481 79.1697 126.756 79.1697 126.893 79.4444Z" fill="#5F7691"/>
<path d="M11.4673 57.8848C11.8106 57.9534 12.1539 57.9534 12.4286 58.0908C12.7033 58.1594 12.9779 58.2281 13.2526 58.2281C13.9392 58.3654 14.6945 58.5028 15.3812 58.6401C16.1365 58.7774 16.9605 58.9147 17.7158 59.1207C18.4024 59.2581 19.0891 59.3954 19.7757 59.4641C20.3251 59.5327 20.8057 59.6014 21.3551 59.7387C21.973 59.8074 22.591 59.8761 23.1404 60.0134C23.9643 60.1507 24.7196 60.1507 25.5436 60.288C26.5736 60.4254 27.6036 60.4254 28.5649 60.5627C29.2515 60.6314 29.9382 60.5627 30.6248 60.7C31.4488 60.8374 32.3415 60.7 33.1654 60.8374C33.9894 60.9747 34.8821 60.8374 35.7061 60.9747C36.3927 61.0434 37.148 61.112 37.8347 61.2494C38.4527 61.318 39.0706 61.4553 39.6886 61.5927C40.7186 61.8673 41.6799 62.142 42.7099 62.4853C44.2892 63.1033 45.8685 63.8586 47.3105 64.7513C48.4778 65.5066 49.5764 66.3992 50.6064 67.2919C51.499 68.0472 52.323 68.9398 53.0783 69.8325C54.0396 70.9998 54.9323 72.1671 55.8249 73.4717C56.3742 74.2957 56.9236 75.1197 57.4042 75.9437C58.1595 77.111 58.7775 78.4156 59.3955 79.6516C59.6702 80.2696 59.8762 80.9562 60.1508 81.5742C60.1508 81.6429 60.1508 81.7116 60.1508 81.8489C59.8762 81.5742 59.6702 81.2996 59.3955 80.9562C59.0522 80.5443 58.7089 80.1322 58.3655 79.7203C57.5416 78.7589 56.7176 77.7976 55.9623 76.8363C54.9323 75.6004 53.9023 74.4331 52.8723 73.2657C52.1857 72.5104 51.4304 71.8238 50.7437 71.1371C50.0571 70.5191 49.3704 69.9011 48.6838 69.3518C47.7224 68.5278 46.6925 67.8412 45.5938 67.1546C44.7698 66.6739 43.8772 66.2619 42.9846 65.9186C42.2292 65.5752 41.4739 65.3693 40.65 65.0946C39.9633 64.8886 39.208 64.7513 38.4527 64.5453C38.178 64.4766 37.8347 64.4079 37.56 64.4079C36.8734 64.3393 36.1867 64.202 35.4314 64.0646H35.3627C34.6761 64.0646 33.9894 63.9273 33.2341 63.9273C32.3415 63.8586 31.4488 63.79 30.5562 63.7213C29.9382 63.6526 29.2515 63.584 28.6336 63.5153C27.8096 63.4466 26.9856 63.3093 26.1616 63.172C25.269 63.0346 24.445 62.8287 23.5523 62.6913C22.797 62.554 22.1104 62.4167 21.4237 62.2107C20.3937 61.936 19.2951 61.6613 18.2651 61.318C17.1665 60.9747 16.1365 60.6314 15.1065 60.2194C14.2139 59.876 13.3212 59.5327 12.4973 58.9834C12.1539 58.5028 11.8106 58.2281 11.4673 57.8848Z" fill="#5F7691"/>
<path d="M107.942 40.0327C107.942 37.6294 107.942 35.2261 107.942 32.8228C107.942 32.5482 108.01 32.4795 108.285 32.4795C109.246 32.4795 110.139 32.4795 111.1 32.4795C111.306 32.4795 111.375 32.5482 111.375 32.7541C111.375 34.5394 111.375 36.3247 111.375 38.11C111.375 38.3847 111.444 38.3847 111.718 38.3847C113.71 38.3847 115.632 38.3847 117.623 38.3847C117.898 38.3847 117.967 38.316 117.967 38.0414C117.967 36.2561 117.967 34.5394 117.967 32.7541C117.967 32.5482 118.035 32.4795 118.241 32.4795C119.203 32.4795 120.164 32.4795 121.057 32.4795C121.263 32.4795 121.331 32.5482 121.331 32.7541C121.331 37.5607 121.331 42.4359 121.331 47.2425C121.331 47.5171 121.263 47.5171 120.988 47.5171C120.027 47.5171 119.134 47.5171 118.173 47.5171C117.898 47.5171 117.898 47.4485 117.898 47.2425C117.898 45.4572 117.898 43.6719 117.898 41.818C117.898 41.5433 117.829 41.4746 117.555 41.4746C115.564 41.4746 113.641 41.4746 111.65 41.4746C111.375 41.4746 111.306 41.5433 111.306 41.818C111.306 43.6032 111.306 45.3885 111.306 47.1738C111.306 47.5171 111.238 47.5858 110.894 47.5171C110.002 47.5171 109.109 47.5171 108.148 47.5171C107.873 47.5171 107.873 47.4485 107.873 47.2425C107.942 44.8392 107.942 42.4359 107.942 40.0327Z" fill="#5F7691"/>
<path d="M84.4582 32.2734C84.8016 33.0974 85.1449 33.8528 85.4882 34.6081C85.9002 35.5007 86.3122 36.3247 86.7242 37.2173C87.2735 38.3846 87.8228 39.5519 88.3722 40.7193C88.7841 41.6806 89.2648 42.7105 89.7455 43.6718C90.2261 44.7018 90.7067 45.7318 91.1874 46.8304C91.3247 47.1738 91.5307 47.5858 91.6681 47.9291C91.8054 48.1351 91.6681 48.2037 91.3934 48.2037C88.6468 48.2037 85.9002 48.2037 83.1536 48.2037C81.231 48.2037 79.377 48.2037 77.4544 48.2037C77.1111 48.2037 77.1111 48.2037 77.2484 47.8604C77.7291 46.9678 78.141 46.0065 78.553 45.1138C78.965 44.2898 79.3084 43.4659 79.7203 42.6419C79.995 41.9552 80.3383 41.3372 80.613 40.6506C81.025 39.7579 81.437 38.7966 81.849 37.8353C82.1236 37.286 82.3983 36.668 82.6729 36.1187C83.0163 35.2947 83.4283 34.4707 83.8403 33.6467C84.0462 33.1661 84.1836 32.6854 84.4582 32.2734Z" fill="#5F7691"/>
<path d="M64.4072 40.0327C64.4072 37.6294 64.4072 35.2261 64.4072 32.8228C64.4072 32.5482 64.4759 32.4795 64.7506 32.4795C67.7032 32.4795 70.6558 32.4795 73.6084 32.4795C73.883 32.4795 73.9517 32.5482 73.883 32.8228C73.883 33.5095 73.883 34.2648 73.883 34.9514C73.883 35.2261 73.8144 35.2948 73.5397 35.2948C71.7544 35.2948 69.9005 35.2948 68.1152 35.2948C67.9092 35.2948 67.8405 35.3634 67.8405 35.5694C67.8405 36.4621 67.8405 37.3547 67.8405 38.1787C67.8405 38.3847 67.9092 38.4533 68.1152 38.4533C69.7631 38.4533 71.4797 38.4533 73.1277 38.4533C73.4024 38.4533 73.5397 38.5907 73.5397 38.8653C73.5397 39.552 73.5397 40.17 73.5397 40.8566C73.5397 41.1313 73.471 41.1999 73.1964 41.1999C71.5484 41.1999 69.8318 41.1999 68.1838 41.1999C67.9091 41.1999 67.8405 41.2686 67.9092 41.5433C67.9092 42.5046 67.9092 43.5346 67.9092 44.4959C67.9092 44.7019 67.9778 44.7705 68.1838 44.7705C70.1064 44.7705 71.9604 44.7705 73.883 44.7705C74.1577 44.7705 74.2263 44.8392 74.2263 45.1139C74.2263 45.8005 74.2263 46.5558 74.2263 47.2425C74.2263 47.4485 74.1577 47.5171 73.9517 47.5171C70.8618 47.5171 67.8405 47.5171 64.7506 47.5171C64.4759 47.5171 64.5446 47.3798 64.5446 47.2425C64.4072 44.8392 64.4072 42.4359 64.4072 40.0327Z" fill="#5F7691"/>
<path d="M105.195 34.4017C105.195 34.8824 105.195 35.363 105.195 35.8437C105.195 36.0497 105.126 36.0497 104.989 35.981C104.577 35.775 104.096 35.6377 103.684 35.5003C102.86 35.2944 102.036 35.2257 101.144 35.2944C99.7703 35.363 98.603 35.9123 97.7791 37.011C97.4357 37.4916 97.2297 38.041 97.0924 38.5903C96.8864 39.4143 96.9551 40.2382 97.0237 41.0622C97.0924 41.8175 97.3671 42.5042 97.8477 43.0535C98.397 43.7402 99.0837 44.1522 99.9077 44.4268C100.8 44.7015 101.693 44.7015 102.517 44.6328C103.41 44.6328 104.234 44.3581 104.989 44.0148C105.126 43.9462 105.195 44.0148 105.195 44.1522C105.195 45.1135 105.195 46.0061 105.195 46.9674C105.195 47.1048 105.195 47.1048 105.058 47.1734C104.577 47.3107 104.096 47.4481 103.616 47.5167C102.586 47.7227 101.556 47.7914 100.526 47.7227C99.9077 47.6541 99.2897 47.5854 98.6717 47.3794C97.7104 47.1047 96.8864 46.6928 96.0624 46.1434C95.0324 45.3881 94.2771 44.4268 93.7965 43.2595C93.5905 42.7788 93.4532 42.2982 93.3845 41.7489C93.2472 41.1309 93.1785 40.5129 93.2472 39.9636C93.3158 39.2083 93.3158 38.5216 93.5218 37.7663C93.7965 36.805 94.1398 35.9123 94.7578 35.0884C95.5131 33.9897 96.5431 33.2344 97.7791 32.7537C98.3284 32.5477 98.8777 32.3417 99.427 32.2731C100.251 32.1357 101.144 31.9984 101.968 32.0671C102.654 32.1358 103.272 32.1358 103.959 32.3417C104.302 32.4104 104.646 32.5477 104.989 32.6164C105.126 32.6851 105.195 32.6851 105.195 32.8911C105.195 33.5091 105.195 33.921 105.195 34.4017Z" fill="#5F7691"/>
<path d="M8.10271 60.2881C8.65203 60.4941 9.20136 60.7687 9.81934 60.9747C10.506 61.2494 11.1927 61.524 11.8106 61.7987C12.2226 61.936 12.6346 62.142 12.9779 62.2794C13.6646 62.554 14.3512 62.8287 15.1066 63.1034C15.8619 63.4467 16.6859 63.7213 17.5098 64.0647C18.1278 64.2707 18.7458 64.4767 19.4325 64.6826C20.1191 64.8886 20.7371 65.1633 21.4238 65.3693C21.9044 65.5066 22.3164 65.644 22.7971 65.7813C23.2777 65.9186 23.6897 66.1246 24.1704 66.1933C24.651 66.3306 25.1317 66.4679 25.5437 66.6053C26.2303 66.8113 26.917 66.9486 27.535 67.1546C27.8783 67.2919 28.2903 67.3606 28.6336 67.4293C29.3202 67.6352 30.0069 67.7726 30.6936 67.9786C31.0369 68.1159 31.4488 68.1846 31.7922 68.2532C32.2042 68.3219 32.5475 68.4592 32.9595 68.5966C33.3028 68.7339 33.7148 68.8026 34.0581 68.8712C34.4701 68.9399 34.8821 69.0772 35.2254 69.2145C35.5688 69.2832 35.9808 69.4205 36.3241 69.4892C36.7361 69.6265 37.0794 69.7639 37.4914 69.8325C37.8347 69.9012 38.2467 70.0385 38.59 70.1072C39.208 70.3132 39.8947 70.4505 40.5127 70.6565C40.9933 70.7938 41.474 70.9312 41.9546 71.0685C42.2979 71.1372 42.7099 71.2745 43.0533 71.4118C43.6713 71.6178 44.3579 71.8925 44.9759 72.1671C46.4865 72.7851 47.9285 73.4718 49.3704 74.2958C50.8811 75.1197 52.2544 76.0811 53.6277 77.111C54.7263 78.0037 55.825 78.965 56.7863 79.995C57.8163 81.0936 58.7776 82.1922 59.6702 83.4282C60.0135 83.9775 60.4255 84.4582 60.7689 85.0075C60.9062 85.2135 60.8375 85.2135 60.6315 85.2822C60.4255 85.2822 60.2882 85.2135 60.1509 85.0762C59.2582 83.9089 58.2282 82.8102 57.1983 81.7803C56.237 80.8189 55.207 79.9263 54.177 79.1023C52.941 78.2097 51.7051 77.317 50.4004 76.5617C49.5764 76.081 48.7525 75.6004 47.8598 75.1884C47.0358 74.7764 46.1432 74.4331 45.2505 74.0898C44.4266 73.7464 43.5339 73.4031 42.7099 73.1284C41.9546 72.9225 41.268 72.6478 40.5127 72.4418C39.8947 72.2358 39.208 72.0985 38.59 71.8925C38.0407 71.7552 37.56 71.6178 37.0107 71.4805C36.4614 71.3432 35.9121 71.1372 35.3628 70.9998C34.8134 70.8625 34.2641 70.7252 33.7835 70.5879C33.2342 70.4505 32.7535 70.3132 32.2042 70.1759C31.8608 70.0385 31.4488 69.9699 31.1055 69.9012C30.5562 69.7639 30.0069 69.6265 29.4576 69.4205C28.9769 69.2832 28.4963 69.1459 27.9469 69.0085C27.329 68.8712 26.7796 68.6652 26.1616 68.5279C25.681 68.3906 25.2003 68.2532 24.7883 68.0472C24.239 67.8412 23.6897 67.7039 23.1404 67.4979C22.5911 67.2919 22.1104 67.1546 21.5611 66.9486C21.0118 66.7426 20.3938 66.5366 19.8445 66.3306C19.1578 66.0559 18.4711 65.7813 17.7845 65.5066C17.3038 65.3006 16.7545 65.0946 16.2739 64.8886C15.4499 64.5453 14.6259 64.202 13.8706 63.8587C12.978 63.4467 12.154 63.0347 11.2613 62.554C10.5747 62.142 9.81934 61.7987 9.13269 61.3181C8.65203 60.9747 8.10273 60.7001 7.62207 60.3568C7.89673 60.2194 8.03405 60.3568 8.10271 60.2881Z" fill="#5F7691"/>
<path d="M61.3179 80.6128C60.494 79.1022 59.7387 77.6602 58.9147 76.1496C58.3654 75.1196 57.816 74.0896 57.2667 73.0596C56.6487 71.961 56.0308 70.8624 55.4128 69.8324C54.6575 68.5277 53.9021 67.2231 53.1468 65.9185C52.5975 65.0258 51.9795 64.1332 51.4302 63.3092C50.7435 62.3479 50.0569 61.3866 49.3702 60.4253C48.4089 59.1893 47.3789 58.0906 46.2803 56.992C45.113 55.962 43.9457 55.0007 42.5724 54.1767C41.4051 53.4214 40.2378 52.8721 39.0018 52.3228C37.6972 51.7048 36.3239 51.0181 35.0192 50.2628C33.7833 49.5762 32.6159 48.8209 31.4486 47.9969C30.4187 47.2416 29.4573 46.3489 28.702 45.2503C28.084 44.4263 27.672 43.5336 27.3287 42.5723C27.2601 42.2977 27.1227 42.0917 27.1914 41.817C27.1914 41.7484 27.0541 41.7484 27.1914 41.6797C27.2601 41.6797 27.2601 41.6797 27.3287 41.7484C27.5347 42.023 27.7407 42.2977 27.9467 42.5723C28.4274 43.259 28.7707 44.0143 29.3887 44.6323C30.4187 45.7309 31.5173 46.6922 32.7533 47.5849C33.7833 48.2715 34.8132 48.8895 35.9119 49.3702C36.8732 49.7822 37.9032 50.1255 38.9331 50.5375C40.1691 51.0868 41.3364 51.6361 42.5037 52.3228C44.0143 53.2154 45.3877 54.2454 46.6923 55.344C47.5163 56.0307 48.3402 56.786 49.0269 57.61C50.1942 58.9146 51.2929 60.2879 52.3228 61.7299C53.2841 63.1032 54.1768 64.5452 54.9321 66.0558C55.7561 67.5664 56.5114 69.1457 57.3354 70.725C57.61 71.343 57.8847 71.8923 58.228 72.5103C58.7087 73.5403 59.1893 74.5703 59.67 75.6689C60.0133 76.5616 60.4253 77.4542 60.7686 78.3468C61.0433 79.0335 61.2493 79.7888 61.524 80.5441C61.3866 80.4755 61.3866 80.5441 61.3179 80.6128Z" fill="#5F7691"/>
<path d="M62.2797 56.7861C62.8976 57.4041 63.5156 58.0221 64.0649 58.5714C65.9189 60.4254 67.8415 62.348 69.6955 64.202C69.7641 64.2706 69.9015 64.3393 69.9015 64.4766C69.8328 64.614 69.6955 64.5453 69.6268 64.5453C69.0088 64.7513 68.3909 64.8886 67.7729 65.0946C67.2922 65.2319 66.8116 65.3693 66.3309 65.5066C65.7129 65.7126 65.0262 65.9186 64.4083 66.0559C63.9276 66.1933 63.447 66.3306 62.8976 66.4679C62.2797 66.6739 61.6617 66.8799 60.975 67.0172C60.6317 67.0859 60.2884 67.2919 59.8764 67.2919C59.7391 67.2919 59.6017 67.4292 59.3957 67.4292C59.2584 67.4292 59.1897 67.4292 59.2584 67.2232C59.3957 66.5366 59.6017 65.9186 59.8077 65.2319C60.0137 64.4766 60.2884 63.7213 60.4944 62.966C60.6317 62.4853 60.769 62.0047 60.9064 61.524C61.1124 60.906 61.3183 60.2194 61.4557 59.6014C61.593 59.1208 61.7303 58.7088 61.8677 58.2281C62.005 57.8161 62.1423 57.3355 62.2797 56.7861Z" fill="#5F7691"/>
<path d="M68.5274 77.1796C68.5274 76.9049 68.4588 76.6303 68.5961 76.4243C68.6648 76.2183 68.6648 75.9436 68.7334 75.7376C68.8021 75.3943 68.8707 75.1196 68.9394 74.7763C69.0081 74.2957 69.0767 73.7463 69.2827 73.2657C69.3514 72.991 69.3514 72.7163 69.4201 72.4417C69.4887 71.8924 69.6261 71.4117 69.6947 70.8624C69.8321 70.1071 69.9007 69.3517 70.1067 68.6651C70.1754 68.4591 70.1067 68.1845 70.244 67.9098C70.3127 67.7725 70.3814 67.7725 70.4501 67.7725C70.7934 67.8411 71.2054 67.9785 71.5487 68.0471C71.9607 68.1844 72.304 68.2531 72.716 68.3904C73.128 68.5278 73.4713 68.6651 73.8833 68.7338C74.2953 68.8024 74.6386 68.9398 74.982 69.0084C75.3939 69.0771 75.7373 69.2831 76.1492 69.3517C76.5612 69.4204 76.9046 69.5578 77.2479 69.6264C77.6599 69.6951 78.0719 69.8324 78.4152 69.9698C78.6212 70.0384 78.8272 70.1071 79.0332 70.1071C79.1705 70.1071 79.2392 70.1757 79.3078 70.2444C79.3765 70.3817 79.1705 70.3131 79.1019 70.3817C78.2779 70.931 77.4539 71.4804 76.6299 71.961C75.7373 72.5104 74.8446 73.1283 73.952 73.609C73.334 73.9523 72.716 74.433 72.098 74.845C71.4114 75.2569 70.7247 75.7376 70.0381 76.1496C69.6261 76.4929 69.0767 76.8363 68.5274 77.1796Z" fill="#5F7691"/>
<path d="M63.3095 27.8091C62.8288 27.3284 62.3482 26.9164 61.8675 26.4358C61.3182 25.8178 60.7002 25.1998 60.1509 24.5818C59.1896 23.6205 58.2969 22.5905 57.3356 21.6292C56.3056 20.5306 55.207 19.4319 54.177 18.3333C53.6277 17.7153 53.0784 17.0973 52.4604 16.548C52.3917 16.4793 52.3231 16.342 52.2544 16.342C52.1171 16.4107 52.1857 16.548 52.1857 16.6167C52.1857 20.0499 52.1857 23.5518 52.1857 26.9851C52.1857 27.2598 52.1171 27.3284 51.8424 27.3284C51.1558 27.3284 51.1558 27.3284 51.1558 26.6418C51.1558 22.4532 51.1558 18.2646 51.1558 14.0761C51.1558 13.9387 51.1558 13.8014 51.2244 13.6641C51.8424 14.282 52.3917 14.9 53.0097 15.518C54.0397 16.548 55.001 17.6466 56.031 18.6766C57.5416 20.2559 58.9836 21.8352 60.4942 23.3458C61.0435 23.8952 61.5242 24.5132 62.0735 24.9938C62.1422 25.0625 62.1422 25.1311 62.2108 25.0625C62.2795 25.0625 62.2795 24.9938 62.2795 24.9251C62.2795 24.8565 62.2795 24.7878 62.2795 24.6505C62.2795 21.1486 62.2795 17.7153 62.2795 14.2134C62.2795 13.8014 62.3482 13.8014 62.6915 13.8014C63.3095 13.8014 63.3095 13.8014 63.3095 14.4194C63.3095 18.7453 63.3095 23.0025 63.3095 27.3284C63.3095 27.5344 63.3095 27.6717 63.3095 27.8091Z" fill="#5F7691"/>
<path d="M84.7328 27.4654C81.0936 27.6714 77.5917 24.3068 77.729 20.3243C77.8663 17.097 80.8189 13.5951 85.0075 13.7324C88.5094 13.8698 91.7367 16.8224 91.668 20.7363C91.668 22.5902 90.9127 24.1695 89.6081 25.4742C88.4408 26.5728 86.7241 27.5341 84.7328 27.4654ZM84.8702 26.5041C87.9601 26.5728 90.5694 23.6889 90.638 20.8049C90.7067 17.3717 87.8228 14.7624 84.8702 14.6937C83.1535 14.6251 81.6429 15.3117 80.4069 16.5477C79.3083 17.6463 78.759 19.0883 78.759 20.6676C78.759 22.3156 79.377 23.7575 80.6129 24.8562C81.7116 25.8861 83.0849 26.5041 84.8702 26.5041Z" fill="#163D5F"/>
<path d="M96.5429 55.7553C96.5429 54.6567 96.5429 53.764 96.5429 52.8714C96.5429 52.6654 96.6115 52.5967 96.7488 52.6654C97.2982 52.6654 97.8475 52.6654 98.3968 52.6654C98.6028 52.6654 98.6715 52.7341 98.6715 52.9401C98.6715 54.588 98.6715 56.3047 98.6715 57.9526C98.6715 58.9139 99.2895 59.6692 100.388 59.6692C101.075 59.6692 101.761 59.6006 102.173 58.9826C102.379 58.7079 102.448 58.5019 102.517 58.1586C102.723 56.442 102.585 54.6567 102.585 52.9401C102.585 52.6654 102.654 52.5967 102.929 52.6654C103.409 52.6654 103.959 52.6654 104.439 52.6654C104.645 52.6654 104.714 52.7341 104.645 52.8714C104.645 54.588 104.714 56.3733 104.645 58.0899C104.577 59.4632 103.89 60.4932 102.517 61.0426C101.487 61.3859 100.457 61.4545 99.4268 61.3172C98.6028 61.1799 97.9162 60.9052 97.2982 60.3559C96.8862 59.9439 96.6115 59.4632 96.4742 58.8453C96.4055 57.7466 96.6115 56.648 96.5429 55.7553Z" fill="#5F7691"/>
<path d="M114.396 56.9238C114.396 55.6192 114.396 54.2459 114.396 52.9412C114.396 52.6666 114.465 52.5979 114.74 52.5979C116.044 52.5979 117.28 52.5292 118.585 52.5979C119.409 52.6666 120.164 52.9412 120.714 53.5592C121.057 53.9025 121.194 54.3832 121.332 54.8639C121.469 55.3445 121.4 55.8252 121.263 56.3058C121.126 57.1298 120.645 57.6791 119.89 58.0911C118.928 58.6404 117.898 58.5718 116.937 58.5718C116.525 58.5718 116.525 58.5718 116.525 58.9151C116.525 59.6017 116.525 60.2884 116.525 60.9751C116.525 61.181 116.456 61.2497 116.25 61.2497C115.77 61.2497 115.22 61.2497 114.74 61.2497C114.465 61.2497 114.396 61.181 114.396 60.9064C114.396 59.6017 114.396 58.2285 114.396 56.9238ZM116.594 55.5505C116.594 55.8938 116.594 56.3058 116.594 56.6491C116.594 56.7865 116.594 56.9238 116.8 56.9238C117.349 56.9238 117.898 56.9238 118.448 56.7178C119.203 56.3745 119.478 55.5505 118.997 54.8639C118.791 54.5205 118.379 54.3145 117.967 54.3145C117.555 54.2459 117.212 54.3145 116.8 54.3145C116.594 54.3145 116.525 54.3832 116.525 54.5892C116.594 54.8638 116.594 55.2072 116.594 55.5505Z" fill="#5F7691"/>
<path d="M29.389 20.5995C29.389 18.4709 29.389 16.3423 29.389 14.2824C29.389 13.8704 29.4576 13.8704 29.801 13.8704C30.4876 13.8704 31.1056 13.8017 31.7922 13.8704C32.6849 13.939 33.6462 14.0077 34.4015 14.6943C35.1568 15.3123 35.5688 16.1363 35.5688 17.0976C35.5688 17.441 35.5688 17.8529 35.5688 18.1963C35.4315 19.2262 34.8822 19.9816 33.9895 20.5309C33.4402 20.8055 32.8222 21.0115 32.2042 21.0115C31.9296 21.0115 31.9983 21.1489 32.0669 21.2862C32.4102 21.7668 32.7536 22.2475 33.0282 22.7282C33.6462 23.6208 34.1955 24.4448 34.8135 25.3374C35.2255 25.9554 35.6375 26.5047 36.0495 27.1227C36.1181 27.1914 36.1868 27.2601 36.1182 27.3287C36.1182 27.3974 35.9808 27.3287 35.9121 27.3974C35.1568 27.5347 34.7449 27.1914 34.4015 26.5734C33.4402 25.0628 32.4102 23.5521 31.3803 22.1102C31.1743 21.8355 30.9683 21.5608 30.7623 21.2862C30.6936 21.1489 30.6249 21.0802 30.4876 21.0802C30.3503 21.1489 30.4189 21.2862 30.4189 21.3549C30.4189 23.2775 30.4189 25.1314 30.4189 27.0541C30.4189 27.3287 30.3503 27.3974 30.0756 27.3974C29.3203 27.3974 29.3203 27.3974 29.3203 26.6421C29.389 24.5821 29.389 22.5908 29.389 20.5995ZM30.4189 17.441C30.4189 18.1963 30.4189 19.0202 30.4189 19.7756C30.4189 19.9129 30.4189 19.9816 30.6249 19.9816C31.1743 19.9816 31.7236 19.9816 32.2729 19.9816C32.6849 19.9129 33.0969 19.8442 33.4402 19.5696C34.4702 18.8142 34.6762 17.7156 34.4015 16.5483C34.1269 15.587 33.2342 14.969 32.2729 14.9003C31.7922 14.9003 31.2429 14.9003 30.7623 14.8317C30.4876 14.8317 30.4189 14.9003 30.4189 15.1063C30.4876 15.9303 30.4189 16.6856 30.4189 17.441Z" fill="#163D5F"/>
<path d="M65.9873 20.5993C65.9873 18.4707 65.9873 16.3421 65.9873 14.2134C65.9873 13.9388 66.056 13.8701 66.3306 13.8701C66.9486 13.8701 66.9486 13.8701 66.9486 14.5568C66.9486 16.0674 66.9486 17.6467 66.9486 19.1573C66.9486 19.5693 66.9486 19.5693 67.3606 19.5693C69.7639 19.5693 72.1672 19.5693 74.5704 19.5693C74.8451 19.5693 74.9138 19.5006 74.9138 19.226C74.9138 17.578 74.9138 15.8614 74.9138 14.2134C74.9138 13.9388 74.9824 13.8701 75.2571 13.8701C76.0124 13.8701 75.9437 13.8701 75.9437 14.6254C75.9437 18.7453 75.9437 22.8653 75.9437 26.9852C75.9437 27.2598 75.8751 27.3972 75.6004 27.3972C74.9138 27.3972 74.9138 27.3971 74.9138 26.6418C74.9138 24.7192 74.9138 22.7966 74.9138 20.874C74.9138 20.668 74.8451 20.5993 74.6391 20.5993C72.2358 20.5993 69.8326 20.5993 67.3606 20.5993C67.0859 20.5993 67.0173 20.668 67.0173 20.9426C67.0173 23.0026 67.0173 25.0625 67.0173 27.1225C67.0173 27.3971 66.9486 27.4658 66.674 27.3972C65.9873 27.3972 65.9873 27.3972 65.9873 26.7105C65.9873 24.6505 65.9873 22.5906 65.9873 20.5993Z" fill="#5F7691"/>
<path d="M97.4355 22.4533C97.4355 21.286 97.4355 20.1187 97.4355 18.9514C97.4355 18.6768 97.5042 18.6081 97.7789 18.7454C98.6029 19.0888 99.4268 19.4321 100.251 19.7754C100.937 20.0501 101.624 20.3934 102.311 20.668C103.203 21.08 104.165 21.4234 105.057 21.8354C105.401 21.9727 105.813 22.1787 106.156 22.316C106.225 22.316 106.293 22.316 106.293 22.4533C106.293 22.522 106.225 22.522 106.156 22.5907C105.675 22.7967 105.195 23.0027 104.714 23.2087C104.027 23.4833 103.341 23.8266 102.585 24.1013C101.761 24.4446 100.937 24.7879 100.113 25.1313C99.3582 25.4746 98.5342 25.8179 97.7789 26.1612C97.5042 26.2986 97.4355 26.2299 97.4355 25.9553C97.4355 24.788 97.4355 23.6206 97.4355 22.4533Z" fill="#5F7691"/>
<path d="M85.8313 0C86.1746 0.755316 86.4492 1.44196 86.7239 2.12861C86.9986 2.81526 87.3419 3.50191 87.6166 4.18856C88.0286 5.14988 88.3719 6.04253 88.7839 7.00384C88.9899 7.55316 89.2645 8.03381 89.4705 8.51447C89.6078 8.78913 89.6078 8.85779 89.2645 8.85779C86.9299 8.85779 84.664 8.85779 82.3293 8.85779C82.0547 8.85779 81.986 8.85779 82.1234 8.51447C82.4667 7.82782 82.81 7.07251 83.0847 6.38586C83.428 5.49321 83.84 4.60056 84.252 3.70791C84.664 2.67793 85.1446 1.71663 85.5566 0.686651C85.5566 0.480656 85.6253 0.205995 85.8313 0Z" fill="#5F7691"/>
<path d="M110.07 52.3919C110.688 52.3232 111.375 52.4605 111.993 52.6665C112.268 52.7352 112.405 52.8725 112.405 53.1472C112.336 53.4905 112.405 53.8339 112.405 54.1772C112.405 54.4518 112.268 54.5205 112.062 54.4518C111.238 54.1085 110.414 54.0398 109.521 54.1085C109.109 54.1772 108.766 54.3832 108.766 54.7952C108.766 55.0698 108.972 55.2758 109.178 55.4131C109.658 55.7565 110.276 55.8938 110.757 56.1685C111.512 56.5118 112.199 57.0611 112.474 57.8851C112.817 58.9837 112.474 60.2197 111.306 60.9064C110.414 61.4557 109.384 61.4557 108.422 61.387C107.804 61.3184 107.186 61.181 106.637 60.9064C106.5 60.8377 106.431 60.769 106.431 60.6317C106.431 60.151 106.431 59.6704 106.431 59.1211C106.431 58.9151 106.5 58.9151 106.637 58.9837C107.53 59.5331 108.491 59.7391 109.521 59.6017C109.933 59.5331 110.414 59.1897 110.414 58.7777C110.414 58.3657 110.208 58.0911 109.864 57.8851C109.384 57.6104 108.834 57.4044 108.285 57.1298C107.667 56.8551 107.118 56.5118 106.774 55.8938C106.156 54.7952 106.568 53.4219 107.667 52.8039C108.422 52.5292 109.04 52.3919 110.07 52.3919Z" fill="#5F7691"/>
<path d="M102.31 6.79785C101.349 8.65181 100.525 10.4371 99.6326 12.2224C99.0832 13.2524 98.6026 14.2824 98.0532 15.3123C97.9159 15.5183 97.8473 15.3123 97.8473 15.2437C97.5726 14.969 97.2979 14.6257 97.0233 14.2824C95.856 12.9091 94.6887 11.5357 93.5214 10.1624C93.384 10.0251 93.2467 9.81912 93.1094 9.61312C96.1306 8.65181 99.1519 7.75916 102.31 6.79785Z" fill="#5F7691"/>
<path d="M18.7453 19.2268C18.7453 20.4627 18.6766 22.042 18.814 23.5527C18.8826 24.7886 19.5006 25.7499 20.8739 26.2306C21.5606 26.4366 22.1786 26.5053 22.8652 26.4366C24.0325 26.2993 25.0625 25.75 25.5432 24.5826C25.6118 24.3766 25.6805 24.1707 25.6805 23.896C25.9551 20.8747 25.7492 17.8535 25.8178 14.8322C25.8178 14.5575 25.8178 14.2829 25.8178 14.0769C25.8178 13.9396 25.8865 13.8709 26.0238 13.8709C26.8478 13.8709 26.8478 13.7336 26.8478 14.6262C26.8478 17.3041 26.8478 19.9821 26.8478 22.66C26.8478 23.278 26.8478 23.9647 26.6418 24.5826C26.2985 25.544 25.6805 26.2306 24.8565 26.7799C23.7579 27.3979 22.5906 27.5352 21.4233 27.3979C19.844 27.1233 18.608 26.3679 17.99 24.8573C17.7153 24.2393 17.7153 23.6213 17.7153 22.9347C17.7153 19.9821 17.7153 17.0981 17.7153 14.1455C17.7153 13.9395 17.784 13.8709 18.0587 13.8709C18.8826 13.8709 18.814 13.8022 18.814 14.6262C18.7453 16.0682 18.7453 17.5101 18.7453 19.2268Z" fill="#5F7691"/>
<path d="M15.5184 16.8916C13.3211 14.2823 9.75048 13.939 7.20987 16.2049C4.60059 18.5395 4.39461 22.1101 6.66056 24.5134C9.20117 27.1913 12.9777 27.1227 15.5184 24.376C15.5184 24.8567 15.5184 25.3374 15.5184 25.818C15.5184 25.8867 15.4497 25.9554 15.381 25.9554C14.6944 26.5047 13.9391 26.9167 13.1151 27.1913C12.2224 27.5346 11.3298 27.5346 10.3685 27.466C8.51451 27.3286 7.00387 26.5047 5.7679 25.1314C5.21858 24.5134 4.80659 23.8954 4.53193 23.2088C4.32594 22.6594 4.11993 22.0414 4.05127 21.4235C4.05127 20.9428 4.05127 20.4621 4.05127 19.9815C4.11993 19.0888 4.3946 18.2649 4.80659 17.5095C5.08125 16.9602 5.49325 16.4109 5.97391 15.9989C6.59189 15.3809 7.27853 14.8316 8.10251 14.4883C9.20115 14.0076 10.2998 13.8016 11.5358 13.8703C12.5657 13.939 13.5271 14.2823 14.4197 14.7629C14.6257 14.9003 14.763 14.9689 14.969 15.1063C15.3123 15.3809 15.6557 15.6556 15.5184 16.1362C15.5184 16.2736 15.587 16.5482 15.5184 16.8916Z" fill="#163D5F"/>
<path d="M75.3939 59.8756C74.3639 59.2576 73.2653 58.6396 72.2353 57.953C71.4114 57.4037 70.5187 56.923 69.6947 56.3737C69.2827 56.099 68.8021 55.7557 68.3901 55.5497C68.3214 55.4811 68.1841 55.481 68.1841 55.3437C68.1841 55.2064 68.3214 55.1377 68.3901 55.1377C69.1454 54.6571 69.9007 54.1764 70.5874 53.7644C71.274 53.3524 71.9607 52.8718 72.6473 52.4598C73.1966 52.1165 73.6773 51.7731 74.158 51.4985C74.2266 51.4298 74.2953 51.3611 74.3639 51.4298C74.4326 51.4985 74.4326 51.5671 74.4326 51.6358C74.5013 52.4598 74.6386 53.2838 74.7073 54.0391C74.7759 54.7257 74.8446 55.4124 74.9133 56.0304C74.9819 56.717 75.0506 57.4723 75.1879 58.159C75.2566 58.777 75.2566 59.3263 75.4626 59.9443C75.4626 59.8756 75.4626 59.8756 75.3939 59.8756Z" fill="#5F7691"/>
<path d="M41.4051 27.4663C39.6198 27.535 38.4525 26.711 37.6285 25.4063C37.4912 25.2003 37.3538 24.9257 37.2852 24.651C37.2852 24.5137 37.2852 24.445 37.3538 24.445C37.5598 24.3764 37.7658 24.239 37.9718 24.1704C38.1778 24.1017 38.2465 24.3077 38.3151 24.3764C38.5898 24.9943 38.9331 25.5437 39.4824 25.9557C40.1004 26.3677 40.7871 26.505 41.4737 26.505C42.641 26.505 43.877 25.5437 44.2203 24.445C44.4263 23.6897 44.495 23.0717 44.083 22.3851C43.7397 21.9044 43.3277 21.5611 42.847 21.3551C41.6797 20.8058 40.5811 20.1878 39.4824 19.5698C38.5898 19.0892 38.1091 18.3338 38.0405 17.2352C37.9718 16.0679 38.3838 15.0379 39.3451 14.3513C40.1691 13.6646 41.1991 13.5273 42.2291 13.7333C43.3277 13.9393 44.2203 14.4886 44.8383 15.5186C44.907 15.6559 44.907 15.6559 44.7697 15.7932C44.5637 15.9306 44.4263 16.0679 44.289 16.2052C44.1517 16.2739 44.1517 16.2052 44.083 16.1366C43.8084 15.6559 43.3964 15.2439 42.847 14.9693C41.5424 14.3513 40.1004 14.6259 39.3451 15.9992C38.9331 16.8232 38.9331 17.6472 39.5511 18.2652C39.9631 18.6772 40.5124 18.9518 41.0617 19.2265C42.023 19.7071 43.053 20.1878 43.9457 20.7371C44.9757 21.3551 45.525 22.1791 45.525 23.4151C45.525 24.9944 44.701 26.093 43.3964 26.8483C42.5724 27.3976 42.229 27.4663 41.4051 27.4663Z" fill="#163D5F"/>
<path d="M47.5161 20.5993C47.5161 18.4707 47.5161 16.3421 47.5161 14.2134C47.5161 13.9388 47.5848 13.8701 47.8594 13.8701C48.5461 13.8701 48.5461 13.8701 48.5461 14.5568C48.5461 18.6767 48.5461 22.7966 48.5461 26.9165C48.5461 27.1911 48.4774 27.2598 48.2028 27.2598C47.5848 27.2598 47.5848 27.2598 47.5848 26.6418C47.5161 24.6505 47.5161 22.6592 47.5161 20.5993Z" fill="#5F7691"/>
<path d="M8.10296 60.2877C8.03429 60.2877 7.89697 60.219 7.89697 60.425C7.69097 60.2876 7.48499 60.2877 7.34766 59.9443C7.62232 60.0817 7.89696 60.0817 8.10296 60.2877Z" fill="#5F7691"/>
</svg>
