<svg width="75" height="99" viewBox="0 0 75 99" fill="none" xmlns="http://www.w3.org/2000/svg">
<path d="M18.2051 45.3093C18.2051 45.4138 18.1007 45.466 17.9962 45.5182C17.5262 45.936 17.2129 46.4583 17.004 47.0327C16.7951 47.6594 16.5339 48.2339 16.4295 48.8606C16.325 49.435 16.4295 50.0095 16.7429 50.5317C17.1607 51.2106 17.7351 51.6284 18.5184 51.8373C18.9362 51.9418 19.4063 52.0462 19.824 51.994C20.1374 51.9418 20.3985 51.8896 20.7119 51.9418C20.6597 52.3074 20.503 52.6207 20.3463 52.934C20.1896 53.4041 19.9285 53.8218 19.6152 54.1874C19.4063 54.5008 19.1452 54.7619 18.8318 54.9708C18.4663 55.2319 18.0485 55.493 17.6307 55.6497C17.2651 55.7541 16.8473 55.8586 16.4818 56.0152C16.2729 56.0675 16.1162 56.0675 15.9595 56.1197C15.4895 56.2764 15.0195 56.2764 14.5494 56.3808C14.0794 56.4853 13.6617 56.5375 13.1916 56.5897C12.7738 56.6419 12.4083 56.7464 11.9905 56.7986C11.416 56.8508 10.946 57.1119 10.3715 57.2164C10.2671 57.2686 10.0582 57.2686 10.006 57.5297C9.90154 57.6864 9.64042 57.6864 9.48375 57.7386C9.22263 57.7909 9.01374 57.8953 8.70039 57.8953C8.4915 57.8953 8.28258 57.7386 8.28258 57.4775C8.23035 56.7986 8.33483 56.0675 8.43927 55.3886C8.4915 55.1274 8.49147 54.8663 8.5437 54.6052C8.64814 53.9785 8.75263 53.4041 8.9093 52.7774C9.06597 52.0462 9.27486 51.3151 9.48375 50.584C9.69265 49.9573 9.90152 49.3828 10.1104 48.7561C10.476 47.7639 10.946 46.8238 11.4682 45.8838C11.6249 45.5705 11.8338 45.2571 12.0427 44.9438C12.095 44.8916 12.1472 44.8393 12.0949 44.7871C12.0427 44.6827 11.9905 44.7871 11.9383 44.7871C11.3638 44.7871 10.7894 44.8393 10.2671 44.7349C9.64042 44.6304 9.01374 44.4215 8.43927 44.1082C7.65592 43.6382 6.92478 43.0115 6.35032 42.2804C6.0892 41.967 5.82808 41.6537 5.56696 41.3403C5.14917 40.8181 4.73138 40.2436 4.26136 39.7214C3.63468 39.0425 3.06018 38.3113 2.32904 37.7369C1.85903 37.3713 1.44126 37.058 0.919022 36.8491C0.762351 36.7969 0.605666 36.6924 0.448994 36.6924C0.240099 36.6402 0.0834655 36.4835 0.0312416 36.3268C-0.0209823 36.1702 -0.0210078 35.9613 0.135664 35.8046C0.240112 35.7002 0.344547 35.7002 0.448994 35.7002C0.971233 35.7524 1.49349 35.6479 1.9635 35.5957C2.85131 35.439 3.68691 35.1257 4.47027 34.7079C5.14918 34.3423 5.72359 33.8723 6.24583 33.3501C6.97697 32.6189 7.60369 31.7834 7.91704 30.7911C8.02148 30.4778 8.23034 30.2166 8.33479 29.9033C8.49146 29.4855 8.59595 29.1199 8.70039 28.7021C8.80484 28.3366 8.90929 27.971 8.96151 27.6054C9.01374 27.3966 9.01371 27.1354 9.06594 26.9265C9.11816 26.6132 9.17041 26.2476 9.22263 25.9343C9.32708 25.412 9.32708 24.8898 9.48375 24.4198C9.53598 24.2109 9.53595 24.0542 9.58817 23.8453C9.6404 23.1664 9.84932 22.4875 10.006 21.8086C10.3193 20.7641 10.7371 19.8241 11.3116 18.8841C11.8861 18.0485 12.5127 17.2129 13.2438 16.534C13.975 15.8551 14.7583 15.2284 15.5939 14.7061C16.2206 14.3406 16.7951 13.975 17.474 13.6617C18.0484 13.4006 18.6229 13.1917 19.2496 12.9828C19.7718 12.8261 20.2941 12.6694 20.8163 12.5127C21.2863 12.4083 21.8086 12.3561 22.2786 12.2516C23.3753 12.095 24.5242 12.0427 25.6209 12.095C26.1432 12.1472 26.6654 12.1472 27.2399 12.1994C27.7621 12.2516 28.2844 12.3038 28.8066 12.4083C29.3811 12.5127 29.9555 12.565 30.4777 12.7739C30.5822 12.8261 30.6344 12.7739 30.6344 12.6694C30.6344 12.5127 30.6344 12.3038 30.6344 12.1472C30.6867 11.3638 30.8433 10.5805 31.1567 9.84932C31.5222 8.90929 32.0967 8.12594 32.7234 7.3948C33.5067 6.45477 34.3946 5.67141 35.3346 4.88806C35.8046 4.52249 36.2746 4.1047 36.7446 3.79135C37.6846 3.11244 38.7291 2.48576 39.7736 2.01574C40.5047 1.7024 41.2359 1.38906 41.967 1.12794C42.5415 0.919041 43.1681 0.762369 43.7426 0.605698C44.2649 0.449026 44.7871 0.396802 45.3093 0.24013C45.5182 0.187906 45.7271 0.187906 45.936 0.135682C46.9805 -0.0209898 47.9727 -0.0209901 49.0172 0.0312337C50.3228 0.135682 51.524 0.449026 52.6729 1.12794C53.0385 1.33683 53.3518 1.59795 53.6652 1.91129C53.7174 1.96352 53.7696 2.06797 53.7174 2.12019C53.7174 2.22464 53.6129 2.22464 53.5085 2.22464C53.5085 2.17241 53.613 2.12019 53.5607 2.06797C53.5085 2.01574 53.4563 2.06797 53.404 2.12019C53.3518 2.12019 53.3518 2.17241 53.2996 2.17241C52.8818 2.22464 52.5162 2.38131 52.1506 2.53798C51.7329 2.69465 51.3673 2.95577 51.0017 3.16467C50.2706 3.53023 49.6962 4.1047 49.1217 4.62694C48.5995 5.09695 48.2339 5.61919 47.8683 6.19365C47.6072 6.55922 47.3983 6.92479 47.1894 7.29035C46.9805 7.70814 46.7716 8.12594 46.5627 8.54373C46.3538 8.96152 46.1449 9.43153 45.9883 9.84932C45.8316 10.2671 45.6749 10.6849 45.5182 11.1549C45.4138 11.416 45.3093 11.6772 45.2571 11.8861C45.2049 12.1994 45.1004 12.5127 45.0482 12.8783C44.996 13.1394 44.8915 13.4005 44.8915 13.7139C44.8915 13.7661 44.8915 13.8183 44.8393 13.8706C44.6826 14.1317 44.7871 14.445 44.6827 14.7584C44.6827 14.7584 44.6827 14.7584 44.7349 14.8106L44.7871 14.7584L44.8393 14.7061C45.1526 14.0272 45.6227 13.505 46.2494 13.1394C46.4061 13.035 46.5627 12.8783 46.7716 12.7739C47.1894 12.565 47.5549 12.3561 47.9727 12.1994C48.2861 12.095 48.5994 11.9383 48.9128 11.9905C49.0695 11.9905 49.1217 11.9383 49.1217 11.7816C49.1217 11.5205 49.1217 11.2594 49.1217 10.9983C49.2784 11.1027 49.1739 11.2594 49.2261 11.3638C49.2261 11.9905 49.2261 11.9383 49.8528 11.9905C50.7406 12.0427 51.5762 12.3039 52.3073 12.8261C52.4118 12.9305 52.5685 12.9828 52.5685 13.1917C52.5162 13.1917 52.4118 13.1917 52.3596 13.1917C51.8895 13.2961 51.5239 13.5572 51.1584 13.8706C50.4795 14.445 49.905 15.0717 49.5395 15.8551C49.3828 16.2206 49.1739 16.534 49.1739 16.9518C49.1739 17.1084 49.2261 17.1607 49.3828 17.0562C49.6962 16.8996 50.0617 16.7951 50.4273 16.7951C50.6884 16.7951 50.9495 16.7951 51.2629 16.7951C51.4195 16.9518 51.6806 16.8995 51.8373 16.9518C52.3596 17.1084 52.8818 17.2651 53.3518 17.474C53.9263 17.6829 54.4485 17.8918 54.9707 18.1007C55.7019 18.414 56.4853 18.7274 57.2164 19.0407C57.9475 19.3541 58.6786 19.7196 59.4098 20.033C59.6709 20.1374 60.0365 20.1897 60.3498 20.2419C60.8721 20.2941 61.3421 20.4508 61.8121 20.503C62.0732 20.5552 62.3343 20.6074 62.5954 20.6597C63.1177 20.7641 63.5877 20.7641 64.1099 20.9208C64.1622 20.9208 64.2144 20.9208 64.2144 20.9208C64.6321 20.9208 65.0499 20.973 65.4677 21.0775C66.93 21.2864 68.4445 21.2864 69.9068 21.2341C70.429 21.2341 71.0035 21.1297 71.5257 20.973C71.9957 20.8686 72.4135 20.7119 72.8313 20.503C73.0924 20.3986 73.3535 20.2419 73.6147 20.033C73.7713 19.8763 73.928 19.7196 74.1369 19.9285C74.4502 20.1897 74.5547 20.3986 74.4503 20.7119C74.3981 20.9208 74.3458 21.1297 74.2936 21.3386C74.1891 21.8608 74.1369 22.3831 74.0325 22.9053C73.9802 23.1664 73.9803 23.3753 73.9281 23.6364C73.8758 24.002 73.8236 24.3676 73.7714 24.6809C73.6669 25.3598 73.6669 26.0387 73.5102 26.6654C73.458 26.9265 73.458 27.2399 73.4058 27.501C73.3536 27.9188 73.3013 28.3366 73.2491 28.7021C73.1969 29.2244 73.1447 29.6944 72.988 30.2166C72.9358 30.4255 72.9358 30.6867 72.8836 30.8956C72.7269 31.7834 72.518 32.6189 72.2569 33.4545C72.1524 33.7679 72.1002 34.1334 71.9957 34.499C71.9435 34.6035 71.9435 34.7601 71.7868 34.8123C71.7346 34.7079 71.7346 34.7079 71.6824 34.7601C71.3691 35.2824 70.9513 35.8046 70.5857 36.2746C70.3246 36.6402 70.0112 37.0058 69.6979 37.3713C69.3845 37.7369 69.019 38.1025 68.7057 38.468C67.8701 39.4081 66.9822 40.2959 65.9378 40.9748C65.6244 41.1837 65.3111 41.4448 64.9455 41.6537C64.0055 42.1237 63.0655 42.6459 62.021 42.907C61.4987 43.0115 61.0287 43.1682 60.5065 43.3248C60.2976 43.3771 60.0365 43.3248 59.8798 43.4293C59.5142 43.586 59.1487 43.3771 58.8353 43.586C58.1564 43.5337 57.4775 43.7426 56.7986 43.6904C56.7464 43.6904 56.6419 43.6904 56.6419 43.7949C56.3808 43.586 56.1197 43.3771 55.7541 43.2726C55.1274 43.0115 54.4485 42.907 53.7696 43.0637C53.6129 43.1159 53.5085 43.0637 53.3518 43.0637C53.2996 43.0637 53.2473 43.0115 53.2473 42.9593C52.9862 42.3326 52.7251 41.7581 52.464 41.1314C52.3073 40.7136 52.1507 40.2436 52.0462 39.8258C51.8896 39.4081 51.7851 38.938 51.6806 38.5202C51.6284 38.3636 51.6284 38.1547 51.5762 37.9458C51.524 37.4758 51.3673 37.0057 51.3151 36.5357C51.2629 35.9613 51.1584 35.3346 51.1062 34.7601C51.0539 34.3423 51.054 33.9245 51.054 33.5068C51.054 33.4545 51.1062 33.3501 50.9495 33.2979C51.1062 32.9323 51.1062 32.5145 51.1584 32.1489C51.1584 31.7311 51.1584 31.7311 50.7928 31.8356H50.7406C50.3751 31.8878 50.0095 31.8356 49.6439 31.8878C49.0173 31.9923 48.3905 31.8878 47.7116 31.9923C47.3461 32.0445 46.9283 31.94 46.5105 31.94C45.936 31.8878 45.3616 31.8356 44.7871 31.8356C44.7349 31.8356 44.7349 31.8356 44.6827 31.8356C44.4215 31.6789 44.1082 31.7311 43.847 31.6789C43.4815 31.6267 43.1159 31.5222 42.8026 31.4178C42.3848 31.3133 41.967 31.1567 41.6014 30.9478C41.0792 30.6867 40.5047 30.4778 39.9302 30.1644C39.3558 29.8511 38.938 29.3811 38.468 29.0155C37.998 28.7022 37.7369 28.2321 37.3713 27.8143C37.2669 27.6577 37.1102 27.5532 37.0057 27.3966C36.6924 26.9265 36.4313 26.4565 36.1701 25.9865C36.1179 25.8821 36.0135 25.8298 35.8568 25.8821C35.7524 25.9343 35.5435 26.0387 35.5957 26.1954C35.7001 26.5087 35.8046 26.8743 35.909 27.1877C36.1701 27.7621 36.4835 28.3366 36.8491 28.8588C36.588 28.9633 36.4835 29.2244 36.2746 29.3288C36.2223 29.1722 36.1179 29.2244 36.0135 29.2766C35.7001 29.3811 35.3346 29.4855 35.0212 29.59C34.8124 29.6422 34.6034 29.6422 34.4467 29.6944C34.1856 29.7989 33.8723 29.8511 33.6112 29.8511C33.0367 29.9033 32.4623 29.9555 31.8878 29.7989C31.3134 29.6944 30.8433 29.4333 30.3211 29.2244C29.6422 28.911 28.9633 28.5455 28.3366 28.2321C28.2321 28.1799 28.1277 28.1799 28.0754 28.2321C28.0232 28.3366 28.1276 28.3888 28.1799 28.441C28.1799 28.4933 28.2321 28.4933 28.2321 28.4933C29.0677 29.2766 29.7466 30.2166 30.7389 30.8433C31.2089 31.1045 31.6267 31.3656 32.2011 31.3656C32.41 31.3656 32.6189 31.3656 32.8278 31.3656C32.6711 31.5745 32.41 31.6267 32.2011 31.7311C31.7311 31.9923 31.2611 32.3056 30.8433 32.6189C29.8511 33.2979 28.9633 34.0812 28.0754 34.8646C27.3965 35.439 26.8221 36.1179 26.1432 36.6924C25.4643 37.2669 24.8375 37.8413 24.2631 38.5202C23.7931 38.9903 23.4798 39.5647 23.3231 40.2436C23.1664 40.8181 23.0097 41.3403 22.9053 41.9148C22.9053 41.967 22.8531 42.0715 22.8008 42.1237C22.7486 42.1237 22.6964 42.1237 22.6441 42.1759C22.3308 42.3848 22.0175 42.5937 21.7042 42.8026C21.0775 43.2204 20.4507 43.586 19.7718 43.8471C19.2496 44.056 18.7273 44.1604 18.2573 44.3171C18.0484 44.3693 17.8918 44.3693 17.6829 44.4215C17.4218 44.526 17.1606 44.526 16.8995 44.5782C16.534 44.6304 16.1684 44.5782 15.855 44.6827C15.4373 44.7871 14.9672 44.6827 14.5494 44.7871C14.3405 44.8393 14.1317 44.7871 13.9228 44.7871C13.8706 44.7871 13.7661 44.7349 13.7661 44.8916C14.3928 44.9438 14.9672 44.8393 15.5939 44.996C15.9073 45.1005 16.2728 45.0482 16.5862 45.1005C17.3173 44.996 17.7351 45.1005 18.2051 45.3093Z" fill="#5F7691"/>
<path d="M27.6055 64.4746C27.4489 64.6835 27.1878 64.6835 26.9267 64.7879C26.7178 64.8924 26.561 64.9446 26.3521 64.7879C26.091 64.6312 25.9866 64.3701 25.9866 64.109C25.9866 63.7957 25.9344 63.4823 25.8822 63.169C25.8822 63.1167 25.8821 63.0645 25.7777 63.0645C25.8821 62.9078 25.8822 62.7512 25.8822 62.5945C25.8822 62.3856 25.8299 62.1245 25.9344 61.9156C26.0388 61.6545 25.9866 61.4456 25.9344 61.1845C25.0988 62.0723 24.3677 63.0645 23.7932 64.1612C23.4799 64.1612 23.2187 63.8479 23.3232 63.5345C23.4276 63.3256 23.4276 63.0645 23.4798 62.8556C23.5843 62.1767 23.741 61.4978 23.8976 60.8711C24.211 59.8266 24.681 58.8866 25.3077 57.9988C25.621 57.5288 25.9344 57.111 26.2999 56.6932C26.4044 56.5888 26.4044 56.4843 26.2999 56.3799C25.8821 55.8054 25.621 55.1787 25.4644 54.4476C25.4644 54.3954 25.3599 54.2909 25.4122 54.2387C25.4644 54.1865 25.5166 54.082 25.6211 54.082C25.7255 54.082 25.83 54.1342 25.8822 54.2387C26.1433 54.8131 26.4566 55.2832 26.8222 55.8054C26.9788 56.0143 27.0311 56.0665 27.1878 55.8576C28.0234 55.0743 28.9111 54.4476 29.9034 53.9776C30.3212 53.7687 30.7912 53.6642 31.2612 53.5075C32.3057 53.1942 33.4024 53.2464 34.4991 53.2464C34.6036 53.2464 34.6558 53.2987 34.6558 53.4031C34.8124 54.1865 35.1258 54.9176 35.7524 55.4921C36.2747 55.9621 36.8492 56.2754 37.5281 56.4843C38.207 56.6932 38.9381 56.6932 39.6692 56.641C40.2959 56.5888 40.9226 56.3276 41.4449 55.9621C42.0715 55.5443 42.5416 54.9698 42.8549 54.2387C42.9594 54.0298 43.0116 53.8209 43.0116 53.612C43.0116 53.2987 43.0638 53.2464 43.4294 53.2464C44.0039 53.2987 44.5783 53.3509 45.1005 53.5075C45.5705 53.612 46.0405 53.7687 46.4583 53.9253C47.2939 54.2909 48.0251 54.7087 48.7562 55.2309C49.0695 55.4921 49.3829 55.7532 49.644 56.0665C49.8007 56.2232 49.9051 56.171 50.0096 56.0665C50.5318 55.4398 51.054 54.8654 51.4196 54.1342C51.5241 53.9253 51.6285 53.7687 51.6807 53.5598C51.6807 53.4553 51.7852 53.4031 51.8374 53.3509C51.8897 53.2464 51.9941 53.2464 52.0985 53.2987C52.203 53.2987 52.203 53.4031 52.203 53.5075C52.203 54.0298 51.9941 54.4998 51.733 54.9698C51.4197 55.5443 51.0019 56.0665 50.4796 56.5365C50.2707 56.6932 50.323 56.7977 50.4274 56.9543C50.8452 57.4243 51.1585 57.9988 51.4196 58.6255C51.6285 59.1477 51.8896 59.67 51.9418 60.2444C51.9941 60.6622 52.3074 61.0278 52.4641 61.4456C52.7252 62.0723 52.9341 62.699 52.8297 63.3779C52.7775 63.639 52.673 63.9001 52.5686 64.109C52.4641 64.3701 52.1508 64.3701 51.8896 64.2657C51.733 64.2134 51.6285 64.109 51.5241 63.9523C51.6285 63.9523 51.6285 63.8479 51.5763 63.7957C51.4196 63.4301 51.1585 63.1167 50.8974 62.8556C50.4796 62.3856 50.0618 61.9678 49.5396 61.6023C49.4351 61.55 49.3829 61.3411 49.2262 61.4456C49.1218 61.4978 49.174 61.6545 49.174 61.8112V61.8634C49.2785 62.1245 49.3307 62.3856 49.3829 62.6467C49.3829 63.1167 49.4874 63.2212 49.9574 63.2212C50.0618 63.2212 50.2185 63.169 50.2707 63.3256C50.0618 63.3256 49.8529 63.3256 49.644 63.3256C49.5396 63.3256 49.4874 63.3779 49.4351 63.4823C49.3307 63.7957 49.2263 64.0568 49.1218 64.3701C49.0696 64.5268 48.9129 64.579 48.7562 64.6312C48.5473 64.3701 48.3384 64.1612 48.1818 63.9001C47.9206 63.4301 47.7117 62.9079 47.3984 62.4378C47.3462 62.3856 47.3984 62.2812 47.294 62.2812C47.1895 62.2812 47.1373 62.3856 47.1373 62.4378C47.0328 62.9079 46.8761 63.3779 46.9284 63.8479C46.8761 64.2134 46.7717 64.4746 46.615 64.7879C46.5106 64.9446 46.3017 64.9446 46.145 64.9446C45.2572 64.9446 44.4216 64.9446 43.5338 64.9446C43.3249 64.9446 43.1683 64.9446 42.9594 64.9446C41.3404 64.8924 39.7215 65.049 38.1025 64.8401C37.737 64.7879 37.3192 64.7879 36.9536 64.7879C36.3792 64.7357 35.8047 64.6312 35.2302 64.6312C35.0213 64.6312 34.8124 64.6312 34.6035 64.6312C34.1335 64.6835 33.6635 64.4746 33.1935 64.5268C32.6713 64.579 32.149 64.5268 31.6268 64.6312C31.1568 64.6835 30.6867 64.7357 30.2689 64.8924C30.06 64.9446 29.7467 64.6835 29.7467 64.4746C29.7467 64.2134 29.6423 64.0046 29.6423 63.7434C29.6423 63.6912 29.5901 63.639 29.5379 63.639C29.6423 63.3779 29.7467 63.1167 29.7467 62.8556C29.7467 62.4901 29.7467 62.1245 29.7467 61.8112C29.7467 61.7589 29.7989 61.6545 29.6945 61.6023C29.59 61.55 29.5378 61.6023 29.4334 61.6545C28.9111 62.0723 28.5456 62.5945 28.2845 63.2212C28.1278 63.5868 27.9711 63.9001 27.8144 64.2657C27.7622 64.2134 27.5533 64.3179 27.6055 64.4746Z" fill="#5F7691"/>
<path d="M56.2241 49.3823C56.2763 49.2256 56.433 49.3301 56.5375 49.2778C56.9552 49.0167 57.3208 48.6511 57.6341 48.2334C57.9475 47.8156 58.1041 47.3455 58.2086 46.8233C58.2608 46.3533 58.2086 45.9355 58.1042 45.5177C58.5742 45.5699 59.0964 45.4655 59.5665 45.4133H59.6187C59.8276 45.2566 60.1409 45.3088 60.3498 45.2566C60.5587 45.2044 60.7676 45.1521 60.9765 45.0999C61.342 44.9955 61.7598 44.8388 62.1254 44.7343C62.6476 44.5777 63.1176 44.3688 63.6399 44.1599C64.0055 44.0032 64.371 43.7421 64.7366 43.5332C65.1021 43.7943 65.4155 44.1077 65.7288 44.4732C66.2511 45.0477 66.6167 45.7266 66.93 46.4055C67.2956 47.2411 67.6089 48.0767 67.87 48.9123C68.0789 49.5389 68.2356 50.2179 68.4445 50.8445C68.6012 51.3146 68.6534 51.7846 68.7579 52.2546C68.8623 52.7768 69.0189 53.2991 69.1234 53.8213C69.1756 54.0824 69.2801 54.2913 69.2279 54.5524C68.9668 54.3958 68.8101 54.1347 68.5489 53.978C68.0267 53.6646 67.4522 53.4035 66.8255 53.2468C66.46 53.1424 66.0422 53.1424 65.6244 53.0379C65.1544 52.9857 64.6322 52.9857 64.1099 52.9335C63.431 52.9335 62.7521 52.7768 62.1254 52.829H62.0732C61.6554 52.6724 61.2376 52.6202 60.8198 52.5679C60.2453 52.4635 59.6709 52.5679 59.0964 52.359C58.7309 52.2546 58.4175 52.0979 58.1564 51.889C57.7908 51.5757 57.5819 51.2101 57.3208 50.8445C57.0597 50.479 56.8508 50.0612 56.6941 49.6434C56.433 49.5389 56.433 49.3823 56.2241 49.3823Z" fill="#5F7691"/>
<path d="M61.7077 75.2328C61.8121 75.1283 61.7599 75.0239 61.7599 74.9194C61.7599 73.4571 61.7599 71.9949 61.7599 70.5326C61.7599 70.3237 61.8121 70.2715 62.021 70.2715C62.6999 70.2715 63.431 70.2715 64.1099 70.2715C64.3188 70.2715 64.3711 70.3237 64.3711 70.5326C64.3711 74.2927 64.3711 78.1051 64.3711 81.8652C64.3711 82.0741 64.3188 82.1263 64.1099 82.1263C63.3788 82.1263 62.6477 82.1263 61.9166 82.1263C61.6032 82.1263 61.6032 82.0741 61.4987 81.7607C61.3943 81.2385 61.1854 80.7163 61.0287 80.194C60.9243 79.7762 60.7676 79.4107 60.6632 78.9929C60.5587 78.6273 60.402 78.2095 60.2976 77.8439C60.1931 77.5306 60.1409 77.2695 60.0365 76.9039C59.9842 77.0606 59.9842 77.1128 59.9842 77.2173C59.9842 78.7318 59.9842 80.2462 59.9842 81.7607C59.9842 82.0219 59.932 82.0741 59.6709 82.0741C58.992 82.0741 58.3131 82.0741 57.6342 82.0741C57.4775 82.0741 57.373 82.0219 57.373 81.8652C57.373 78.0528 57.373 74.2927 57.373 70.4804C57.373 70.2715 57.4253 70.2715 57.6342 70.2715C58.3653 70.2715 59.0442 70.2715 59.7753 70.2715C59.932 70.2715 60.0365 70.3237 60.0887 70.5326C60.2454 71.0026 60.402 71.4726 60.5587 71.9426C60.6631 72.3082 60.7676 72.6738 60.8721 72.9871C61.0288 73.4571 61.1332 73.8749 61.2898 74.3449C61.4987 74.6061 61.6032 74.9194 61.7077 75.2328Z" fill="#5F7691"/>
<path d="M28.3366 75.2328C28.441 75.1283 28.3888 75.0239 28.3888 74.9194C28.3888 73.4571 28.3888 71.9949 28.3888 70.5326C28.3888 70.3237 28.441 70.2715 28.6499 70.2715C29.3288 70.2715 30.0599 70.2715 30.7388 70.2715C30.9477 70.2715 31 70.3237 31 70.5326C31 74.2927 31 78.1051 31 81.8652C31 82.0741 30.9477 82.1263 30.7388 82.1263C30.0077 82.1263 29.2766 82.1263 28.5455 82.1263C28.2321 82.1263 28.2321 82.0741 28.1277 81.7607C28.0232 81.2385 27.8143 80.7163 27.6576 80.194C27.5532 79.7762 27.3965 79.4107 27.2921 78.9929C27.1876 78.6273 27.0832 78.2095 26.9265 77.8439C26.8221 77.5306 26.7699 77.2695 26.6654 76.9561C26.6132 77.1128 26.6131 77.165 26.6131 77.2695C26.6131 78.784 26.6131 80.3507 26.6131 81.8652C26.6131 82.1263 26.5609 82.1263 26.2998 82.1263C25.6209 82.1263 24.942 82.1263 24.2631 82.1263C24.1064 82.1263 24.002 82.0741 24.002 81.9174C24.002 78.1051 24.002 74.3449 24.002 70.5326C24.002 70.3237 24.0542 70.3237 24.2631 70.3237C24.9942 70.3237 25.6732 70.3237 26.4043 70.3237C26.561 70.3237 26.6654 70.3759 26.7176 70.5848C26.8743 71.0548 27.031 71.5249 27.1877 71.9949C27.2921 72.3604 27.3965 72.726 27.501 73.0394C27.6577 73.5094 27.7621 73.9272 27.9187 74.3972C28.1276 74.6061 28.2321 74.9194 28.3366 75.2328Z" fill="#5F7691"/>
<path d="M37.3713 73.8241C36.9536 73.8241 36.5357 73.8241 36.1702 73.8241C36.0135 73.8241 35.9613 73.7718 35.9613 73.6152C35.9613 73.2496 35.9613 72.8318 35.9613 72.4663C35.9613 72.1007 35.7002 71.8918 35.3868 71.944C35.1779 71.9962 34.969 72.2051 34.969 72.4663C34.969 72.8318 34.9168 73.2496 35.0213 73.6152C35.1257 73.9807 35.439 74.1374 35.7001 74.2941C36.4835 74.7641 37.2147 75.2341 37.9458 75.8086C38.5203 76.2786 38.8336 76.8008 38.9381 77.4797C39.0425 78.002 39.1469 78.5764 39.0947 79.0987C39.0425 79.7254 39.0947 80.3521 38.7292 80.8743C38.468 81.2921 38.0503 81.6054 37.6325 81.8143C36.7969 82.2321 35.9091 82.2843 35.0213 82.1799C34.1857 82.0755 33.3501 81.8143 32.7756 81.1354C32.5145 80.8221 32.41 80.4565 32.3056 80.0909C32.1489 79.412 32.2534 78.6809 32.2012 77.9498C32.2012 77.7931 32.2534 77.7409 32.4101 77.7409C33.1934 77.7409 34.029 77.7409 34.8124 77.7409C34.969 77.7409 35.0213 77.7931 35.0213 77.9498C35.0213 78.2631 35.0213 78.5764 35.0213 78.8898C35.0213 79.2554 35.1257 79.5687 35.1257 79.882C35.1257 80.0909 35.3346 80.1432 35.4912 80.1954C35.7001 80.2476 35.909 80.1954 36.0135 80.0387C36.1179 79.8298 36.2224 79.6209 36.2224 79.412C36.2224 78.942 36.2224 78.5242 36.0135 78.0542C35.909 77.8453 35.7524 77.6886 35.5957 77.5842C34.9168 77.1142 34.2379 76.6964 33.559 76.2264C32.9323 75.8086 32.4623 75.2863 32.2534 74.6074C32.2012 74.3985 32.0967 74.1896 32.0967 73.9807C32.0967 73.4585 32.0967 72.884 32.0967 72.3618C32.1489 71.3696 32.6712 70.534 33.7157 70.1684C34.499 69.8551 35.2824 69.8028 36.118 69.9073C36.9535 70.0117 37.7891 70.2206 38.4158 70.9518C38.6247 71.1607 38.6769 71.4218 38.7292 71.6829C38.8858 72.3096 38.8858 72.9363 38.8336 73.6152C38.8336 73.7718 38.7291 73.7718 38.6247 73.7718C38.2069 73.8241 37.7891 73.8241 37.3713 73.8241Z" fill="#5F7691"/>
<path d="M49.5394 82.0744C48.7038 82.0744 47.9205 82.0744 47.0849 82.0744C46.9282 82.0744 46.876 82.0221 46.876 81.8655C46.876 78.0531 46.876 74.293 46.876 70.4807C46.876 70.2718 46.9282 70.2195 47.0849 70.2718C48.6516 70.2718 50.2183 70.2718 51.785 70.2718C51.9417 70.2718 51.9939 70.324 51.9939 70.4807C51.9939 71.1596 51.9939 71.7863 51.9939 72.4652C51.9939 72.6218 51.9417 72.6741 51.785 72.6741C51.2106 72.6741 50.6883 72.6741 50.1138 72.6741C49.9572 72.6741 49.905 72.7263 49.905 72.883C49.905 73.4574 49.905 74.0841 49.905 74.6586C49.905 74.8152 49.9572 74.8675 50.1138 74.8675C50.6361 74.8675 51.1583 74.8675 51.6805 74.8675C51.8372 74.8675 51.8895 74.9197 51.8895 75.0764C51.8895 75.703 51.8895 76.3297 51.8895 76.9564C51.8895 77.1131 51.8372 77.1653 51.6805 77.1653C51.1583 77.1653 50.6361 77.1653 50.1661 77.1653C50.0094 77.1653 49.9572 77.2175 49.9572 77.3742C49.9572 78.1053 49.9572 78.8365 49.9572 79.5154C49.9572 79.7243 50.0094 79.7243 50.1661 79.7243C50.7928 79.7243 51.3673 79.7243 51.9939 79.7243C52.1506 79.7243 52.2028 79.7765 52.2028 79.9332C52.2028 80.6121 52.2028 81.2388 52.2028 81.9177C52.2028 82.0744 52.1506 82.1266 51.9939 82.1266C51.2106 82.0744 50.375 82.0744 49.5394 82.0744Z" fill="#5F7691"/>
<path d="M13.6094 76.1728C13.6094 74.2927 13.6094 72.4127 13.6094 70.5326C13.6094 70.3237 13.6616 70.2715 13.8705 70.2715C15.4372 70.2715 17.0039 70.2715 18.5184 70.2715C18.675 70.2715 18.7795 70.3237 18.7795 70.4804C18.7795 71.1071 18.7795 71.786 18.7795 72.4127C18.7795 72.6216 18.7273 72.6216 18.5184 72.6216C17.9961 72.6216 17.4217 72.6216 16.8994 72.6216C16.7428 72.6216 16.6905 72.6738 16.6905 72.8305C16.6905 73.4049 16.6905 74.0316 16.6905 74.6061C16.6905 74.815 16.7428 74.815 16.8994 74.815C17.4217 74.815 17.8917 74.815 18.4139 74.815C18.6228 74.815 18.6751 74.8672 18.6751 75.0761C18.6751 75.6505 18.6751 76.2772 18.6751 76.8517C18.6751 77.0606 18.6228 77.1128 18.4662 77.1128C17.9439 77.1128 17.4739 77.1128 16.9517 77.1128C16.795 77.1128 16.7428 77.165 16.7428 77.3217C16.7428 78.0528 16.7428 78.784 16.7428 79.4629C16.7428 79.6196 16.795 79.6718 16.9517 79.6718C17.5783 79.6718 18.2051 79.6718 18.8318 79.6718C18.9884 79.6718 19.0406 79.724 19.0406 79.8807C19.0406 80.5596 19.0406 81.1863 19.0406 81.8652C19.0406 82.0219 18.9884 82.0741 18.8318 82.0741C17.2128 82.0741 15.5416 82.0741 13.9227 82.0741C13.7138 82.0741 13.6616 82.0219 13.6616 81.813C13.6094 79.9329 13.6094 78.0528 13.6094 76.1728Z" fill="#5F7691"/>
<path d="M41.34 77.3749C41.34 75.9126 41.34 74.4503 41.34 72.9358C41.34 72.6747 41.2878 72.6225 41.0267 72.6225C40.6089 72.6225 40.1911 72.6225 39.7211 72.6225C39.5644 72.6225 39.5122 72.5703 39.5122 72.4136C39.5122 71.7347 39.5122 71.0558 39.5122 70.3769C39.5122 70.2202 39.5644 70.168 39.6688 70.168C41.81 70.168 43.899 70.168 46.0402 70.168C46.1969 70.168 46.2491 70.2202 46.2491 70.3769C46.2491 71.0558 46.2491 71.6825 46.2491 72.3614C46.2491 72.518 46.1969 72.5703 46.0402 72.5703C45.5702 72.5703 45.1001 72.5703 44.6301 72.5703C44.4212 72.5703 44.369 72.6225 44.369 72.8314C44.369 75.7559 44.369 78.7327 44.369 81.6572C44.369 82.0228 44.4212 81.9706 44.0557 81.9706C43.2201 81.9706 42.3845 81.9706 41.549 81.9706C41.3401 81.9706 41.2878 81.9183 41.2878 81.7094C41.3401 80.3516 41.34 78.8371 41.34 77.3749Z" fill="#5F7691"/>
<path d="M53.1426 76.1728C53.1426 74.2927 53.1426 72.4127 53.1426 70.5326C53.1426 70.3237 53.1948 70.2715 53.4037 70.2715C54.2915 70.2715 55.1271 70.2715 56.0149 70.2715C56.1716 70.2715 56.276 70.3237 56.276 70.4804C56.276 74.2927 56.276 78.0528 56.276 81.8652C56.276 82.0741 56.2238 82.0741 56.0149 82.0741C55.1271 82.0741 54.2915 82.0741 53.4037 82.0741C53.1948 82.0741 53.1426 82.0219 53.1426 81.813C53.1426 79.9329 53.1426 78.0528 53.1426 76.1728Z" fill="#5F7691"/>
<path d="M19.8765 76.1728C19.8765 74.2927 19.8765 72.4127 19.8765 70.5326C19.8765 70.3237 19.9287 70.2715 20.1376 70.2715C21.0254 70.2715 21.861 70.2715 22.7488 70.2715C22.9055 70.2715 23.0099 70.3237 23.0099 70.4804C23.0099 74.2927 23.0099 78.0528 23.0099 81.8652C23.0099 82.0741 22.9577 82.0741 22.7488 82.0741C21.861 82.0741 21.0254 82.0741 20.1376 82.0741C19.9287 82.0741 19.8765 82.0219 19.8765 81.813C19.8765 79.9329 19.8765 78.0528 19.8765 76.1728Z" fill="#5F7691"/>
<path d="M56.2239 49.3832C56.4328 49.331 56.485 49.5398 56.5372 49.6965C56.6939 50.1143 56.9028 50.5321 57.1639 50.8977C57.425 51.2632 57.6862 51.6288 57.9995 51.9421C58.2607 52.2033 58.6262 52.3077 58.9395 52.4122C59.514 52.6211 60.0885 52.5166 60.6629 52.6211C61.0807 52.6733 61.5508 52.7255 61.9163 52.8822H61.9685C62.6474 52.8822 63.3263 52.9866 63.953 52.9866C64.4752 52.9866 64.9453 52.9866 65.4675 53.0911C65.8853 53.1433 66.2509 53.1955 66.6687 53.3C67.2954 53.4566 67.8176 53.6655 68.392 54.0311C68.6532 54.1878 68.8099 54.4489 69.071 54.6056C69.1232 54.8667 68.9665 54.9189 68.7576 54.8667C67.8698 54.7622 66.982 54.7622 66.0942 54.8145C65.3631 54.8145 64.6319 54.9189 63.953 55.0756C63.4308 55.18 62.9608 55.3367 62.4386 55.3367C62.2297 55.3367 62.0207 55.4411 61.8118 55.4411C60.9763 55.4411 60.1407 55.3367 59.3051 55.18C58.5218 55.0234 57.8951 54.6578 57.3728 54.0833C57.0072 53.6655 56.7461 53.1433 56.5372 52.6211C56.3283 52.0466 56.1195 51.4721 56.015 50.8454C55.9628 50.5843 55.8583 50.271 55.8583 50.0099C55.7539 49.4354 55.8061 49.4354 56.2239 49.3832Z" fill="#5F7691"/>
<path d="M49.2784 10.7371C49.2784 10.9982 49.2784 11.2593 49.2784 11.5204C49.2784 11.6771 49.2261 11.7815 49.0695 11.7293C48.7039 11.6771 48.4428 11.886 48.1295 11.9382C47.7117 12.0427 47.3461 12.3038 46.9283 12.5127C46.7194 12.6171 46.615 12.7738 46.4061 12.8783C45.7794 13.296 45.3094 13.8183 44.9961 14.445L44.9438 14.4972L44.8916 14.5494L44.8394 14.4972C44.9438 14.2361 44.8394 13.9227 44.9961 13.6094C44.9961 13.5572 45.0483 13.5049 45.0483 13.4527C45.0483 13.1394 45.1527 12.8783 45.205 12.6171C45.2572 12.3038 45.3616 11.9904 45.4138 11.6249C45.466 11.3638 45.5705 11.1026 45.6749 10.8937C45.8316 10.476 45.9361 10.0059 46.145 9.58815C46.3016 9.11813 46.5105 8.70034 46.7194 8.28255C46.9283 7.86476 47.1372 7.44697 47.3461 7.02918C47.555 6.66361 47.7639 6.29804 48.025 5.93247C48.3906 5.35801 48.8084 4.83577 49.2784 4.36576C49.8528 3.84352 50.4795 3.26906 51.1584 2.90349C51.524 2.69459 51.9418 2.4857 52.3074 2.2768C52.673 2.12013 53.0385 1.96346 53.4563 1.91124C53.5085 1.91124 53.5608 1.91124 53.5608 1.85901C53.613 1.80679 53.6652 1.75456 53.7174 1.80679C53.7696 1.85901 53.6652 1.91124 53.6652 1.96346C52.8296 2.38125 52.0985 2.90349 51.524 3.5824C51.054 4.15686 50.5318 4.6791 50.1662 5.35801C49.9573 5.7758 49.7484 6.24582 49.5917 6.71583C49.2261 8.12588 49.2262 9.43148 49.2784 10.7371Z" fill="#5F7691"/>
<path d="M64.6842 43.5339C64.3186 43.7428 63.9531 43.9517 63.5875 44.1606C63.1175 44.3695 62.5952 44.5784 62.073 44.7351C61.7074 44.8395 61.2896 44.9962 60.9241 45.1006C60.7152 45.1529 60.5063 45.2051 60.2974 45.2573C60.0362 45.3095 59.7752 45.3095 59.5663 45.414H59.514C59.044 45.414 58.5218 45.5707 58.0518 45.5184C57.8951 44.7351 57.5818 44.1084 56.9551 43.6384C56.9551 43.5339 57.0595 43.5339 57.1117 43.5339C57.7906 43.5862 58.4695 43.3772 59.1485 43.4295C59.4618 43.2206 59.8796 43.4295 60.1929 43.2728C60.4018 43.1684 60.6107 43.2206 60.8196 43.1684C61.3418 43.0639 61.8641 42.9072 62.3341 42.7506C63.3786 42.4895 64.3186 42.0194 65.2586 41.4972C65.6242 41.3405 65.9375 41.0794 66.2509 40.8183C67.2954 40.1394 68.1832 39.2516 69.0188 38.3115C69.3321 37.946 69.6977 37.5804 70.011 37.2148C70.3244 36.8493 70.6377 36.5359 70.8988 36.1181C71.2644 35.5959 71.6822 35.1259 71.9955 34.6036C72.0477 34.5514 72.0478 34.5514 72.1 34.6559C72.1 34.9692 71.8911 35.2303 71.7344 35.5437C71.3166 36.4837 70.7421 37.3193 70.1677 38.1549C69.8021 38.6771 69.4366 39.1471 69.0188 39.6694C68.3399 40.5049 67.5565 41.2883 66.7209 42.0194C66.1987 42.4894 65.5198 42.9072 64.9453 43.2728C64.8408 43.4295 64.7886 43.4817 64.6842 43.5339Z" fill="#5F7691"/>
<path d="M36.849 88.0805C36.849 86.6183 36.849 85.156 36.849 83.6937C36.849 83.4848 36.9012 83.4326 37.1101 83.4326C37.8413 83.4326 38.5724 83.4326 39.3035 83.4326C39.878 83.4326 40.4524 83.5893 40.9224 83.9549C41.288 84.2682 41.4969 84.7382 41.6536 85.2082C41.758 85.5216 41.758 85.8349 41.758 86.1483C41.7058 87.0883 41.288 87.7672 40.5569 88.2372C40.4524 88.2894 40.4002 88.3939 40.2435 88.4461C40.1391 88.4983 40.1913 88.5506 40.1913 88.6028C40.5568 89.1772 40.8702 89.7517 41.2358 90.3262C41.5491 90.9006 41.9147 91.4229 42.228 91.9973C42.3325 92.154 42.3847 92.2585 42.4891 92.4151C42.5414 92.5196 42.5414 92.5718 42.3847 92.5718C42.0714 92.5718 41.8102 92.5718 41.4969 92.5718C41.3924 92.5718 41.3403 92.5196 41.288 92.4151C40.7136 91.4229 40.1391 90.4306 39.5646 89.3861C39.4602 89.2295 39.3557 89.0728 39.3035 88.8639C39.2513 88.655 39.0946 88.6028 38.8857 88.655C38.6246 88.655 38.3635 88.655 38.0501 88.655C37.8412 88.655 37.789 88.7072 37.789 88.9161C37.789 90.0128 37.789 91.1095 37.789 92.2062C37.789 92.5718 37.8412 92.5718 37.4234 92.5196C37.2146 92.5196 36.9534 92.624 36.849 92.4674C36.7445 92.3629 36.7967 92.0496 36.7967 91.8929C36.8489 90.744 36.849 89.4384 36.849 88.0805ZM37.8412 86.1483C37.8412 86.7227 37.8412 87.245 37.8412 87.8194C37.8412 87.9761 37.8934 88.0805 38.0501 88.0805C38.4679 88.0283 38.9379 88.1328 39.3557 87.9761C39.6168 87.8716 39.8779 87.7672 40.1391 87.6105C40.4002 87.4016 40.5046 87.0883 40.6613 86.7749C40.818 86.3572 40.7657 85.9394 40.7135 85.5216C40.7135 85.2605 40.5569 84.9993 40.348 84.7904C39.9824 84.4249 39.5646 84.3726 39.0946 84.3204C38.729 84.2682 38.3635 84.3204 37.9979 84.3204C37.8412 84.3204 37.789 84.3727 37.789 84.5293C37.8412 85.0516 37.8412 85.5738 37.8412 86.1483Z" fill="#5F7691"/>
<path d="M9.95361 57.5824C9.95361 57.3735 10.1625 57.3213 10.3192 57.2691C10.8414 57.1124 11.3636 56.9035 11.9381 56.8513C12.3559 56.7991 12.7215 56.6946 13.1393 56.6424C13.6093 56.5902 14.0271 56.5379 14.4971 56.4335C14.9671 56.3291 15.4371 56.3291 15.9071 56.1724C16.0638 56.1202 16.2727 56.1202 16.4293 56.0679C16.7949 55.9635 17.2127 55.859 17.5783 55.7024C18.0483 55.5457 18.4138 55.2846 18.7794 55.0235C19.0927 54.8146 19.3539 54.5534 19.5628 54.2401C19.8239 53.8223 20.085 53.4045 20.2939 52.9867C20.3984 52.6734 20.6073 52.36 20.6595 51.9945C21.0773 51.9422 21.2339 52.0467 21.3384 52.5689C21.4428 53.1434 21.5473 53.7701 21.5473 54.3968C21.4951 55.389 21.1817 56.2768 20.4506 56.9557C20.085 57.3213 19.615 57.5824 19.0928 57.7391C18.5183 57.8958 17.9439 57.948 17.3172 57.948C17.1083 57.948 16.8993 58.0002 16.6904 58.0002C16.1682 58.0002 15.646 57.948 15.0715 57.8958C14.5493 57.8435 14.0792 57.6869 13.557 57.5824C13.1914 57.478 12.7737 57.3735 12.4081 57.3213C12.147 57.3213 11.9381 57.2169 11.677 57.2169C11.3114 57.2169 10.8936 57.2691 10.5281 57.3735C10.4236 57.3735 10.3192 57.3735 10.2147 57.4257C10.1625 57.4257 10.1102 57.4257 10.1102 57.5302C10.058 57.5302 10.0058 57.5302 9.95361 57.5824Z" fill="#5F7691"/>
<path d="M37.1625 28.7551C36.7969 28.2328 36.4836 27.6584 36.2225 27.0839C36.0658 26.7706 35.9613 26.4572 35.9091 26.0916C35.8569 25.935 36.0658 25.8305 36.1702 25.7783C36.2747 25.7261 36.3791 25.7783 36.4836 25.8827C36.7447 26.3528 37.058 26.8228 37.3191 27.2928C37.4236 27.4495 37.5281 27.6061 37.6847 27.7106C37.9981 28.1284 38.3114 28.5984 38.7814 28.9117C39.3037 29.2773 39.7215 29.7473 40.2437 30.0607C40.766 30.374 41.3404 30.5829 41.9149 30.844C42.3327 31.0529 42.6983 31.1574 43.116 31.314C43.4816 31.4185 43.795 31.4707 44.1605 31.5752C44.4216 31.6274 44.735 31.5752 44.9961 31.7318C44.9961 31.7318 45.0483 31.7318 45.1005 31.7318C45.675 31.784 46.2495 31.8363 46.8239 31.8363C47.2417 31.8363 47.6072 31.9407 48.025 31.8885C48.6517 31.784 49.3307 31.8885 49.9574 31.784C50.3229 31.7318 50.6885 31.7318 51.054 31.7318H51.1063C51.4718 31.6274 51.5241 31.6274 51.4719 32.0452C51.4719 32.4107 51.4196 32.8285 51.263 33.1941C50.6363 33.2985 50.0096 33.2985 49.4351 33.2985C48.6518 33.3508 47.8684 33.2985 47.085 33.2463C46.5106 33.1941 45.8839 33.1419 45.3094 32.9852C44.8916 32.8807 44.4738 32.8285 44.056 32.7241C43.586 32.6196 43.0638 32.463 42.5938 32.3063C41.8627 32.0452 41.1315 31.7318 40.4526 31.3663C39.2514 30.7396 38.2069 29.904 37.3191 28.8595C37.2669 28.8595 37.267 28.7551 37.1625 28.7551Z" fill="#5F7691"/>
<path d="M34.1855 88.185C34.1855 88.4984 34.1855 88.7595 34.1855 89.0728C34.1855 89.6473 34.0811 90.2218 33.9244 90.8485C33.7677 91.4751 33.5067 91.9452 33.0366 92.3629C32.6711 92.6763 32.2011 92.8852 31.6788 92.9374C31.0521 92.9896 30.5299 92.8852 29.9554 92.5718C29.5376 92.3107 29.2243 91.8929 29.0154 91.4751C28.7543 90.9529 28.7021 90.3784 28.5976 89.8562C28.4409 88.9684 28.4932 88.0806 28.5454 87.1928C28.5454 86.6183 28.6498 86.0439 28.8065 85.5216C28.9632 84.8949 29.2243 84.3205 29.6943 83.9027C30.0599 83.5893 30.4777 83.4327 30.9477 83.3804C31.5744 83.3282 32.2011 83.3804 32.7233 83.746C33.1411 84.0071 33.4544 84.4249 33.6633 84.8949C33.9244 85.4172 33.9767 85.9916 34.0811 86.5661C34.1856 87.0361 34.1333 87.6106 34.1855 88.185ZM29.4854 88.0284C29.4854 88.9684 29.4854 89.8562 29.7988 90.744C30.0077 91.3185 30.2688 91.8407 30.9477 91.9974C31.4699 92.154 31.8877 92.0496 32.3055 91.7363C32.7233 91.4229 32.88 90.9529 32.9844 90.4829C33.1411 89.8562 33.2456 89.2295 33.1933 88.6028C33.1933 88.2895 33.1933 87.9761 33.1933 87.6106C33.1933 86.8272 33.1933 86.0439 32.8799 85.2605C32.671 84.686 32.3577 84.2682 31.731 84.0593C31.1044 83.8504 30.3732 84.1638 30.0599 84.686C29.6421 85.3649 29.4854 86.0961 29.4854 86.8794C29.4854 87.2972 29.4854 87.6628 29.4854 88.0284Z" fill="#5F7691"/>
<path d="M62.021 82.7539C62.2299 83.1717 62.3344 83.5895 62.4911 84.0073C62.6477 84.4251 62.7522 84.8951 62.9088 85.3129C63.0655 85.7829 63.2744 86.3051 63.3789 86.7751C63.4833 87.1929 63.64 87.663 63.7967 88.0807C63.9533 88.5508 64.11 88.9686 64.2667 89.4386C64.4234 89.9086 64.58 90.3786 64.7367 90.8486C64.8933 91.2664 65.05 91.7364 65.1545 92.2064C65.3111 92.7287 65.2589 92.7287 64.7367 92.7287C64.6844 92.7287 64.58 92.7287 64.5278 92.7287C64.2667 92.7809 64.1622 92.6242 64.1622 92.3631C64.11 91.9975 63.9533 91.6842 63.8489 91.3186C63.7444 90.9531 63.5878 90.5353 63.4833 90.1697C63.4311 90.0652 63.4311 90.013 63.2744 90.013C62.4388 90.013 61.6555 90.013 60.8199 90.013C60.7154 90.013 60.611 90.0652 60.5587 90.1697C60.4021 90.7442 60.1932 91.3709 60.0365 91.9453C59.9843 92.1542 59.8799 92.3631 59.8277 92.572C59.8277 92.6764 59.7232 92.6764 59.671 92.6764C59.4098 92.6764 59.1487 92.6764 58.8876 92.6764C58.7832 92.6764 58.731 92.6764 58.7832 92.572C58.9921 92.0498 59.1487 91.5275 59.3576 91.0053C59.5143 90.5353 59.6187 90.0652 59.7754 89.6475C59.9321 89.1774 60.0887 88.7597 60.2454 88.2896C60.4021 87.8719 60.5066 87.4018 60.6632 86.984C60.8199 86.514 61.0288 86.044 61.1333 85.574C61.2377 85.2084 61.3421 84.8429 61.4466 84.4773C61.6033 84.0073 61.7599 83.5895 61.9166 83.1195C61.9688 83.015 61.9688 82.9106 62.021 82.7539ZM62.021 85.574C61.9688 85.8351 61.8644 86.044 61.8121 86.2529C61.6555 86.6707 61.4988 87.1407 61.3944 87.5585C61.2899 88.0285 61.081 88.4985 60.9244 89.0208C60.8721 89.1774 60.8721 89.2297 61.0288 89.2297C61.6555 89.2297 62.3344 89.2297 62.9611 89.2297C63.1178 89.2297 63.1177 89.1774 63.1177 89.073C63.0133 88.7074 62.9089 88.3419 62.7522 87.9763C62.5955 87.5063 62.4388 87.0363 62.2822 86.6185C62.2822 86.2529 62.2299 85.8873 62.021 85.574Z" fill="#5F7691"/>
<path d="M52.2549 88.0805C52.2549 86.6183 52.2549 85.156 52.2549 83.6937C52.2549 83.4848 52.3071 83.4326 52.516 83.4326C53.2471 83.4326 53.9782 83.4326 54.7094 83.4326C55.7016 83.4848 56.485 83.9026 56.9028 84.8427C57.1639 85.5216 57.2161 86.2005 57.0595 86.9316C56.955 87.3494 56.7983 87.7672 56.485 88.0805C56.2239 88.3939 55.8583 88.6028 55.4405 88.7595C54.8138 88.9683 54.1349 88.9684 53.456 88.9684C53.2471 88.9684 53.1949 89.0206 53.1949 89.2295C53.1949 90.274 53.1949 91.3706 53.1949 92.4151C53.1949 92.5718 53.1426 92.6762 52.986 92.6762C52.8293 92.6762 52.6204 92.6762 52.4637 92.6762C52.3071 92.6762 52.2549 92.624 52.2549 92.4674C52.2549 91.0051 52.2549 89.5428 52.2549 88.0805ZM53.2471 86.2527C53.2471 86.8794 53.2471 87.4539 53.2471 88.0805C53.2471 88.185 53.2471 88.2894 53.4038 88.2894C53.8738 88.2372 54.3961 88.3417 54.8661 88.2372C55.4928 88.0805 56.0672 87.4539 56.1194 86.8794C56.1716 86.4616 56.1716 85.9916 56.0672 85.5216C55.8583 84.8949 55.3361 84.3726 54.6572 84.3726C54.2916 84.3726 53.8738 84.3726 53.5082 84.3726C53.3515 84.3726 53.2994 84.4249 53.2994 84.5815C53.2471 85.0516 53.2471 85.626 53.2471 86.2527Z" fill="#5F7691"/>
<path d="M14.0273 88.0805C14.0273 86.6183 14.0273 85.156 14.0273 83.6937C14.0273 83.4848 14.0795 83.4326 14.2884 83.4326C15.8029 83.4326 17.2651 83.4326 18.7796 83.4326C18.9885 83.4326 18.9885 83.4848 18.9885 83.6937C18.9885 84.2682 18.9886 84.2682 18.4141 84.2682C17.3696 84.2682 16.2729 84.2682 15.2285 84.2682C15.0196 84.2682 14.9673 84.3204 14.9673 84.4771C14.9673 85.4171 14.9673 86.3572 14.9673 87.2972C14.9673 87.5061 15.0196 87.5583 15.2285 87.5583C16.064 87.5583 16.8996 87.5583 17.7352 87.5583C17.8918 87.5583 17.9963 87.6105 17.9963 87.7672C17.9963 88.3417 17.9963 88.3417 17.4218 88.3417C16.6907 88.3417 15.9596 88.3417 15.2285 88.3417C15.0718 88.3417 15.0195 88.3939 15.0195 88.5506C15.0195 89.8562 15.0195 91.1618 15.0195 92.4674C15.0195 92.6762 14.9673 92.7285 14.7584 92.7285C14.4973 92.6762 14.2362 92.8329 14.0795 92.6762C13.9228 92.5196 14.0273 92.2585 14.0273 91.9973C14.0273 90.6917 14.0273 89.3861 14.0273 88.0805Z" fill="#5F7691"/>
<path d="M47.1889 88.0805C47.1889 89.2817 47.1889 90.4306 47.1889 91.6318C47.1889 91.8407 47.2412 91.8929 47.4501 91.8929C47.7112 91.8929 47.9723 91.8929 48.2334 91.8929C48.3379 91.8929 48.3901 91.9451 48.3901 92.0496C48.4423 92.6762 48.4424 92.6762 47.8157 92.6762C46.9279 92.6762 46.0401 92.6762 45.2045 92.6762C44.9956 92.6762 44.9434 92.624 44.9434 92.4151C44.9434 91.8929 44.9433 91.8929 45.5178 91.8929C45.7789 91.8929 46.0922 91.9973 46.1967 91.8407C46.3011 91.684 46.249 91.4229 46.249 91.1618C46.249 88.9684 46.249 86.7227 46.249 84.5293C46.249 84.3204 46.1967 84.216 45.9878 84.2682C45.7267 84.2682 45.4655 84.2682 45.1522 84.2682C44.9955 84.2682 44.9434 84.216 44.9434 84.0593C44.9434 83.4326 44.9433 83.4326 45.5178 83.4326C46.4056 83.4326 47.2934 83.4326 48.1812 83.4326C48.3901 83.4326 48.4423 83.4848 48.4423 83.6415C48.4423 84.216 48.4423 84.216 47.8679 84.216C47.2412 84.216 47.2412 84.216 47.2412 84.8427C47.1889 85.9916 47.1889 87.0361 47.1889 88.0805Z" fill="#5F7691"/>
<path d="M22.8531 87.7155C22.8531 89.0211 22.8531 90.3789 22.8531 91.6845C22.8531 91.8934 22.9054 91.9456 23.1143 91.9456C24.2632 91.9456 25.4121 91.9456 26.6132 91.9456C26.8221 91.9456 26.8744 91.9978 26.8744 92.2067C26.8744 92.729 26.8744 92.729 26.3521 92.729C24.9943 92.729 23.5843 92.729 22.2265 92.729C22.0176 92.729 21.9131 92.6768 21.9131 92.4679C21.9131 89.5433 21.9131 86.671 21.9131 83.7465C21.9131 83.5376 21.9653 83.4854 22.1742 83.4854C22.3831 83.5376 22.6965 83.3809 22.8531 83.5376C23.0098 83.6942 22.9054 83.9554 22.9054 84.2165C22.8531 85.3654 22.8531 86.5143 22.8531 87.7155Z" fill="#5F7691"/>
<path d="M18.2053 45.3096C17.7875 45.1007 17.3175 44.944 16.8474 44.8918C16.5341 44.8396 16.1685 44.8918 15.8552 44.7874C15.2285 44.6307 14.654 44.7351 14.0273 44.6829C14.0273 44.5785 14.1318 44.6307 14.184 44.5785C14.3929 44.5785 14.6018 44.6307 14.8107 44.5785C15.2285 44.474 15.6985 44.5785 16.1163 44.474C16.4819 44.3696 16.8474 44.4218 17.1608 44.3696C17.4219 44.3173 17.683 44.3173 17.9441 44.2129C18.1008 44.1607 18.3097 44.1607 18.5186 44.1084C19.0408 43.9518 19.5631 43.8473 20.0331 43.6384C20.712 43.3773 21.391 43.0117 21.9654 42.594C22.2788 42.3851 22.5921 42.1762 22.9054 41.9673C22.9576 41.915 23.0099 41.9673 23.0621 41.915C23.0621 42.2806 22.9576 42.5939 22.9054 42.9595V43.0117C22.9576 43.4295 22.7488 43.7951 22.801 44.1607C22.8532 44.5262 22.6965 44.8918 22.6965 45.2574C22.6965 45.3618 22.6443 45.4663 22.5399 45.5185C22.4354 45.4663 22.331 45.4663 22.2787 45.414C22.0698 45.2051 21.9132 44.944 21.5998 44.7874C21.2342 44.5785 20.8165 44.474 20.3987 44.474C19.7198 44.4218 19.2497 44.7351 18.7275 45.0485C18.5186 45.1529 18.4142 45.3618 18.2053 45.3096Z" fill="#5F7691"/>
<path d="M33.0889 31.2094C32.88 31.2094 32.6711 31.2094 32.4622 31.2094C31.94 31.2094 31.4699 31.0005 30.9999 30.6871C30.0077 30.0604 29.3288 29.1204 28.4932 28.337L28.4409 28.2848C28.3887 28.2326 28.2843 28.1804 28.3365 28.0759C28.3887 27.9715 28.4932 28.0237 28.5976 28.0759C29.2765 28.3893 29.9032 28.7548 30.5822 29.0682C31.1044 29.2771 31.6266 29.5382 32.1489 29.6426C32.7233 29.7993 33.2978 29.7471 33.8722 29.6949C34.1333 29.6949 34.4467 29.6949 34.7078 29.5382C34.8645 29.4338 35.0734 29.486 35.2823 29.4337C35.5956 29.3293 35.9612 29.2249 36.2745 29.1204C36.379 29.1204 36.4834 29.0682 36.5356 29.1726C35.7523 29.9038 34.8122 30.3738 33.9244 30.8438C33.7155 30.9482 33.5067 31.0527 33.2978 31.1049C33.1933 31.1049 33.0889 31.1049 33.0889 31.2094Z" fill="#5F7691"/>
<path d="M51.4716 16.6376C51.2105 16.6376 50.9493 16.6376 50.636 16.6376C50.2704 16.6376 49.9048 16.6899 49.5915 16.8987C49.4348 17.0032 49.3826 16.951 49.3826 16.7943C49.3304 16.3765 49.5393 16.0109 49.7482 15.6976C50.1137 14.9142 50.7404 14.2876 51.3671 13.7131C51.7327 13.3997 52.0983 13.1386 52.5683 13.0342C52.6205 13.0342 52.725 13.0342 52.7772 13.0342C52.8816 13.2953 52.6727 13.3997 52.5683 13.5564C52.2027 14.1309 51.9416 14.7576 51.7327 15.4365C51.5238 15.7498 51.4716 16.1676 51.4716 16.6376Z" fill="#5F7691"/>
<path d="M34.6558 64.4754C34.8647 64.4754 35.0736 64.4754 35.2825 64.4754C35.8569 64.4231 36.4314 64.5798 37.0058 64.632C37.3714 64.6843 37.7892 64.632 38.1548 64.6843C39.7737 64.8932 41.3926 64.7365 43.0116 64.7887C43.0116 64.9976 42.8027 65.0498 42.646 65.0498C41.236 65.3109 39.826 65.4154 38.4159 65.3632C37.737 65.3109 37.0581 65.2587 36.4314 65.1543C35.8569 65.0498 35.2825 64.8931 34.7602 64.5798C34.708 64.5798 34.708 64.5276 34.6558 64.4754Z" fill="#5F7691"/>
<path d="M27.605 64.4759C27.5528 64.267 27.7617 64.2148 27.8139 64.0581C27.9706 63.6925 28.1273 63.3792 28.2839 63.0136C28.5973 62.4392 28.9628 61.9169 29.4328 61.4469C29.5373 61.3947 29.5895 61.3425 29.6939 61.3947C29.7984 61.4469 29.7462 61.5513 29.7462 61.6036C29.7462 61.9691 29.7462 62.3347 29.7462 62.648C29.7462 62.9614 29.6418 63.1703 29.5373 63.4314C29.1717 63.6925 28.7539 63.9536 28.3361 64.1103C28.1795 64.2148 27.9706 64.3192 27.7617 64.3192C27.7095 64.3192 27.6572 64.3192 27.6572 64.4237C27.6572 64.4759 27.6572 64.4759 27.605 64.4759Z" fill="#5F7691"/>
<path d="M36.8491 96.3844C36.8491 95.9144 36.8491 95.4966 36.8491 95.0266C36.8491 94.8177 36.9013 94.7654 37.1102 94.8177C37.3191 94.8177 37.528 94.8177 37.7369 94.8177C38.0502 94.8177 38.3114 94.9743 38.4158 95.2877C38.5203 95.5488 38.5725 95.9144 38.2591 96.1755C38.1025 96.2799 38.1547 96.3844 38.3114 96.4888C38.7814 96.8544 38.7292 97.5333 38.4158 97.7944C38.2592 97.9511 38.1025 98.0033 37.8936 98.0033C37.6325 98.0033 37.3191 98.0033 37.058 98.0033C36.9013 98.0033 36.8491 97.9511 36.8491 97.7944C36.8491 97.3244 36.8491 96.8544 36.8491 96.3844ZM37.528 97.69C37.5802 97.69 37.6325 97.69 37.6325 97.69C38.0503 97.7422 38.1547 97.4811 38.2591 97.22C38.3636 97.0111 38.1547 96.6977 37.8936 96.5411C37.6847 96.4366 37.4758 96.4888 37.2669 96.4888C37.1102 96.4888 37.058 96.541 37.058 96.6977C37.058 96.9066 37.058 97.1155 37.058 97.3244C37.1624 97.69 37.1624 97.69 37.528 97.69ZM37.1625 95.6532C37.1625 95.8099 37.1625 95.9144 37.1625 96.071C37.1625 96.1233 37.1624 96.1755 37.2669 96.1755C37.4758 96.1755 37.6847 96.1755 37.8936 96.071C38.1025 95.9666 38.2069 95.6532 38.1547 95.3921C38.1025 95.1832 37.8936 95.0788 37.6847 95.0788C37.1625 95.0788 37.1625 95.0788 37.1625 95.6532Z" fill="#5F7691"/>
<path d="M49.5392 97.9508C49.278 98.0553 49.1214 98.003 48.9647 97.7419C48.808 97.4286 48.6514 97.1675 48.4947 96.9063C48.3902 96.6452 48.1813 96.6974 47.9724 96.7497C47.868 96.7497 47.868 96.8541 47.868 96.9063C47.868 97.2197 47.868 97.533 47.868 97.8464C47.868 97.9508 47.8158 98.003 47.7113 98.003C47.5546 98.003 47.5547 97.9508 47.5547 97.8464C47.5547 96.9063 47.5547 95.9663 47.5547 95.0263C47.5547 94.8696 47.6069 94.8174 47.7113 94.8174C47.9724 94.8174 48.1813 94.8174 48.4425 94.8174C48.8603 94.8174 49.1736 95.1307 49.2258 95.5485C49.2781 95.9663 49.1736 96.2797 48.808 96.4885C48.7036 96.5408 48.7036 96.593 48.7558 96.6974C48.9647 97.0108 49.1214 97.3241 49.3302 97.6897C49.4347 97.7419 49.4869 97.8464 49.5392 97.9508ZM47.868 95.7052C47.868 95.7574 47.868 95.8619 47.868 95.9141C47.868 96.4363 47.868 96.4363 48.3903 96.3841C48.808 96.3319 49.0692 95.7052 48.8603 95.3918C48.7036 95.1307 48.2858 94.974 47.9724 95.1307C47.7635 95.2352 47.9202 95.4441 47.868 95.653V95.7052Z" fill="#5F7691"/>
<path d="M45.6225 94.6084C45.8837 95.444 46.197 96.1751 46.4059 97.0107C46.5103 97.2718 46.6148 97.5329 46.6148 97.8463C46.6148 97.8985 46.7715 98.003 46.6148 98.003C46.5104 98.003 46.3537 98.1074 46.3015 97.8985C46.2492 97.7418 46.1448 97.5329 46.1448 97.3763C46.1448 97.1674 46.0403 97.0629 45.8314 97.1151C45.6748 97.1151 45.4659 97.1151 45.3092 97.1151C45.1525 97.1151 45.1003 97.1674 45.0481 97.324C44.9959 97.5329 44.8914 97.6896 44.8914 97.8985C44.8392 98.1596 44.6825 98.0552 44.5258 98.0552C44.4736 98.0552 44.4736 98.003 44.4736 97.9507C44.6303 97.5329 44.787 97.1151 44.9437 96.6451C45.0481 96.2796 45.1525 95.914 45.257 95.5484C45.4137 95.1829 45.4659 94.8695 45.6225 94.6084ZM45.6225 95.5484C45.4659 95.8618 45.4137 96.1751 45.257 96.4885C45.2048 96.6974 45.257 96.8018 45.4659 96.7496C45.5703 96.7496 45.6748 96.7496 45.7792 96.7496C45.9359 96.7496 45.9881 96.6974 45.9359 96.5407C45.8836 96.2273 45.7792 95.914 45.6225 95.5484Z" fill="#5F7691"/>
<path d="M24.4195 97.3769C24.4718 97.0113 24.5762 96.6458 24.6285 96.2802C24.7329 95.8102 24.8373 95.3402 24.9418 94.9224C24.994 94.7657 25.1507 94.8179 25.2551 94.8179C25.3596 94.8179 25.3596 94.9224 25.3596 94.9746C25.2552 95.3402 25.2029 95.7057 25.0985 96.0191C24.994 96.3324 24.9418 96.698 24.8896 97.0636C24.8373 97.3769 24.7329 97.6902 24.6807 98.0036C24.6807 98.1603 24.524 98.108 24.4718 98.108C24.3673 98.108 24.2629 98.1603 24.2106 98.0036C24.1062 97.7425 24.1062 97.4813 24.054 97.2202C23.8973 96.6458 23.8451 96.0713 23.6884 95.4968C23.6362 95.3402 23.6362 95.1313 23.584 94.9746C23.5318 94.9224 23.5317 94.8179 23.6884 94.8179C23.7928 94.8179 23.9495 94.7657 24.0017 94.9224C24.054 95.2357 24.1584 95.6013 24.2106 95.9669C24.1584 96.3846 24.2629 96.9069 24.4195 97.3769C24.4195 97.3769 24.3673 97.3769 24.4195 97.3769Z" fill="#5F7691"/>
<path d="M23.8452 64.2141C24.4197 63.1174 25.1508 62.1773 25.9864 61.2373C25.9864 61.4984 26.0908 61.7073 25.9864 61.9684C25.8819 62.1773 25.9864 62.4385 25.9342 62.6473C25.9342 62.804 25.9341 62.9607 25.8297 63.1174C25.673 63.3785 25.4119 63.4307 25.203 63.5874C24.7852 63.8485 24.3674 64.0574 23.8974 64.2663C23.8452 64.2663 23.8452 64.2141 23.8452 64.2141Z" fill="#5F7691"/>
<path d="M29.7464 98.0559C29.3809 98.0559 29.1198 97.9515 28.8586 97.6381C28.8064 97.5337 28.7542 97.4814 28.8586 97.4292C28.9631 97.377 29.0153 97.3248 29.1198 97.4292C29.2764 97.6381 29.5376 97.7948 29.7987 97.7426C30.0598 97.7426 30.2164 97.5859 30.2687 97.377C30.3209 97.1681 30.3731 96.907 30.1642 96.7503C29.9553 96.5414 29.642 96.3847 29.3809 96.2281C28.8064 95.9147 28.7542 95.288 29.0153 94.9747C29.2765 94.6614 29.6942 94.5569 30.112 94.7136C30.2687 94.7658 30.3731 94.818 30.5298 94.9225C30.6342 95.0269 30.6343 95.0791 30.5821 95.1836C30.5298 95.288 30.4254 95.2358 30.3209 95.1836C30.2165 95.0791 30.0598 94.9747 29.9031 94.9747C29.642 94.9225 29.3809 95.0791 29.3287 95.2358C29.2242 95.4969 29.3287 95.8103 29.5898 95.967C29.9031 96.1236 30.2165 96.3325 30.4776 96.5414C30.6865 96.7503 30.8432 97.1681 30.6865 97.4814C30.5298 97.7948 30.3209 98.0559 29.9031 98.0559C29.8509 98.0559 29.7986 98.0559 29.7464 98.0559Z" fill="#5F7691"/>
<path d="M53.6127 98.0559C53.2471 98.0559 52.986 97.9515 52.7249 97.6381C52.6726 97.5337 52.6204 97.4814 52.7249 97.4292C52.8293 97.377 52.8815 97.3248 52.986 97.4292C53.1426 97.6381 53.4038 97.7948 53.6649 97.7426C53.926 97.7426 54.0827 97.5859 54.1349 97.377C54.1872 97.1681 54.2393 96.907 54.0305 96.7503C53.8216 96.5414 53.5082 96.3847 53.2471 96.2281C52.6726 95.9147 52.6204 95.288 52.8816 94.9747C53.1427 94.6614 53.5604 94.5569 53.9782 94.7136C54.1349 94.7658 54.2394 94.818 54.3961 94.9225C54.5005 95.0269 54.5005 95.0791 54.4483 95.1836C54.396 95.288 54.2916 95.2358 54.1871 95.1836C54.0827 95.0791 53.926 94.9747 53.7693 94.9747C53.5082 94.9225 53.2471 95.0791 53.1949 95.2358C53.0904 95.4969 53.1949 95.8103 53.456 95.967C53.7693 96.1236 54.0827 96.3325 54.3438 96.5936C54.5527 96.8025 54.7094 97.2203 54.5527 97.5337C54.396 97.847 54.1871 98.1081 53.7693 98.1081C53.6649 98.0559 53.6127 98.0559 53.6127 98.0559Z" fill="#5F7691"/>
<path d="M50.3749 63.2214C50.3227 63.0647 50.166 63.117 50.0616 63.117C49.5915 63.117 49.4871 63.0647 49.4871 62.5425C49.4871 62.2814 49.3826 62.0203 49.2782 61.7591V61.7069C49.2782 61.6025 49.226 61.4458 49.3304 61.3413C49.4871 61.2369 49.5394 61.4458 49.6438 61.498C50.166 61.8636 50.5838 62.3336 51.0016 62.7514C51.2627 63.0125 51.4716 63.3781 51.6805 63.6914C51.7327 63.7959 51.7327 63.8481 51.6283 63.8481C51.2627 63.6914 51.0016 63.3781 50.636 63.2214C50.4793 63.2214 50.4271 63.2214 50.3749 63.2214Z" fill="#5F7691"/>
<path d="M41.2356 96.1757C41.2356 96.5412 41.2356 96.9068 41.2356 97.2724C41.2356 97.6902 40.9222 98.0035 40.6089 98.0557C40.2433 98.1602 39.93 98.0035 39.6688 97.6902C39.5644 97.5335 39.5122 97.3768 39.5122 97.2201C39.5122 96.489 39.5122 95.7057 39.5122 94.9745C39.5122 94.8701 39.5122 94.8179 39.6688 94.8179C39.8255 94.8179 39.8255 94.9223 39.8255 95.0267C39.8255 95.7579 39.8255 96.489 39.8255 97.2201C39.8255 97.5857 40.0344 97.7946 40.3478 97.7946C40.6611 97.7946 40.87 97.5335 40.87 97.1679C40.87 96.4368 40.87 95.7057 40.87 94.9745C40.87 94.8701 40.8178 94.7656 40.9744 94.7656C41.1311 94.7656 41.1833 94.7656 41.1833 94.9223C41.2356 95.3401 41.2356 95.7579 41.2356 96.1757Z" fill="#5F7691"/>
<path d="M26.2998 96.3846C26.2998 95.9146 26.2998 95.4445 26.2998 94.9745C26.2998 94.8179 26.352 94.7656 26.5087 94.7656C26.9265 94.7656 27.3443 94.7656 27.7621 94.7656C27.8665 94.7656 27.971 94.7656 27.971 94.9223C27.971 95.079 27.8665 95.079 27.7621 95.079C27.4488 95.079 27.1354 95.079 26.7698 95.079C26.6132 95.079 26.5609 95.1312 26.5609 95.2879C26.5609 95.549 26.5609 95.8101 26.5609 96.019C26.5609 96.1235 26.6132 96.1757 26.7176 96.1757C26.9265 96.1757 27.1354 96.1757 27.3443 96.1757C27.4487 96.1757 27.5532 96.1757 27.5532 96.3323C27.5532 96.489 27.4487 96.489 27.3965 96.489C27.1876 96.489 26.9787 96.489 26.7698 96.489C26.6654 96.489 26.5609 96.489 26.6131 96.6457C26.6131 96.959 26.6131 97.2201 26.6131 97.5335C26.6131 97.6902 26.6654 97.6902 26.7698 97.6902C27.0832 97.6902 27.4488 97.6902 27.7621 97.6902C27.8665 97.6902 27.971 97.6902 27.971 97.8468C27.971 98.0035 27.8665 97.9513 27.7621 97.9513C27.3443 97.9513 26.9265 97.9513 26.4565 97.9513C26.2998 97.9513 26.2998 97.8991 26.2998 97.7424C26.352 97.3246 26.2998 96.8546 26.2998 96.3846Z" fill="#5F7691"/>
<path d="M50.271 96.3835C50.271 95.9135 50.271 95.4435 50.271 94.9735C50.271 94.8168 50.3232 94.7646 50.4799 94.7646C50.8977 94.7646 51.3155 94.7646 51.7333 94.7646C51.8377 94.7646 51.9421 94.7124 51.9421 94.9213C51.9421 95.0779 51.8377 95.0779 51.7333 95.0779C51.4199 95.0779 51.1066 95.0779 50.741 95.0779C50.5844 95.0779 50.5321 95.1302 50.5321 95.2868C50.5321 95.5479 50.5321 95.7569 50.5321 96.018C50.5321 96.1746 50.5844 96.2269 50.741 96.2269C50.9499 96.2269 51.1066 96.2269 51.3155 96.2269C51.4199 96.2269 51.5244 96.2269 51.5244 96.3835C51.5244 96.5402 51.4199 96.5402 51.3155 96.5402C51.1066 96.5402 50.8977 96.5402 50.741 96.5402C50.5844 96.5402 50.5321 96.5924 50.5843 96.7491C50.5843 97.0102 50.5843 97.2713 50.5843 97.5847C50.5843 97.7414 50.6366 97.7936 50.7932 97.7936C51.1066 97.7936 51.4199 97.7936 51.7855 97.7936C51.8899 97.7936 51.9944 97.7936 51.9944 97.9503C51.9944 98.1069 51.8899 98.0547 51.7855 98.0547C51.3677 98.0547 50.9499 98.0547 50.4799 98.0547C50.3232 98.0547 50.271 98.0025 50.3232 97.8458C50.271 97.3236 50.271 96.8536 50.271 96.3835Z" fill="#5F7691"/>
<path d="M46.9806 63.6927C46.9284 63.2227 47.085 62.7527 47.1895 62.2826C47.1895 62.1782 47.294 62.126 47.3462 62.126C47.4506 62.126 47.4506 62.2304 47.4506 62.2826C47.764 62.7527 47.9729 63.2749 48.234 63.7449C48.3906 64.006 48.5995 64.2672 48.8084 64.4761C48.3906 64.4761 48.0251 64.2672 47.6595 64.1627C47.4506 64.0583 47.1895 63.8494 46.9806 63.6927Z" fill="#5F7691"/>
<path d="M32.5663 96.5412C32.5663 96.9068 32.5663 97.3246 32.5663 97.6902C32.5663 97.7946 32.6708 97.9513 32.4097 97.9513C32.2008 97.9513 32.253 97.7946 32.253 97.6902C32.253 96.9068 32.253 96.1234 32.253 95.3401C32.253 95.1312 32.2008 95.0267 31.9919 95.079C31.8352 95.079 31.6785 95.079 31.5219 95.079C31.4174 95.079 31.3652 95.079 31.3652 94.9223C31.3652 94.7656 31.4174 94.7656 31.5219 94.7656C32.0963 94.7656 32.6708 94.7656 33.2975 94.7656C33.4019 94.7656 33.4542 94.7656 33.4542 94.9223C33.4542 95.0267 33.4019 95.079 33.2975 95.079C33.1408 95.079 32.9319 95.079 32.7753 95.079C32.6186 95.079 32.5663 95.1312 32.6186 95.2879C32.5663 95.7057 32.5663 96.1235 32.5663 96.5412Z" fill="#5F7691"/>
<path d="M34.969 97.9508C34.8123 97.9508 34.7079 97.9508 34.5512 97.9508C34.4468 97.9508 34.3945 97.9508 34.3945 97.7941C34.3945 97.6896 34.4468 97.6374 34.5512 97.6374C34.8123 97.6896 34.8646 97.533 34.8646 97.3241C34.8646 96.6452 34.8646 95.9663 34.8646 95.2873C34.8646 95.0785 34.8123 95.0262 34.6034 95.0262C34.499 95.0262 34.3945 95.0785 34.3945 94.9218C34.3945 94.8173 34.3946 94.7129 34.5512 94.7129C34.8646 94.7129 35.1257 94.7129 35.439 94.7129C35.5435 94.7129 35.5957 94.7651 35.5957 94.8696C35.5957 94.974 35.5435 95.0262 35.439 95.0262C35.1779 94.974 35.1779 95.1307 35.1779 95.2873C35.1779 95.9663 35.1779 96.6974 35.1779 97.3763C35.1779 97.533 35.2301 97.5852 35.3868 97.5852C35.4912 97.5852 35.5957 97.5852 35.5957 97.7419C35.5957 97.8985 35.4912 97.8463 35.3868 97.8463C35.2301 97.9508 35.1257 97.9508 34.969 97.9508Z" fill="#5F7691"/>
<path d="M42.3325 96.3841C42.3325 95.9141 42.3325 95.4963 42.3325 95.0263C42.3325 94.9218 42.2802 94.8174 42.4891 94.8174C42.6458 94.8174 42.6458 94.9218 42.6458 95.0263C42.6458 95.8619 42.6458 96.6452 42.6458 97.4808C42.6458 97.6897 42.698 97.7419 42.9069 97.7419C43.2203 97.7419 43.5336 97.7419 43.8992 97.7419C44.0036 97.7419 44.0558 97.7941 44.0558 97.8986C44.0558 98.0553 43.9514 98.003 43.8469 98.003C43.4291 98.003 42.9591 98.003 42.5413 98.003C42.3846 98.003 42.3325 97.9508 42.3325 97.7941C42.3325 97.2719 42.3325 96.8541 42.3325 96.3841Z" fill="#5F7691"/>
<path d="M33.0894 31.2089C33.0894 31.1045 33.1938 31.1045 33.2983 31.1045C33.246 31.2089 33.1416 31.2089 33.0894 31.2089Z" fill="#5F7691"/>
<path d="M10.1104 57.5293C10.1104 57.477 10.1626 57.4248 10.2148 57.4248C10.2148 57.5293 10.2148 57.5293 10.1104 57.5293Z" fill="#5F7691"/>
<path d="M27.71 64.4755C27.71 64.4233 27.7622 64.3711 27.8144 64.3711C27.8144 64.4755 27.7622 64.5278 27.71 64.4755Z" fill="#5F7691"/>
</svg>
