<svg width="97" height="124" viewBox="0 0 97 124" fill="none" xmlns="http://www.w3.org/2000/svg">
<path d="M92.5239 91.9068C93.3727 92.0611 94.2215 92.2154 94.916 92.7556C95.3019 93.0643 95.7649 93.2958 96.0736 93.6816C96.4594 94.1447 96.7681 94.762 96.9224 95.3793C96.8453 95.5337 96.7681 95.688 96.9996 95.8423C96.9996 96.3825 96.9996 96.9227 96.9996 97.54C96.8452 97.6172 96.9224 97.6944 96.8452 97.7715C96.6909 98.466 96.3823 99.1606 95.9193 99.7779C95.4563 100.318 94.9161 100.781 94.2987 101.167C93.2955 101.784 92.2924 102.093 91.1348 102.093C90.4403 102.093 89.6687 102.093 88.9742 102.093C88.897 102.093 88.7426 102.016 88.7426 102.247C88.7426 103.328 88.7426 104.331 88.7426 105.411C88.7426 106.028 88.7426 106.646 88.7426 107.263C88.7426 107.726 88.9741 107.958 89.4371 108.035C89.5915 108.035 89.823 108.112 89.9773 108.112C90.1317 108.344 90.4403 108.189 90.5947 108.189C91.212 108.189 91.212 108.189 91.212 108.807C91.212 109.81 91.2892 109.655 90.3632 109.655C87.971 109.655 85.6559 109.655 83.2637 109.655C83.2637 109.192 83.2637 108.652 83.2637 108.189C83.4181 108.189 83.4952 108.189 83.6496 108.189C83.8811 108.189 84.1126 108.266 84.2669 108.112C84.4984 108.112 84.7299 108.035 84.9614 108.035C85.3473 107.958 85.5016 107.649 85.5016 107.109C85.5016 106.26 85.5016 105.334 85.5016 104.485C85.5016 101.321 85.5016 98.0802 85.5016 94.9163C85.5016 94.1447 85.2701 93.836 84.4984 93.6816C84.3441 93.6816 84.1898 93.6045 83.9582 93.6045C83.8039 93.373 83.6496 93.5273 83.4181 93.5273C83.1094 93.6045 83.0322 93.4501 83.0322 93.1415C83.0322 92.91 83.0322 92.6013 83.0322 92.3698C83.0322 92.1383 83.1094 92.0611 83.3409 92.0611C86.1189 92.0611 88.897 92.0611 91.5978 92.0611C91.675 92.0611 91.675 92.0611 91.7522 92.0611C92.0609 91.984 92.3695 91.8296 92.5239 91.9068ZM88.0481 92.1383C86.7363 92.1383 85.4244 92.1383 84.1125 92.1383C83.4952 92.1383 83.4952 92.1383 83.5724 92.7556C83.5724 92.91 83.6496 92.9871 83.8039 93.0643C84.1126 93.0643 84.4213 93.1415 84.7299 93.2186C85.5016 93.373 85.8874 93.7588 85.8874 94.5305C85.8874 98.6976 85.8874 102.865 85.8874 107.032C85.8874 107.263 85.8102 107.495 85.6559 107.726C85.4244 108.189 84.9614 108.266 84.4984 108.344C84.2669 108.344 83.9582 108.344 83.7267 108.421C83.2637 108.575 83.5724 108.884 83.4952 109.115C83.4952 109.347 83.7267 109.27 83.8039 109.27C85.9646 109.27 88.1253 109.27 90.2088 109.27C90.8262 109.27 90.8262 109.27 90.749 108.652C90.749 108.498 90.6718 108.498 90.5947 108.421C90.1317 108.344 89.6686 108.344 89.2828 108.266C88.6655 108.112 88.2796 107.726 88.2796 107.109C88.2796 105.411 88.2796 103.713 88.2796 102.016C88.2796 101.784 88.3568 101.784 88.5111 101.784C89.2056 101.784 89.823 101.784 90.5175 101.784C91.1349 101.784 91.7522 101.707 92.2924 101.553C93.1412 101.321 93.99 100.935 94.6845 100.318C95.4562 99.7007 95.9964 98.8519 96.2279 97.8487C96.3822 97.2314 96.3822 96.5369 96.3822 95.9195C96.3051 94.762 95.6878 93.9131 94.7617 93.2186C93.6814 92.447 92.5238 92.2155 91.212 92.2155C90.3632 92.1383 89.2057 92.1383 88.0481 92.1383Z" fill="#5F7691"/>
<path d="M97.0001 95.7647C96.7686 95.6104 96.923 95.4561 96.923 95.3018H97.0001C97.0001 95.4561 97.0001 95.6104 97.0001 95.7647Z" fill="#5F7691"/>
<path d="M50.6992 0.0761719C50.9307 0.0761719 51.1622 0.0761719 51.4709 0.0761719C52.6284 0.230508 53.3229 0.925011 53.5544 2.08253C53.7087 2.69987 53.8631 3.31722 53.7859 3.93456C53.6316 4.86058 53.7088 5.78658 53.7088 6.7126C53.7088 7.87011 54.3261 8.6418 55.3293 9.18198C56.1781 9.64498 57.027 9.79931 57.953 9.64498C58.3388 9.56781 58.7246 9.41348 59.0333 9.18198C59.7278 8.71897 60.1908 8.10162 60.731 7.48427C61.3484 6.63543 61.9657 5.70942 62.8145 5.01491C63.6634 4.24323 64.5894 4.01173 65.6698 4.16607C66.5186 4.3204 66.8273 4.70624 66.9816 5.63225C66.9816 5.94092 66.9816 6.2496 66.9816 6.4811C66.9045 7.25278 66.5186 7.94729 66.2871 8.71896C65.9784 9.72215 65.4383 10.571 65.1296 11.5742C64.8209 12.423 64.9753 13.2719 65.6698 13.8892C66.0556 14.275 66.4414 14.5837 66.9044 14.8924C66.4414 14.9696 66.0556 15.0467 65.5926 15.1239C65.2067 15.2011 64.7437 15.2782 64.3579 15.3554C64.3579 15.2782 64.3579 15.2782 64.2808 15.2011C63.9721 14.8924 63.5862 14.6609 63.2775 14.4294C62.583 13.9664 61.8885 13.5034 61.1168 13.1175C60.268 12.6545 59.4192 12.2687 58.5703 11.96C57.953 11.7285 57.3356 11.497 56.6411 11.2655C56.1009 11.1112 55.5608 10.9568 55.0206 10.8025C54.5576 10.6482 54.0174 10.571 53.4773 10.4938C52.8599 10.3395 52.2426 10.3395 51.6252 10.2623C50.9307 10.1852 50.2362 10.2623 49.5417 10.108C48.9243 10.0308 48.307 10.108 47.6897 10.1851C47.1495 10.2623 46.5321 10.2623 45.992 10.2623C45.1431 10.3395 44.3714 10.4938 43.5226 10.571C43.4454 10.571 43.4454 10.571 43.3682 10.571C42.8281 10.7253 42.2879 10.8025 41.8249 10.8797C41.3619 10.9568 40.976 11.1112 40.513 11.1883C40.05 11.2655 39.5099 11.497 39.0469 11.6513C38.4295 11.8057 37.735 12.0372 37.1948 12.3458C36.346 12.7317 35.4971 13.1175 34.7254 13.6577C33.7223 14.275 32.7191 14.9696 31.8703 15.7412C30.7899 16.6673 29.8639 17.6704 28.9379 18.828C28.1662 19.8311 27.4717 20.9115 26.7772 21.9918C25.9283 23.3809 25.2338 24.847 24.6165 26.3132C24.3078 27.1621 23.9991 28.0881 23.8448 28.9369C23.6905 29.6315 23.5361 30.3259 23.3818 30.9433C23.2275 31.715 23.1503 32.4866 23.1503 33.2583C23.1503 34.4158 23.0731 35.5734 23.2275 36.6537C23.3046 37.4254 23.3818 38.2742 23.459 39.0459C23.5361 39.5861 23.6905 40.1263 23.7676 40.7436C23.7676 40.9751 23.8448 41.2066 23.9219 41.4381C24.0763 41.824 24.1535 42.2098 24.2306 42.5956C24.3078 42.9815 24.4622 43.2901 24.5393 43.676C24.6165 44.0618 24.848 44.4477 24.9252 44.8335C25.2338 45.7595 25.6196 46.6084 26.0055 47.38C26.7 48.6919 27.4717 49.9266 28.3205 51.1613C29.015 52.1644 29.8639 53.0133 30.7128 53.9393C31.0986 54.4023 31.5616 54.711 31.9474 55.0968C32.1789 55.2512 32.3333 55.4827 32.5648 55.637C33.4136 56.2543 34.1081 56.8717 34.957 57.489C35.6515 57.952 36.4232 58.415 37.1177 58.8009C37.8122 59.1867 38.5838 59.5725 39.3555 59.8812C39.7414 60.0356 40.1272 60.2671 40.5902 60.4214C41.2847 60.6529 41.9792 60.8844 42.7509 61.1159C43.5226 61.3474 44.2943 61.5018 45.1431 61.6561C45.6833 61.8104 46.3006 61.8104 46.8408 61.8876C47.4581 61.9648 48.0755 61.9648 48.6928 62.0419C49.5417 62.1963 50.4677 61.9648 51.3165 61.9648C51.7795 61.9648 52.3197 61.7332 52.7827 61.8104H52.8599C53.4001 61.6561 54.0174 61.5789 54.5576 61.5017C55.0206 61.4246 55.4064 61.3474 55.8694 61.1931C56.4868 61.0387 57.1041 60.8072 57.6443 60.6529C58.2616 60.4214 58.879 60.1899 59.4963 59.9584C60.8854 59.341 62.1972 58.6465 63.4319 57.7977C64.3579 57.1804 65.2839 56.4858 66.2099 55.7142C66.9816 55.0196 67.7533 54.4023 68.3706 53.6306C68.9108 52.9361 69.5282 52.3188 70.0683 51.6243C70.6085 50.9298 71.0715 50.2352 71.5345 49.4636C71.9203 48.8462 72.3062 48.1517 72.6149 47.4572C72.9235 46.8399 73.2322 46.1454 73.4637 45.4508C73.6952 44.9107 73.8495 44.2933 74.0039 43.7531C74.1582 43.3673 74.1582 42.9815 74.3126 42.6728C74.4669 42.2098 74.544 41.7468 74.6212 41.2066C74.6984 40.8208 74.7756 40.4349 74.7756 39.9719C74.8527 39.2003 75.0071 38.4286 75.0071 37.6569C75.0071 35.9592 75.0842 34.2615 74.8527 32.5638C74.8527 32.4866 74.8527 32.3323 74.7756 32.3323C74.8527 32.0236 75.0071 31.715 74.6984 31.4835C74.6984 30.9433 74.544 30.4803 74.4669 30.0173C74.3897 29.4771 74.2354 28.9369 74.0039 28.3196C73.7724 27.3936 73.3865 26.5447 73.0007 25.6959C72.8464 25.3872 72.7692 25.0785 72.5377 24.847C72.6148 24.6155 72.7692 24.4612 72.8464 24.2297C72.9235 24.0754 72.9235 23.9982 72.692 23.9982C72.5377 23.9982 72.3833 24.1525 72.1518 24.0754C72.1518 23.7667 71.9203 23.5352 71.766 23.3037C71.3802 22.6092 70.9172 21.9147 70.377 21.2202C70.7628 21.143 71.1487 21.2973 71.5345 21.3745C71.9203 21.4516 72.229 21.4516 72.6149 21.3745C72.8464 21.2973 73.0779 21.143 73.3865 21.2202C73.3094 21.5288 73.0779 21.7603 73.0779 22.069C72.9235 22.2233 72.9235 22.7635 73.0779 22.9178C73.155 23.6123 73.3865 24.2297 73.7724 24.7699C74.1582 25.3872 74.6212 25.9274 75.1614 26.3904C75.3929 26.6219 75.6244 26.4676 75.9331 26.4676C76.0874 26.4676 76.1646 26.4676 76.3189 26.4676C76.5504 26.4676 76.8591 26.4676 77.0906 26.4676C77.2449 26.4676 77.3993 26.5447 77.4764 26.3904C77.8623 26.3132 78.2481 26.3132 78.6339 26.2361C78.7883 26.2361 79.0198 26.3132 79.0969 26.1589C79.4828 26.0817 79.8686 26.0817 80.2545 26.0046C80.8718 26.0046 81.412 26.0046 82.0294 26.0046C82.5695 26.0817 83.1097 26.3132 83.4955 26.7762C83.727 27.0077 83.8814 27.3164 83.9585 27.6251C84.0357 28.1653 84.0357 28.7054 83.8814 29.1684C83.6498 29.9401 83.1097 30.4803 82.4152 30.789C81.5663 31.252 80.5631 31.5606 79.6371 31.7921C78.7883 32.0236 77.9394 32.3323 77.1677 32.9497C76.6276 33.4127 76.2417 33.9528 76.1646 34.6474C76.0874 34.6474 76.0874 34.7245 76.0874 34.8017C76.0874 35.1103 76.0874 35.419 76.0874 35.7277C76.0874 35.8049 76.0874 35.882 76.1646 35.882C76.2417 36.4994 76.4732 37.1167 76.7819 37.7341C77.2449 38.5057 78.0166 38.8144 78.7883 39.2003C79.56 39.5861 80.486 39.8176 81.3348 40.1263C82.2608 40.4349 83.1097 40.8208 83.727 41.5925C84.0357 41.9011 84.19 42.287 84.2672 42.6728C84.2672 42.9815 84.2672 43.3673 84.2672 43.676C84.19 44.2161 83.8042 44.5248 83.264 44.7563C82.6467 45.065 81.9522 44.9878 81.3348 44.9878C80.8718 44.9878 80.4088 44.9878 79.8686 44.9878C79.7143 44.9878 79.6371 44.9878 79.4828 44.9878C79.2513 44.7563 79.0198 44.9107 78.7111 44.9107C78.5568 44.9107 78.4796 44.9107 78.3253 44.9107C78.0938 44.6792 77.8623 44.8335 77.5536 44.8335C76.9362 44.7563 76.3961 44.7563 75.8559 45.065C75.1614 45.4508 74.7756 45.991 74.5441 46.6855C74.3897 46.8399 74.3897 47.38 74.5441 47.5344C74.6984 48.1517 75.0071 48.6147 75.4701 49.0006C76.0874 49.5407 76.7819 50.0037 77.5536 50.3896C78.3253 50.8526 79.0198 51.3156 79.6371 52.0101C79.9458 52.3188 80.1001 52.7046 80.2545 53.1676C80.2545 53.4763 80.2545 53.8621 80.2545 54.1708C80.1773 54.9425 79.56 55.7142 78.5568 55.8685C78.171 55.7142 77.7079 55.7913 77.2449 55.7913C76.0103 55.637 74.8527 55.2512 73.7724 54.5566C73.155 54.1708 72.4605 53.785 71.766 53.6306C71.303 53.5535 70.84 53.6306 70.377 53.785C69.6825 54.0165 68.988 54.4795 68.525 55.0968C68.1391 55.4827 67.8305 55.9457 67.7533 56.563C67.5218 56.7173 67.6761 56.9488 67.599 57.1803C67.599 57.4118 67.599 57.5662 67.599 57.7977C67.599 57.952 67.5218 58.1835 67.6761 58.2607C67.7533 58.8009 67.9848 59.1867 68.2934 59.6497C68.8336 60.4986 69.451 61.1931 69.914 62.1191C70.0683 62.5049 70.2227 62.8908 70.2998 63.3538C70.2998 63.8168 70.2998 64.2798 70.2998 64.7428C69.9912 65.3601 69.451 65.8231 68.8336 66.1318C67.8304 66.672 66.9044 66.4405 65.9784 65.8232C65.3611 65.4373 64.8981 65.0515 64.4351 64.5113C63.972 63.9711 63.509 63.3538 63.046 62.8136C62.583 62.2734 62.1972 61.6561 61.4255 61.4246C60.8854 61.2702 60.4224 61.2702 59.8822 61.4246C58.879 61.7332 58.1073 62.3506 57.4128 63.1223C57.027 63.5853 56.7954 64.1255 56.7183 64.7428C56.4868 64.9743 56.6411 65.2058 56.6411 65.4373C56.6411 65.9775 56.6411 66.5177 56.6411 67.0578C56.6411 67.4437 56.6411 67.8295 56.6411 68.2154C56.6411 68.2925 56.6411 68.3697 56.7183 68.4468C56.7183 68.6784 56.7183 68.8327 56.7183 69.0642C56.7183 69.45 56.7183 69.8359 56.7183 70.1445C56.6411 70.9162 56.3325 71.4564 55.638 71.8422C55.4836 71.9194 55.3293 71.9194 55.2521 71.9194C54.8663 71.9194 54.5576 71.9194 54.1717 71.9194C53.7859 71.9194 53.4772 71.6879 53.1686 71.4564C52.4741 70.839 52.1654 70.0674 51.8567 69.2185C51.548 68.2925 51.3166 67.2893 51.0079 66.2862C50.8535 65.746 50.6221 65.2058 50.3905 64.6656C50.2362 64.4341 50.0818 64.2798 49.7732 64.2026C49.233 64.1255 48.6928 63.9711 48.2298 63.8168C48.1526 63.8168 48.0755 63.7396 47.9983 63.7396C47.9983 63.6624 47.9211 63.6625 47.844 63.6625C47.5353 63.6625 47.2267 63.6625 46.918 63.6625C46.8408 63.6625 46.7636 63.6624 46.7636 63.7396C46.2235 63.8168 45.8376 64.1255 45.4518 64.5113C44.8344 65.2058 44.6029 66.0546 44.3714 66.9035C44.1399 67.598 43.9084 68.3697 43.6769 69.0642C43.5226 69.5272 43.2911 69.9902 42.9824 70.376C42.5966 70.8391 42.1336 71.1477 41.4391 71.2249C41.2847 71.2249 41.1304 71.2249 40.9761 71.2249C40.2044 71.2249 39.6642 70.7619 39.2012 70.1445C38.5067 69.0642 38.3523 67.9067 38.5838 66.7492C38.661 66.1318 38.8925 65.5145 39.124 64.8971C39.3555 64.0483 39.3555 63.2766 39.124 62.4278C39.0468 62.1963 38.8925 61.9647 38.7382 61.8104C38.1208 61.1159 37.4264 60.4986 36.5003 60.2671C35.5743 59.9584 34.7255 60.0356 33.8766 60.4986C33.4136 60.7301 32.9506 61.1159 32.6419 61.5017C32.1018 62.1191 31.5616 62.7364 31.0214 63.4309C30.4812 64.0483 29.7867 64.6656 28.9379 64.82C28.0118 64.9743 27.163 64.82 26.5457 63.9711C26.3142 63.6625 26.1598 63.3538 26.1598 62.9679C26.1598 62.5821 26.1598 62.1191 26.1598 61.7333C26.3142 60.7301 26.7 59.7269 27.2402 58.878C27.626 58.3379 28.0119 57.7977 28.3977 57.1803C28.7064 56.563 28.8607 55.9457 28.7836 55.2511C28.7836 55.0968 28.8607 54.8653 28.7064 54.7882C28.4749 54.0165 28.089 53.4763 27.4717 52.9361C26.7772 52.3959 26.0055 52.0873 25.1567 52.2416C24.4622 52.3959 23.6905 52.5503 22.996 52.7818C22.3015 53.0133 21.5297 53.1676 20.8352 53.322C20.2179 53.4763 19.6006 53.5535 18.9832 53.5535C18.8289 53.5535 18.7517 53.5535 18.5974 53.5535C18.2116 53.5535 17.8257 53.5535 17.4399 53.322C16.8997 53.0133 16.6682 52.6275 16.591 52.0873C16.4367 51.0069 16.8997 50.2352 17.5942 49.4636C17.9801 49.0777 18.4431 48.6919 18.9832 48.3832C19.5234 47.9974 20.0636 47.6115 20.6809 47.3029C21.2983 46.917 21.7613 46.5312 22.2243 45.991C22.3786 45.8367 22.4558 45.6824 22.4558 45.4508C22.4558 45.1422 22.4558 44.7563 22.4558 44.4477C22.4558 44.2933 22.4558 44.139 22.4558 43.9847C22.4558 43.8303 22.5329 43.5988 22.3786 43.4445C22.3014 42.75 22.1471 42.0555 21.7613 41.4381C21.5298 41.0523 21.2983 40.5893 20.7581 40.4349C20.6038 40.2806 20.4494 40.3578 20.2951 40.3578C20.1408 40.3578 20.0636 40.3578 19.9093 40.3578C19.8321 40.2806 19.7549 40.2806 19.6777 40.2806C19.1375 40.2806 18.5974 40.2806 18.0572 40.2806C17.7485 40.2806 17.4399 40.2806 17.2084 40.2806C17.2084 40.2034 17.054 40.2034 16.9768 40.2034C16.6682 40.2034 16.3595 40.2034 16.0509 40.2034C15.202 40.1263 14.4303 39.9719 13.7358 39.5861C13.2728 39.3546 13.0413 38.9688 12.9642 38.5057C12.8098 37.8884 12.7326 37.2711 13.0413 36.6537C13.35 36.0364 13.8902 35.6505 14.5075 35.419C15.5107 35.0332 16.591 34.8789 17.6714 34.6474C18.3659 34.493 19.1376 34.4158 19.8321 34.1072C20.4494 33.8757 21.1439 33.567 21.4526 32.8725C21.6841 32.3323 21.8384 31.7922 21.9156 31.252C21.9928 30.8661 21.9928 30.4031 21.9928 30.0173C21.9928 29.863 22.0699 29.6314 21.9156 29.5543C21.6841 29.0141 21.4526 28.6283 20.9896 28.2424C20.0636 27.5479 18.9061 27.1621 17.8257 26.6991C16.9769 26.3132 16.2052 26.0046 15.5107 25.31C15.1248 24.9242 14.8934 24.5384 14.8934 23.921C14.8162 22.8407 15.202 21.9147 16.0509 21.2973C16.4367 20.9886 16.8997 20.7571 17.3627 20.7571C17.8257 20.7571 18.3659 20.7571 18.8289 20.7571C19.4462 20.8343 20.0636 21.0658 20.6037 21.2202C21.2211 21.4517 21.8384 21.6832 22.5329 21.7603C22.5329 21.8375 22.6101 21.8375 22.6873 21.8375C22.996 21.8375 23.3046 21.8375 23.6133 21.8375C23.6905 21.8375 23.7676 21.8375 23.7676 21.7603C24.3078 21.5288 24.848 21.2973 25.1567 20.8343C25.5425 20.3713 25.8512 19.8311 26.0055 19.291C26.237 18.365 26.0055 17.5161 25.6196 16.7444C25.2338 15.9727 24.6936 15.2011 24.2306 14.4294C23.6905 13.6577 23.1503 12.886 22.7644 12.0372C22.6101 11.7285 22.5329 11.497 22.5329 11.1883C22.5329 11.034 22.5329 10.8797 22.5329 10.7253C22.6101 10.108 22.9188 9.64498 23.3818 9.25914C23.6133 9.1048 23.6905 8.79613 23.9991 8.8733C24.2306 8.8733 24.4622 8.8733 24.7708 8.8733C25.5425 8.95047 26.1598 9.3363 26.7772 9.79931C27.3945 10.1851 27.8575 10.7253 28.4749 11.1883C28.9379 11.5742 29.3237 11.8828 29.7867 12.1915C30.0954 12.423 30.4041 12.5774 30.7899 12.6545C31.0214 12.8089 31.6388 12.8089 31.8703 12.6545C32.4876 12.5002 32.9506 12.1915 33.4908 11.96C34.1081 11.6513 34.5711 11.2655 35.1113 10.8025C35.3428 10.571 35.4971 10.3395 35.6515 10.0308C35.8058 9.95365 35.7287 9.79931 35.7287 9.64498C35.7287 9.49064 35.7287 9.41347 35.7287 9.25914C35.7287 9.02763 35.8058 8.79613 35.6515 8.64179C35.42 7.56144 35.0341 6.4811 34.7254 5.40075C34.5711 4.70624 34.4168 3.93456 34.5711 3.24005C34.6483 2.46837 35.1113 1.85103 35.8058 1.54236C36.4232 1.31085 36.9633 1.38802 37.5807 1.61953C38.1208 1.85103 38.661 2.23687 39.124 2.69987C39.6642 3.31722 40.1272 3.93456 40.3587 4.70624C40.6674 5.47792 40.8217 6.32677 41.2076 7.02128C41.5934 7.71579 42.1336 8.25596 42.9053 8.4103C43.5226 8.56463 44.1399 8.56463 44.6801 8.48746C45.6833 8.33312 46.6865 7.87011 47.381 7.09844C47.6897 6.7126 47.844 6.17243 47.9983 5.70942C48.2298 4.70624 48.0755 3.70305 48.1527 2.69987C48.1527 2.23687 48.2298 1.77386 48.4613 1.31085C48.77 0.693507 49.233 0.307675 49.8504 0.0761719C50.0047 0.230508 50.3134 0.0761719 50.6992 0.0761719Z" fill="#A7B3C8"/>
<path d="M73.2323 21.6075C72.9236 21.6075 72.6921 21.6847 72.4606 21.7619C72.0748 21.839 71.7661 21.839 71.3802 21.7619C70.9944 21.6847 70.6086 21.5304 70.2227 21.6075C70.1456 21.6075 70.0684 21.5304 69.9912 21.5304C69.1424 21.4532 68.3707 21.2988 67.5219 21.2988C66.3643 21.2988 65.2068 21.2217 64.0493 21.376C63.432 21.4532 62.8146 21.6075 62.1973 21.839C61.3485 22.1477 60.4996 22.6107 59.7279 23.1509C58.4161 24.0769 57.2585 25.0801 56.4869 26.5463C56.3325 26.8549 56.1011 27.1636 56.1782 27.5494C56.4097 27.4723 56.4097 27.3179 56.4869 27.1636C57.027 26.5463 57.6444 26.0061 58.3389 25.5431C59.1106 25.0029 59.8823 24.6171 60.7311 24.3084C61.5799 23.9997 62.3516 23.7682 63.2776 23.8454C63.7406 23.8454 64.2037 23.8454 64.5895 23.9226C65.2068 23.9997 65.8242 24.1541 66.4415 24.2312C66.673 24.2312 66.9045 24.3084 67.0589 24.3856C67.6762 24.6171 68.3707 24.7714 69.0652 24.8486C69.9912 24.9257 70.9173 24.7714 71.8433 24.6171C72.0748 24.6942 72.152 24.5399 72.3835 24.5399C72.615 24.5399 72.6149 24.6171 72.5378 24.7714C72.4606 25.0029 72.3063 25.1573 72.2291 25.3888C71.9205 25.6203 71.6889 25.9289 71.3031 26.1604C70.4543 26.6234 69.5283 26.9321 68.5251 26.9321C67.4447 26.9321 66.2872 26.9321 65.2068 26.7006C64.6666 26.6234 64.2037 26.4691 63.7407 26.2376C62.969 25.9289 62.2745 25.7746 61.5028 25.6974C60.8083 25.6203 60.1909 25.8518 59.5736 26.0833C58.3389 26.6234 57.4129 27.5495 56.5641 28.4755C56.4869 28.5526 56.4097 28.6298 56.4097 28.707C56.3326 29.0928 56.2554 29.4786 56.1782 29.8645C56.1782 30.096 56.0239 30.096 55.9467 30.0188C55.7923 29.9417 55.638 29.9416 55.4837 29.7873C54.8664 29.4015 54.5577 28.7841 54.4033 28.0896C54.249 27.318 54.1719 26.4691 54.249 25.6202C54.3262 24.6171 54.4805 23.6911 54.6349 22.7651C54.712 22.2249 54.9435 21.6847 55.2522 21.2217C56.2554 19.6783 57.6444 18.5208 59.1877 17.5948C59.9594 17.1318 60.8083 16.746 61.58 16.4373C62.506 16.0514 63.432 15.8199 64.358 15.5884C64.7438 15.5113 65.2068 15.4341 65.5927 15.3569C66.0557 15.2798 66.4415 15.2026 66.9045 15.1254C67.2904 15.0483 67.5991 15.0483 67.9849 14.9711C68.2164 14.9711 68.5251 15.0483 68.7566 14.8168C68.8337 14.8168 68.9109 14.8168 68.9881 14.8168C69.2196 14.8168 69.5282 14.8939 69.7597 14.7396C69.9141 14.7396 69.9912 14.7396 70.1456 14.7396C70.3771 14.7396 70.6858 14.8168 70.9173 14.6624C71.7661 14.5081 72.6149 14.1994 73.4638 13.8907C74.004 13.7364 74.5442 13.5049 75.0843 13.1962C76.1647 12.7332 77.1679 12.2702 78.2482 11.73C78.7112 11.4985 79.1742 11.1899 79.6372 10.9584C79.8687 10.8812 80.023 10.7269 80.2545 10.5725C80.3317 10.4954 80.4089 10.4954 80.4861 10.5725C80.5633 10.6497 80.4861 10.6497 80.4089 10.7269C80.1002 11.3442 79.6372 11.8072 79.1742 12.3474C79.0199 12.5017 78.8656 12.5789 78.7884 12.7332C78.3254 13.1962 77.7852 13.5821 77.245 13.8907C77.1679 13.9679 77.1678 13.9679 77.1678 14.0451C77.0907 14.0451 77.0135 14.0451 76.9363 14.1222C76.1647 14.5853 75.3158 14.9711 74.5442 15.3569C73.6181 15.7428 72.6921 16.0514 71.7661 16.2829C70.9944 16.5144 70.2227 16.6688 69.4511 16.7459C68.6794 16.8231 67.9077 16.9774 67.136 17.0546C66.9817 17.0546 66.7502 17.0546 66.5959 17.209C66.1329 17.209 65.6698 17.209 65.2068 17.2861C64.5123 17.3633 63.895 17.4405 63.2005 17.5176C62.5831 17.5948 61.9658 17.8263 61.4256 18.135C60.4224 18.598 59.4964 19.061 58.7248 19.7555C57.7216 20.5272 56.9499 21.5304 56.4097 22.6879C56.1782 23.1509 56.0239 23.6139 55.9467 24.0769C55.8695 24.4627 55.7152 24.9257 55.7924 25.3888C56.5641 23.9997 57.2586 23.2281 58.3389 22.302C59.4964 21.2989 60.8855 20.6815 62.3517 20.1413C63.2005 19.8327 64.1265 19.6012 65.0525 19.524C65.5927 19.4468 66.1328 19.3697 66.7502 19.3697C67.3675 19.3697 67.9849 19.3697 68.5251 19.3697C69.2196 19.3697 69.9141 19.524 70.5314 19.6012C71.0716 19.6783 71.5346 19.8327 71.9976 19.987C72.3063 20.0642 72.5378 20.2185 72.9236 20.1413C73.0779 20.1413 73.1551 20.0642 73.3094 19.987C73.6953 19.9098 74.0811 19.8327 74.467 19.6783C75.0843 19.4468 75.6245 19.1382 76.2419 18.8295C76.3962 18.7523 76.3962 18.9067 76.3962 18.9067C76.319 19.4468 76.0875 19.8327 75.7017 20.2185C74.8528 20.913 74.0811 21.2217 73.2323 21.6075Z" fill="#5F7691"/>
<path d="M27.3174 107.958C27.3946 107.958 27.3946 107.958 27.4718 107.958C27.549 107.958 27.7033 108.035 27.7033 107.881H27.7804C27.8576 107.881 27.9348 107.881 27.9348 107.803C28.0119 107.803 28.0891 107.803 28.0891 107.649C28.1663 107.572 28.2434 107.495 28.3206 107.34C28.3978 107.34 28.475 107.34 28.3978 107.263C28.475 107.263 28.475 107.186 28.475 107.186V107.109C28.5521 107.109 28.6293 107.032 28.6293 106.955C28.7065 106.955 28.7836 106.955 28.7065 106.8V106.723C28.7836 106.723 28.8608 106.646 28.7837 106.569C28.8608 106.492 28.9379 106.414 28.9379 106.337C29.0151 106.337 29.0923 106.26 29.0923 106.183V106.106C29.1695 106.106 29.2467 106.029 29.1695 105.951C29.1695 105.874 29.1695 105.874 29.1695 105.797C29.2467 105.797 29.3238 105.72 29.2466 105.643C29.2466 105.566 29.2466 105.566 29.2466 105.488C29.3238 105.488 29.401 105.411 29.3238 105.334C29.3238 105.257 29.3238 105.257 29.3238 105.18C29.401 105.18 29.4782 105.103 29.401 105.025C29.401 104.948 29.401 104.948 29.401 104.871C29.4782 104.871 29.5553 104.794 29.4781 104.717V104.64C29.6325 104.562 29.6325 104.485 29.6325 104.408C29.7096 104.254 29.7096 103.945 29.864 103.945C30.0955 103.868 30.4041 103.945 30.6356 103.945C30.79 103.945 30.7128 104.099 30.7128 104.177C30.6357 104.254 30.6356 104.331 30.6356 104.408C30.6356 104.794 30.6356 105.18 30.6356 105.566C30.6356 105.797 30.6356 105.951 30.6356 106.183C30.5585 106.26 30.5585 106.337 30.5585 106.414C30.5585 106.8 30.5585 107.186 30.5585 107.572C30.5585 107.881 30.5585 108.112 30.5585 108.421C30.327 108.652 30.4813 108.961 30.4813 109.192C25.6969 109.192 20.8354 109.192 16.051 109.192C15.9738 109.192 15.8194 109.192 15.7423 109.192C15.7423 108.961 15.7423 108.807 15.7423 108.575C15.7423 108.421 15.8194 108.344 15.9738 108.344C16.2053 108.344 16.5139 108.421 16.7454 108.266C16.9769 108.266 17.2084 108.189 17.5171 108.112C17.5943 108.112 17.7486 108.112 17.7486 107.958C17.8258 107.958 17.903 107.958 17.903 107.803C17.9801 107.803 17.9802 107.803 17.9802 107.803C18.0573 107.726 18.1345 107.726 18.1345 107.572C18.2116 107.572 18.2888 107.495 18.2116 107.418C18.2116 107.34 18.2116 107.263 18.2116 107.186C18.4432 107.109 18.2888 106.877 18.2888 106.8C18.2888 104.177 18.2888 101.553 18.2888 98.9291C18.2888 97.3086 18.2888 95.6109 18.2888 93.9904C18.2888 93.8361 18.366 93.6817 18.2116 93.6817C18.1345 93.2187 17.903 92.9872 17.44 92.8329C17.44 92.7557 17.3628 92.6785 17.2856 92.7557C17.0541 92.6785 16.8998 92.6785 16.6683 92.6014C16.5911 92.447 16.4368 92.5242 16.2825 92.5242C15.7423 92.447 15.5879 92.2927 15.7423 91.7525C15.7423 91.6754 15.8194 91.521 15.9738 91.5982C16.0509 91.5982 16.1281 91.5982 16.2053 91.5982C20.6038 91.5982 25.0796 91.5982 29.4781 91.5982C29.4781 93.0644 29.4781 94.4534 29.4781 95.9196C29.3238 95.9196 29.1695 95.9196 29.0151 95.9196C28.475 95.9196 28.475 95.9196 28.3206 95.3794C28.3206 95.3022 28.3206 95.2251 28.2435 95.2251C28.2435 95.1479 28.2435 95.1479 28.2435 95.0707C28.2435 94.9936 28.2434 94.9164 28.1663 94.9164C28.1663 94.8392 28.1663 94.8392 28.1663 94.7621C28.1663 94.6849 28.0891 94.6849 28.0891 94.6077C28.0891 94.5306 28.0891 94.4534 27.9348 94.3762C27.7804 94.1447 27.6261 93.9132 27.3946 93.7589C27.3946 93.6817 27.3946 93.6045 27.3174 93.6045C27.3174 93.5274 27.3174 93.4502 27.1631 93.4502C27.1631 93.373 27.1631 93.2959 27.0088 93.2959C27.0088 93.2187 27.0088 93.1415 26.8545 93.1415C26.8545 93.0644 26.7773 92.9872 26.7001 92.9872C26.7001 92.91 26.6229 92.8329 26.5458 92.91C26.1599 92.6014 25.7741 92.5242 25.3111 92.5242C25.3111 92.3699 25.1567 92.447 25.0796 92.447C23.7677 92.447 22.3787 92.447 21.0669 92.447C20.9125 92.447 20.8353 92.5242 20.8353 92.6785C20.8353 94.9164 20.8353 97.1543 20.8353 99.315C20.8353 99.3921 20.8353 99.5465 20.9897 99.4693C21.7613 99.4693 22.4559 99.4693 23.2276 99.4693C23.4591 99.4693 23.7677 99.5465 23.9992 99.3921C24.2307 99.315 24.4622 99.315 24.6166 99.1606C24.6937 99.1606 24.7709 99.1606 24.7709 99.0835C24.8481 99.0835 24.9253 99.0835 24.9253 98.9291C25.0024 98.9291 25.0796 98.852 25.0796 98.7748C25.1567 98.7748 25.2339 98.6976 25.2339 98.6205C25.4654 98.3118 25.6198 97.926 25.6969 97.6173C25.8513 97.4629 25.8512 97.3086 25.8512 97.1543V97.0771C26.0056 96.9999 25.9284 96.8456 26.0056 96.6913C26.2371 96.6913 26.3914 96.6913 26.6229 96.6913C26.8544 96.6913 26.9316 96.7684 26.9316 96.9999C26.9316 98.3889 26.9316 99.778 26.9316 101.09C26.9316 101.862 26.9316 102.556 26.9316 103.328C26.9316 103.482 26.9316 103.559 26.7773 103.559C26.5458 103.559 26.2371 103.559 26.0056 103.559C26.0056 103.328 25.9284 103.173 25.9284 102.942C25.9284 102.788 25.9284 102.633 25.7741 102.556C25.7741 102.325 25.6197 102.093 25.6197 101.784C25.6197 101.707 25.6198 101.63 25.5426 101.63V101.553C25.5426 101.476 25.5426 101.399 25.3882 101.399C25.1567 101.167 24.9252 100.858 24.6166 100.781C24.5394 100.627 24.385 100.627 24.3079 100.704C24.1535 100.704 24.0764 100.704 23.922 100.704C23.922 100.627 23.8449 100.627 23.7677 100.627C22.9961 100.627 22.1472 100.627 21.3755 100.627C21.2212 100.627 21.144 100.704 21.144 100.858C21.144 102.788 21.144 104.64 21.144 106.569C21.144 106.646 21.144 106.8 21.2212 106.8C21.2212 106.877 21.2212 106.955 21.2212 107.032C21.2212 107.186 21.144 107.34 21.3755 107.418C21.3755 107.495 21.3755 107.649 21.5299 107.649C21.607 107.881 21.8385 107.958 22.07 108.035C22.1472 108.189 22.3015 108.189 22.4559 108.189C22.533 108.189 22.5331 108.189 22.6102 108.189C22.6874 108.266 22.7645 108.266 22.9189 108.266C23.3047 108.266 23.6906 108.266 24.1536 108.266C24.6166 108.266 25.1567 108.266 25.6197 108.266C25.7741 108.266 25.9284 108.266 26.0828 108.266C26.3143 108.266 26.623 108.344 26.8545 108.112C26.9316 108.112 27.0088 108.112 27.0859 108.112C27.0859 108.035 27.2403 108.035 27.3174 107.958Z" fill="#5F7691"/>
<path d="M10.0318 102.248C10.0318 102.171 10.0318 102.171 10.0318 102.248C10.0318 102.093 10.0319 102.016 9.87752 102.016C9.56885 101.322 9.10582 100.936 8.41131 100.782C8.25698 100.55 8.02548 100.704 7.79398 100.704C7.0223 100.704 6.2506 100.704 5.55609 100.704C5.40176 100.704 5.3246 100.704 5.3246 100.859C5.3246 102.942 5.3246 105.026 5.3246 107.032C5.3246 107.187 5.24741 107.264 5.40175 107.341C5.40175 107.418 5.40175 107.418 5.40175 107.495C5.40175 107.572 5.40178 107.572 5.47894 107.65C5.47894 107.727 5.47895 107.804 5.63329 107.804C5.63329 107.881 5.71042 107.958 5.78759 107.958C5.78759 108.035 5.86476 108.113 5.94193 108.035H6.01913C6.01913 108.19 6.17345 108.113 6.25062 108.113C6.32779 108.113 6.3278 108.113 6.40497 108.113C6.48213 108.267 6.63647 108.267 6.79081 108.19C6.86797 108.19 6.94513 108.19 7.0223 108.19C7.17664 108.344 7.33095 108.267 7.48529 108.267C7.63962 108.267 7.79395 108.344 7.71678 108.498C7.71678 108.73 7.71678 108.884 7.71678 109.116C5.17024 109.116 2.62371 109.116 0 109.116C0 108.884 0 108.73 0 108.498C0 108.267 0.0772055 108.19 0.231541 108.267C0.540212 108.267 0.848865 108.344 1.08037 108.19C1.46621 108.19 1.85207 108.113 2.16074 107.804C2.31507 107.65 2.39221 107.418 2.46938 107.187C2.46938 107.109 2.46938 106.955 2.46938 106.878C2.46938 102.557 2.46938 98.3123 2.46938 93.9909C2.46938 93.3735 2.23788 92.9105 1.6977 92.7562C1.54337 92.679 1.38905 92.6019 1.23471 92.6019C0.926042 92.5247 0.617361 92.3703 0.30869 92.4475C1.88352e-05 92.3703 0.0771961 92.1388 0.0771961 91.9073C0.0771961 91.753 0.0771961 91.5987 0.0771961 91.4443C4.70727 91.4443 9.33733 91.4443 13.9674 91.4443C13.9674 92.9105 13.9674 94.4539 13.9674 95.9201C13.8131 95.9201 13.6587 95.9201 13.5044 95.9201C12.9642 95.9201 12.9642 95.9201 12.887 95.457C12.887 95.3799 12.887 95.2256 12.7327 95.2256C12.7327 95.1484 12.7327 95.1484 12.7327 95.0712C12.7327 94.994 12.7327 94.9169 12.6555 94.9169C12.6555 94.8397 12.6555 94.8397 12.6555 94.7625C12.6555 94.6854 12.6556 94.6854 12.5784 94.6082C12.5784 94.531 12.5784 94.3767 12.424 94.3767C12.424 94.2995 12.424 94.2224 12.3469 94.2224V94.1452C12.3469 94.068 12.2697 94.068 12.2697 93.9909C12.2697 93.9137 12.2697 93.8365 12.1926 93.8365C12.1926 93.7594 12.1154 93.6822 12.0382 93.605C11.8067 93.3735 11.6524 93.142 11.4209 92.9877C11.4209 92.9105 11.4209 92.8333 11.2665 92.8333C11.2665 92.7562 11.1894 92.679 11.1122 92.7562H11.035C11.035 92.679 10.9579 92.6018 10.8807 92.679C10.572 92.6018 10.3405 92.5247 10.0318 92.5247C10.0318 92.3703 9.87749 92.4475 9.80032 92.4475C8.4113 92.4475 7.02231 92.4475 5.63329 92.4475C5.55612 92.4475 5.40178 92.4475 5.47894 92.6019C5.47894 94.9169 5.47894 97.2319 5.47894 99.547C5.47894 99.7013 5.55612 99.7013 5.63329 99.7013C6.40497 99.7013 7.09945 99.7013 7.87113 99.7013C7.9483 99.7013 8.10262 99.7013 8.10262 99.6241C8.25696 99.6241 8.33412 99.6241 8.48846 99.6241C8.6428 99.6241 8.79713 99.7013 8.8743 99.547C9.02864 99.6241 9.1058 99.3926 9.26014 99.3926C9.33731 99.3926 9.41448 99.3926 9.41448 99.3154H9.49168C9.56885 99.3154 9.646 99.3155 9.56883 99.1611C9.95467 98.7753 10.2633 98.3123 10.3405 97.7721C10.4948 97.6949 10.4177 97.6178 10.4177 97.5406C10.4948 96.8461 10.4949 96.8461 11.2665 96.8461C11.3437 96.8461 11.3437 96.8461 11.4209 96.8461C11.4209 97.0004 11.4209 97.0776 11.4209 97.2319C11.4209 99.3155 11.4209 101.476 11.4209 103.56C11.4209 103.714 11.4209 103.791 11.4209 103.946C11.3437 103.946 11.1894 103.946 11.1122 103.946C10.4948 103.946 10.4948 103.946 10.4177 103.328C10.4177 103.251 10.4177 103.251 10.4177 103.174C10.4177 103.019 10.4177 102.942 10.3405 102.788C10.1862 102.479 10.1862 102.325 10.0318 102.248Z" fill="#5F7691"/>
<path d="M44.6032 96.9995C44.6803 97.3082 44.9118 97.6169 44.989 98.0027C44.989 98.0799 44.989 98.2342 45.1433 98.2342V98.3114C45.1433 98.3886 45.1433 98.5429 45.2205 98.5429C45.3748 98.9287 45.452 99.2374 45.6063 99.6232C45.6063 99.7004 45.6063 99.7776 45.6835 99.7776V99.8547C45.6835 99.9319 45.6835 100.009 45.7607 100.086C45.8378 100.472 46.0693 100.858 46.1465 101.244C46.1465 101.321 46.1465 101.398 46.2237 101.398C46.2237 101.475 46.1465 101.63 46.378 101.63V101.707C46.378 101.784 46.378 101.938 46.5323 101.938V102.015C46.5323 102.093 46.5323 102.247 46.6095 102.247C46.6867 102.633 46.9182 102.941 46.9953 103.327C46.9953 103.404 46.9953 103.482 47.0725 103.482C47.0725 103.559 47.0725 103.559 47.0725 103.636C47.0725 103.713 47.0725 103.79 47.1497 103.79C47.2268 104.176 47.4584 104.562 47.5355 104.948C47.5355 105.025 47.5355 105.102 47.6127 105.102V105.179C47.6127 105.256 47.6127 105.334 47.6899 105.411C47.767 105.874 47.9985 106.337 48.23 106.8C48.23 106.877 48.23 106.954 48.3072 106.954V107.031C48.3072 107.109 48.3844 107.186 48.4615 107.186C48.4615 107.263 48.5387 107.34 48.5387 107.34C48.5387 107.417 48.6159 107.417 48.693 107.494C48.693 107.572 48.7702 107.649 48.8474 107.572C48.8474 107.649 48.9245 107.726 49.0017 107.726C49.0017 107.726 49.0017 107.726 49.0789 107.726C49.0789 107.803 49.1561 107.88 49.2332 107.803C49.6191 108.035 50.1592 108.112 50.6222 108.189C50.6222 108.42 50.6222 108.652 50.6222 108.806C50.6222 108.961 50.5451 109.038 50.3907 109.038C47.9985 109.038 45.6835 109.038 43.2913 109.038C43.2913 108.806 43.2913 108.575 43.2913 108.343C43.2913 108.266 43.2913 108.112 43.4456 108.189C43.7543 108.189 44.063 108.266 44.2945 108.035C44.6031 107.957 44.989 107.88 45.2976 107.803C45.5291 107.726 45.6063 107.494 45.5291 107.186C45.452 106.954 45.3748 106.646 45.2976 106.414C45.2976 106.337 45.2977 106.182 45.2205 106.182V106.105C45.2205 106.028 45.2205 105.874 45.0661 105.874C44.9118 105.565 44.8346 105.179 44.6803 104.871C44.6803 104.793 44.7575 104.639 44.6032 104.639C44.526 104.33 44.4488 104.099 44.3716 103.79C44.3716 103.713 44.3716 103.636 44.2945 103.636C44.063 102.864 44.1401 103.019 43.4456 103.019C41.6708 103.019 39.8959 103.019 38.121 103.019C37.9667 103.019 37.8123 103.019 37.8123 103.25C37.658 103.25 37.7352 103.404 37.658 103.482C37.658 103.482 37.5809 103.482 37.5809 103.559C37.5809 103.559 37.5809 103.559 37.658 103.559C37.4265 103.79 37.4265 104.099 37.3494 104.408C37.1179 105.179 36.8092 105.951 36.6548 106.8C36.6548 106.954 36.5777 107.186 36.732 107.34C36.732 107.417 36.732 107.494 36.8092 107.494C36.8092 107.572 36.8092 107.649 36.8864 107.572C36.8864 107.649 36.9635 107.726 37.0407 107.726C37.1178 107.803 37.195 107.803 37.2722 107.803C37.3494 107.88 37.4265 107.957 37.5037 107.88C37.5809 107.88 37.5809 107.88 37.658 107.88C37.7352 107.957 37.8895 108.035 38.0439 107.957C38.1211 107.957 38.1982 107.957 38.2754 107.957C38.5069 108.189 38.8156 108.035 39.0471 108.035C39.2014 108.035 39.2014 108.112 39.2014 108.189C39.2014 108.42 39.2014 108.652 39.2014 108.883C36.9635 108.883 34.7257 108.883 32.4878 108.883C32.4878 108.652 32.4878 108.498 32.4878 108.266C32.4878 108.035 32.5649 107.957 32.7964 107.957C33.1051 107.957 33.4138 107.803 33.7997 107.726C33.8768 107.726 33.954 107.726 33.954 107.649C34.3398 107.494 34.6485 107.186 34.9572 106.877C35.1115 106.877 35.1115 106.723 35.1115 106.646C35.1886 106.646 35.2658 106.568 35.1887 106.491C35.2658 106.26 35.4202 106.105 35.4202 105.874C35.5745 105.874 35.5745 105.797 35.4973 105.642C35.5745 105.488 35.5745 105.334 35.6517 105.179C35.806 105.179 35.7289 105.102 35.7289 104.948C35.806 104.793 35.806 104.639 35.8831 104.485C36.0375 104.485 35.9603 104.33 36.0375 104.253C36.1147 104.099 36.1147 104.022 36.1918 103.867C36.3462 103.867 36.269 103.713 36.3462 103.636C36.6549 102.787 37.0407 101.938 37.3494 101.167C37.5037 101.167 37.5037 101.012 37.5037 100.935V100.858C37.658 100.858 37.658 100.704 37.658 100.626V100.549C37.8124 100.549 37.7352 100.395 37.8123 100.318C37.9667 99.9319 38.121 99.4689 38.2754 99.0831C38.4297 99.0831 38.4297 98.9287 38.4297 98.8515V98.7744C38.5841 98.7744 38.584 98.62 38.584 98.5429V98.4657C38.7384 98.4657 38.6612 98.3114 38.7384 98.2342C38.8927 97.7712 39.1242 97.3854 39.2786 96.8452C39.4329 96.8452 39.3557 96.768 39.3557 96.6137C39.51 96.1507 39.6644 95.6877 39.8187 95.3018C39.9731 95.3018 39.9731 95.1475 39.9731 95.0703V94.9932C40.1274 94.9932 40.1274 94.8388 40.1274 94.7617V94.6845C40.2817 94.6845 40.2046 94.6073 40.2046 94.453C40.3589 93.99 40.5132 93.6041 40.6676 93.1411C40.8219 93.1411 40.8219 92.9868 40.8219 92.9096V92.8325C40.9762 92.8325 40.9763 92.6781 40.9763 92.601V92.5238C41.1306 92.5238 41.0534 92.3695 41.1306 92.2923C41.2849 91.9836 41.3621 91.675 41.5164 91.3663C41.5936 91.2119 41.6707 91.1348 41.8251 91.1348C42.0566 91.1348 42.2109 91.1348 42.4424 91.1348C42.5196 91.1348 42.5968 91.1348 42.674 91.2891C42.674 91.3663 42.6739 91.4435 42.7511 91.4435C42.7511 91.8293 43.0598 92.138 43.1369 92.5238C43.1369 92.601 43.137 92.7553 43.2913 92.7553V92.8325C43.2913 92.9096 43.2913 93.064 43.3684 93.064C43.5228 93.4498 43.5999 93.7585 43.7543 94.1443C43.7543 94.2215 43.7543 94.2987 43.8315 94.2987V94.3758C43.8315 94.453 43.8315 94.5301 43.9086 94.6073C43.9858 94.9932 44.2173 95.379 44.2945 95.7648C44.2945 95.842 44.2944 95.9192 44.3716 95.9192C44.3716 95.9963 44.2945 96.1507 44.526 96.1507V96.2278C44.526 96.305 44.526 96.4594 44.6803 96.4594V96.5365C44.4488 96.8452 44.4488 96.9224 44.6032 96.9995ZM41.0534 95.1475C40.8991 95.2247 40.8991 95.379 40.8219 95.5333C40.4361 96.5365 40.0502 97.5397 39.5872 98.5429C39.2014 99.5461 38.8156 100.626 38.4297 101.63C38.2754 101.938 38.4297 101.938 38.6612 101.938C40.2817 101.938 41.8251 101.938 43.4456 101.938C43.5228 101.938 43.5999 101.938 43.7543 101.938C42.8283 99.6232 41.9794 97.3854 41.0534 95.1475Z" fill="#5F7691"/>
<path d="M23.6906 116.37C23.4591 116.37 23.3047 116.37 23.0732 116.37C23.0732 116.293 22.9189 116.293 22.8417 116.293C22.5331 116.293 22.1472 116.293 21.8386 116.293C21.6071 116.293 21.3756 116.293 21.0669 116.293C21.0669 116.215 20.9125 116.215 20.8353 116.215C20.4495 116.215 20.0637 116.215 19.6778 116.215C19.5235 116.215 19.3692 116.215 19.1377 116.215C19.6779 115.907 24.1536 114.904 25.8513 114.749C26.0056 114.749 26.2371 114.826 26.3143 114.672C27.0088 114.595 27.6261 114.518 28.3206 114.441C28.5521 114.441 28.8608 114.518 29.0923 114.286C29.1695 114.286 29.2466 114.286 29.3238 114.286C29.5553 114.286 29.864 114.363 30.0955 114.209C30.2498 114.209 30.327 114.209 30.4813 114.209C30.7128 114.209 31.0215 114.286 31.253 114.132C31.4073 114.132 31.5617 114.132 31.716 114.132C31.9475 114.132 32.2562 114.209 32.4877 114.055C32.6421 114.055 32.7964 114.055 32.9507 114.055C33.105 114.055 33.2594 114.055 33.4909 114.055C33.6452 114.055 33.8767 114.132 33.9539 113.978C34.1854 113.978 34.3398 113.978 34.5713 113.978C34.8799 113.978 35.1114 113.978 35.4201 113.978C35.4973 113.978 35.6516 114.055 35.7288 113.9C35.9603 113.9 36.1918 113.9 36.5005 113.9C36.8863 113.9 37.2721 113.9 37.658 113.9C37.7351 113.9 37.8123 113.9 37.8895 113.823C38.2753 113.823 38.6611 113.823 39.047 113.823C39.7415 113.823 40.436 113.823 41.1305 113.823C41.2077 113.823 41.2848 113.823 41.362 113.746C42.1337 113.746 42.9054 113.746 43.6771 113.746C44.7574 113.746 45.8378 113.746 46.9181 113.746C47.6898 113.746 48.4615 113.746 49.2331 113.746C49.2331 113.823 49.3875 113.823 49.4646 113.823C50.2363 113.823 51.008 113.823 51.7797 113.823C52.1655 113.823 52.5513 113.823 52.9372 113.823C52.9372 113.9 53.0915 113.9 53.1687 113.9C53.6317 113.9 54.0947 113.9 54.5577 113.9C54.7892 113.9 55.0207 113.9 55.3294 113.9C55.3294 113.978 55.4837 113.978 55.5609 113.978C55.9467 113.978 56.3325 113.978 56.7184 113.978C56.9499 113.978 57.1043 113.978 57.3358 113.978C57.3358 114.055 57.4129 114.055 57.5673 114.055C57.8759 114.055 58.1846 114.055 58.4933 114.055C58.7248 114.055 58.8791 114.055 59.1106 114.055C59.1106 114.132 59.1878 114.132 59.3421 114.132C59.5736 114.132 59.8823 114.132 60.1138 114.132C60.2681 114.132 60.4225 114.132 60.654 114.132C60.654 114.209 60.7311 114.209 60.8855 114.209C61.117 114.209 61.4256 114.209 61.6571 114.209C61.8115 114.209 61.9658 114.209 62.1201 114.209C62.3516 114.441 62.5831 114.286 62.8918 114.286C63.0461 114.286 63.2005 114.286 63.3548 114.286C63.5863 114.518 63.8179 114.363 64.1265 114.363C64.2809 114.363 64.4352 114.363 64.5895 114.363C64.821 114.595 65.0525 114.441 65.3612 114.441C65.5155 114.441 65.5927 114.441 65.747 114.441C65.9785 114.672 66.21 114.518 66.5187 114.518C66.673 114.518 66.7502 114.518 66.9045 114.518C67.0589 114.672 67.2904 114.595 67.5219 114.595C67.6762 114.595 67.7534 114.595 67.9077 114.595C68.0621 114.826 68.2936 114.672 68.5251 114.672C69.9141 114.826 71.3031 115.058 72.6921 115.289C73.8496 115.521 75.0072 115.752 76.1647 115.984C77.9395 116.37 79.7144 116.756 81.4893 117.219C82.8011 117.527 84.0358 117.913 85.3477 118.299C86.2737 118.608 87.1997 118.839 88.1257 119.225C89.206 119.611 90.3635 120.074 91.4439 120.46C92.6786 120.923 93.8361 121.54 95.0708 122.08C95.148 122.08 95.148 122.157 95.2251 122.157C95.148 122.157 95.148 122.157 95.0708 122.235C94.2991 121.926 93.5275 121.54 92.6786 121.231C92.0613 121 91.5211 120.768 90.9038 120.537C90.3636 120.305 89.8234 120.151 89.2832 119.997C88.743 119.842 88.2029 119.611 87.5855 119.457C87.1225 119.302 86.5824 119.148 86.1193 118.993C85.502 118.762 84.8075 118.608 84.1902 118.453C83.65 118.299 83.1098 118.145 82.5696 118.067C81.7979 117.913 81.1034 117.682 80.3318 117.527C79.5601 117.373 78.8656 117.219 78.0939 117.064C77.245 116.91 76.3962 116.756 75.6245 116.601C74.93 116.447 74.3127 116.37 73.6182 116.215C72.8465 116.061 71.9977 115.984 71.226 115.83C70.6858 115.752 70.0684 115.675 69.5283 115.598C68.9109 115.521 68.2936 115.444 67.6762 115.367C66.9817 115.289 66.2872 115.212 65.5155 115.135C64.6667 115.058 63.7407 114.981 62.8918 114.904C62.4288 114.826 61.8887 114.904 61.4256 114.826C60.8855 114.749 60.3453 114.826 59.8051 114.672C59.1106 114.595 58.4933 114.672 57.7988 114.518C56.9499 114.363 56.0239 114.441 55.175 114.363C53.0915 114.209 51.008 114.363 48.9245 114.209C48.6158 114.209 48.3071 114.286 47.9213 114.286C45.9149 114.363 43.9086 114.286 41.9022 114.441C41.2849 114.518 40.7446 114.441 40.1273 114.518C39.3556 114.595 38.6611 114.518 37.8895 114.672C37.5036 114.749 37.0406 114.749 36.6548 114.749C35.6516 114.826 34.7256 114.904 33.7224 114.981C33.105 115.058 32.5649 115.135 31.9475 115.135C31.5617 115.135 31.253 115.135 30.8672 115.212C30.1727 115.367 29.401 115.367 28.6293 115.521C28.2435 115.598 27.7805 115.675 27.3946 115.675C26.7001 115.752 26.0828 115.907 25.3883 116.061C25.1568 116.061 25.0024 116.215 24.7709 116.215C24.3079 116.37 23.9992 116.37 23.6906 116.37Z" fill="#A7B3C8"/>
<path d="M25.2339 116.291C25.9284 116.137 26.5458 115.983 27.2403 115.906C27.6261 115.828 28.0891 115.828 28.4749 115.751C29.1695 115.597 29.9412 115.597 30.7128 115.443C31.0215 115.365 31.4073 115.365 31.7932 115.365C32.4105 115.288 32.9507 115.211 33.568 115.211C34.5712 115.134 35.4972 115.057 36.5004 114.98C36.8863 114.98 37.3492 114.98 37.7351 114.902C38.5068 114.825 39.2013 114.825 39.973 114.748C40.5903 114.671 41.1305 114.671 41.7478 114.671C43.7542 114.517 45.7605 114.594 47.7669 114.517C48.0756 114.517 48.3842 114.439 48.7701 114.439C50.8536 114.594 52.9372 114.439 55.0207 114.594C55.8695 114.671 56.7955 114.594 57.6444 114.748C58.3389 114.825 58.9563 114.748 59.6508 114.902C60.1909 114.98 60.7311 114.902 61.2713 115.057C61.8114 115.134 62.2745 115.134 62.7375 115.134C63.5863 115.211 64.5123 115.288 65.3612 115.365C66.0557 115.443 66.7502 115.52 67.5218 115.597C68.1392 115.674 68.7565 115.751 69.3739 115.828C69.9141 115.906 70.5314 115.983 71.0716 116.06C71.8433 116.137 72.6921 116.291 73.4638 116.446C74.1583 116.6 74.7757 116.677 75.4702 116.832C76.319 116.986 77.1678 117.14 77.9395 117.295C78.7112 117.449 79.4057 117.603 80.1774 117.758C80.9491 117.912 81.6436 118.144 82.4153 118.298C82.9554 118.452 83.4956 118.529 84.0358 118.684C84.6531 118.838 85.3476 119.07 85.965 119.224C86.428 119.378 86.9682 119.533 87.4312 119.687C87.9714 119.841 88.5115 119.996 89.1288 120.227C89.669 120.381 90.2092 120.613 90.7494 120.767C91.3667 120.999 91.9069 121.23 92.5242 121.462C93.2959 121.77 94.1447 122.156 94.9164 122.465C95.0708 122.542 95.2251 122.696 95.3795 122.696C95.611 122.774 95.8425 123.005 95.9968 123.237C96.074 123.314 96.1511 123.314 96.0739 123.468C95.9968 123.545 95.9196 123.545 95.7653 123.545C95.4566 123.468 95.1479 123.314 94.9164 123.237C93.9904 122.851 93.1416 122.465 92.2155 122.156C90.9037 121.616 89.5147 121.153 88.2029 120.767C86.9682 120.381 85.6563 119.996 84.4216 119.687C83.1869 119.301 81.8751 119.07 80.5632 118.761C79.4829 118.529 78.4025 118.298 77.245 118.066C76.0875 117.835 74.93 117.603 73.6953 117.449C72.5378 117.295 71.4574 117.063 70.2999 116.909C69.5282 116.832 68.7565 116.677 67.9077 116.6C67.7533 116.446 67.5219 116.523 67.2903 116.523C66.8273 116.523 66.2872 116.369 65.8242 116.369C65.5927 116.214 65.3612 116.291 65.0525 116.291C64.821 116.291 64.6666 116.291 64.4351 116.291C64.2036 116.06 63.895 116.214 63.6635 116.214C63.4319 116.214 63.2776 116.214 63.0461 116.214C62.7374 115.983 62.4288 116.137 62.1973 116.137C61.8886 116.137 61.6571 116.137 61.3484 116.137C61.3484 116.06 61.1941 116.06 61.1169 116.06C60.8854 116.06 60.5767 116.06 60.3452 116.06C60.0366 116.06 59.7279 116.06 59.3421 116.06C59.3421 115.983 59.2649 115.983 59.1877 115.983C58.8019 115.983 58.4161 115.983 57.9531 115.983C57.4129 115.983 56.8727 115.983 56.3325 115.983C56.3325 115.906 56.1782 115.906 56.101 115.906C55.175 115.906 54.249 115.906 53.4001 115.906C52.0883 115.906 50.6993 115.906 49.3874 115.906C48.4614 115.906 47.4582 115.906 46.5322 115.906C46.4551 115.906 46.3779 115.906 46.3007 115.983C45.7605 115.983 45.2975 115.983 44.7573 115.983C44.2943 115.983 43.7542 115.983 43.2912 115.983C43.214 115.983 43.1368 115.983 43.1368 116.06C42.8282 116.06 42.4423 116.06 42.1337 116.06C41.9022 116.06 41.5935 116.06 41.362 116.06C41.2076 116.06 41.0533 115.983 40.9761 116.137C40.6675 116.137 40.4359 116.137 40.1273 116.137C39.9729 116.137 39.8958 116.137 39.7414 116.137C39.5099 116.137 39.2784 116.06 39.1241 116.214C38.8926 116.214 38.6611 116.214 38.3524 116.214C38.1209 116.214 37.8122 116.137 37.5807 116.291C37.3492 116.291 37.1178 116.291 36.8863 116.291C36.6548 116.291 36.3461 116.214 36.1146 116.369C35.8831 116.369 35.7287 116.369 35.4972 116.369C35.2657 116.369 35.0342 116.291 34.8799 116.446C34.6484 116.446 34.494 116.446 34.2625 116.446C34.031 116.446 33.7995 116.369 33.6452 116.523C33.1822 116.523 32.642 116.677 32.179 116.677C31.9475 116.677 31.716 116.6 31.5617 116.754C31.0215 116.832 30.5585 116.832 30.0183 116.986C29.6325 116.909 29.2466 116.909 28.8608 116.909C28.7064 116.909 28.5521 116.909 28.3978 116.909C28.0891 116.677 27.7804 116.832 27.5489 116.832C27.3174 116.832 27.0859 116.832 26.7772 116.832C26.7772 116.754 26.7001 116.754 26.6229 116.754C26.3142 116.754 26.0827 116.754 25.7741 116.754C25.6197 116.754 25.4654 116.754 25.3111 116.754C25.2339 116.446 25.2339 116.369 25.2339 116.291Z" fill="#5F7691"/>
<path d="M66.2871 17.1307C66.4414 17.0535 66.5958 17.0535 66.8273 16.9763C67.599 16.9763 68.3707 16.822 69.1423 16.6677C69.914 16.5905 70.6857 16.359 71.4574 16.2047C72.3834 15.9732 73.3094 15.6645 74.2354 15.2786C75.0842 14.8928 75.9331 14.5841 76.6276 14.044C76.7048 13.9668 76.7819 13.9668 76.8591 13.9668V14.044C77.5536 14.4298 77.6308 15.1243 77.6308 15.8188C77.708 16.7448 77.245 17.5165 76.6276 18.211C76.3961 18.4425 76.2418 18.674 76.0874 18.9055C76.0874 18.8284 76.0874 18.674 75.9331 18.8284C75.3929 19.137 74.7756 19.4457 74.1582 19.6772C73.7724 19.8316 73.3866 19.9859 73.0007 19.9859C72.8464 19.9859 72.7692 20.063 72.6149 20.1402C72.3062 20.2174 71.9975 20.0631 71.6889 19.9859C71.2259 19.8316 70.7628 19.6772 70.2226 19.6C69.5281 19.5229 68.9108 19.3685 68.2163 19.3685C67.9848 18.9827 67.6761 18.674 67.3675 18.3654C67.136 17.9024 66.6729 17.5937 66.2871 17.1307Z" fill="#A7B3C8"/>
<path d="M51.5479 91.752C54.0173 91.752 56.4095 91.752 58.8788 91.752C59.1875 91.752 59.2647 91.8292 59.1875 92.0607C59.1875 92.2922 59.1875 92.6008 59.1875 92.8323C59.1875 93.141 59.1103 93.2182 58.8016 93.2182C58.6473 93.2182 58.4158 93.141 58.2615 93.2954C57.9528 93.2954 57.6442 93.3725 57.3355 93.4497C56.9496 93.5268 56.8725 93.8355 56.8725 94.1442C56.7181 94.2214 56.7953 94.2985 56.7953 94.3757C56.7953 97.5396 56.7953 100.781 56.7953 103.945C56.7953 104.022 56.7181 104.176 56.8725 104.176C56.8725 104.871 56.9496 105.642 57.4126 106.26C57.9528 106.954 58.5702 107.571 59.4962 107.649C59.6505 107.88 59.8049 107.726 60.0364 107.726C60.8852 107.803 61.8112 107.803 62.5829 107.494C63.2774 107.263 63.8176 106.8 64.2806 106.182C64.8208 105.411 64.9751 104.485 64.9751 103.481C64.9751 100.935 64.9751 98.3884 64.9751 95.7647C64.9751 95.5332 65.0523 95.3017 64.8979 95.1474C64.8979 94.6844 64.7436 94.2214 64.5121 93.8355C64.3577 93.604 64.0491 93.5269 63.8176 93.3725C63.5089 93.2182 63.1231 93.2182 62.8144 93.141C62.66 92.9095 62.5057 93.0638 62.2742 93.0638C62.197 93.0638 62.1199 93.0638 62.0427 93.0638C62.0427 92.6008 62.0427 92.0607 62.0427 91.5977C64.4349 91.5977 66.9043 91.5977 69.2965 91.5977C69.528 91.5977 69.6051 91.6748 69.6051 91.9063C69.6051 92.1378 69.6051 92.4465 69.6051 92.678C69.6051 92.9867 69.528 93.141 69.2193 93.0638C69.065 93.0638 68.8335 92.9867 68.6791 93.141C68.2161 93.141 67.8303 93.2953 67.4445 93.4497C66.9814 93.7584 66.9043 94.2214 66.9043 94.6844C66.6728 94.8387 66.8271 94.993 66.8271 95.2246C66.8271 98.1569 66.8271 101.089 66.8271 104.022C66.5956 104.33 66.7499 104.639 66.7499 104.871C66.6728 105.565 66.3641 106.182 65.9782 106.8C65.5924 107.34 65.1294 107.88 64.5892 108.266C63.9719 108.729 63.2774 109.038 62.5829 109.269C61.9655 109.423 61.271 109.578 60.6537 109.578C60.4222 109.578 60.1907 109.578 59.882 109.578C59.1875 109.578 58.4158 109.501 57.7985 109.269C57.104 109.038 56.4095 108.729 55.7921 108.343C55.3291 108.034 54.8661 107.571 54.5574 107.186C54.0172 106.568 53.7086 105.797 53.7086 104.948C53.7086 104.639 53.7086 104.33 53.7086 104.022C53.7086 100.781 53.7086 97.5396 53.7086 94.3757C53.7086 94.2214 53.7857 94.067 53.6314 93.9899C53.6314 93.604 53.3227 93.3725 53.0141 93.2182C52.5511 92.9867 52.0109 92.9867 51.4707 92.8323C51.5479 92.7552 51.5479 92.2922 51.5479 91.752ZM54.0172 99.6231C54.0172 100.626 54.0172 101.552 54.0172 102.555C54.0172 103.559 53.9401 104.485 54.0944 105.488C54.1716 106.028 54.4031 106.568 54.6346 107.031C55.4835 108.343 56.7953 109.038 58.2615 109.423C58.8016 109.578 59.3418 109.578 59.882 109.578C60.808 109.655 61.6568 109.578 62.5057 109.269C63.2774 109.038 63.9719 108.652 64.5121 108.189C65.6696 107.263 66.3641 106.105 66.3641 104.639C66.4413 101.938 66.3641 99.2373 66.3641 96.5364C66.3641 95.7647 66.4413 94.993 66.5956 94.2985C66.6728 93.9899 66.8271 93.604 67.213 93.4497C67.676 93.2182 68.139 93.0638 68.602 93.0638C69.1421 92.9867 69.1422 93.0638 69.1422 92.4465C69.1422 92.215 69.065 92.1378 68.8335 92.1378C66.7499 92.1378 64.5892 92.1378 62.5057 92.1378C62.3514 92.1378 62.197 92.0607 62.197 92.2922C62.197 92.5237 62.0427 92.9095 62.4285 92.9867C62.8916 93.0639 63.2774 93.2182 63.6632 93.2954C64.2806 93.4497 64.6664 93.7584 64.8979 94.2985C65.1294 94.993 65.2066 95.7647 65.2066 96.4592C65.2066 98.7743 65.2066 101.166 65.2066 103.481C65.2066 104.099 65.1294 104.716 64.9751 105.256C64.8207 105.951 64.4349 106.491 63.9719 107.031C63.2002 107.88 62.197 108.189 61.1167 108.266C60.345 108.343 59.6505 108.266 58.956 108.034C57.9528 107.726 57.2583 107.108 56.7953 106.105C56.4866 105.411 56.4095 104.716 56.4095 103.945C56.4095 100.781 56.4095 97.6168 56.4095 94.4529C56.4095 94.2985 56.4095 94.1442 56.4095 94.067C56.4866 93.7584 56.5638 93.4497 56.8725 93.2954C57.2583 93.0639 57.6442 92.9867 58.1072 92.9867C58.6473 92.9095 58.6473 92.9867 58.6473 92.4465C58.6473 92.215 58.5702 92.1378 58.3387 92.1378C56.2551 92.1378 54.1716 92.1378 52.088 92.1378C51.4707 92.1378 51.4707 92.1378 51.5479 92.7552C51.5479 92.9095 51.6251 92.9867 51.7794 92.9867C52.0881 92.9867 52.3195 93.0638 52.6282 93.141C53.2456 93.3725 53.8629 93.6812 53.7857 94.6072C54.0172 96.3049 54.0172 97.9254 54.0172 99.6231Z" fill="#5F7691"/>
<path d="M81.4892 98.0808C81.1034 98.0808 80.6404 98.0808 80.2545 98.0808C80.1002 98.0808 80.023 98.0036 79.9459 97.8493C79.7144 96.9233 79.4057 95.9973 78.9427 95.1484C78.3254 93.9909 77.3993 93.2192 76.0103 93.0649C75.2386 92.9877 74.5441 93.1421 73.9268 93.7594C73.3095 94.2996 73.1551 95.0713 73.3094 95.8429C73.3866 96.6146 73.8496 97.232 74.4669 97.695C75.0071 98.0808 75.6245 98.3123 76.2418 98.5438C77.4765 99.0068 78.7112 99.4698 79.8687 100.164C80.2545 100.396 80.6404 100.627 80.9491 101.013C81.4121 101.553 81.8751 102.171 82.0294 102.865C82.1066 103.174 82.1837 103.483 82.1837 103.791C82.1837 104.177 82.1837 104.563 82.1837 104.949C82.1837 105.875 81.7979 106.646 81.3349 107.418C80.9491 107.958 80.4861 108.421 79.9459 108.807C79.097 109.347 78.171 109.81 77.0907 109.887C76.3962 109.887 75.7788 109.887 75.0843 109.887C74.0811 109.81 73.2323 109.502 72.3834 109.116C71.7661 108.884 71.9976 108.884 71.6118 109.424C71.5346 109.579 71.4574 109.656 71.2259 109.656C70.9173 109.656 70.5314 109.656 70.2227 109.656C69.9912 109.656 69.9912 109.579 69.9912 109.424C69.9912 109.116 69.9912 108.73 69.9912 108.421C69.9912 107.727 69.9912 107.032 69.9912 106.338C69.9912 106.261 69.9912 106.183 69.9141 106.106C69.9141 105.412 69.9141 104.794 69.9141 104.1C69.9141 103.791 69.9141 103.405 69.9141 103.097C70.3771 103.097 70.9172 103.097 71.3802 103.097C71.5346 103.483 71.6117 103.868 71.7661 104.254C71.9976 104.949 72.3063 105.643 72.7693 106.261C73.0008 106.646 73.3094 106.955 73.6181 107.187C74.1583 107.65 74.7756 107.958 75.5473 108.113C76.2418 108.19 76.8591 108.19 77.5536 108.035C78.2482 107.804 78.7883 107.418 79.097 106.646C79.4057 105.72 79.3285 104.872 78.9427 104.023C78.5569 103.328 77.9395 102.865 77.245 102.557C76.3962 102.248 75.5473 101.862 74.6985 101.553C74.0811 101.322 73.541 101.09 73.0008 100.782C72.3834 100.396 71.7661 99.9328 71.3031 99.2383C70.8401 98.5438 70.6086 97.7721 70.5314 96.9233C70.5314 96.5374 70.5314 96.1516 70.5314 95.7658C70.6086 94.9941 70.8401 94.2996 71.3031 93.6051C71.5346 93.2192 71.8432 92.9106 72.1519 92.6791C72.6149 92.2932 73.0779 91.9846 73.6181 91.7531C74.467 91.3672 75.393 91.29 76.319 91.29C77.3222 91.29 78.2482 91.5987 79.1742 92.0617C79.2514 92.1389 79.3285 92.1389 79.4057 92.2161C79.6372 92.3704 79.7915 92.3704 79.8687 92.0617C79.9459 91.753 80.1774 91.5987 80.5632 91.6759C80.7947 91.6759 81.0262 91.6759 81.2577 91.6759C81.5664 91.6759 81.6436 91.753 81.6436 92.0617C81.6436 93.0649 81.6436 94.0681 81.6436 95.0713C81.6436 95.2256 81.6436 95.3028 81.6436 95.4571C81.4892 96.3831 81.4892 97.232 81.4892 98.0808ZM81.2577 96.6918C81.2577 96.1516 81.2577 95.7658 81.1805 95.3028C81.1034 94.8398 81.1805 94.3767 81.1805 93.9137C81.1805 93.3736 81.1805 92.9106 81.1805 92.3704C81.1805 92.2932 81.1805 92.2161 81.0262 92.1389C80.3317 92.0617 80.2545 92.1389 79.8687 92.6791C79.8687 92.6791 79.8687 92.6791 79.8687 92.7562C79.7915 92.8334 79.7144 92.9106 79.56 92.8334C78.7884 92.3704 77.9395 91.9074 77.0135 91.8302C76.0103 91.6759 75.0071 91.6759 74.0811 92.0617C73.1551 92.4476 72.3834 92.9106 71.7661 93.7594C71.2259 94.4539 70.9173 95.2256 70.8401 96.0745C70.7629 96.769 70.9172 97.5406 71.1487 98.158C71.3802 98.9296 71.9976 99.547 72.6149 100.087C73.541 100.782 74.6213 101.168 75.7016 101.553C76.4733 101.862 77.245 102.094 77.9395 102.479C79.0198 103.097 79.6372 104.023 79.7144 105.335C79.7916 105.875 79.6372 106.338 79.4828 106.801C79.3285 107.341 78.9427 107.804 78.4797 108.035C77.6308 108.498 76.6276 108.576 75.6245 108.421C74.6984 108.267 73.9268 107.804 73.3094 107.187C72.4606 106.338 71.9204 105.257 71.5346 104.1C71.3031 103.328 71.3031 103.328 70.6085 103.328H70.5314C70.3771 103.328 70.2999 103.405 70.2999 103.56C70.3771 103.791 70.3771 104.1 70.3771 104.331C70.4542 105.798 70.3771 107.341 70.5314 108.807C70.5314 108.961 70.6086 109.039 70.7629 109.116C71.3031 109.193 71.6117 109.039 71.7661 108.498C71.7661 108.498 71.8433 108.498 71.8433 108.421C71.9204 108.19 71.9976 108.267 72.1519 108.344C72.5377 108.576 72.9236 108.73 73.3094 108.884C74.0039 109.193 74.6985 109.347 75.4702 109.424C76.0875 109.502 76.782 109.502 77.3994 109.347C77.9395 109.193 78.5568 109.116 79.0199 108.807C80.9491 107.881 81.9523 106.338 82.0294 104.177C82.0294 103.868 81.9522 103.56 81.8751 103.251C81.7979 102.788 81.6435 102.325 81.412 101.939C80.8719 100.936 79.8687 100.319 78.8655 99.8557C77.8623 99.3927 76.782 99.0068 75.7788 98.621C75.1615 98.3895 74.5441 98.0808 74.0811 97.695C73.5409 97.232 73.1551 96.6918 73.0008 95.9201C72.8464 95.2256 72.9236 94.6083 73.2323 93.9909C73.6181 93.2964 74.1583 92.9106 74.93 92.7562C75.7788 92.5247 76.5505 92.6019 77.3222 92.9106C78.171 93.2964 78.7883 93.9909 79.2514 94.8398C79.6372 95.6114 79.8687 96.3831 80.1002 97.1548C80.1774 97.4635 80.3317 97.695 80.7176 97.5406C80.7947 97.5406 80.8719 97.5406 80.9491 97.5406C81.1806 97.5406 81.2577 97.5406 81.2577 97.232C81.1806 97.1548 81.2577 96.8461 81.2577 96.6918Z" fill="#5F7691"/>
<path d="M59.1109 78.3262C59.1109 78.1719 59.2652 78.2491 59.3424 78.1719C59.5739 78.1719 59.8054 78.1719 60.114 78.1719C60.2684 78.1719 60.3455 78.3262 60.3455 78.4806C60.3455 80.9499 60.3455 83.4965 60.3455 85.9659C60.3455 86.1974 60.1912 86.3517 59.9597 86.4289C59.651 86.4289 59.2652 86.4289 58.9565 86.4289C58.5707 86.3517 58.3392 86.043 58.1849 85.7343C57.799 85.0398 57.336 84.3453 56.9502 83.6508C56.5643 82.9563 56.1785 82.2618 55.7155 81.6445C55.3296 81.1043 55.0981 80.4869 54.7123 79.9467C54.6351 79.8696 54.6352 79.7924 54.6352 79.7153C54.6352 79.5609 54.5579 79.4838 54.4036 79.3294C54.4036 79.4066 54.4036 79.4837 54.4036 79.5609C54.4036 81.7216 54.4036 83.8823 54.4036 86.043C54.4036 86.1202 54.4036 86.1974 54.4808 86.2745C54.4036 86.506 54.1721 86.506 53.9406 86.506C53.7091 86.506 53.4776 86.506 53.2461 86.4289C53.2461 83.728 53.2461 81.0271 53.2461 78.3262C53.2461 78.0947 53.4776 78.0947 53.6319 78.0947C53.9406 78.0947 54.3265 78.0947 54.6352 78.0947C55.0982 78.0947 55.2525 78.4806 55.4068 78.7121C55.947 79.5609 56.4872 80.4869 57.0273 81.413C57.6447 82.4161 58.262 83.4965 58.8794 84.4997C58.8794 84.654 58.9565 84.654 59.1109 84.8083C59.1109 82.7248 59.1109 80.5641 59.1109 78.3262Z" fill="#5F7691"/>
<path d="M71.5347 82.7238C71.5347 82.5695 71.5347 82.4151 71.5347 82.2608C71.689 81.9521 71.6119 81.6435 71.6119 81.412C71.7662 80.3316 72.3064 79.3284 73.2324 78.7882C73.9269 78.4024 74.6214 78.1709 75.4703 78.1709C75.7018 78.1709 75.9333 78.1709 76.2419 78.1709C76.9364 78.1709 77.6309 78.3252 78.2483 78.7111C78.7113 78.9426 79.02 79.3284 79.3286 79.7914C80.0232 80.9489 80.0231 82.1836 79.8688 83.4955C79.7916 84.1128 79.5601 84.7302 79.1743 85.2703C78.6341 85.9649 77.9396 86.4279 77.0908 86.6594C76.7821 86.7365 76.3963 86.8137 76.0876 86.8137C75.7789 86.8137 75.3931 86.8137 75.0844 86.8137C74.3899 86.8137 73.6954 86.6594 73.078 86.2735C72.4607 85.8877 71.9977 85.3475 71.7662 84.5758C71.689 84.2671 71.6119 83.9585 71.6119 83.6498C71.6119 83.264 71.7662 82.9553 71.5347 82.7238ZM78.6341 82.338C78.7113 81.7978 78.557 81.1804 78.4026 80.5631C78.1711 79.8686 77.7081 79.4056 77.0136 79.1741C76.4734 78.9426 75.8561 79.0197 75.2387 79.0197C74.8529 79.0197 74.6214 79.1741 74.3127 79.3284C73.3867 79.8686 73.078 80.7174 73.0009 81.6435C72.9237 82.4151 73.0009 83.264 73.2324 84.0357C73.541 84.8845 74.1584 85.4247 75.0072 85.579C75.6246 85.6562 76.2419 85.7333 76.9364 85.5018C77.4766 85.3475 77.9396 84.9617 78.2483 84.4987C78.5569 83.8813 78.6341 83.1868 78.6341 82.338Z" fill="#5F7691"/>
<path d="M37.8897 78.248C38.6614 78.248 39.2787 78.4795 39.896 78.9426C40.359 79.3284 40.6677 80.3316 40.4362 81.0261C40.2047 81.6434 39.8189 82.1064 39.2015 82.3379H39.1243C39.1243 82.4923 38.8157 82.4151 38.8929 82.4923C38.8929 82.6466 39.0472 82.6466 39.2015 82.7238C39.5102 82.9553 39.7417 83.264 39.896 83.5726C40.2819 84.4215 40.6677 85.2703 41.0535 86.1192C41.2079 86.4278 41.1307 86.5822 40.7449 86.6593C40.4362 86.7365 40.2047 86.6593 39.896 86.6593C39.8189 86.6593 39.7417 86.5822 39.7417 86.505C39.3558 85.6561 38.97 84.8073 38.5842 83.9585C38.3527 83.4183 37.9668 83.1096 37.4266 82.9553C37.4266 82.8781 37.4267 82.8781 37.3495 82.8781C36.9637 82.8781 36.5778 82.8781 36.192 82.8781C36.1148 82.8781 36.1148 82.9553 36.1148 83.0324C36.1148 84.1128 36.1148 85.1931 36.1148 86.2735C36.1148 86.5822 35.9605 86.6593 35.729 86.7365C35.4975 86.8137 35.1888 86.7365 34.9573 86.7365C34.803 86.7365 34.8801 86.5822 34.8801 86.5822C34.8801 83.9585 34.8801 81.3347 34.8801 78.7882C34.8801 78.5567 35.0345 78.4024 35.266 78.4024C36.0376 78.248 36.9637 78.248 37.8897 78.248ZM36.0376 80.4859C36.0376 80.6402 36.0376 80.7174 36.0376 80.8717C36.0376 81.2576 35.8833 81.6434 36.1148 81.8749C36.3463 82.1064 36.8093 81.9521 37.118 81.9521C37.581 81.9521 37.9669 81.8749 38.4299 81.7206C39.1244 81.4119 39.2787 80.6402 39.0472 79.9457C38.8157 79.2512 38.1983 79.1741 37.581 79.0969C37.118 79.0197 36.655 79.0969 36.192 79.0969C36.0376 79.0969 35.9605 79.1741 35.9605 79.3284C36.0377 79.7142 36.0376 80.1001 36.0376 80.4859Z" fill="#5F7691"/>
<path d="M69.5286 86.5832C69.2199 86.7375 68.834 86.6604 68.4482 86.6604C68.2938 86.6604 68.2938 86.4289 68.2938 86.2745C68.2938 85.1942 68.2938 84.1138 68.2938 83.0335C68.2938 82.802 68.2167 82.7248 67.9852 82.7248C66.7505 82.7248 65.593 82.7248 64.3583 82.7248C64.0496 82.7248 64.0496 82.802 64.0496 83.0335C64.0496 84.1138 64.0496 85.1942 64.0496 86.1973C64.0496 86.506 63.8953 86.5832 63.6638 86.5832C63.4323 86.6604 63.1236 86.5832 62.8921 86.5832C62.8149 86.5832 62.7378 86.506 62.7378 86.4289C62.7378 83.728 62.7378 81.0271 62.7378 78.3262C62.7378 78.2491 62.8149 78.1719 62.8921 78.1719C63.2008 78.1719 63.5866 78.1719 63.8953 78.1719C64.0496 78.2491 64.0496 78.4034 64.0496 78.4806C64.0496 79.4066 64.0496 80.4098 64.0496 81.3358C64.0496 81.5673 64.0496 81.6445 64.3583 81.6445C65.593 81.6445 66.8277 81.6445 67.9852 81.6445C68.2167 81.6445 68.2938 81.5673 68.2938 81.3358C68.2938 80.4098 68.2938 79.4838 68.2938 78.5577C68.2938 78.4034 68.2939 78.2491 68.371 78.0947C68.6797 78.0947 69.0655 78.0947 69.3742 78.0947H69.4514C69.4514 78.2491 69.4514 78.4034 69.4514 78.5577C69.4514 80.9499 69.4514 83.265 69.4514 85.6572C69.6057 86.043 69.5286 86.2745 69.5286 86.5832Z" fill="#5F7691"/>
<path d="M28.1663 86.6604C27.6261 86.6604 27.0859 86.506 26.6229 86.2745C25.9284 85.9658 25.6197 85.4257 25.3882 84.7312C25.3111 84.4225 25.2339 84.1138 25.2339 83.8051C25.2339 81.9531 25.2339 80.1783 25.2339 78.3262C25.2339 78.2491 25.3111 78.1719 25.3882 78.1719C25.6969 78.1719 26.0827 78.1719 26.3914 78.1719C26.5457 78.2491 26.5457 78.4034 26.5457 78.4806C26.5457 80.0239 26.5457 81.5673 26.5457 83.1106C26.5457 83.265 26.5457 83.4193 26.5457 83.5736C26.5457 83.728 26.4686 83.9595 26.6229 84.1138C26.7001 84.8083 27.4718 85.5028 28.2435 85.58C28.7065 85.6572 29.1695 85.6572 29.6325 85.5028C30.327 85.2713 30.9443 84.7312 31.0215 83.9595C31.1758 83.9595 31.0987 83.8052 31.0987 83.728C31.0987 81.876 31.0987 80.1011 31.0987 78.2491C31.0987 78.1719 31.1758 78.0947 31.253 78.0947C31.5616 78.0947 31.9475 78.0947 32.2562 78.0947C32.4105 78.1719 32.4105 78.2491 32.4105 78.4034C32.4105 80.1783 32.4105 81.9531 32.4105 83.6508C32.4105 84.7312 31.8703 85.58 30.9443 86.1202C30.4813 86.4288 29.8639 86.5832 29.3238 86.5832C28.8608 86.6604 28.5521 86.6604 28.1663 86.6604Z" fill="#5F7691"/>
<path d="M44.6032 79.0979C43.6772 79.1751 43.2913 79.8696 43.5999 80.6413C43.7543 81.0271 44.1401 81.2586 44.526 81.413C45.2205 81.7216 45.915 81.9531 46.6095 82.339C47.304 82.7248 47.767 83.265 47.8442 84.0367C47.8442 84.191 47.8442 84.2682 47.8442 84.4225C47.767 85.4257 47.1497 85.9659 46.378 86.3517C45.9922 86.5832 45.5291 86.6604 45.1433 86.6604C44.8346 86.6604 44.526 86.6604 44.2945 86.6604C43.6771 86.6604 43.137 86.506 42.5968 86.2745C42.3653 86.1974 42.2881 86.043 42.2109 85.8887C42.2109 85.6572 42.2109 85.4257 42.2109 85.117C42.2881 84.8855 42.4424 84.9627 42.5968 85.0398C43.2913 85.4257 43.9858 85.58 44.7575 85.6572C45.6063 85.7344 46.4552 85.1942 46.6095 84.4997C46.6867 84.1138 46.378 83.5737 46.0693 83.3422C45.3748 82.802 44.4488 82.6476 43.7543 82.2618C42.5196 81.5673 42.0566 80.4098 42.674 79.1751C43.0598 78.4034 43.8315 78.1719 44.6803 78.0947C44.7575 78.0947 44.9118 78.0947 44.989 78.0947C45.2205 78.0947 45.3748 78.0947 45.6063 78.0947C46.1465 78.1719 46.6095 78.2491 47.1497 78.4806C47.4584 78.6349 47.6127 79.1751 47.4583 79.4838C47.3812 79.5609 47.304 79.6381 47.1497 79.5609C46.7639 79.4066 46.4552 79.1751 46.0693 79.0979C45.9922 79.0979 45.915 79.0979 45.8378 79.0979C45.2977 78.9436 44.7575 78.9436 44.6032 79.0979Z" fill="#5F7691"/>
<path d="M16.7456 81.9531C16.7456 81.0271 17.0543 80.1011 17.6716 79.4066C17.9803 79.0207 18.4433 78.7121 18.9063 78.4806C19.5236 78.1719 20.141 78.0947 20.7583 78.0947C21.6072 78.0947 22.5332 78.2491 23.3049 78.7892C23.382 78.8664 23.4592 78.8664 23.4592 79.0207C23.4592 79.2523 23.4592 79.4838 23.4592 79.7924C23.382 80.0239 23.2277 80.0239 23.0734 79.9467C22.5332 79.5609 21.9159 79.2522 21.2985 79.1751C20.4497 79.0979 19.678 79.1751 18.9835 79.8696C18.3661 80.4869 18.1346 81.1814 18.0575 82.0303C17.9031 82.2618 17.9031 82.8791 18.0575 83.0335C18.0575 83.728 18.289 84.4225 18.752 84.9627C19.1378 85.3485 19.6008 85.58 20.141 85.7343C20.6812 85.8115 21.2214 85.8115 21.8387 85.6572C22.2245 85.58 22.6104 85.3485 22.9962 85.117C23.1506 85.0398 23.2277 84.8855 23.3821 84.9627C23.5364 85.0398 23.6136 85.1942 23.6136 85.3485C23.6136 85.8887 23.5364 85.9658 22.9962 86.2745C22.3789 86.5832 21.7615 86.7375 21.067 86.7375C20.8355 86.7375 20.6812 86.7375 20.4497 86.7375C19.678 86.7375 18.9835 86.506 18.3662 86.1202C17.9803 85.8887 17.6716 85.5028 17.4401 85.117C17.0543 84.4997 16.9 83.8051 16.8228 83.1106C16.7456 82.7248 16.7456 82.339 16.7456 81.9531Z" fill="#5F7691"/>
<path d="M50.5447 78.248H50.6219C50.6219 78.4024 50.6219 78.5567 50.6219 78.7111C50.6219 81.1033 50.6219 83.4955 50.6219 85.8877C50.6219 86.1192 50.6219 86.3507 50.6219 86.5822C50.3132 86.7365 49.9274 86.6593 49.5416 86.6593C49.4644 86.6593 49.3872 86.505 49.3872 86.4278C49.3872 86.3507 49.3872 86.2735 49.3872 86.1192C49.3872 83.6498 49.3872 81.1804 49.3872 78.7111C49.3872 78.5567 49.3872 78.4024 49.4644 78.248C49.9274 78.248 50.2361 78.248 50.5447 78.248Z" fill="#5F7691"/>
<path d="M15.8965 109.116C15.9737 109.116 16.128 109.116 16.2051 109.116C20.9895 109.116 25.8511 109.116 30.6355 109.116C30.5584 109.348 30.404 109.271 30.3269 109.271C28.1662 109.271 26.0055 109.271 23.8448 109.271C21.2982 109.271 18.7517 109.271 16.2823 109.271C16.128 109.271 15.9737 109.425 15.8965 109.116Z" fill="#5F7691"/>
<path d="M18.3662 93.6045C18.5205 93.6817 18.4434 93.836 18.4434 93.9132C18.4434 95.5337 18.4434 97.2314 18.4434 98.8519C18.4434 101.476 18.4434 104.099 18.4434 106.723C18.4434 106.877 18.5205 107.032 18.3662 107.109C18.3662 106.877 18.3662 106.646 18.3662 106.492C18.3662 102.247 18.3662 98.0031 18.3662 93.7588C18.3662 93.7588 18.3662 93.6817 18.3662 93.6045Z" fill="#5F7691"/>
<path d="M21.2212 99.4695C21.0669 99.4695 21.0669 99.3924 21.0669 99.3152C21.0669 97.0773 21.0669 94.8395 21.0669 92.6788C21.0669 92.5244 21.1441 92.4473 21.2984 92.4473C22.6102 92.4473 23.9993 92.4473 25.3111 92.4473C25.3883 92.4473 25.5426 92.4473 25.5426 92.5244C24.3079 92.5244 22.9961 92.5244 21.7614 92.5244C21.2212 92.5244 21.2212 92.5244 21.2212 93.0646C21.2212 95.2253 21.2212 97.3088 21.2212 99.4695Z" fill="#5F7691"/>
<path d="M53.7088 94.376C53.8631 94.4531 53.7859 94.6075 53.7859 94.7618C53.7859 98.0029 53.7859 101.244 53.7859 104.408C53.7859 104.716 53.7859 105.025 53.7859 105.334C53.6316 105.257 53.7088 105.102 53.7088 105.025C53.7088 103.096 53.7088 101.167 53.7088 99.3147C53.7088 97.7714 53.7088 96.3052 53.7088 94.7618C53.6316 94.6075 53.6316 94.4531 53.7088 94.376Z" fill="#5F7691"/>
<path d="M57.0266 104.331C56.8723 104.253 56.9495 104.176 56.9495 104.099C56.9495 100.935 56.9495 97.6942 56.9495 94.5303C56.9495 94.4532 56.8723 94.2988 57.0266 94.2988C57.0266 94.376 57.0266 94.4532 57.0266 94.6075C57.0266 97.7714 57.0266 101.012 57.0266 104.176C57.0266 104.176 57.0266 104.253 57.0266 104.331Z" fill="#5F7691"/>
<path d="M26.0059 103.482C26.2374 103.559 26.546 103.482 26.7775 103.482C27.009 103.482 26.9319 103.328 26.9319 103.25C26.9319 102.479 26.9319 101.784 26.9319 101.013C26.9319 99.6235 26.9319 98.2345 26.9319 96.9226C26.9319 96.6911 26.8547 96.6139 26.6232 96.6139C26.3917 96.6139 26.2374 96.6139 26.0059 96.6139C26.0059 96.3824 26.1602 96.4596 26.3145 96.4596C27.0091 96.4596 27.009 96.4596 27.009 97.1541C27.009 99.1605 27.009 101.167 27.009 103.173C27.009 103.482 26.9319 103.559 26.6232 103.559C26.4689 103.559 26.2374 103.559 26.0831 103.559C26.0831 103.559 26.0059 103.559 26.0059 103.482Z" fill="#5F7691"/>
<path d="M21.2215 106.723C21.0671 106.646 21.1443 106.569 21.1443 106.492C21.1443 104.563 21.1443 102.71 21.1443 100.781C21.1443 100.627 21.1443 100.55 21.3758 100.55C22.1475 100.55 22.9963 100.55 23.768 100.55C23.8452 100.55 23.9223 100.55 23.9223 100.627C23.1506 100.627 22.379 100.627 21.6073 100.627C21.3758 100.627 21.2986 100.704 21.2986 100.936C21.2986 102.788 21.2986 104.563 21.2986 106.415C21.2215 106.492 21.2215 106.569 21.2215 106.723Z" fill="#5F7691"/>
<path d="M69.5283 86.5822C69.5283 86.3507 69.5283 86.1192 69.5283 85.8105C69.5283 83.4183 69.5283 81.1033 69.5283 78.7111C69.5283 78.5567 69.5283 78.4024 69.5283 78.248C69.7598 78.3252 69.6827 78.4796 69.6827 78.6339C69.6827 80.4087 69.6827 82.2608 69.6827 84.0356C69.6827 84.8073 69.6827 85.579 69.6827 86.2735C69.6827 86.3507 69.7598 86.505 69.5283 86.5822Z" fill="#5F7691"/>
<path d="M43.4458 109.194C45.838 109.194 48.153 109.194 50.5452 109.194C50.6995 109.194 50.7767 109.194 50.7767 108.962C50.7767 108.731 50.7767 108.499 50.7767 108.345C50.8539 108.345 50.931 108.422 50.931 108.499C51.0854 109.271 51.0082 109.348 50.2366 109.348C48.0759 109.348 45.9923 109.348 43.8316 109.348C43.6773 109.271 43.523 109.348 43.4458 109.194Z" fill="#5F7691"/>
<path d="M50.6992 86.5822C50.6992 86.3507 50.6992 86.1192 50.6992 85.8877C50.6992 83.4955 50.6992 81.1033 50.6992 78.7111C50.6992 78.5567 50.6992 78.4024 50.6992 78.248C50.9307 78.3252 50.8536 78.4796 50.8536 78.6339C50.8536 80.4087 50.8536 82.2608 50.8536 84.0356C50.8536 84.8073 50.8536 85.579 50.8536 86.2735C50.7764 86.3507 50.8536 86.505 50.6992 86.5822Z" fill="#5F7691"/>
<path d="M53.2461 78.4805C53.2461 81.1813 53.2461 83.8822 53.2461 86.5831C53.0918 86.5059 53.0918 86.4288 53.0918 86.2744C53.0918 83.7279 53.0918 81.2585 53.0918 78.712C53.169 78.6348 53.0918 78.4805 53.2461 78.4805Z" fill="#5F7691"/>
<path d="M0.154785 109.192C2.70132 109.192 5.24786 109.192 7.87157 109.192C7.87157 109.347 7.71724 109.347 7.64007 109.347C5.24787 109.347 2.77848 109.347 0.386279 109.347C0.231944 109.27 0.154785 109.347 0.154785 109.192Z" fill="#5F7691"/>
<path d="M54.4805 86.4275C54.4033 86.3504 54.4033 86.2732 54.4033 86.196C54.4033 84.0353 54.4033 81.8746 54.4033 79.7139C54.4033 79.6367 54.4033 79.5596 54.4033 79.4824C54.5577 79.6368 54.6349 79.7139 54.6349 79.8683C54.4034 79.8683 54.5577 80.0998 54.5577 80.1769C54.5577 82.1833 54.5577 84.1125 54.5577 86.1188C54.5577 86.196 54.5577 86.3504 54.4805 86.4275Z" fill="#5F7691"/>
<path d="M11.2666 103.714C11.2666 103.559 11.2666 103.482 11.2666 103.328C11.2666 101.244 11.2666 99.0836 11.2666 97.0001C11.2666 96.8458 11.2666 96.7686 11.2666 96.6143C11.4981 96.6143 11.4209 96.8458 11.4209 96.9229C11.4209 98.8521 11.4209 100.704 11.4209 102.633C11.4209 102.865 11.4209 103.174 11.4209 103.405C11.4209 103.559 11.4209 103.714 11.2666 103.714Z" fill="#5F7691"/>
<path d="M59.1104 78.3252C59.1104 80.4859 59.1104 82.7237 59.1104 84.9616C58.9561 84.8844 58.8789 84.8073 58.8789 84.6529C59.0332 84.5758 58.9561 84.4214 58.9561 84.3443C58.9561 82.4151 58.9561 80.5631 58.9561 78.6339C59.0332 78.5567 58.9561 78.4024 59.1104 78.3252Z" fill="#5F7691"/>
<path d="M32.5649 109.192C34.8028 109.192 37.0407 109.192 39.2786 109.192C39.2786 109.347 39.1242 109.347 39.0471 109.347C36.9635 109.347 34.88 109.347 32.7964 109.347C32.6421 109.27 32.5649 109.347 32.5649 109.192Z" fill="#5F7691"/>
<path d="M31.0217 78.3252C31.0217 80.1772 31.0217 81.9521 31.0217 83.8041C31.0217 83.8813 31.0989 84.0356 30.9446 84.0356C30.9446 82.8781 30.9446 81.6434 30.9446 80.4859C30.9446 79.8685 30.9446 79.174 30.9446 78.5567C30.9446 78.5567 30.8674 78.4024 31.0217 78.3252Z" fill="#5F7691"/>
<path d="M5.32422 92.5245C5.32422 92.3701 5.4014 92.3701 5.47856 92.3701C6.86758 92.3701 8.25658 92.3701 9.6456 92.3701C9.72277 92.3701 9.79997 92.3701 9.87714 92.4473C8.79679 92.4473 7.71643 92.4473 6.63608 92.4473C6.25024 92.5245 5.78723 92.5245 5.32422 92.5245Z" fill="#5F7691"/>
<path d="M46.3008 115.521C46.3779 115.443 46.4552 115.443 46.5323 115.443C47.4583 115.443 48.4615 115.443 49.3875 115.443C49.3875 115.521 49.3104 115.521 49.2332 115.521C48.23 115.521 47.2268 115.521 46.3008 115.521Z" fill="#5F7691"/>
<path d="M81.4893 98.0808C81.4893 97.232 81.4893 96.306 81.4893 95.4571C81.4893 95.3028 81.4893 95.2256 81.4893 95.0713C81.6436 95.1485 81.5664 95.2256 81.5664 95.3028C81.5664 96.1517 81.5664 96.9233 81.5664 97.7722C81.6436 97.9265 81.6436 98.0808 81.4893 98.0808Z" fill="#5F7691"/>
<path d="M53.3228 115.365C54.2488 115.365 55.1748 115.365 56.0236 115.365C56.1008 115.365 56.178 115.365 56.2551 115.442C55.3291 115.442 54.4031 115.442 53.5542 115.442C53.4771 115.52 53.3999 115.52 53.3228 115.365Z" fill="#5F7691"/>
<path d="M37.8894 78.248C36.9633 78.248 36.0373 78.248 35.1885 78.248C35.1885 78.0936 35.3428 78.1708 35.42 78.1708C36.1916 78.1708 36.9633 78.1708 37.735 78.1708C37.735 78.0936 37.8894 78.0936 37.8894 78.248Z" fill="#5F7691"/>
<path d="M7.94798 99.4688C7.94798 99.6231 7.7936 99.5459 7.71644 99.5459C6.94476 99.5459 6.25028 99.5459 5.4786 99.5459C5.40143 99.5459 5.24709 99.6231 5.32425 99.3916C6.25027 99.4688 7.09913 99.4688 7.94798 99.4688Z" fill="#5F7691"/>
<path d="M88.8203 102.093C88.8203 101.938 88.8975 101.938 89.0518 101.938C89.7463 101.938 90.518 101.938 91.2125 101.938C91.1353 102.093 91.0582 102.016 90.9039 102.016C90.2093 102.093 89.5148 102.093 88.8203 102.093Z" fill="#5F7691"/>
<path d="M69.9141 106.028C69.9912 106.028 69.9912 106.183 69.9912 106.26C69.9912 106.954 69.9912 107.649 69.9912 108.343C69.914 108.343 69.9141 108.266 69.9141 108.112C69.9141 107.417 69.9141 106.723 69.9141 106.028Z" fill="#5F7691"/>
<path d="M75.1616 109.81C75.8561 109.81 76.4735 109.81 77.168 109.81C77.168 109.887 77.0908 109.887 77.0137 109.887C76.4735 109.887 75.9333 109.887 75.3931 109.887C75.2388 109.887 75.1616 109.887 75.1616 109.81Z" fill="#5F7691"/>
<path d="M43.0601 115.598C43.0601 115.521 43.1372 115.521 43.2144 115.521C43.6774 115.521 44.2176 115.521 44.6806 115.521C44.6806 115.598 44.6034 115.598 44.5262 115.598C44.0632 115.598 43.6002 115.598 43.0601 115.598Z" fill="#5F7691"/>
<path d="M51.5484 91.7529C51.4712 92.2159 51.5484 92.7561 51.5484 93.2191C51.4712 93.2191 51.394 93.1419 51.394 93.0648C51.394 92.6789 51.394 92.2931 51.394 91.9073C51.394 91.8301 51.4712 91.7529 51.5484 91.7529Z" fill="#5F7691"/>
<path d="M62.1206 91.7529C62.1206 92.2159 62.1206 92.7561 62.1206 93.2191C62.0434 93.2191 61.9663 93.1419 61.9663 93.0648C61.9663 92.6789 61.9663 92.2931 61.9663 91.9073C61.9663 91.8301 62.0434 91.7529 62.1206 91.7529Z" fill="#5F7691"/>
<path d="M83.3413 108.035C83.3413 108.498 83.3413 109.038 83.3413 109.501C83.2641 109.501 83.187 109.424 83.187 109.347C83.187 108.961 83.187 108.575 83.187 108.189C83.2642 108.112 83.2641 108.035 83.3413 108.035Z" fill="#5F7691"/>
<path d="M36.0376 82.9551C36.0376 82.878 36.0376 82.8008 36.1148 82.8008C36.5006 82.8008 36.8865 82.8008 37.2723 82.8008C37.3495 82.8008 37.3495 82.878 37.3495 82.878C36.9636 82.9551 36.5006 82.9551 36.0376 82.9551Z" fill="#5F7691"/>
<path d="M30.79 107.572C30.79 107.186 30.79 106.8 30.79 106.414C30.79 106.337 30.79 106.26 30.8672 106.183C30.8672 106.568 30.8672 106.954 30.8672 107.34C30.9444 107.417 30.9444 107.494 30.79 107.572Z" fill="#5F7691"/>
<path d="M30.9443 105.566C30.9443 105.18 30.9443 104.794 30.9443 104.408C30.9443 104.331 30.9443 104.254 31.0215 104.177C31.0215 104.563 31.0215 104.948 31.0215 105.334C31.0215 105.489 31.0215 105.566 30.9443 105.566Z" fill="#5F7691"/>
<path d="M57.8755 115.521C58.2613 115.521 58.6472 115.521 59.1102 115.521C59.1874 115.521 59.2645 115.521 59.2645 115.598C58.8787 115.598 58.4929 115.598 58.107 115.598C57.9527 115.598 57.8755 115.598 57.8755 115.521Z" fill="#5F7691"/>
<path d="M76.0103 36.346C75.9331 36.346 75.9331 36.2688 75.9331 36.1917C75.9331 35.883 75.9331 35.5743 75.9331 35.2656C75.9331 35.1885 75.9331 35.1113 76.0103 35.1113C76.0103 35.5743 76.0103 35.9602 76.0103 36.346Z" fill="#5F7691"/>
<path d="M23.6131 22.2246C23.6131 22.3018 23.536 22.3018 23.4588 22.3018C23.1501 22.3018 22.8414 22.3018 22.5328 22.3018C22.4556 22.3018 22.3784 22.3018 22.3784 22.2246C22.7643 22.2246 23.1501 22.2246 23.6131 22.2246Z" fill="#5F7691"/>
<path d="M28.7837 116.755C29.1695 116.755 29.5554 116.755 29.9412 116.832C29.5554 116.909 29.1695 116.909 28.8608 116.832C28.8608 116.832 28.8609 116.755 28.7837 116.755Z" fill="#5F7691"/>
<path d="M16.7456 81.9521C16.7456 82.338 16.7456 82.7238 16.7456 83.1097C16.6684 83.1097 16.6685 83.0325 16.6685 82.9553C16.6685 82.7238 16.6685 82.4152 16.6685 82.1837C16.6685 82.0293 16.6684 81.9521 16.7456 81.9521Z" fill="#5F7691"/>
<path d="M70.454 95.8428C70.454 96.2286 70.454 96.6145 70.454 97.0003C70.3769 97.0003 70.3768 96.9231 70.3768 96.846C70.3768 96.6145 70.3768 96.3058 70.3768 96.0743C70.2997 95.92 70.2997 95.9199 70.454 95.8428Z" fill="#5F7691"/>
<path d="M40.9761 115.752C41.0532 115.597 41.2076 115.675 41.3619 115.675C41.5934 115.675 41.9021 115.675 42.1336 115.675C42.1336 115.752 42.0564 115.752 41.9792 115.752C41.5934 115.752 41.2847 115.752 40.9761 115.752Z" fill="#5F7691"/>
<path d="M54.0176 72.3057C54.4034 72.3057 54.7121 72.3057 55.0979 72.3057C55.0979 72.3828 55.0208 72.3828 54.9436 72.3828C54.6349 72.3828 54.4034 72.3828 54.0948 72.3828C54.0948 72.3828 54.0176 72.3828 54.0176 72.3057Z" fill="#5F7691"/>
<path d="M82.2607 104.949C82.2607 104.563 82.2607 104.177 82.2607 103.791C82.2607 103.791 82.3379 103.791 82.3379 103.868C82.3379 104.254 82.4922 104.64 82.2607 104.949Z" fill="#5F7691"/>
<path d="M32.179 78.2491C31.8703 78.2491 31.4845 78.2491 31.1758 78.2491C31.4073 78.0176 31.716 78.1719 31.9475 78.0947C32.0246 78.0947 32.179 78.0947 32.179 78.2491Z" fill="#5F7691"/>
<path d="M63.9719 78.2491C63.6633 78.2491 63.2774 78.2491 62.9688 78.2491C63.2003 78.0176 63.5089 78.1719 63.7404 78.0947C63.8176 78.0947 63.9719 78.0947 63.9719 78.2491Z" fill="#5F7691"/>
<path d="M25.6973 116.523C26.0059 116.523 26.2374 116.523 26.5461 116.523C26.6233 116.523 26.7004 116.523 26.7004 116.601C26.3918 116.601 26.1602 116.601 25.8516 116.601C25.7744 116.601 25.6973 116.601 25.6973 116.523Z" fill="#5F7691"/>
<path d="M59.0332 86.582C59.3419 86.582 59.7278 86.582 60.0364 86.582L59.9592 86.6592C59.6506 86.6592 59.2647 86.8135 59.0332 86.582Z" fill="#5F7691"/>
<path d="M26.3147 78.2491C26.006 78.2491 25.6202 78.2491 25.3115 78.2491C25.543 78.0176 25.8517 78.1719 26.0832 78.0947C26.1604 78.0947 26.3147 78.0947 26.3147 78.2491Z" fill="#5F7691"/>
<path d="M69.4509 78.2488C69.1423 78.2488 68.7564 78.2488 68.4478 78.2488C68.6021 78.0173 69.2966 78.0173 69.4509 78.2488Z" fill="#5F7691"/>
<path d="M54.6351 78.2484C54.3264 78.2484 53.9405 78.2484 53.6318 78.2484C53.6318 78.1712 53.709 78.0941 53.7862 78.1712C54.0949 78.1712 54.4036 77.9397 54.6351 78.2484Z" fill="#5F7691"/>
<path d="M60.2681 115.675C60.4996 115.675 60.8082 115.675 61.0397 115.675C61.1169 115.675 61.1941 115.675 61.2712 115.752C60.9626 115.752 60.7311 115.752 60.4224 115.752C60.3452 115.752 60.2681 115.752 60.2681 115.675Z" fill="#5F7691"/>
<path d="M18.1343 82.9553C17.98 82.7238 17.98 82.1065 18.1343 81.9521C18.1343 82.2608 18.1343 82.6467 18.1343 82.9553Z" fill="#5F7691"/>
<path d="M50.5452 78.2488C50.2365 78.2488 49.8507 78.2488 49.542 78.2488C49.7735 78.0173 50.3908 78.0173 50.5452 78.2488Z" fill="#5F7691"/>
<path d="M39.124 115.906C39.2784 115.674 39.5099 115.829 39.7414 115.829C39.8957 115.829 39.9729 115.829 40.1272 115.829C40.1272 115.906 40.0501 115.906 39.9729 115.906C39.6642 115.906 39.4327 115.906 39.124 115.906Z" fill="#5F7691"/>
<path d="M1.23462 108.189C0.925945 108.421 0.617246 108.266 0.385742 108.266C0.46291 108.112 0.617246 108.189 0.771581 108.189C0.925917 108.189 1.08028 108.189 1.23462 108.189Z" fill="#5F7691"/>
<path d="M44.603 79.0962C44.8345 78.9419 45.2975 78.9419 45.529 79.0962C45.1432 79.0962 44.9117 79.0962 44.603 79.0962Z" fill="#5F7691"/>
<path d="M44.449 108.189C44.2175 108.421 43.8316 108.267 43.6001 108.344C43.6773 108.112 43.9088 108.267 43.9859 108.189C44.1403 108.189 44.2946 108.189 44.449 108.189Z" fill="#5F7691"/>
<path d="M71.5347 82.7246C71.7662 83.0333 71.6119 83.342 71.6119 83.5735C71.4575 83.4963 71.5347 83.342 71.4575 83.1876C71.5347 83.0333 71.5347 82.8789 71.5347 82.7246Z" fill="#5F7691"/>
<path d="M72.9234 23.3049C72.769 23.1506 72.769 22.6104 72.9234 22.4561C72.9234 22.7647 72.9234 22.9962 72.9234 23.3049Z" fill="#5F7691"/>
<path d="M74.5445 47.9221C74.3901 47.7677 74.3901 47.2276 74.5445 47.0732C74.5445 47.3819 74.5445 47.6134 74.5445 47.9221Z" fill="#5F7691"/>
<path d="M24.6162 116.524V116.446C24.8477 116.524 25.002 116.292 25.2335 116.292C25.2335 116.369 25.2335 116.446 25.2335 116.524C25.002 116.524 24.8477 116.524 24.6162 116.524Z" fill="#5F7691"/>
<path d="M66.8274 105.18C66.8274 104.871 66.7502 104.563 66.9046 104.331C66.9046 104.563 66.9046 104.794 66.9046 105.026C66.9817 105.103 66.9046 105.18 66.8274 105.18Z" fill="#5F7691"/>
<path d="M62.1201 115.751C62.4288 115.751 62.7375 115.674 62.969 115.828C62.7375 115.828 62.506 115.828 62.2745 115.828C62.1973 115.905 62.1201 115.828 62.1201 115.751Z" fill="#5F7691"/>
<path d="M71.6889 81.335C71.6889 81.6436 71.7661 81.9523 71.6117 82.1838C71.6117 81.9523 71.6117 81.7208 71.6117 81.4893C71.5346 81.4121 71.5345 81.335 71.6889 81.335Z" fill="#5F7691"/>
<path d="M27.4717 116.6C27.7804 116.6 28.089 116.523 28.3205 116.678C28.089 116.678 27.8575 116.678 27.626 116.678C27.5489 116.755 27.4717 116.755 27.4717 116.6Z" fill="#5F7691"/>
<path d="M30.7129 109.193C30.7901 108.961 30.6357 108.652 30.79 108.421C30.79 108.652 30.79 108.807 30.79 109.038C30.79 109.115 30.7901 109.193 30.7129 109.193Z" fill="#5F7691"/>
<path d="M64.9756 115.984C65.2071 115.984 65.5158 115.907 65.7473 116.061C65.4386 116.061 65.2071 116.216 64.9756 115.984Z" fill="#5F7691"/>
<path d="M39.1242 108.266C38.8927 108.266 38.584 108.343 38.3525 108.189C38.6612 108.189 38.8927 108.035 39.1242 108.266Z" fill="#5F7691"/>
<path d="M16.8996 108.189C16.6681 108.421 16.4366 108.266 16.1279 108.266C16.3594 108.035 16.6681 108.189 16.8996 108.189Z" fill="#5F7691"/>
<path d="M23.459 79.7141C23.459 79.4826 23.459 79.2511 23.459 78.9424C23.6905 79.1739 23.6905 79.5597 23.459 79.7141Z" fill="#5F7691"/>
<path d="M36.1147 116.137C36.3462 115.906 36.5778 116.06 36.8864 116.06C36.6549 116.214 36.4234 116.06 36.1147 116.137Z" fill="#5F7691"/>
<path d="M68.6022 14.7383C68.3707 14.8926 68.1392 14.8154 67.8306 14.8926C68.0621 14.6611 68.2936 14.8154 68.6022 14.7383Z" fill="#5F7691"/>
<path d="M69.6057 14.6617C69.3742 14.8161 69.1427 14.7389 68.834 14.7389C69.0655 14.5074 69.297 14.6617 69.6057 14.6617Z" fill="#5F7691"/>
<path d="M63.5864 115.906C63.8179 115.906 64.1266 115.829 64.3581 115.983C64.1266 115.983 63.8179 116.138 63.5864 115.906Z" fill="#5F7691"/>
<path d="M70.6857 14.5074C70.4542 14.7389 70.2227 14.5846 69.9141 14.5846C70.1456 14.3531 70.4542 14.5074 70.6857 14.5074Z" fill="#5F7691"/>
<path d="M37.6582 115.984C37.8897 115.753 38.1984 115.907 38.4299 115.907C38.1984 116.138 37.8897 115.984 37.6582 115.984Z" fill="#5F7691"/>
<path d="M60.1135 78.2486C59.882 78.2486 59.6505 78.2486 59.3418 78.2486C59.5733 78.0942 59.9591 78.0942 60.1135 78.2486Z" fill="#5F7691"/>
<path d="M41.9795 85.1934C41.9795 85.4249 41.9795 85.6564 41.9795 85.965C41.8252 85.7335 41.8252 85.3477 41.9795 85.1934Z" fill="#5F7691"/>
<path d="M95.2252 122.62C95.0709 122.62 94.9165 122.466 94.7622 122.389C94.7622 122.312 94.8393 122.312 94.9165 122.312C95.148 122.312 95.2252 122.389 95.2252 122.62Z" fill="#5F7691"/>
<path d="M34.8804 116.214C35.0347 116.059 35.2662 116.136 35.4977 116.136C35.3434 116.368 35.1119 116.214 34.8804 116.214Z" fill="#5F7691"/>
<path d="M33.645 116.369C33.7994 116.215 34.0308 116.292 34.2624 116.292C34.108 116.523 33.8765 116.369 33.645 116.369Z" fill="#5F7691"/>
<path d="M31.5615 116.6C31.7159 116.446 31.9474 116.523 32.1789 116.523C32.0245 116.755 31.793 116.6 31.5615 116.6Z" fill="#5F7691"/>
<path d="M90.6725 108.036C90.441 108.036 90.2095 108.113 90.0552 107.959C90.2867 107.959 90.5182 107.804 90.6725 108.036Z" fill="#5F7691"/>
<path d="M67.2134 116.292C67.4449 116.292 67.6764 116.215 67.8307 116.369C67.5992 116.369 67.3677 116.446 67.2134 116.292Z" fill="#5F7691"/>
<path d="M64.9758 95.3789C65.2073 95.5332 65.053 95.8419 65.053 95.9963C64.8987 95.8419 64.9758 95.6104 64.9758 95.3789Z" fill="#5F7691"/>
<path d="M84.3444 107.959C84.1901 108.19 83.8814 108.036 83.7271 108.036C83.8814 107.804 84.1129 107.959 84.3444 107.959Z" fill="#5F7691"/>
<path d="M7.79395 100.627C8.02545 100.627 8.25694 100.55 8.41128 100.704C8.25694 100.704 8.02545 100.858 7.79395 100.627Z" fill="#5F7691"/>
<path d="M92.5241 91.9069C92.2926 91.9069 92.0611 91.984 91.9067 91.8297C92.1382 91.8297 92.3697 91.6753 92.5241 91.9069Z" fill="#5F7691"/>
<path d="M26.546 84.1906C26.3145 84.0362 26.4689 83.8819 26.4689 83.6504C26.7004 83.8047 26.546 84.0362 26.546 84.1906Z" fill="#5F7691"/>
<path d="M25.9283 97.1543C25.9283 97.3086 26.0054 97.5401 25.7739 97.6173C25.8511 97.463 25.7739 97.2315 25.9283 97.1543Z" fill="#5F7691"/>
<path d="M58.3389 93.3737C58.4932 93.1422 58.6475 93.2965 58.8791 93.2965C58.7247 93.4508 58.5704 93.3737 58.3389 93.3737Z" fill="#5F7691"/>
<path d="M62.3521 93.2957C62.5064 93.2957 62.7379 93.2185 62.8922 93.3728C62.6607 93.3728 62.5064 93.45 62.3521 93.2957Z" fill="#5F7691"/>
<path d="M68.834 93.3737C68.9883 93.1422 69.1427 93.2965 69.3742 93.2965C69.2198 93.4508 68.9883 93.3737 68.834 93.3737Z" fill="#5F7691"/>
<path d="M83.5728 93.2957C83.7271 93.2957 83.9586 93.2185 84.1129 93.3728C83.9586 93.3728 83.7271 93.45 83.5728 93.2957Z" fill="#5F7691"/>
<path d="M66.9812 95.5333C66.9812 95.379 66.904 95.1475 67.0584 94.9932C67.0584 95.1475 67.1356 95.379 66.9812 95.5333Z" fill="#5F7691"/>
<path d="M60.1139 107.958C59.9596 107.958 59.7281 108.035 59.5737 107.881C59.8052 107.804 59.9596 107.727 60.1139 107.958Z" fill="#5F7691"/>
<path d="M26.0826 96.6143C26.0826 96.7686 26.1597 96.9229 25.9282 97.0001C26.0054 96.8458 25.8511 96.6914 26.0826 96.6143Z" fill="#5F7691"/>
<path d="M8.72031 99.3923C8.64314 99.6238 8.48881 99.4695 8.33447 99.4695C8.41164 99.3152 8.56598 99.3923 8.72031 99.3923Z" fill="#5F7691"/>
<path d="M46.6869 102.48C46.5326 102.402 46.5326 102.325 46.6098 102.248C46.7641 102.248 46.6869 102.325 46.6869 102.48Z" fill="#5F7691"/>
<path d="M39.7412 95.2256C39.7412 95.3028 39.7412 95.4571 39.5869 95.4571C39.5869 95.3799 39.5869 95.3028 39.7412 95.2256Z" fill="#5F7691"/>
<path d="M45.2202 105.951C45.3746 105.951 45.3746 106.105 45.3746 106.183C45.2202 106.183 45.2202 106.028 45.2202 105.951Z" fill="#5F7691"/>
<path d="M46.6094 102.094C46.4551 102.094 46.4551 101.939 46.4551 101.862C46.6094 101.862 46.6094 102.017 46.6094 102.094Z" fill="#5F7691"/>
<path d="M45.3749 106.337C45.5292 106.337 45.5292 106.491 45.4521 106.568C45.2977 106.491 45.2977 106.414 45.3749 106.337Z" fill="#5F7691"/>
<path d="M37.3497 101.321C37.3497 101.398 37.3496 101.553 37.1953 101.553C37.2725 101.476 37.1953 101.321 37.3497 101.321Z" fill="#5F7691"/>
<path d="M39.8956 94.916C39.8956 94.9932 39.8955 95.1475 39.7412 95.1475C39.7412 94.9932 39.7412 94.916 39.8956 94.916Z" fill="#5F7691"/>
<path d="M37.5035 100.936C37.5035 101.013 37.5035 101.167 37.3491 101.167C37.3491 101.09 37.3491 101.013 37.5035 100.936Z" fill="#5F7691"/>
<path d="M45.0665 98.2344C44.9121 98.2344 44.9121 98.0801 44.9121 98.0029C45.1436 98.0029 45.0665 98.1573 45.0665 98.2344Z" fill="#5F7691"/>
<path d="M42.9825 92.7559C42.8281 92.7559 42.8281 92.6016 42.8281 92.5244C42.9825 92.5244 42.9825 92.6787 42.9825 92.7559Z" fill="#5F7691"/>
<path d="M40.7447 92.6777C40.7447 92.7549 40.7447 92.9093 40.5903 92.9093C40.5903 92.7549 40.5903 92.6777 40.7447 92.6777Z" fill="#5F7691"/>
<path d="M43.1369 93.1417C43.0598 93.0645 42.9826 92.9873 43.0598 92.9102C43.137 92.9102 43.1369 93.0645 43.1369 93.1417Z" fill="#5F7691"/>
<path d="M40.5904 92.9873C40.5904 93.0645 40.5904 93.2188 40.436 93.2188C40.5132 93.1416 40.436 93.0645 40.5904 92.9873Z" fill="#5F7691"/>
<path d="M45.22 98.6202C45.1428 98.543 45.0656 98.4658 45.1428 98.3887C45.22 98.3887 45.22 98.543 45.22 98.6202Z" fill="#5F7691"/>
<path d="M44.4483 96.6143C44.294 96.6143 44.2939 96.46 44.2939 96.3828C44.5254 96.3828 44.4483 96.5371 44.4483 96.6143Z" fill="#5F7691"/>
<path d="M44.603 97C44.4486 96.9229 44.4486 96.8457 44.5258 96.7686C44.6029 96.7686 44.603 96.9229 44.603 97Z" fill="#5F7691"/>
<path d="M38.2754 99.084C38.2754 99.1612 38.2754 99.3155 38.1211 99.3155C38.1211 99.2383 38.1211 99.1612 38.2754 99.084Z" fill="#5F7691"/>
<path d="M27.7032 107.804C27.7032 107.958 27.5488 107.881 27.4717 107.881C27.4717 107.804 27.626 107.804 27.7032 107.804Z" fill="#5F7691"/>
<path d="M38.3526 98.6982C38.3526 98.7754 38.3526 98.9297 38.1982 98.9297C38.2754 98.8526 38.1983 98.7754 38.3526 98.6982Z" fill="#5F7691"/>
<path d="M6.32769 108.035C6.25052 108.035 6.09619 108.112 6.09619 107.958C6.17336 107.958 6.32769 107.881 6.32769 108.035Z" fill="#5F7691"/>
<path d="M5.94194 107.881C5.86477 107.881 5.7876 107.881 5.7876 107.804C5.94193 107.804 5.94194 107.804 5.94194 107.881Z" fill="#5F7691"/>
<path d="M27.9346 107.649C27.9346 107.727 27.8574 107.804 27.7803 107.727C27.8574 107.727 27.8575 107.649 27.9346 107.649Z" fill="#5F7691"/>
<path d="M5.86479 107.804C5.78763 107.804 5.71045 107.804 5.71045 107.649C5.78762 107.649 5.86479 107.727 5.86479 107.804Z" fill="#5F7691"/>
<path d="M11.1895 92.9102C11.2666 92.9102 11.3438 92.9101 11.3438 93.0645C11.1895 92.9873 11.1895 92.9873 11.1895 92.9102Z" fill="#5F7691"/>
<path d="M11.0352 92.7559C11.1123 92.7559 11.1895 92.7559 11.1895 92.833C11.1123 92.9102 11.0352 92.833 11.0352 92.7559Z" fill="#5F7691"/>
<path d="M28.0894 107.572C28.0894 107.649 28.0122 107.727 27.9351 107.727C27.9351 107.572 28.0122 107.572 28.0894 107.572Z" fill="#5F7691"/>
<path d="M10.8032 92.6777C10.8804 92.6777 10.9576 92.6777 10.9576 92.7549C10.8804 92.7549 10.8032 92.7549 10.8032 92.6777Z" fill="#5F7691"/>
<path d="M25.4653 101.553C25.5425 101.553 25.6197 101.63 25.5425 101.707C25.4654 101.707 25.4653 101.63 25.4653 101.553Z" fill="#5F7691"/>
<path d="M25.3115 101.321C25.3887 101.321 25.4658 101.321 25.4658 101.476C25.3887 101.476 25.3115 101.398 25.3115 101.321Z" fill="#5F7691"/>
<path d="M9.18315 99.084C9.18315 99.1612 9.10598 99.2383 9.02881 99.1612C9.10598 99.1612 9.10599 99.084 9.18315 99.084Z" fill="#5F7691"/>
<path d="M9.41455 99.0059C9.41455 99.083 9.41457 99.1602 9.3374 99.1602C9.3374 99.0059 9.33738 99.0059 9.41455 99.0059Z" fill="#5F7691"/>
<path d="M74.5442 32.642C74.3127 33.0278 73.8497 33.1821 73.5411 33.4136C73.1552 33.7995 72.6922 33.7223 72.2292 33.6451C72.0749 33.6451 71.9977 33.568 71.8434 33.568C70.3772 33.568 68.911 33.4136 67.4448 33.4136C66.6731 33.4136 65.8243 33.4136 65.0526 33.3365C64.2038 33.2593 63.4321 33.3365 62.5832 33.1821C61.8115 33.105 61.0399 33.1821 60.2682 33.0278C59.4965 32.9506 58.6476 33.0278 57.876 32.8735C57.1043 32.7963 56.3326 32.8735 55.5609 32.7191C54.7892 32.642 54.0176 32.7191 53.2459 32.5648C52.4742 32.4876 51.7797 32.5648 51.008 32.4105C50.3135 32.3333 49.5419 32.4105 48.8474 32.2561C48.1528 32.179 47.4583 32.2561 46.6866 32.1018C45.9921 32.0246 45.2976 32.1018 44.6031 31.9475C43.9086 31.8703 43.2912 31.9474 42.5967 31.7931C41.9794 31.7159 41.3621 31.7159 40.7447 31.7159C39.5872 31.5616 38.4297 31.5616 37.195 31.4844C36.1918 31.4073 35.1886 31.3301 34.2626 31.253C33.6453 31.1758 33.0279 31.0986 32.4878 31.0214C32.1019 30.9443 31.9476 30.4813 32.1791 30.0183C32.4878 29.4009 32.8736 29.0151 33.5681 28.8607C33.7996 28.8607 33.8768 28.7064 33.8768 28.4749C34.0311 27.3174 34.3398 26.1599 35.0343 25.1567C36.1146 23.3818 37.7352 22.2243 39.5872 21.2983C40.2817 20.9896 40.9762 20.6809 41.7479 20.5266C42.5196 20.2951 43.2913 20.1408 44.0629 20.0636C44.7575 19.9864 45.452 19.9093 46.2236 19.8321C47.8442 19.6778 49.3875 19.5234 51.008 19.6006C51.7797 19.6006 52.5514 19.7549 53.3231 19.8321C53.4774 19.8321 53.7089 19.9093 53.8633 19.9093C53.9404 19.9093 54.0176 19.9093 54.0176 19.9864C54.0176 20.0636 54.0176 20.0636 53.9404 20.0636C53.5546 20.2951 53.4002 20.6038 53.1687 20.9124C53.0916 21.0668 52.9372 21.0668 52.7829 21.0668C51.8569 20.9896 51.008 20.9896 50.082 20.9896C49.0017 20.9896 47.9213 20.9896 46.841 21.0668C46.1465 21.144 45.452 21.2211 44.8346 21.2983C43.5999 21.5298 42.4424 21.7613 41.2849 22.2243C39.973 22.7645 38.7383 23.459 37.8123 24.6165C37.195 25.3882 36.732 26.237 36.4233 27.163C36.269 27.7032 36.1147 28.3206 35.9603 28.8607C35.8832 29.1694 36.1147 29.1694 36.3462 29.2466C36.6548 29.3238 36.8863 29.3238 37.195 29.3238C37.658 29.3238 38.121 29.4781 38.584 29.4781C39.3557 29.5552 40.2046 29.6324 40.9762 29.7867C41.3621 29.8639 41.7479 29.8639 42.0566 29.9411C42.5967 30.0183 43.1369 30.0954 43.6771 30.0954C44.5259 30.1726 45.3748 30.2498 46.2236 30.4041C46.6095 30.4813 47.0725 30.4813 47.4583 30.5584C48.0756 30.6356 48.6159 30.7128 49.2332 30.7128C50.082 30.7899 51.008 30.8671 51.8569 30.9443C52.6286 31.0214 53.4002 31.0986 54.1719 31.1758C55.3294 31.2529 56.4098 31.3301 57.5673 31.4844C58.0303 31.5616 58.5705 31.4844 59.0335 31.5616C59.8823 31.6388 60.7312 31.6388 61.6572 31.7159C62.2745 31.7931 62.8147 31.7931 63.432 31.7931C65.2841 31.9474 67.2133 31.8703 69.0653 31.9475C69.7598 31.9475 70.3772 31.9475 71.0717 32.0246C71.8434 32.0246 72.615 31.9474 73.3095 31.7931C73.6954 31.7159 74.0812 31.5616 74.467 31.3301C74.7757 32.0246 74.6214 32.3333 74.5442 32.642Z" fill="#5F7691"/>
<path d="M88.4346 96.8455C88.4346 95.6879 88.4346 94.5304 88.4346 93.3729C88.4346 93.1414 88.4345 93.0642 88.7432 93.0642C89.5149 93.0642 90.3638 92.987 91.1354 93.1414C92.1386 93.2957 92.8331 93.8359 93.2961 94.7619C93.5276 95.3021 93.6048 95.8423 93.682 96.3824C93.8363 97.077 93.682 97.7715 93.5276 98.3888C93.219 99.3148 92.6016 100.009 91.6756 100.395C90.7496 100.781 89.6692 100.781 88.6661 100.781C88.4346 100.781 88.4346 100.627 88.4346 100.472C88.4346 99.4691 88.4346 98.5431 88.4346 97.54C88.4346 97.2313 88.4346 97.077 88.4346 96.8455ZM88.8204 96.8455C88.8204 97.9258 88.8204 99.0061 88.8204 100.009C88.8204 100.241 88.8975 100.318 89.1291 100.318C89.7464 100.318 90.2866 100.318 90.904 100.164C91.2126 100.086 91.5213 100.009 91.8299 99.855C92.9103 99.3148 93.2961 98.3116 93.3733 97.2313C93.4505 96.4596 93.2961 95.6879 92.9874 94.9934C92.6016 94.2217 91.9843 93.7587 91.1354 93.5272C90.4409 93.3729 89.7464 93.4501 88.9748 93.3729C88.7433 93.3729 88.7432 93.4501 88.7432 93.6044C88.8204 94.7619 88.8204 95.8423 88.8204 96.8455Z" fill="#5F7691"/>
<path d="M42.0563 51.9343C41.2846 51.9343 40.5901 51.9343 39.8956 51.7799C38.7381 51.5484 37.6577 51.0082 37.0404 50.0051C36.6545 49.3877 36.7317 48.7704 36.8089 48.153C36.8861 47.69 36.9632 47.3042 37.1176 46.9184C37.1947 46.764 37.1948 46.6097 37.2719 46.4553C37.4263 45.838 37.2719 45.4522 36.6545 45.1435C35.6514 44.6033 34.7253 44.0631 33.9537 43.2915C33.5678 42.9828 33.645 42.8285 33.8765 42.4426C34.108 41.9796 34.571 41.671 34.8025 41.2851C35.1112 40.7449 35.3427 40.1276 35.497 39.5102C35.6514 38.8929 35.8057 38.3527 35.9601 37.7354C36.0372 37.5039 35.8829 37.2724 35.8057 37.0409C35.6514 36.5779 35.4199 36.1149 35.1884 35.729C35.034 35.4204 34.9569 35.0345 35.034 34.6487C35.1112 34.34 35.1112 33.9542 35.1884 33.6455C35.3427 33.1825 35.4199 32.7195 35.5742 32.2565C35.6514 32.025 35.8829 32.1793 36.0372 32.1793C36.1915 32.1793 36.3459 32.3336 36.4231 32.4108C36.5774 32.5652 36.4231 32.6423 36.3459 32.7967C36.0372 33.1825 36.0372 33.6455 35.9601 34.1085C35.9601 34.1857 35.9601 34.2628 35.9601 34.34C35.7286 35.266 36.1144 36.0377 36.6545 36.8094C37.0404 37.2724 37.0404 37.8897 36.8861 38.5071C36.5002 39.9733 35.5742 41.2851 34.9569 42.6741C34.8797 42.9056 34.9569 42.9828 35.034 43.06C35.497 43.523 36.0372 43.9088 36.5774 44.2947C36.8089 44.449 37.1176 44.6805 37.3491 44.8348C37.6577 44.9892 37.8121 45.2207 37.8893 45.5293C38.0436 45.9924 38.0436 46.4553 37.9664 46.9184C37.8121 47.4585 37.7349 47.9215 37.7349 48.4617C37.7349 49.5421 37.7349 49.6192 38.6609 50.2366C39.2783 50.6996 40.0499 51.0854 40.8216 51.2398C41.439 51.3169 42.0563 51.4713 42.6737 51.3169C43.0595 51.2398 43.5225 51.2398 43.9855 51.1626C44.5257 51.0082 44.9887 50.8539 45.5288 50.6996C47.2265 50.0822 48.4612 48.7704 49.8503 47.6129C50.2361 47.3042 50.6219 46.9184 50.9306 46.6097C51.0849 46.4554 51.1621 46.301 51.3936 46.3782C51.548 46.4553 51.7023 46.9184 51.6251 47.0727C51.548 47.1499 51.5479 47.3042 51.4708 47.3814C50.8534 48.3074 50.0046 49.1562 49.1557 49.8507C48.3069 50.4681 47.3809 51.0082 46.4549 51.3941C45.606 51.7028 44.7572 51.9343 43.9083 52.0114C43.2138 51.8571 42.5965 51.8571 42.0563 51.9343Z" fill="#5F7691"/>
<path d="M62.1201 35.4969C62.1201 36.4229 61.9658 37.2718 61.8114 38.1206C61.3484 40.9758 59.9594 43.368 57.7987 45.2972C57.49 45.5287 57.49 45.9146 57.4128 46.2232C57.2585 46.8406 57.1813 47.5351 57.2585 48.1524C57.3357 48.7698 57.49 49.31 57.7215 49.9273C58.1074 50.7761 58.4932 51.5478 59.1105 52.2423C59.4964 52.7053 59.8822 53.014 60.4996 53.1684C60.6539 53.2455 60.8082 53.1684 60.8854 53.0912C60.9626 53.0912 61.0397 53.014 61.1169 53.1684C61.1941 53.2455 61.1169 53.3227 61.0397 53.3227C60.5767 53.6313 60.1137 53.7857 59.6507 54.0172C59.4964 54.0944 59.342 54.0172 59.1877 53.8629C58.6475 53.3227 58.1845 52.7053 57.7987 52.0108C57.4128 51.3163 57.1042 50.6218 56.8727 49.8501C56.7183 49.3871 56.6412 49.0013 56.564 48.5383C56.4868 47.9981 56.4868 47.4579 56.4868 46.9949C56.4868 45.2972 57.2585 43.9082 58.416 42.7507C58.9562 42.2105 59.2649 41.516 59.7279 40.8987C60.1137 40.3585 60.4224 39.8183 60.6539 39.201C60.7311 38.9695 60.8082 38.738 60.8082 38.4293C60.8082 37.1946 60.8082 35.8828 60.8082 34.6481C60.8082 34.4166 60.8854 34.2622 61.1169 34.3394C61.3484 34.3394 61.6571 34.3394 61.8886 34.3394C62.1201 34.3394 62.1973 34.4166 62.1973 34.6481C62.1201 34.9567 62.1201 35.1883 62.1201 35.4969Z" fill="#5F7691"/>
</svg>
