<svg width="121" height="38" viewBox="0 0 121 38" fill="none" xmlns="http://www.w3.org/2000/svg">
<path d="M67.1634 14.157C66.6879 13.7343 66.1596 13.4173 65.6312 13.1003C63.9406 12.0965 62.1443 11.5154 60.1895 11.304C58.3404 11.1455 56.5441 11.4097 54.8534 12.1493C53.0043 12.9947 51.5778 14.2626 50.4683 16.0061C49.5173 17.4854 48.989 19.0704 48.8305 20.8139C48.6192 22.8743 48.8305 24.882 49.5702 26.8368C50.5212 29.3199 52.159 31.2747 54.5893 32.437C55.8573 33.071 57.2309 33.388 58.6573 33.4408C61.6688 33.5993 64.2576 32.5955 66.5294 30.6935C66.7936 30.4822 67.0049 30.2709 67.2162 30.0595C67.3219 29.9539 67.3747 29.8482 67.3747 29.6897C67.3747 28.7916 67.3747 27.9462 67.3747 27.0481C67.3747 26.5198 67.1634 26.3084 66.6351 26.3084C66.1067 26.3084 65.5784 26.3084 65.0501 26.3084C64.9973 26.3084 64.8916 26.3084 64.8387 26.3084C64.7331 26.3084 64.6803 26.2556 64.6803 26.1499C64.6803 25.9386 64.6803 25.7273 64.6803 25.5688C64.6803 24.6178 64.6803 23.614 64.6803 22.663C64.6803 22.346 64.6802 22.346 64.9972 22.346C66.2652 22.346 67.5332 22.346 68.8012 22.346C69.2238 22.346 69.6465 22.3988 70.0692 22.5573C70.9145 22.8215 71.3371 23.4555 71.5485 24.3008C71.6013 24.565 71.6013 24.8291 71.6013 25.0933C71.6013 29.0557 71.6013 33.0182 71.6013 36.9806V37.0334C71.6013 37.2976 71.6013 37.2976 71.3371 37.2976C70.4918 37.2976 69.5937 37.2976 68.7484 37.2976C68.4314 37.2976 68.1144 37.2976 67.7974 37.2976C67.5332 37.2976 67.5332 37.2976 67.5332 37.0334C67.5332 36.2938 67.5332 35.5541 67.5332 34.8145C67.5332 34.7088 67.586 34.6031 67.4804 34.4975C67.269 34.7088 67.0049 34.8673 66.7936 35.0258C64.8916 36.4523 62.7255 37.3504 60.2952 37.6146C57.0724 37.9844 54.0609 37.4032 51.2608 35.7654C48.8834 34.339 47.0871 32.3842 45.7663 29.901C44.8681 28.1576 44.3398 26.3084 44.0756 24.3536C43.97 23.297 43.9171 22.2403 43.9699 21.1837C44.1813 17.9081 45.2379 14.9495 47.3512 12.4135C49.7287 9.50773 52.7401 7.76426 56.4384 7.13027C57.7064 6.91894 59.0272 6.86611 60.2952 6.97178C61.9858 7.07744 63.6764 7.39444 65.2614 8.02843C66.7935 8.60958 68.1672 9.34924 69.4352 10.4059C69.9107 10.7757 69.805 10.7229 69.488 11.1455C68.7483 12.0437 68.0615 12.9947 67.3219 13.8928C67.269 13.9985 67.2691 14.1042 67.1634 14.157Z" fill="#5F7691"/>
<path d="M88.9306 34.3395C88.8249 34.4452 88.7721 34.5509 88.6664 34.7094C87.3456 36.5057 85.5493 37.5623 83.3303 37.7736C81.4812 37.9321 79.7377 37.6151 78.0999 36.6113C76.515 35.6603 75.5111 34.2339 75.1941 32.3847C74.8771 30.5356 75.1941 28.7921 76.4093 27.26C76.9904 26.5203 77.7301 25.992 78.5226 25.5694C79.7377 24.9354 81.0057 24.5127 82.3265 24.2485C83.753 23.9844 85.1794 23.8259 86.6587 23.773C87.2399 23.773 87.8211 23.773 88.4551 23.7202C88.6664 23.7202 88.7192 23.7202 88.6664 23.5089C88.6136 22.8749 88.6136 22.1881 88.4551 21.5541C88.1381 20.2333 87.2927 19.388 85.9719 19.1238C84.6511 18.8596 83.3832 18.8596 82.0624 19.2823C81.851 19.3351 81.5869 19.4408 81.4284 19.5993C81.1642 19.8106 81.0057 20.0748 81.0057 20.4446C81.0057 20.8144 81.0057 21.1314 81.0057 21.5013C81.0057 21.7654 81.0057 21.7654 80.7415 21.7654C79.5264 21.7654 78.2584 21.7654 77.0433 21.7654C76.7791 21.7654 76.7791 21.7654 76.7791 21.5013C76.7791 20.7616 76.7791 19.9691 76.7791 19.2295C76.8319 18.3841 77.2018 17.6973 77.7829 17.1162C78.3641 16.5878 79.0509 16.2708 79.7377 16.0067C80.7415 15.6369 81.7453 15.4784 82.802 15.3727C83.5945 15.267 84.387 15.267 85.1794 15.3199C86.6059 15.3727 87.9796 15.6369 89.3004 16.218C90.8853 16.9577 91.9948 18.2256 92.576 19.8634C92.893 20.7088 93.0515 21.6069 93.1043 22.5579C93.1571 23.1391 93.1572 23.773 93.1572 24.3542C93.1572 27.0487 93.1572 29.7431 93.1572 32.4376C93.1572 32.5432 93.1572 32.6489 93.1572 32.7546C93.1572 33.1772 93.3685 33.3885 93.7911 33.3885C94.3194 33.3885 94.8478 33.3885 95.3761 33.3885C95.4289 33.3885 95.5346 33.3885 95.5874 33.3885C95.6931 33.3885 95.7459 33.4414 95.7459 33.547C95.7459 33.5999 95.7459 33.6527 95.7459 33.7584C95.7459 34.815 95.7459 35.8717 95.7459 36.9283C95.7459 36.9812 95.7459 37.034 95.7459 37.1396C95.7459 37.2453 95.6931 37.2981 95.5874 37.2981C95.5346 37.2981 95.4818 37.2981 95.3761 37.2981C94.1081 37.2981 92.8402 37.2981 91.5722 37.2981C91.2552 37.2981 90.8854 37.2453 90.5684 37.1396C89.6174 36.8755 88.9834 36.1358 88.9306 35.0792C88.9306 34.815 88.9306 34.6037 88.9306 34.3395C88.9834 34.3395 88.9306 34.3395 88.9306 34.3395ZM88.7192 27.8411C88.7192 27.6826 88.7192 27.5242 88.7192 27.4185C88.7192 27.4185 88.7192 27.4185 88.7192 27.3657C88.7192 27.1015 88.7192 27.1015 88.4551 27.1015C87.8739 27.1015 87.3456 27.1015 86.7644 27.1015C85.6021 27.1543 84.4926 27.2072 83.3832 27.4185C82.5378 27.577 81.7454 27.8411 81.0057 28.3166C80.0019 28.9506 79.5264 29.9016 79.5792 31.1168C79.6849 32.2791 80.266 33.1772 81.3227 33.6527C82.9605 34.3924 84.5455 34.2339 85.9719 33.1772C87.8211 31.9092 88.6136 30.0601 88.7192 27.8411Z" fill="#5F7691"/>
<path d="M32.1361 24.0373C32.1361 25.5694 31.8719 27.1016 31.2908 28.5281C30.1813 31.3282 28.385 33.4943 25.7962 35.0264C24.3169 35.9246 22.732 36.4529 21.0413 36.6643C17.3431 37.1397 14.0146 36.1888 11.1088 33.8641C8.67851 31.8565 7.19921 29.3205 6.61805 26.2034C6.51238 25.5166 6.40674 24.777 6.40674 24.0373C6.5124 23.9845 6.61806 24.0901 6.72372 24.143C7.14638 24.3543 7.56905 24.5656 7.99171 24.7241C9.52385 25.3053 11.056 25.6223 12.6938 25.6751C13.1164 25.6751 13.5391 25.6751 13.9089 25.6223C14.3316 25.5694 14.7542 25.5166 15.1769 25.4638C16.4977 25.1996 17.7657 24.777 18.928 24.143C19.0337 24.0901 19.1394 24.0901 19.1922 23.9316C19.245 23.9316 19.2978 23.9316 19.2978 23.9316C19.2978 23.9845 19.3507 23.9845 19.4035 24.0373C20.0903 24.46 20.83 24.7241 21.5696 24.9883C22.8905 25.4109 24.2641 25.6751 25.6377 25.6751C26.0075 25.6751 26.3774 25.6751 26.7472 25.6223C27.3812 25.5694 28.068 25.4638 28.702 25.3053C29.7587 25.0411 30.7625 24.6713 31.7663 24.143C31.9248 24.0901 32.0305 24.0373 32.1361 24.0373Z" fill="#5F7691"/>
<path d="M19.4033 1.68874C20.0901 1.26608 20.8298 0.949079 21.6223 0.684917C23.5771 -0.0019043 25.5847 -0.160402 27.6452 0.156593C30.7623 0.632085 33.4039 2.05856 35.4644 4.43602C37.1022 6.28516 38.106 8.45128 38.423 10.8816C39.0041 14.7912 37.9475 18.2781 35.3587 21.2896C34.4606 22.3462 33.4039 23.1915 32.1888 23.8784C32.1359 23.8255 32.136 23.7727 32.136 23.7199C32.136 23.4557 32.0831 23.2444 32.0831 22.9802C32.0831 22.2934 31.9246 21.6066 31.7661 20.9197C31.502 19.8103 31.1321 18.8064 30.6038 17.8026C30.0755 16.8516 29.4415 15.9535 28.7547 15.161C28.1735 14.527 27.5924 13.9987 26.9055 13.4704C26.5357 13.2062 26.1659 12.8892 25.7432 12.7835C25.7432 12.7307 25.6904 12.7307 25.6904 12.6779C25.7432 12.1495 25.6376 11.6212 25.5847 11.0929C25.4791 10.0363 25.2149 9.03244 24.7922 8.02863C24.1582 6.44365 23.2601 5.01718 22.0978 3.80203C21.3581 3.06238 20.5656 2.37555 19.6675 1.84723C19.5618 1.90006 19.4033 1.84723 19.4033 1.68874Z" fill="#5F7691"/>
<path d="M6.35363 23.9314C3.02519 21.9238 0.964738 19.018 0.225085 15.2141C0.0665875 14.4744 -0.0390902 13.6819 0.0137422 12.8895C0.172239 7.60621 2.60254 3.69661 7.35746 1.26632C9.41792 0.209673 11.6369 -0.107323 13.9615 0.0511744C15.705 0.209672 17.3956 0.685165 18.9806 1.53048C19.0863 1.58332 19.1391 1.63615 19.2448 1.68898C19.1919 1.79465 19.0862 1.84748 19.0334 1.90031C18.3466 2.32297 17.6598 2.85129 17.0786 3.37962C16.4446 3.96077 15.9163 4.59476 15.388 5.22875C14.8068 6.02124 14.3314 6.91939 13.9087 7.81754C13.2747 9.24401 13.0105 10.7762 12.9049 12.3083C12.9049 12.4668 12.852 12.6253 12.9577 12.731C12.9577 12.7838 12.9049 12.7838 12.9049 12.8366C12.7992 12.8366 12.7464 12.8894 12.6935 12.9423C12.3765 13.1536 12.0596 13.3121 11.7954 13.5763C10.7916 14.3159 9.89343 15.1612 9.15378 16.1651C8.51979 17.0104 7.93863 17.9614 7.5688 18.9123C6.98765 20.286 6.61781 21.7125 6.56497 23.1918C6.45931 23.4559 6.4593 23.7201 6.35363 23.9314Z" fill="#5F7691"/>
<path d="M111.067 25.0405C111.067 23.3499 111.067 21.6593 111.067 19.9686C111.067 19.9158 111.067 19.8101 111.067 19.7573C111.067 19.546 111.067 19.4931 110.803 19.4931C110.063 19.4931 109.324 19.4931 108.584 19.4931C108.32 19.4931 108.32 19.4931 108.32 19.229C108.32 18.1723 108.32 17.1685 108.32 16.1119C108.32 15.8477 108.32 15.8477 108.584 15.8477C109.324 15.8477 110.116 15.8477 110.856 15.8477C111.173 15.8477 111.173 15.8477 111.173 15.5307C111.173 13.8401 111.173 12.1494 111.173 10.4588C111.173 10.3531 111.173 10.3003 111.173 10.1946C111.173 10.089 111.226 10.0361 111.331 10.0361C111.49 10.0361 111.648 10.0361 111.807 10.0361C112.916 10.0361 114.026 10.0361 115.135 10.0361C115.188 10.0361 115.241 10.0361 115.347 10.0361C115.505 10.0361 115.558 10.089 115.558 10.2475C115.558 10.3003 115.558 10.406 115.558 10.4588C115.558 12.0966 115.558 13.7872 115.558 15.425C115.558 15.4779 115.558 15.5835 115.558 15.6364C115.558 15.742 115.611 15.7949 115.716 15.7949C115.769 15.7949 115.875 15.7949 115.928 15.7949C117.354 15.7949 118.728 15.7949 120.154 15.7949C120.207 15.7949 120.26 15.7949 120.313 15.7949C120.577 15.7949 120.577 15.7949 120.577 16.059C120.577 17.0628 120.577 18.1195 120.577 19.1233C120.577 19.3875 120.577 19.3875 120.313 19.3875C118.834 19.3875 117.407 19.3875 115.928 19.3875C115.505 19.3875 115.558 19.3346 115.558 19.7573C115.558 22.8216 115.558 25.8859 115.558 28.9501C115.558 29.7426 115.664 30.5351 116.033 31.2748C116.562 32.3843 117.513 33.0182 118.675 33.2296C119.362 33.3881 120.049 33.3881 120.735 33.2296C120.947 33.1767 120.947 33.1767 121 33.4409C121 34.6032 121 35.8183 121 36.9807C121 37.192 120.894 37.192 120.735 37.2448C120.101 37.2977 119.467 37.3505 118.781 37.2977C117.935 37.2448 117.037 37.1392 116.192 36.875C114.501 36.3467 113.128 35.4485 112.177 33.8636C111.648 33.0182 111.384 32.0673 111.226 31.1163C111.12 30.5351 111.067 29.9011 111.067 29.32C111.067 27.9992 111.067 26.5198 111.067 25.0405Z" fill="#5F7691"/>
<path d="M99.6557 23.5611C99.6557 19.8099 99.6557 16.1117 99.6557 12.3606C99.6557 12.2549 99.6557 12.0964 99.6557 11.9908C99.6029 11.5681 99.4444 11.4096 99.0217 11.4096C98.4934 11.4096 97.9651 11.4096 97.4367 11.4096C97.0669 11.4096 97.0669 11.4096 97.0669 11.0398C97.0669 9.98312 97.0669 8.92647 97.0669 7.86983C97.0669 7.81699 97.0669 7.76416 97.0669 7.65849C97.0669 7.55283 97.1197 7.5 97.2254 7.5H97.2782C98.7047 7.5 100.184 7.5 101.611 7.5C102.033 7.5 102.456 7.60566 102.826 7.76416C103.354 7.97549 103.724 8.39815 103.935 8.92647C104.094 9.34913 104.146 9.82462 104.146 10.3001C104.146 17.6438 104.146 24.9875 104.146 32.3312C104.146 32.4897 104.146 32.6482 104.146 32.7539C104.199 33.1765 104.358 33.335 104.78 33.335C105.097 33.335 105.362 33.335 105.679 33.335C105.943 33.335 106.26 33.335 106.524 33.335C106.682 33.335 106.735 33.3879 106.735 33.5464C106.735 34.7087 106.735 35.8182 106.735 36.9805C106.735 37.1918 106.735 37.1918 106.471 37.1918C105.414 37.1918 104.305 37.1918 103.248 37.1918C102.773 37.1918 102.244 37.2446 101.769 37.139C100.395 36.9276 99.8142 36.0823 99.7085 34.92C99.7085 34.7087 99.7085 34.4974 99.7085 34.2332C99.6557 30.7463 99.6557 27.1537 99.6557 23.5611Z" fill="#5F7691"/>
<path d="M6.35352 23.9306C6.45918 23.7193 6.45919 23.508 6.45919 23.2438C6.51202 21.7645 6.88186 20.338 7.46302 18.9644C7.88567 17.9606 8.414 17.0624 9.04799 16.2171C9.78764 15.2133 10.6858 14.368 11.6896 13.6283C12.0066 13.417 12.3236 13.2057 12.5878 12.9943C12.6406 12.9415 12.7462 12.8887 12.7991 12.8887C12.8519 13.2057 12.8519 13.5227 12.8519 13.7868C12.9048 14.2095 12.9576 14.685 13.0104 15.1076C13.2746 16.4284 13.6972 17.6436 14.2784 18.8059C14.7539 19.7569 15.3879 20.6022 16.0747 21.3947C16.92 22.3457 17.871 23.1382 18.9277 23.7721C19.0333 23.825 19.139 23.825 19.1918 23.9835C19.139 24.0891 19.0333 24.142 18.9277 24.1948C17.7653 24.8288 16.4973 25.2515 15.1765 25.5156C14.7539 25.5684 14.3312 25.6213 13.9086 25.6741C13.4859 25.7269 13.0632 25.7269 12.6934 25.7269C11.0556 25.7269 9.52348 25.41 7.99134 24.776C7.56868 24.6175 7.14601 24.4061 6.72335 24.1948C6.61768 24.142 6.51203 24.0363 6.40637 24.0891C6.40637 24.0363 6.40635 23.9835 6.35352 23.9306Z" fill="#A7B3C8"/>
<path d="M25.7429 12.8887C26.1656 13.0472 26.5354 13.3642 26.9052 13.5755C27.5921 14.051 28.2261 14.6321 28.7544 15.2661C29.494 16.0586 30.128 16.9568 30.6035 17.9078C31.1318 18.9116 31.5545 19.9154 31.7658 21.0249C31.9243 21.7117 32.03 22.3457 32.0828 23.0853C32.0828 23.3495 32.1357 23.5608 32.1357 23.825C32.1357 23.8778 32.1357 23.9306 32.1885 23.9835C32.1885 24.0363 32.1357 24.0891 32.1357 24.0891C31.9772 24.0363 31.8715 24.142 31.7658 24.1948C30.8148 24.7231 29.811 25.093 28.7016 25.3571C28.0676 25.5156 27.4336 25.6213 26.7468 25.6741C26.3769 25.7269 26.0071 25.7269 25.6373 25.7269C24.2636 25.7269 22.89 25.5156 21.5692 25.0401C20.8295 24.776 20.0899 24.5118 19.403 24.0891C19.3502 24.0363 19.2974 24.0363 19.2974 23.9835C19.4559 23.825 19.6144 23.7721 19.7729 23.6665C20.8295 22.9797 21.7805 22.1343 22.6258 21.1305C23.2598 20.3909 23.7881 19.5984 24.2108 18.7531C24.6335 17.9606 24.9505 17.1681 25.1618 16.3228C25.3731 15.5303 25.5316 14.7378 25.5844 13.9453C25.6901 13.5755 25.6901 13.2585 25.7429 12.8887Z" fill="#A7B3C8"/>
<path d="M12.9049 12.7842C12.852 12.6257 12.8521 12.4672 12.8521 12.3615C12.9577 10.8294 13.2219 9.29722 13.8558 7.87075C14.2257 6.9726 14.754 6.07444 15.3351 5.28196C15.8106 4.59514 16.3918 3.96115 17.0258 3.43282C17.6598 2.9045 18.2938 2.37618 18.9806 1.95352C19.0863 1.90069 19.1919 1.84785 19.1919 1.74219C19.2448 1.74219 19.2976 1.74219 19.3504 1.74219C19.3504 1.90068 19.5089 1.95352 19.6146 2.00635C20.5127 2.58751 21.3052 3.22149 22.0449 3.96115C23.2072 5.17629 24.1054 6.60277 24.7393 8.18774C25.1092 9.19156 25.4262 10.1954 25.5318 11.252C25.5847 11.7803 25.6903 12.3087 25.6375 12.837C25.2676 12.7313 24.9506 12.52 24.5808 12.3087C22.9958 11.569 21.3581 11.252 19.6146 11.1464C19.1391 11.1464 18.6636 11.1464 18.2409 11.1992C17.4484 11.252 16.7088 11.4105 15.9691 11.569C14.9653 11.8332 14.0672 12.203 13.169 12.6785C13.1162 12.7313 13.0105 12.7842 12.9049 12.7842Z" fill="#A7B3C8"/>
<path d="M32.2414 30.7996C32.2414 29.2675 33.4566 27.7354 35.3057 27.7354C37.0492 27.7354 38.37 29.109 38.37 30.7996C38.37 32.4374 37.102 33.8639 35.3057 33.8639C33.4037 33.8639 32.1886 32.3846 32.2414 30.7996Z" fill="#5F7691"/>
<path d="M40.061 36.7169C39.1629 36.7169 38.4761 35.9773 38.4761 35.0791C38.4761 34.181 39.2157 33.4941 40.1139 33.4941C41.012 33.4941 41.7517 34.2338 41.7517 35.1319C41.6988 36.0301 40.9592 36.7169 40.061 36.7169Z" fill="#5F7691"/>
</svg>
