<svg width="280" height="186" viewBox="0 0 280 186" fill="none" xmlns="http://www.w3.org/2000/svg">
<path d="M80 93.3241C80.1715 93.4385 80.3431 93.5528 80.5146 93.7244C82.6874 95.4969 84.6886 97.4981 86.6327 99.5566C87.5475 100.529 88.4052 101.501 89.32 102.587C89.6059 102.244 89.8346 101.901 90.1205 101.558C90.9782 100.357 91.8359 99.0991 92.7507 97.8984C94.2374 95.9543 95.7812 94.0674 97.325 92.1234C99.0975 89.9506 101.042 87.9494 103.043 86.0625C104.072 85.0904 105.101 84.1184 106.188 83.2036C106.702 82.7461 107.217 82.4031 107.789 81.9456C106.759 80.2875 105.787 78.6865 104.758 77.0283C106.817 77.0283 108.818 77.0283 110.819 77.0283C110.819 87.0345 110.819 97.0407 110.819 107.047C110.705 107.047 110.59 107.047 110.533 107.047C100.47 107.047 90.4064 107.047 80.3431 107.047C80.2859 107.047 80.1715 107.047 80.1143 107.047C80 102.473 80 97.8984 80 93.3241Z" fill="#5F7691"/>
<path d="M80 76.9727C87.7191 76.9727 95.4953 76.9727 103.214 76.9727C103.329 76.9727 103.5 76.9727 103.729 76.9727C103.1 77.4873 102.585 77.9447 102.071 78.4021C100.756 79.66 99.3834 80.8608 98.1255 82.1759C96.9819 83.3194 95.8955 84.4058 94.8092 85.6066C93.8943 86.5786 93.0938 87.665 92.2933 88.6942C91.1498 90.1236 90.0634 91.6103 89.1485 93.2113C88.977 93.4971 88.8626 93.3828 88.7483 93.2684C86.8614 91.4387 85.0317 89.609 83.1448 87.7793C82.8589 87.4934 82.5158 87.2076 82.2299 86.8645C82.0584 86.6929 82.0012 86.7501 81.8869 86.8645C81.3151 87.6078 80.7433 88.3511 80.1715 89.0372C80.1715 89.0944 80.1144 89.0944 80.0572 89.0944C80 85.0919 80 81.0323 80 76.9727Z" fill="#5F7691"/>
<path d="M80 109.678C80.1715 109.678 80.3431 109.678 80.5146 109.678C120.482 109.678 160.45 109.678 200.417 109.678C200.589 109.678 200.76 109.678 200.932 109.678C200.932 109.849 200.932 110.021 200.989 110.192C160.678 110.192 120.311 110.192 80 110.192C80 110.021 80 109.849 80 109.678Z" fill="#5F7691"/>
<path d="M122.026 83.5474C122.655 83.5474 123.227 83.5474 123.799 83.5474C124.313 83.5474 124.885 83.5474 125.4 83.5474C125.629 83.5474 125.743 83.6618 125.743 83.8905C125.743 83.9477 125.743 84.0049 125.743 84.0049C125.743 89.1509 125.743 94.2969 125.743 99.3858C125.743 99.8432 125.686 99.9004 125.228 99.9004C124.714 99.9004 124.199 99.9004 123.685 99.9004C123.227 99.9004 123.227 99.9004 123.227 99.443C123.227 96.0123 123.227 92.6388 123.227 89.2081C123.227 89.0365 123.227 88.865 123.17 88.6935C123.113 88.9794 123.056 89.2653 122.998 89.5511C122.884 90.2945 122.827 91.0378 122.712 91.7239C122.598 92.4101 122.484 93.0962 122.369 93.7823C122.312 94.0682 122.255 94.4113 122.198 94.6972C122.084 95.4405 122.026 96.1838 121.912 96.9271C121.798 97.7848 121.626 98.6425 121.512 99.5001C121.455 99.7288 121.34 99.9004 121.054 99.9004C120.483 99.9004 119.911 99.9004 119.339 99.9004C118.996 99.9004 118.882 99.7288 118.882 99.5001C118.767 98.5853 118.596 97.6133 118.481 96.6984C118.367 95.8979 118.195 95.0974 118.081 94.3541C117.967 93.5536 117.795 92.8103 117.681 92.0098C117.509 91.095 117.338 90.2373 117.166 89.3224C117.109 89.1509 117.109 88.9222 117.109 88.6935H117.052C117.052 88.9222 117.052 89.0937 117.052 89.3224C117.052 92.6959 117.052 96.0695 117.052 99.443C117.052 99.786 116.937 99.9004 116.594 99.9004C116.08 99.9004 115.622 99.9004 115.108 99.9004C114.822 99.9004 114.708 99.786 114.708 99.5001C114.708 96.8699 114.708 94.2397 114.708 91.6095C114.708 89.0365 114.708 86.5207 114.708 83.9477C114.708 83.8333 114.708 83.6618 114.708 83.4902C114.879 83.4902 114.993 83.4902 115.108 83.4902C116.023 83.4902 116.995 83.4902 117.91 83.4902C118.31 83.4902 118.367 83.5474 118.424 83.9477C118.538 84.8625 118.71 85.8345 118.824 86.7494C118.939 87.5499 119.11 88.3504 119.225 89.1509C119.339 89.9514 119.51 90.7519 119.625 91.5524C119.739 92.3529 119.911 93.1533 120.025 93.9538C120.082 94.2397 120.139 94.5256 120.197 94.8115C120.254 94.5828 120.368 94.4685 120.368 94.2969C120.425 93.8967 120.483 93.4964 120.54 93.039C120.654 92.2957 120.768 91.6096 120.883 90.8662C120.94 90.5803 120.997 90.2373 121.054 89.9514C121.169 89.208 121.226 88.4648 121.34 87.7214C121.512 86.7494 121.683 85.7774 121.855 84.8053C121.912 84.5194 121.969 84.062 122.026 83.5474Z" fill="#5F7691"/>
<path d="M137.349 83.6045C137.464 83.6045 137.521 83.6045 137.635 83.6045C139.122 83.6045 140.609 83.6045 142.095 83.6617C143.296 83.7188 144.325 84.1763 144.84 85.377C145.011 85.8344 145.126 86.349 145.183 86.8065C145.24 87.5498 145.24 88.2931 145.183 89.0936C145.126 90.18 144.783 91.2092 143.753 91.781C143.696 91.8381 143.639 91.8953 143.582 91.9525C143.868 92.1812 144.154 92.41 144.439 92.6958C144.783 93.0389 144.954 93.4963 145.068 94.0109C145.297 95.1545 145.183 96.2981 145.183 97.4416C145.183 98.2421 145.183 99.0426 145.469 99.9003C144.611 99.9003 143.753 99.9003 142.781 99.9003C142.724 99.6716 142.667 99.3857 142.667 99.0998C142.667 97.899 142.667 96.7555 142.61 95.5548C142.61 95.0973 142.495 94.5827 142.381 94.1253C142.267 93.6679 141.924 93.382 141.409 93.3248C141.066 93.3248 140.723 93.2676 140.38 93.2104C140.037 93.1532 139.98 93.3248 139.98 93.6107C139.98 95.5547 139.98 97.4988 139.98 99.4429C139.98 99.7859 139.922 99.9003 139.579 99.9003C138.836 99.9003 138.093 99.9003 137.349 99.9003C137.349 94.4112 137.349 89.0364 137.349 83.6045ZM139.98 90.9233C140.437 90.9233 140.894 90.9805 141.352 90.9233C141.981 90.8661 142.495 90.3515 142.495 89.7797C142.495 88.8649 142.553 87.8929 142.495 86.978C142.495 86.5206 142.267 86.1203 141.809 86.0631C141.237 85.9488 140.609 85.9488 139.98 85.8916C139.98 87.5498 139.98 89.208 139.98 90.9233Z" fill="#5F7691"/>
<path d="M179.147 83.6045C179.262 83.6045 179.319 83.6045 179.376 83.6045C180.92 83.6045 182.464 83.6045 184.008 83.6617C185.208 83.6617 186.352 84.5193 186.695 85.6629C186.867 86.2347 186.924 86.8065 186.981 87.4354C186.981 88.2359 186.981 89.0364 186.867 89.7797C186.752 90.6374 186.352 91.3807 185.551 91.8382C185.494 91.8953 185.437 91.9525 185.323 92.0097C185.837 92.2956 186.295 92.5815 186.523 93.1533C186.695 93.5535 186.867 93.9537 186.867 94.354C186.924 95.6691 186.981 97.0414 186.981 98.3565C186.981 98.8711 187.038 99.3857 187.095 99.9574C187.038 99.9574 186.924 99.9574 186.809 99.9574C186.18 99.9574 185.494 99.9574 184.865 99.9574C184.579 99.9574 184.465 99.8431 184.465 99.5572C184.408 98.0706 184.408 96.5839 184.351 95.0973C184.351 94.7542 184.236 94.4112 184.122 94.1253C183.836 93.4392 183.207 93.3248 182.635 93.3248C181.549 93.2676 181.72 93.2104 181.72 94.2396C181.72 96.0122 181.72 97.7847 181.72 99.5572C181.72 99.6716 181.72 99.8431 181.72 99.9574C180.863 99.9574 180.062 99.9574 179.205 99.9574C179.147 94.4112 179.147 89.0364 179.147 83.6045ZM181.663 88.3503C181.663 89.0936 181.663 89.8369 181.663 90.5802C181.663 90.809 181.72 90.9233 182.006 90.9233C182.292 90.9233 182.578 90.9233 182.864 90.9233C183.836 90.8661 184.236 90.4087 184.294 89.6082C184.351 88.6362 184.293 87.7213 184.179 86.7493C184.122 86.2347 183.722 85.8916 183.15 85.8916C182.75 85.8916 182.349 85.8916 182.006 85.8916C181.778 85.8916 181.663 85.9488 181.663 86.2347C181.663 86.9208 181.663 87.607 181.663 88.3503Z" fill="#5F7691"/>
<path d="M172.057 83.6045C172.057 83.776 172.057 83.8904 172.057 84.0619C172.057 88.1216 172.057 92.2384 172.057 96.2981C172.057 96.8698 172.172 97.3844 172.686 97.6132C173.544 98.0134 174.688 97.7847 174.745 96.6411C174.745 95.8406 174.802 94.983 174.802 94.1825C174.802 90.8089 174.802 87.4354 174.802 84.0619C174.802 83.7188 174.916 83.6045 175.259 83.6617C175.888 83.6617 176.575 83.6617 177.261 83.6617C177.261 83.776 177.261 83.8904 177.261 83.9475C177.261 88.1216 177.261 92.3527 177.261 96.5268C177.261 97.6703 176.918 98.6424 175.946 99.4429C175.545 99.7859 175.031 100.015 174.516 100.072C173.944 100.129 173.373 100.243 172.801 100.186C171.886 100.129 171.085 99.8431 170.456 99.157C169.942 98.5852 169.599 97.899 169.542 97.0985C169.256 93.5535 169.484 90.0656 169.427 86.5206C169.427 85.6629 169.427 84.8052 169.427 83.9475C169.427 83.776 169.484 83.6617 169.713 83.6617C170.456 83.6045 171.257 83.6045 172.057 83.6045Z" fill="#5F7691"/>
<path d="M136.092 99.8436C135.234 99.8436 134.377 99.8436 133.462 99.8436C133.347 99.329 133.29 98.8144 133.176 98.2998C133.119 97.8995 133.061 97.4992 133.004 97.099C133.004 96.9846 132.833 96.8703 132.718 96.8703C131.804 96.8703 130.832 96.8703 129.917 96.8703C129.802 96.8703 129.688 96.9846 129.688 97.0418C129.574 97.728 129.516 98.3569 129.402 99.0431C129.345 99.2718 129.288 99.5005 129.231 99.7864C128.487 99.7864 127.687 99.7864 126.886 99.7864C126.943 99.3861 126.943 98.9859 127.058 98.6428C127.115 98.2997 127.229 97.8995 127.286 97.5564C127.401 96.8703 127.458 96.1841 127.572 95.498C127.687 94.869 127.801 94.1829 127.915 93.554C127.973 93.2681 128.03 92.925 128.087 92.6391C128.201 91.953 128.259 91.2668 128.373 90.5807C128.487 89.7802 128.659 88.9797 128.773 88.1792C128.887 87.3787 129.059 86.521 129.173 85.7205C129.288 85.0344 129.402 84.3482 129.574 83.6621C130.889 83.6621 132.147 83.6621 133.405 83.6621C133.519 84.3482 133.576 84.9772 133.69 85.6633C133.862 86.5782 134.034 87.4931 134.205 88.4651C134.319 89.1512 134.377 89.8374 134.491 90.5235C134.605 91.2096 134.72 91.8386 134.834 92.5247C134.891 92.8106 134.948 93.1537 135.006 93.4396C135.12 94.1257 135.177 94.8119 135.291 95.498C135.406 96.127 135.52 96.7559 135.634 97.4421C135.749 98.1282 135.806 98.8143 135.92 99.5005C135.978 99.5577 136.035 99.672 136.092 99.8436ZM131.403 86.6926H131.346C131.289 87.0928 131.232 87.4931 131.175 87.8933C131.06 88.5795 130.946 89.2656 130.832 89.9517C130.717 90.695 130.66 91.4384 130.546 92.1817C130.488 92.5247 130.431 92.8106 130.374 93.1537C130.317 93.6111 130.203 94.0114 130.145 94.4688C130.088 94.6975 130.203 94.7547 130.431 94.7547C130.946 94.7547 131.46 94.7547 131.975 94.7547C132.204 94.7547 132.433 94.6975 132.604 94.6403C132.661 94.6403 132.547 94.3545 132.547 94.1829C132.433 93.4396 132.375 92.6963 132.261 91.953C132.204 91.6099 132.147 91.324 132.089 91.0381C131.975 90.352 131.861 89.6087 131.746 88.9225C131.689 88.5223 131.632 88.0648 131.575 87.6646C131.518 87.2643 131.46 86.9785 131.403 86.6926Z" fill="#5F7691"/>
<path d="M167.94 89.0364C167.139 89.0364 166.339 89.0364 165.538 89.0364C165.538 88.922 165.538 88.8649 165.481 88.7505C165.424 88.0644 165.424 87.4354 165.367 86.7493C165.367 86.2919 164.852 85.7201 164.337 85.7201C163.766 85.7201 163.251 85.6629 162.965 86.2919C162.851 86.5206 162.736 86.8065 162.736 87.0352C162.736 90.18 162.736 93.3248 162.736 96.5267C162.736 97.2129 163.194 97.7847 163.994 97.7847C164.623 97.7847 165.081 97.6703 165.309 97.0414C165.424 96.7555 165.481 96.3552 165.481 96.0122C165.481 95.326 165.481 94.6971 165.481 94.0109C165.481 93.9537 165.481 93.9537 165.481 93.8966C166.281 93.8966 167.025 93.8966 167.825 93.8966C167.825 93.9537 167.882 94.0109 167.882 94.1253C167.882 94.983 167.94 95.8406 167.882 96.6983C167.825 97.6703 167.482 98.5852 166.739 99.2713C166.281 99.6716 165.71 99.9575 165.081 100.015C164.623 100.072 164.109 100.129 163.651 100.129C162.794 100.072 161.993 99.8431 161.307 99.2713C160.792 98.8139 160.506 98.2421 160.335 97.6131C160.106 96.7555 160.106 95.8978 160.106 94.983C160.106 92.6386 160.106 90.2371 160.106 87.8928C160.106 87.1495 160.163 86.4062 160.392 85.7201C160.678 84.6337 161.421 83.8904 162.508 83.5473C163.137 83.3758 163.766 83.2614 164.452 83.3186C165.652 83.4329 166.739 83.776 167.368 84.9196C167.711 85.4913 167.94 86.1775 167.94 86.8636C167.94 87.607 167.94 88.2931 167.94 89.0364Z" fill="#5F7691"/>
<path d="M158.62 83.605C158.62 84.3483 158.62 85.0917 158.62 85.835C157.133 85.835 155.647 85.835 154.103 85.835C154.103 87.3788 154.103 88.8654 154.103 90.4092C154.217 90.4092 154.332 90.4092 154.446 90.4092C155.418 90.4092 156.39 90.4092 157.362 90.4092C157.648 90.4092 157.705 90.5236 157.705 90.7523C157.705 91.4384 157.705 92.0674 157.705 92.7535C156.504 92.7535 155.304 92.7535 154.103 92.7535C154.103 94.3545 154.103 95.9555 154.103 97.5565C155.59 97.5565 157.076 97.5565 158.62 97.5565C158.62 98.2998 158.62 99.0431 158.62 99.7293C158.62 99.7865 158.391 99.9008 158.277 99.9008C156.962 99.9008 155.704 99.9008 154.389 99.9008C153.531 99.9008 152.731 99.9008 151.873 99.9008C151.473 99.9008 151.416 99.8436 151.416 99.4434C151.416 94.2402 151.416 89.0941 151.416 83.8909C151.416 83.6622 151.473 83.5479 151.759 83.5479C153.989 83.5479 156.161 83.5479 158.391 83.5479C158.448 83.605 158.506 83.605 158.62 83.605Z" fill="#5F7691"/>
<path d="M193.27 83.6045C193.442 83.6045 193.556 83.6045 193.67 83.6045C195.786 83.6045 197.901 83.6045 200.017 83.6045C200.474 83.6045 200.474 83.6045 200.474 84.0619C200.474 84.5765 200.474 85.034 200.474 85.5486C200.474 85.8345 200.417 85.8916 200.131 85.8916C198.816 85.8916 197.558 85.8916 196.243 85.8916C195.957 85.8916 195.843 86.006 195.843 86.2919C195.843 87.5498 195.843 88.8649 195.843 90.1228C195.843 90.4087 195.957 90.4659 196.186 90.4659C197.158 90.4659 198.13 90.4659 199.102 90.4659C199.445 90.4659 199.56 90.5802 199.502 90.9233C199.502 91.4379 199.502 91.9525 199.502 92.4671C199.502 92.753 199.445 92.8674 199.102 92.8674C198.13 92.8674 197.158 92.8674 196.186 92.8674C195.843 92.8674 195.786 92.9817 195.786 93.2676C195.786 94.5827 195.786 95.955 195.786 97.2701C195.786 97.556 195.843 97.6703 196.186 97.6703C197.501 97.6703 198.759 97.6703 200.074 97.6703C200.303 97.6703 200.417 97.7275 200.417 98.0134C200.417 98.5852 200.417 99.0998 200.417 99.6716C200.417 99.9003 200.303 100.015 200.074 100.015C197.901 100.015 195.729 100.015 193.556 100.015C193.27 100.015 193.27 99.8431 193.27 99.6144C193.27 97.7275 193.27 95.8978 193.27 94.0109C193.27 90.6946 193.27 87.3782 193.27 84.0619C193.27 83.8904 193.27 83.776 193.27 83.6045Z" fill="#5F7691"/>
<path d="M146.955 83.6045C147.813 83.6045 148.671 83.6045 149.528 83.6045C149.528 89.0364 149.528 94.4112 149.528 99.8431C148.671 99.8431 147.813 99.8431 146.955 99.8431C146.955 94.4112 146.955 89.0364 146.955 83.6045Z" fill="#5F7691"/>
<path d="M188.753 83.5479C189.553 83.5479 190.297 83.5479 191.097 83.5479C191.154 83.5479 191.269 83.6622 191.269 83.7765C191.326 83.8337 191.269 83.9481 191.269 84.0053C191.269 89.1513 191.269 94.2973 191.269 99.3862C191.269 99.8436 191.269 99.8436 190.811 99.8436C190.125 99.8436 189.439 99.8436 188.753 99.8436C188.753 94.4117 188.753 89.037 188.753 83.5479Z" fill="#5F7691"/>
<path d="M177.374 106.991C177.203 106.991 177.031 106.991 176.86 106.991C176.86 105.218 176.86 103.503 176.86 101.73C177.031 101.73 177.203 101.73 177.374 101.73C177.374 102.359 177.374 102.931 177.374 103.56C177.489 103.503 177.546 103.503 177.603 103.446C178.118 102.931 178.747 102.931 179.376 103.16C180.005 103.389 180.291 103.903 180.462 104.532C180.634 105.333 180.462 106.019 179.89 106.648C179.376 107.162 178.347 107.162 177.775 106.762C177.432 106.533 177.489 106.533 177.374 106.991ZM177.374 105.104C177.432 105.275 177.489 105.447 177.489 105.619C177.603 106.133 177.946 106.476 178.575 106.591C178.975 106.648 179.49 106.362 179.662 105.962C179.833 105.561 179.947 105.104 179.776 104.647C179.662 104.246 179.49 103.903 179.09 103.732C178.632 103.56 178.175 103.56 177.832 103.96C177.546 104.246 177.489 104.647 177.374 105.104Z" fill="#5F7691"/>
<path d="M187.323 104.36C187.152 103.788 187.723 103.273 188.181 103.159C188.695 103.045 189.153 103.045 189.667 103.159C190.01 103.273 190.354 103.559 190.354 103.959C190.354 104.703 190.354 105.389 190.354 106.132C190.354 106.304 190.354 106.475 190.639 106.533C190.754 106.59 190.754 106.761 190.811 106.933C190.182 107.161 189.953 107.104 189.782 106.59C189.667 106.647 189.553 106.704 189.439 106.761C188.867 107.161 188.238 107.161 187.609 106.876C187.094 106.647 187.152 106.189 187.152 105.732C187.209 105.332 187.437 105.103 187.78 105.046C188.238 104.932 188.695 104.874 189.096 104.76C189.667 104.646 189.839 104.474 189.667 104.017C189.61 103.902 189.496 103.731 189.382 103.731C188.981 103.674 188.638 103.674 188.238 103.731C188.124 103.731 187.952 103.902 187.952 104.017C187.895 104.474 187.552 104.36 187.323 104.36ZM189.667 105.103C189.21 105.16 188.81 105.217 188.409 105.275C188.238 105.332 188.124 105.389 187.952 105.446C187.666 105.675 187.723 106.304 188.009 106.418C188.409 106.59 188.81 106.533 189.153 106.361C189.725 106.132 189.782 105.961 189.667 105.103Z" fill="#5F7691"/>
<path d="M196.529 105.847C196.758 105.847 196.929 105.847 197.101 105.847C197.044 106.476 196.586 106.876 195.957 107.048C195.443 107.162 194.928 107.105 194.471 106.876C194.07 106.647 193.784 106.304 193.67 105.847C193.441 105.104 193.499 104.36 194.013 103.674C194.356 103.217 195.157 102.988 195.671 103.102C196.357 103.217 196.758 103.617 196.986 104.246C197.101 104.532 197.101 104.818 197.158 105.104C197.158 105.161 196.986 105.275 196.872 105.275C196.129 105.275 195.385 105.275 194.699 105.275C194.128 105.275 194.07 105.39 194.299 105.904C194.528 106.362 194.985 106.533 195.443 106.59C195.957 106.59 196.357 106.304 196.529 105.847ZM194.356 104.761C194.928 104.761 195.5 104.761 196.072 104.761C196.186 104.761 196.415 104.703 196.415 104.703C196.472 104.589 196.415 104.417 196.357 104.246C196.072 103.731 195.5 103.503 194.928 103.731C194.528 103.846 194.299 104.303 194.356 104.761Z" fill="#5F7691"/>
<path d="M168.226 105.275C167.254 105.275 166.282 105.275 165.31 105.275C165.195 105.904 165.538 106.361 166.167 106.532C166.625 106.647 167.082 106.59 167.368 106.189C167.654 105.846 167.654 105.789 168.054 105.904C168.169 106.304 167.654 106.876 167.197 107.047C166.568 107.219 165.939 107.219 165.367 106.818C165.024 106.59 164.852 106.247 164.738 105.904C164.338 104.989 164.852 103.616 165.767 103.273C166.796 102.93 167.883 103.33 168.111 104.531C168.169 104.703 168.169 104.874 168.226 104.989C168.226 105.046 168.226 105.16 168.226 105.275ZM165.31 104.76C165.424 104.76 165.538 104.76 165.653 104.76C166.225 104.76 166.739 104.76 167.311 104.76C167.482 104.76 167.597 104.703 167.54 104.531C167.368 104.017 167.082 103.731 166.51 103.674C165.824 103.559 165.195 104.131 165.31 104.76Z" fill="#5F7691"/>
<path d="M171.828 104.188C171.485 104.245 171.199 104.303 171.028 103.96C170.856 103.617 170.513 103.674 170.227 103.617C170.056 103.617 169.884 103.617 169.77 103.674C169.656 103.731 169.484 103.845 169.427 104.017C169.37 104.188 169.427 104.417 169.656 104.474C170.113 104.589 170.513 104.76 170.971 104.874C171.543 104.989 172 105.275 171.943 106.075C171.886 106.533 171.371 106.99 170.856 107.047C170.456 107.104 170.056 107.104 169.656 107.047C169.084 106.933 168.684 106.533 168.626 105.846C168.798 105.846 169.027 105.846 169.198 105.846C169.484 106.475 169.884 106.647 170.571 106.533C170.685 106.533 170.856 106.533 170.971 106.475C171.199 106.361 171.314 106.19 171.257 105.904C171.199 105.618 170.914 105.561 170.685 105.446C170.227 105.275 169.77 105.218 169.313 105.046C168.798 104.817 168.626 104.531 168.684 103.96C168.741 103.617 169.198 103.273 169.598 103.159C170.113 103.045 170.628 103.102 171.085 103.273C171.6 103.388 171.657 103.788 171.828 104.188Z" fill="#5F7691"/>
<path d="M200.76 104.189C200.475 104.246 200.189 104.303 200.017 103.903C199.96 103.731 199.388 103.56 199.159 103.617C199.102 103.617 199.045 103.674 198.988 103.674C198.702 103.674 198.473 103.731 198.473 104.132C198.473 104.475 198.759 104.589 198.988 104.646C199.445 104.761 199.903 104.875 200.36 105.047C200.703 105.161 200.932 105.39 200.989 105.79C201.046 106.247 200.875 106.59 200.532 106.819C199.96 107.219 198.588 107.162 198.13 106.762C197.844 106.533 197.673 106.247 197.673 105.847C197.902 105.847 198.073 105.847 198.245 105.847C198.416 106.419 198.874 106.647 199.503 106.533C199.674 106.476 199.903 106.533 200.017 106.419C200.189 106.304 200.303 106.076 200.303 105.904C200.303 105.618 200.017 105.447 199.731 105.39C199.274 105.275 198.874 105.161 198.416 105.047C197.959 104.932 197.73 104.646 197.73 104.132C197.73 103.617 198.016 103.331 198.416 103.16C198.931 102.931 199.503 102.988 200.017 103.16C200.475 103.388 200.76 103.674 200.76 104.189Z" fill="#5F7691"/>
<path d="M118.195 80.9175C117.795 80.9175 117.395 81.0319 117.28 80.5744C117.28 80.5744 117.109 80.5744 117.051 80.6316C116.48 80.9747 115.908 81.0318 115.279 80.8031C114.822 80.6316 114.764 80.2314 114.822 79.8311C114.822 79.488 115.107 79.2021 115.45 79.0878C115.851 78.9734 116.308 78.9162 116.708 78.8019C116.937 78.7447 117.166 78.7447 117.223 78.4017C117.28 78.1158 117.166 77.9442 116.823 77.7727C116.48 77.6583 116.137 77.7727 115.851 77.8299C115.794 77.8299 115.679 77.9442 115.679 78.0014C115.622 78.4017 115.279 78.3445 115.05 78.2873C114.993 77.8299 115.222 77.4296 115.794 77.3153C116.251 77.2009 116.823 77.2009 117.28 77.3153C117.795 77.4296 117.909 77.887 117.909 78.3445C117.909 78.9162 117.909 79.488 117.909 80.0598C117.909 80.1742 118.024 80.2885 118.081 80.4029C118.081 80.5744 118.138 80.7459 118.195 80.9175ZM117.166 79.145C116.937 79.145 116.766 79.2021 116.537 79.2021C116.308 79.2593 116.137 79.2593 115.908 79.3165C115.679 79.3737 115.45 79.488 115.393 79.7739C115.336 80.0026 115.336 80.2885 115.622 80.3457C115.965 80.4029 116.365 80.4601 116.708 80.2885C117.223 80.117 117.28 79.8883 117.166 79.145Z" fill="#5F7691"/>
<path d="M138.265 80.86C137.579 81.0315 137.464 80.9743 137.236 80.5169C136.835 80.9171 136.321 80.9743 135.749 80.9171C135.234 80.86 134.948 80.6312 134.891 80.0595C134.834 79.602 135.063 79.2018 135.52 79.0303C135.92 78.9159 136.321 78.8587 136.721 78.7444C137.007 78.6872 137.293 78.63 137.293 78.3441C137.35 78.0582 137.121 77.8867 136.835 77.7723C136.206 77.5436 135.692 77.7723 135.52 78.3441C135.349 78.3441 135.234 78.3441 135.063 78.3441C135.006 77.8867 135.234 77.4293 135.749 77.3149C136.263 77.2006 136.835 77.1434 137.35 77.3721C137.636 77.4864 137.807 77.7723 137.807 78.0582C137.807 78.6872 137.807 79.3733 137.807 80.0023C137.807 80.1738 137.807 80.2882 138.036 80.3454C138.15 80.4597 138.208 80.6884 138.265 80.86ZM137.236 79.1446C136.835 79.2018 136.435 79.259 136.035 79.3733C135.749 79.4305 135.577 79.6021 135.463 79.8308C135.406 80.0595 135.52 80.2882 135.749 80.3454C135.978 80.4025 136.263 80.4026 136.492 80.4026C137.064 80.4026 137.464 79.7164 137.236 79.1446Z" fill="#5F7691"/>
<path d="M142.553 78.4012C142.496 77.9438 142.782 77.5435 143.296 77.4292C143.811 77.3148 144.383 77.2576 144.897 77.4863C145.183 77.6007 145.298 77.8294 145.298 78.1153C145.298 78.7443 145.298 79.3732 145.298 80.0022C145.298 80.2309 145.298 80.4024 145.584 80.5168C145.641 80.574 145.698 80.8027 145.755 80.917C145.298 81.0314 144.955 81.0314 144.783 80.5168C144.326 80.9742 143.754 81.0314 143.182 80.9742C142.782 80.917 142.439 80.6883 142.382 80.2881C142.324 79.6591 142.496 79.2589 143.011 79.1445C143.411 79.0302 143.868 78.973 144.268 78.8586C144.497 78.8014 144.726 78.7443 144.783 78.4584C144.783 78.1725 144.669 78.0581 144.383 77.8866C144.04 77.7151 143.697 77.8866 143.411 77.9438C143.354 77.9438 143.239 78.0581 143.239 78.1153C143.068 78.4584 142.839 78.4584 142.553 78.4012ZM144.726 79.1445C144.326 79.2017 143.925 79.316 143.525 79.3732C143.182 79.4304 143.011 79.6019 142.953 79.945C142.953 80.1165 143.068 80.4024 143.239 80.4596C143.582 80.5168 143.925 80.5168 144.268 80.4024C144.783 80.1166 144.84 79.7735 144.726 79.1445Z" fill="#5F7691"/>
<path d="M184.579 106.991C184.007 107.048 184.007 107.048 183.95 106.648C183.607 106.762 183.264 106.991 182.864 107.048C182.292 107.163 181.377 106.877 181.377 106.076C181.377 105.161 181.377 104.247 181.377 103.332C181.377 103.275 181.377 103.217 181.377 103.16C181.549 103.16 181.72 103.16 181.892 103.16C181.892 103.961 181.892 104.761 181.892 105.562C181.892 105.733 181.949 105.848 182.006 106.019C182.063 106.305 182.292 106.419 182.578 106.476C183.321 106.591 183.893 106.133 183.893 105.39C183.893 104.647 183.893 103.903 183.893 103.16C184.122 103.16 184.293 103.16 184.522 103.16C184.579 104.418 184.579 105.733 184.579 106.991Z" fill="#5F7691"/>
<path d="M139.694 81.489C139.866 81.2603 139.923 81.146 140.037 80.9745C139.351 80.8601 138.894 80.517 138.665 79.8881C138.322 79.0304 138.779 77.8297 139.58 77.4294C140.323 77.0863 141.352 77.4294 141.695 78.1727C141.752 78.2871 141.752 78.5158 141.695 78.5158C141.467 78.573 141.238 78.6302 141.123 78.4014C140.952 77.944 140.609 77.7725 140.151 77.8297C139.637 77.8868 139.351 78.1727 139.179 78.7445C139.008 79.2591 139.122 79.7165 139.351 80.1168C139.522 80.4599 139.866 80.517 140.266 80.517C140.609 80.517 140.952 80.4027 141.066 80.0596C141.181 79.6593 141.409 79.6594 141.752 79.7165C141.81 80.1168 141.409 80.6886 141.009 80.8601C140.838 80.9173 140.666 80.9745 140.495 81.0316C140.38 81.0888 140.266 81.146 140.209 81.2604C140.266 81.2604 140.38 81.2603 140.437 81.3175C140.723 81.3747 140.895 81.4891 140.895 81.8321C140.838 82.118 140.666 82.3467 140.38 82.3467C140.094 82.3467 139.808 82.3467 139.522 82.3467C139.522 82.2324 139.522 82.118 139.522 82.0037C139.58 82.0037 139.58 82.0037 139.637 82.0037C139.808 82.0037 139.98 82.0608 140.151 82.0608C140.209 82.0608 140.323 81.8893 140.38 81.8321C140.323 81.775 140.209 81.7178 140.151 81.6606C140.037 81.5462 139.866 81.489 139.694 81.489Z" fill="#5F7691"/>
<path d="M147.871 77.3154C148.9 77.2582 149.586 78.0587 149.586 79.1451C149.586 80.1743 148.843 80.9748 147.813 80.9176C146.899 80.9176 146.098 80.1171 146.098 79.0307C146.098 78.1159 146.784 77.2582 147.871 77.3154ZM147.928 80.4602C148.271 80.5174 148.614 80.2886 148.786 79.9456C149.014 79.6025 149.014 79.2023 148.957 78.7448C148.843 78.2302 148.557 77.9443 148.042 77.7728C147.642 77.6584 147.299 77.8872 147.07 78.1159C146.727 78.459 146.784 78.9164 146.784 79.3738C146.784 80.0599 147.185 80.4602 147.928 80.4602Z" fill="#5F7691"/>
<path d="M125.571 79.0871C125.514 78.3438 125.8 77.6577 126.543 77.429C127.515 77.0859 128.601 77.3146 128.944 78.5726C129.116 79.3159 129.002 79.9448 128.544 80.4594C128.144 80.9169 127.229 81.0884 126.714 80.9168C126.028 80.631 125.571 80.1735 125.571 79.373C125.571 79.2587 125.571 79.2015 125.571 79.0871ZM128.373 79.03C128.373 79.03 128.373 78.8584 128.373 78.7441C128.258 78.2295 127.915 77.8864 127.401 77.7149C127.172 77.6577 126.6 77.8292 126.428 78.1151C126.085 78.6869 125.971 79.2015 126.371 79.8876C126.714 80.4594 127.515 80.5738 128.029 80.1164C128.315 79.8877 128.43 79.5446 128.373 79.03Z" fill="#5F7691"/>
<path d="M121.282 78.4014C121.053 78.4586 120.825 78.4585 120.71 78.1727C120.482 77.7724 119.681 77.658 119.338 77.9439C119.224 78.0011 119.167 78.2298 119.224 78.287C119.338 78.4586 119.452 78.5729 119.624 78.6301C120.081 78.8016 120.539 78.916 120.939 79.0303C121.339 79.1447 121.511 79.4306 121.568 79.7736C121.625 80.1739 121.397 80.5742 121.053 80.6885C120.367 80.9744 119.681 81.0316 119.052 80.6313C118.881 80.517 118.709 80.2883 118.595 80.1167C118.538 80.0024 118.595 79.7736 118.652 79.7736C118.823 79.7165 118.995 79.6593 119.109 79.888C119.452 80.4598 120.31 80.6313 120.768 80.2883C120.996 80.1167 121.053 79.7736 120.768 79.6021C120.596 79.4878 120.367 79.3734 120.139 79.3162C119.796 79.2019 119.452 79.1447 119.109 79.0303C118.709 78.916 118.595 78.5729 118.538 78.2298C118.48 77.9439 118.766 77.5437 119.109 77.4293C119.681 77.2006 120.31 77.2006 120.882 77.4293C121.225 77.6581 121.339 77.944 121.282 78.4014Z" fill="#5F7691"/>
<path d="M124.828 78.4016C124.599 78.4016 124.313 78.5159 124.199 78.1157C124.142 77.887 123.456 77.7154 123.227 77.8298C123.227 77.8298 123.227 77.8298 123.17 77.8298C122.941 77.887 122.655 78.0013 122.655 78.2872C122.655 78.5731 122.941 78.6874 123.17 78.7446C123.57 78.859 124.028 78.9733 124.428 79.0877C124.771 79.202 125 79.4307 125 79.7738C125.057 80.1741 124.885 80.5171 124.542 80.7459C123.856 81.0889 123.227 81.0889 122.541 80.803C122.312 80.6887 122.198 80.4599 122.084 80.2312C122.026 80.1169 122.084 79.9454 122.084 79.831C122.255 79.8882 122.427 79.8882 122.598 80.0025C122.77 80.1169 122.884 80.4028 123.056 80.46C123.399 80.5171 123.799 80.5171 124.142 80.46C124.256 80.46 124.371 80.2313 124.428 80.1169C124.485 79.9454 124.485 79.7166 124.256 79.6595C123.856 79.5451 123.513 79.4308 123.113 79.3164C122.884 79.2592 122.712 79.202 122.541 79.0877C122.084 78.8018 122.084 78.0585 122.484 77.7154C122.884 77.3723 124.142 77.3151 124.542 77.6582C124.771 77.8298 124.885 78.1728 125.057 78.4016C124.942 78.2872 124.885 78.3444 124.828 78.4016Z" fill="#5F7691"/>
<path d="M132.718 79.6029C132.776 80.1747 132.318 80.6893 131.746 80.8608C131.175 81.0324 130.317 80.8608 129.917 80.3462C129.745 80.1175 129.574 79.7744 129.574 79.4885C129.516 78.9739 129.516 78.4593 129.802 78.0019C130.088 77.6017 130.431 77.3158 130.946 77.3158C131.46 77.3158 132.032 77.2586 132.375 77.716C132.49 77.8304 132.547 77.9447 132.604 78.1163C132.661 78.2306 132.661 78.4593 132.604 78.5165C132.49 78.6308 132.147 78.5165 132.032 78.345C131.689 77.6016 130.66 77.6588 130.317 78.2306C130.088 78.6308 129.917 79.0883 130.088 79.6029C130.203 79.7744 130.203 80.0031 130.374 80.1747C130.832 80.7465 131.804 80.5749 132.032 79.8888C132.261 79.4885 132.49 79.6029 132.718 79.6029Z" fill="#5F7691"/>
<path d="M162.737 106.991C162.68 106.991 162.623 106.991 162.565 106.991C162.165 107.048 161.994 106.934 161.822 106.534C161.422 105.447 161.022 104.361 160.621 103.275C160.621 103.217 160.621 103.16 160.621 103.16C161.25 103.046 161.25 103.046 161.422 103.618C161.708 104.361 161.936 105.161 162.222 105.905C162.279 106.019 162.337 106.134 162.451 106.305C162.623 105.79 162.794 105.39 162.908 104.933C163.08 104.361 163.252 103.789 163.48 103.275C163.537 103.16 163.88 103.103 164.052 103.046C164.109 103.103 164.109 103.103 164.166 103.16C163.652 104.475 163.194 105.733 162.737 106.991Z" fill="#5F7691"/>
<path d="M172.343 103.674C172.343 103.503 172.343 103.388 172.343 103.217C172.4 103.217 172.4 103.16 172.4 103.16C172.972 103.103 172.972 103.103 172.972 102.474C172.972 102.359 172.972 102.302 172.972 102.188C172.972 101.959 173.086 101.959 173.258 101.959C173.429 101.959 173.544 102.016 173.544 102.188C173.544 102.359 173.544 102.588 173.544 102.759C173.486 103.045 173.658 103.16 173.887 103.103C174.001 103.103 174.172 103.103 174.287 103.103C174.287 103.274 174.287 103.446 174.287 103.617C174.115 103.617 173.944 103.617 173.829 103.617C173.658 103.617 173.544 103.674 173.544 103.903C173.544 104.589 173.544 105.275 173.544 106.019C173.544 106.247 173.658 106.476 173.944 106.476C174.058 106.476 174.172 106.476 174.287 106.476C174.287 106.648 174.287 106.819 174.287 107.048C173.944 106.991 173.601 106.934 173.258 106.876C173.029 106.819 172.972 106.648 172.972 106.419C172.972 105.733 172.972 105.047 172.972 104.418C172.972 103.732 172.972 103.732 172.343 103.674Z" fill="#5F7691"/>
<path d="M191.44 103.16C191.612 103.16 191.726 103.16 191.955 103.16C191.955 103.388 191.955 103.56 191.955 103.789L192.012 103.846C192.127 103.732 192.241 103.674 192.355 103.56C192.584 103.274 192.927 103.217 193.27 103.103C193.327 103.103 193.442 103.16 193.442 103.274C193.442 103.388 193.442 103.56 193.442 103.732C193.27 103.789 193.099 103.846 192.927 103.903C192.527 103.96 192.127 104.418 192.127 104.818C192.069 105.561 192.012 106.305 191.955 107.048C191.841 107.048 191.669 107.048 191.44 107.048C191.44 105.733 191.44 104.475 191.44 103.16Z" fill="#5F7691"/>
<path d="M186.18 106.991C186.008 106.991 185.837 106.991 185.665 106.991C185.665 105.218 185.665 103.503 185.665 101.73C185.837 101.73 186.008 101.73 186.18 101.73C186.18 103.446 186.18 105.218 186.18 106.991Z" fill="#5F7691"/>
<path d="M175.202 103.16C175.431 103.16 175.602 103.16 175.831 103.16C175.831 104.418 175.831 105.676 175.831 106.991C175.659 106.991 175.431 106.991 175.202 106.991C175.202 105.733 175.202 104.475 175.202 103.16Z" fill="#5F7691"/>
<path d="M133.576 77.3721C133.747 77.3721 133.919 77.3721 134.148 77.3721C134.148 77.7723 134.148 78.1726 134.148 78.5156C134.148 79.2018 134.148 79.9451 134.148 80.6312C134.148 80.8028 134.091 80.9171 133.919 80.9171C133.747 80.9171 133.633 80.86 133.633 80.6884C133.576 79.602 133.576 78.5156 133.576 77.3721Z" fill="#5F7691"/>
<path d="M145.126 76C145.126 76.5718 144.669 76.9149 144.211 76.6861C144.04 76.629 143.925 76.5146 143.754 76.5146C143.582 76.5146 143.353 76.5718 143.182 76.6289C143.068 76.6861 142.953 76.7433 142.839 76.7433C142.896 76.4002 143.01 76.0572 143.411 76.0572C143.639 76.0572 143.811 76.0572 144.04 76.1144C144.326 76.2287 144.611 76.4002 144.84 76C144.84 76 145.012 76.0572 145.126 76Z" fill="#5F7691"/>
<path d="M175.145 102.474C175.145 102.245 175.145 102.016 175.145 101.73C175.316 101.73 175.545 101.73 175.774 101.73C175.774 101.959 175.774 102.188 175.774 102.474C175.602 102.474 175.373 102.474 175.145 102.474Z" fill="#5F7691"/>
<path d="M134.091 76.0576C134.091 76.2863 134.091 76.4579 134.091 76.6866C133.919 76.6866 133.747 76.6866 133.576 76.6866C133.576 76.4579 133.576 76.2863 133.576 76.0576C133.747 76.0576 133.862 76.0576 134.091 76.0576Z" fill="#5F7691"/>
</svg>
