<svg width="121" height="53" viewBox="0 0 121 53" fill="none" xmlns="http://www.w3.org/2000/svg">
<path d="M34.2175 3.2041C37.0413 3.2041 39.8651 3.2041 42.6346 3.2041C43.1776 3.2041 43.1776 3.2041 43.3405 3.74714C44.3723 7.81992 45.4041 11.8927 46.4359 15.9655C46.4902 16.1284 46.4901 16.2913 46.5987 16.4542C46.9246 15.694 47.0332 14.8794 47.2504 14.1192C48.1736 10.6437 49.0967 7.16828 49.9656 3.63854C50.0742 3.25842 50.1828 3.2041 50.5629 3.2041C53.8212 3.2041 57.0794 3.2041 60.2833 3.2041C60.772 3.2041 60.772 3.20411 60.772 3.69285C60.772 3.85576 60.772 4.01867 60.772 4.18158C60.772 11.1325 60.772 18.029 60.772 24.9799C60.772 25.7402 60.8806 25.6859 60.0661 25.6859C58.0568 25.6859 56.1019 25.6859 54.0927 25.6859C53.5496 25.6859 53.5496 25.6859 53.5496 25.1428C53.5496 20.9614 53.5496 16.8344 53.5496 12.653C53.5496 12.3814 53.5496 12.0556 53.5496 11.7298C53.3324 11.8927 53.3324 12.0556 53.2781 12.2185C52.0834 16.3999 50.8888 20.6356 49.6941 24.817C49.4226 25.8488 49.6397 25.6316 48.5537 25.6859C47.0875 25.6859 45.6213 25.6859 44.1551 25.6859C43.4491 25.6859 43.5577 25.8488 43.3948 25.0885C42.5259 21.9932 41.6571 18.8979 40.7883 15.8026C40.4624 14.6079 40.1366 13.4675 39.8108 12.2728C39.7565 12.1099 39.7565 11.947 39.5393 11.8384C39.5393 12.0556 39.5393 12.2728 39.5393 12.49C39.5393 16.6714 39.5393 20.8528 39.5393 25.0342C39.5393 25.7945 39.6479 25.7401 38.8333 25.7401C36.8241 25.7401 34.8692 25.7401 32.8599 25.7401C32.3169 25.7401 32.3169 25.7402 32.3169 25.2514C32.3169 21.5045 32.3169 17.7575 32.3169 14.0106C32.3169 13.9019 32.3169 13.7933 32.3169 13.6847C32.697 13.6847 33.0771 13.6847 33.5116 13.6847C34.0546 13.6847 34.0546 13.739 34.0546 13.1417C34.0546 12.9788 34.0546 12.8702 34.0546 12.7073C34.0546 9.77485 34.0546 6.84246 34.0546 3.91006C34.1632 3.63854 34.1089 3.42132 34.2175 3.2041Z" fill="#5F7691"/>
<path d="M16.6235 26.5001C18.3069 32.8536 19.9903 39.2071 21.6737 45.5607C21.728 45.7779 21.7823 46.0494 21.8366 46.2666C21.6737 46.4295 21.5108 46.3752 21.3479 46.3752C19.0128 46.3752 16.6777 46.3752 14.3427 46.3752C13.7453 46.3752 13.7454 46.3752 13.6368 45.7779C13.4739 44.9633 13.3652 44.1488 13.2023 43.3342C13.148 43.0084 13.0394 42.8998 12.7136 42.8998C11.4646 42.8998 10.2156 42.8998 8.9123 42.8998C8.58648 42.8998 8.47792 43.0084 8.42362 43.3342C8.26071 44.2031 8.04349 45.0719 7.88058 45.9408C7.82628 46.2666 7.66336 46.3752 7.33754 46.3752C5.00248 46.3752 2.7217 46.3752 0.386638 46.3752C-0.0477915 46.3752 -0.0477783 46.3752 0.0608292 45.9408C0.929689 42.574 1.85287 39.2071 2.72173 35.8403C3.69919 32.0933 4.73096 28.3464 5.70843 24.5994C5.87134 23.9478 5.81704 24.0021 6.52299 24.0021C8.53222 24.0021 10.4872 24.0021 12.4964 24.0021C13.5825 24.9796 14.7771 25.7941 16.1347 26.3914C16.2976 26.3371 16.4606 26.4458 16.6235 26.5001ZM10.9759 30.5728C10.7587 30.6271 10.8129 30.7901 10.7586 30.8444C10.5414 31.7132 10.3785 32.5278 10.2156 33.3966C9.94408 34.6456 9.67256 35.9489 9.40104 37.1979C9.34674 37.4151 9.23815 37.6323 9.61827 37.6323C10.5414 37.6323 11.4103 37.6323 12.3877 37.6323C11.899 35.243 11.4646 32.9079 10.9759 30.5728Z" fill="#5F7691"/>
<path d="M89.7708 11.4034C89.7708 11.1862 89.7708 10.969 89.7708 10.7518C89.7708 8.25382 89.7708 5.70153 89.7708 3.20356C89.7708 3.09495 89.7708 2.93205 89.7708 2.82344C89.7708 2.2804 89.7708 2.2804 90.3138 2.2804C92.3231 2.2804 94.3323 2.2804 96.3415 2.2804C96.9932 2.2804 96.9389 2.2261 96.9389 2.87775C96.9389 4.88699 96.9389 6.84192 96.9389 8.85116C96.9389 14.2272 96.9389 19.6033 96.9389 24.9794C96.9389 25.7939 97.0475 25.6853 96.233 25.6853C94.5496 25.6853 92.8661 25.6853 91.1827 25.6853C90.694 25.6853 90.694 25.6853 90.5311 25.1423C90.4225 24.6535 90.2596 24.1648 90.151 23.6218C90.0967 23.5132 90.0967 23.4045 89.9337 23.2959C89.6622 23.7304 89.445 24.1648 89.1192 24.5449C87.5987 26.3913 84.2319 26.6085 82.5485 24.1648C81.8425 23.133 81.4624 22.047 81.2451 20.8523C80.8107 18.3543 80.8107 15.8563 81.4624 13.3584C81.6796 12.4895 82.0597 11.6749 82.6027 10.9147C84.1775 8.63394 87.5986 8.47102 89.2821 11.0776C89.3907 11.2405 89.445 11.3491 89.5536 11.512C89.6622 11.4577 89.7165 11.4034 89.7708 11.4034ZM90.0966 17.5398C90.1509 16.9967 90.0423 16.4537 89.988 15.9649C89.8794 15.3676 89.6079 15.0961 89.1735 15.0961C88.7391 15.0961 88.5218 15.3676 88.3589 15.9649C88.1417 16.8881 88.196 17.8113 88.2503 18.7344C88.2503 19.0059 88.3046 19.3318 88.4675 19.549C88.6304 19.8205 88.7934 20.0377 89.1192 20.0377C89.445 20.0377 89.6622 19.8205 89.7708 19.549C89.8251 19.3861 89.8794 19.2232 89.9337 19.0059C90.0967 18.5172 90.1509 18.0285 90.0966 17.5398Z" fill="#5F7691"/>
<path d="M30.5792 32.5826C30.8508 32.0939 31.068 31.6595 31.3938 31.3336C33.2944 29.2158 36.4441 29.433 38.0732 31.7681C38.8334 32.8541 39.2136 34.0488 39.3765 35.3521C39.7566 37.7415 39.7023 40.1308 39.105 42.4659C38.8335 43.4434 38.4533 44.3665 37.8017 45.1811C36.1726 47.2446 32.9143 47.1903 31.3938 44.9639C31.2852 44.7467 31.1223 44.5837 30.9051 44.4208C30.9051 44.638 30.9051 44.8009 30.9051 45.0182C30.9051 47.4075 30.9051 49.7969 30.9051 52.1319C30.9051 52.2406 30.9051 52.4035 30.9051 52.5121C30.9051 52.9465 30.9051 53.0008 30.4707 53.0008C28.4071 53.0008 26.2893 53.0008 24.2257 53.0008C23.7913 53.0008 23.7913 53.0008 23.737 52.5664C23.737 52.4578 23.737 52.2949 23.737 52.1863C23.737 45.1268 23.737 38.0673 23.737 31.0078C23.737 30.0846 23.6284 30.1932 24.6058 30.1932C26.1806 30.1932 27.7011 30.1932 29.2759 30.1932C30.1448 30.1932 29.9819 30.1389 30.1991 30.9535C30.3078 31.4422 30.4706 31.931 30.5792 32.474C30.4706 32.4197 30.5249 32.474 30.5792 32.5826ZM32.3713 38.2302C32.3713 37.9044 32.3713 37.5242 32.3713 37.1984C32.3713 36.8726 32.2627 36.5468 32.1541 36.221C32.0455 35.9494 31.8283 35.7865 31.5024 35.7865C31.1766 35.7865 31.0137 35.9494 30.8508 36.221C30.7965 36.3296 30.7422 36.3839 30.7422 36.4925C30.4707 37.6329 30.4707 38.8275 30.7422 39.9679C30.8508 40.4567 31.1766 40.7282 31.5024 40.7282C31.8283 40.7282 32.0997 40.4567 32.2626 39.9679C32.4256 39.4249 32.3713 38.8275 32.3713 38.2302Z" fill="#5F7691"/>
<path d="M84.7751 36.0578C84.7751 36.0578 84.775 36.1121 84.8293 36.1121C84.8293 36.1664 84.8836 36.2207 84.9379 36.275C84.9379 36.3293 84.9923 36.3836 85.0466 36.4379C85.0466 36.4379 85.0466 36.4922 85.1009 36.4922C85.1009 36.5465 85.1551 36.6008 85.2094 36.6551C85.2094 36.7095 85.2638 36.7638 85.3181 36.8181C85.3181 36.8181 85.3181 36.8724 85.3724 36.8724C85.3724 36.9267 85.4267 36.981 85.481 37.0353C85.481 37.0896 85.5353 37.1439 85.5896 37.1982L85.6439 37.2525C85.6439 37.3068 85.6982 37.3611 85.7525 37.4154V37.4697C85.7525 37.524 85.8068 37.5783 85.8611 37.6326C85.8611 37.6326 85.8611 37.6869 85.8611 37.7412C85.8611 38.23 86.2956 38.5015 86.4585 38.8816V38.9359C86.4585 38.9902 86.5127 39.0445 86.567 39.0988L86.6214 39.1531C86.6214 39.2074 86.6757 39.2617 86.73 39.316C86.73 39.3703 86.7843 39.4246 86.8386 39.4789C87.1644 39.9677 87.6532 40.3478 87.979 40.8365C88.1962 41.1081 88.3591 40.8908 88.522 40.7822C88.6306 41.0538 88.3048 41.271 88.3591 41.5425C88.522 41.4882 88.7392 41.4339 88.7392 41.2167C88.7392 41.108 88.7935 40.9451 88.9021 40.9994C89.1736 41.1081 89.3909 40.8365 89.6624 40.9451C89.4995 41.1624 89.2822 41.271 89.2279 41.4882C89.1193 41.9226 88.7935 42.1941 88.4677 42.4657C88.3048 42.5743 88.1962 42.6829 88.0333 42.8458C87.8704 43.0087 87.9246 43.1716 88.1419 43.2802C88.4677 43.4431 88.6306 43.4431 88.9021 43.063C89.5538 42.0312 90.1511 40.9994 90.8028 39.9677C91.1286 39.4246 91.4544 38.9359 91.6716 38.2843C91.4001 38.4472 91.2372 38.6101 91.0743 38.773C90.8571 38.9902 90.6398 39.3703 90.3683 39.4246C89.8253 39.5876 89.6624 39.9677 89.3366 40.2935C89.2823 40.3478 89.228 40.4564 89.1194 40.5107C89.0108 40.565 88.9021 40.5107 88.8478 40.4564C89.1737 40.022 89.2822 39.5875 89.2822 39.0445C89.2822 38.9902 89.3366 38.8816 89.3909 38.8273C89.771 38.5558 89.9339 38.1757 90.314 37.9041C90.8027 37.524 91.2915 37.1439 91.563 36.5466C91.7802 36.0578 92.106 35.6234 92.5405 35.2432C92.8663 34.9717 93.1921 34.6459 93.3007 34.1572C93.3007 34.0486 93.355 33.9943 93.4637 33.94C94.1153 33.5055 94.3868 32.7996 94.8212 32.2023C94.9842 31.985 95.0385 31.6592 95.3643 31.4963C95.5815 31.3877 95.6901 31.0076 95.7444 30.736C95.7987 30.4645 95.7987 30.2473 96.1788 30.3016C96.3418 30.3016 96.3961 30.0844 96.4504 29.9758C97.1563 28.9983 97.6993 27.9122 98.351 26.8805C98.6768 26.3374 99.0569 25.7944 99.4914 25.3057C99.6543 25.0885 99.8172 24.8169 100.143 24.7626C100.252 24.7626 100.414 24.654 100.414 24.5454C100.469 24.2196 100.74 24.2196 100.958 24.111C101.012 24.0567 101.12 24.111 101.066 24.0024C101.066 23.9481 100.903 23.9481 100.795 23.8938C101.229 23.3507 101.663 22.8077 102.261 22.4276C102.478 22.319 102.641 22.156 102.75 21.9388C102.912 21.613 103.184 21.3415 103.401 21.07C103.673 20.7442 103.944 20.4183 104.161 20.0382C104.324 19.7667 104.596 19.4952 104.976 19.4952C105.193 19.4952 105.41 19.4952 105.573 19.4409C105.791 19.3866 105.791 19.6038 105.899 19.6581C106.062 19.6038 105.953 19.4409 106.008 19.3323C106.062 19.0064 106.116 18.6806 106.442 18.4634C106.659 18.3005 106.985 18.1919 106.768 17.8118C107.04 17.7032 106.985 17.2144 107.42 17.2687C107.583 17.2687 107.691 17.1601 107.8 17.0515C108.017 16.8886 108.234 16.78 108.397 16.5628C108.832 16.074 109.429 16.0197 110.081 15.9111C110.081 16.1827 109.809 16.1826 109.7 16.2912C109.592 16.3999 109.212 16.3999 109.592 16.6714C109.7 16.78 109.538 16.78 109.483 16.8343C109.375 16.9429 109.212 16.9972 109.049 17.0515C108.723 17.0515 108.56 17.2144 108.56 17.5402C108.506 17.5945 108.451 17.6488 108.397 17.6488C108.071 17.7574 108.017 17.9747 108.18 18.2462C108.126 18.3005 108.071 18.4091 108.18 18.4634C108.126 18.4091 108.071 18.4634 108.071 18.5177C108.071 18.5177 108.071 18.572 108.126 18.572C108.18 18.572 108.234 18.5177 108.234 18.4634C108.451 18.4634 108.614 18.1919 108.886 18.2462C109.049 18.4091 108.94 18.5177 108.886 18.6806C108.832 18.7892 108.723 18.8978 108.886 19.0607C109.049 19.0064 109.266 18.9521 109.375 18.7349C109.538 18.572 109.7 18.4091 109.809 18.2462C110.135 17.5945 110.732 17.2144 111.33 16.78C111.547 16.6171 111.655 16.3456 111.981 16.1827C112.09 16.237 111.927 16.6714 112.307 16.4542C112.361 16.4542 112.361 16.3999 112.416 16.3999C112.579 16.3456 112.796 16.0197 112.959 16.1827C113.122 16.3456 112.959 16.6171 112.85 16.78C112.687 17.0515 112.524 17.323 112.307 17.5402C111.764 18.1376 111.167 18.7349 110.624 19.3323C110.569 19.3323 110.515 19.3866 110.515 19.4409C110.298 19.6581 110.026 19.8753 110.298 20.2011C110.135 20.3097 109.972 20.364 109.918 20.5812C109.918 20.6355 109.918 20.7442 109.863 20.7985C109.755 20.8528 109.7 20.9614 109.7 21.07C109.646 21.2329 109.7 21.3415 109.918 21.2872C110.026 21.2872 110.189 21.2872 110.135 21.4501C110.081 21.7216 109.972 21.9931 109.809 22.2104C109.429 22.6991 109.157 23.2421 108.614 23.5679C108.234 23.7852 108.126 24.3282 107.854 24.654C107.746 24.7626 107.746 24.9255 107.583 24.9798C107.474 24.9798 107.311 25.0884 107.202 24.9255C107.148 24.8169 107.257 24.654 107.148 24.5997C106.388 24.9799 105.736 25.5229 105.302 26.2831C105.193 26.5547 104.976 26.7176 104.759 26.9891C104.867 27.152 105.03 26.9891 105.139 27.152C105.03 27.3692 104.867 27.4778 104.705 27.6407C104.433 27.9122 104.161 28.2381 103.944 28.5639C103.89 28.6182 103.836 28.7268 103.944 28.8354C103.944 28.7811 103.89 28.7811 103.836 28.8354V28.8897C103.89 28.8897 103.89 28.8897 103.944 28.8354C104.161 28.944 104.107 29.1069 103.999 29.2155C103.618 29.65 103.347 30.1387 102.913 30.5188C102.152 31.1705 101.718 32.0393 101.175 32.8539C100.849 33.3969 100.414 33.8314 100.143 34.3744C99.2198 35.8949 97.9709 37.0896 96.9934 38.5558C96.0159 40.022 94.9842 41.4339 93.9524 42.8458C93.7352 43.1716 93.4093 43.4431 93.2464 43.7689C93.0292 44.5292 92.269 44.9093 91.8888 45.561C91.6716 45.9411 91.1829 46.1583 90.8571 46.4841C90.5312 46.7556 90.0968 46.9185 90.0968 47.4616C90.0968 47.5159 89.9882 47.6245 89.9339 47.5702C89.4452 47.353 89.2279 47.7331 88.9564 48.0046C88.9564 48.0589 88.9021 48.0589 88.8478 48.0589C88.6849 48.0046 88.4134 48.3305 88.3591 47.9503C88.3591 47.896 88.3591 47.8417 88.3591 47.7874C88.4134 47.6788 88.4677 47.5159 88.522 47.4073C88.5763 47.1901 88.7392 47.0815 89.0107 47.1901C89.2279 46.9185 89.3909 46.7013 89.6081 46.4298C89.6624 46.3755 89.7167 46.2669 89.6081 46.2126C89.4995 46.1583 89.3909 46.2126 89.3909 46.3212C89.228 46.5927 89.0651 46.8642 89.0651 47.1901C88.9565 47.5159 88.5763 47.1901 88.4134 47.4616C88.3591 47.5702 88.1962 47.5702 88.0876 47.5159C87.9247 47.4073 87.9247 47.2444 87.979 47.1358C88.0333 46.9186 88.1419 46.7013 88.1962 46.4841C87.9789 46.7556 87.816 47.0815 87.6531 47.353C87.3816 47.7331 87.7618 47.5702 87.8161 47.6788C87.7074 48.0589 87.4903 48.1675 87.1644 48.0046C87.0015 47.9503 86.8929 47.9503 86.7843 48.0046C86.6214 48.1132 86.4584 48.0589 86.2955 48.0046C86.567 47.4616 87.1101 47.1901 87.3816 46.7013C87.4359 46.7013 87.436 46.647 87.436 46.5927H87.3816C87.3273 46.647 87.3273 46.647 87.3816 46.7013C87.1644 46.4841 86.8929 46.7557 86.6757 46.5927C86.4585 46.4298 86.3499 46.2126 86.1869 45.9954C86.1326 45.8868 85.9697 45.8868 85.8611 45.7782C85.6439 45.6153 85.481 45.4524 85.1552 45.6696C84.9379 45.8325 84.4492 45.6153 84.2863 45.3437C83.6347 44.4749 82.983 43.6603 82.2771 42.8458C81.897 42.4113 81.5711 42.0312 81.4082 41.4882C81.4082 41.3796 81.2996 41.271 81.2996 41.2167C81.4625 40.6736 81.0824 40.4021 80.8109 40.022C80.6479 39.8591 80.485 39.6419 80.2678 39.4789C79.942 39.2074 79.7791 38.8273 79.6705 38.4472C79.5076 37.9584 79.399 37.5783 78.8016 37.524C78.5301 37.524 78.4215 37.1439 78.5301 36.8724C78.6387 36.6551 78.7473 36.4922 78.6387 36.2207C78.6387 36.1121 78.5844 36.1121 78.4758 36.1121C78.4215 36.0578 78.4215 35.9492 78.4215 35.8406C78.4215 35.732 78.4215 35.6777 78.3129 35.6234C78.15 35.5148 77.9871 35.4062 77.8242 35.3519C77.6069 35.2433 77.6613 35.026 77.7156 34.8631C77.7156 34.6459 77.8785 34.7002 78.0414 34.7002C78.5301 34.6459 78.693 34.3744 78.693 33.8857C78.693 33.7227 78.5844 33.5598 78.9102 33.6141C78.9645 33.6141 79.0189 33.5055 79.0189 33.4512C78.9646 32.9082 79.1817 32.3109 78.9102 31.8221C78.8559 31.7678 78.8559 31.6592 78.8559 31.6049C78.8016 31.3877 78.9102 31.2791 79.1817 31.2791C79.5619 31.2791 79.942 31.3334 80.2678 31.4963C80.6479 31.6592 80.9738 31.6592 81.2996 31.3334C81.5168 31.1162 81.734 31.1705 81.8426 31.4963C82.0056 31.985 82.3314 32.3652 82.6029 32.7453C82.6029 32.7996 82.6572 32.8539 82.7115 32.9082C82.7115 32.9625 82.7658 33.0168 82.8201 33.0168C82.8201 33.0711 82.8744 33.1254 82.9287 33.1254C82.9287 33.1797 82.983 33.234 83.0373 33.2883L83.0917 33.3426C83.0917 33.3969 83.1459 33.4512 83.2002 33.5055L83.2545 33.5598C83.2545 33.6141 83.3089 33.6684 83.3632 33.7227C83.3632 33.7227 83.3632 33.7771 83.3632 33.8314C83.3632 33.8857 83.4175 33.94 83.4718 33.9943C83.4718 33.9943 83.4718 34.0486 83.4718 34.1029C83.4718 34.1572 83.526 34.2115 83.5803 34.2658V34.3201C83.5803 34.3744 83.6347 34.4287 83.689 34.483C83.689 34.5373 83.7433 34.5916 83.7976 34.5916V34.6459H83.8519C83.9062 34.8088 84.0691 34.8631 84.232 34.9174C84.2863 35.0803 84.3406 35.2433 84.5035 35.3519C84.6121 35.2433 84.5579 35.0803 84.7208 35.026C84.7208 35.0803 84.7208 35.0803 84.7208 35.1346C84.7208 35.3519 84.775 35.5148 84.9379 35.6777C84.9379 35.732 84.9379 35.732 84.9379 35.7863C84.9379 35.8406 84.9923 35.8949 85.0466 35.9492L85.1009 36.0035C84.6664 36.0035 84.7208 36.0578 84.7751 36.0578ZM107.148 18.8435C106.497 18.9521 106.334 19.3866 106.116 19.9296C106.714 19.4952 106.931 19.278 107.148 18.8435ZM104.433 22.2104C104.922 21.8302 104.922 21.8302 104.976 21.3958C104.759 21.613 104.542 21.7759 104.433 22.2104Z" fill="#5F7691"/>
<path d="M111.275 43.8227C110.949 44.4201 110.569 44.9088 110.08 45.3432C108.669 46.7008 106.225 47.0266 104.487 46.1578C103.618 45.7234 103.021 45.0717 102.695 44.1486C102.152 42.4108 102.098 40.7274 103.238 39.1526C103.944 38.1751 105.03 37.6321 106.171 37.252C107.365 36.8719 108.614 36.7632 109.809 36.6546C109.972 36.6546 110.135 36.6546 110.298 36.6003C110.786 36.4917 111.004 36.2745 111.058 35.7315C111.112 35.4057 111.112 35.1341 111.058 34.8083C111.004 34.4282 110.841 34.211 110.569 34.1567C110.298 34.1567 110.08 34.3196 109.972 34.754C109.863 35.1341 109.809 35.46 109.809 35.8401C109.809 36.1659 109.7 36.2745 109.374 36.2202C108.071 36.1659 106.768 36.1116 105.465 36.0573C104.867 36.003 104.216 36.003 103.618 35.9487C103.075 35.9487 103.075 35.8944 103.075 35.4057C103.184 33.1249 104.27 31.4958 106.279 30.464C107.094 30.0296 107.963 29.8124 108.886 29.7038C110.406 29.5409 111.872 29.5409 113.393 29.9753C116.271 30.8441 118.063 33.0706 118.117 36.0573C118.172 37.5778 118.117 39.0983 118.117 40.5645C118.117 40.836 118.117 41.0532 118.172 41.3248C118.28 41.8135 118.498 41.9764 118.932 41.9764C119.041 41.9764 119.203 41.9764 119.312 41.9221C119.855 41.8678 119.855 41.8135 120.018 42.4108C120.181 43.2254 120.398 44.0399 120.561 44.8545C120.67 45.3975 120.67 45.3975 120.181 45.6691C119.475 46.0492 118.66 46.3207 117.846 46.4293C116.76 46.5922 115.674 46.6465 114.588 46.4293C113.121 46.1035 111.981 45.3432 111.438 43.8227C111.438 43.7684 111.384 43.7684 111.384 43.7141C111.384 43.8227 111.384 43.8227 111.275 43.8227ZM111.166 40.4016C111.166 40.293 111.166 40.2387 111.166 40.1844C111.166 39.6956 111.058 39.6413 110.623 39.75C109.863 39.8586 109.429 40.5102 109.537 41.2705C109.592 41.7049 109.863 42.0307 110.189 42.0307C110.515 42.085 110.841 41.8135 110.949 41.4334C111.166 41.1075 111.221 40.7274 111.166 40.4016Z" fill="#5F7691"/>
<path d="M74.5653 38.2835C74.511 40.0755 74.2394 41.7046 73.4249 43.2251C72.556 44.7456 71.307 45.8317 69.6779 46.3747C67.4515 47.135 65.225 47.0807 63.0529 46.2661C60.6092 45.343 59.2516 43.4967 58.6543 41.053C58.2199 39.1524 58.2199 37.1974 58.7086 35.2968C59.5775 31.9843 62.0754 30.0293 65.5508 29.8121C66.7998 29.7035 68.0488 29.7578 69.2435 30.1379C72.013 30.9525 73.5878 32.8531 74.2937 35.6226C74.4566 36.4372 74.511 37.4146 74.5653 38.2835ZM65.4423 38.2835C65.5509 38.8808 65.4422 39.4782 65.6051 40.0755C65.7681 40.6186 65.9853 40.8901 66.3654 40.8901C66.7455 40.8901 67.0171 40.6186 67.1257 40.0755C67.3972 38.8808 67.3972 37.6319 67.1257 36.4372C67.0171 35.8941 66.6912 35.6226 66.3654 35.5683C66.0396 35.5683 65.7681 35.8398 65.6051 36.4372C65.4422 37.0345 65.5509 37.6318 65.4423 38.2835Z" fill="#5F7691"/>
<path d="M74.4572 19.4408C73.1539 19.4408 71.8506 19.4408 70.5473 19.4408C70.1128 19.4408 70.0586 19.4951 70.1129 19.9296C70.1672 20.3097 70.2758 20.6898 70.5473 21.0156C71.0903 21.6673 72.1221 21.613 72.6108 20.907C72.7737 20.6898 72.8823 20.4183 72.9366 20.2011C72.9909 19.9839 73.0452 19.9296 73.2625 19.9296C74.3485 20.0382 75.489 20.1468 76.575 20.2554C77.2267 20.3097 77.9326 20.4183 78.5842 20.4726C78.9644 20.5269 79.0187 20.5812 78.9101 20.9613C78.4213 23.0249 77.1724 24.4368 75.2717 25.3599C73.8055 26.0659 72.2307 26.3374 70.6016 26.1202C69.4069 26.0116 68.2665 25.6858 67.2348 25.1427C65.3884 24.1653 64.1395 22.6447 63.5421 20.6355C62.8362 18.2461 62.8905 15.8568 63.9222 13.576C64.954 11.1867 66.8004 9.77476 69.2983 9.28603C71.036 8.9059 72.8281 9.01451 74.4572 9.66616C76.7379 10.5893 78.0955 12.327 78.6928 14.7164C79.073 16.1826 79.0187 17.5945 78.8015 19.0607C78.7472 19.4951 78.6929 19.4951 78.2041 19.4951C77.0638 19.4408 75.7605 19.4408 74.4572 19.4408ZM71.199 16.074C71.4705 16.074 71.7963 16.074 72.0678 16.074C72.2307 16.074 72.3393 15.9654 72.3393 15.8025C72.285 15.3137 72.285 14.7707 72.0135 14.282C71.8506 13.9562 71.6334 13.7389 71.2532 13.7389C70.8188 13.7389 70.6016 14.0104 70.4387 14.3363C70.2215 14.7707 70.1672 15.2594 70.1129 15.6939C70.0586 16.0197 70.2215 16.1283 70.493 16.074C70.7645 16.074 70.9817 16.074 71.199 16.074Z" fill="#5F7691"/>
<path d="M48.5541 33.2886C48.8256 32.6369 49.0429 32.0396 49.423 31.4965C50.5091 29.976 52.1925 29.433 53.8216 30.0846C54.6361 30.4105 55.2335 31.0078 55.6679 31.7681C56.1567 32.6369 56.3739 33.5601 56.5368 34.5375C56.5911 34.8634 56.591 35.2435 56.6453 35.5693C56.6453 36.0037 56.6454 36.0581 56.211 36.1667C54.7448 36.5468 53.2242 36.9269 51.758 37.2527C51.4322 37.3613 50.9978 37.5786 50.7806 37.4156C50.5091 37.2527 50.7262 36.764 50.6719 36.4382C50.6176 36.0581 50.5633 35.6779 50.4004 35.3521C50.2918 35.0263 50.0746 34.8091 49.7488 34.8091C49.4773 34.8091 49.2057 35.0263 49.0428 35.4064C48.9342 35.7322 48.9342 36.0581 48.9342 36.3839C48.9342 38.6646 48.9342 40.9454 48.9342 43.2261C48.9342 44.095 48.9342 44.9096 48.9342 45.7784C48.9342 46.3215 48.9342 46.3215 48.3912 46.3215C46.3277 46.3215 44.3184 46.3215 42.2549 46.3215C41.7661 46.3215 41.7661 46.3215 41.7661 45.7784C41.7661 43.2262 41.7661 40.6739 41.7661 38.0673C41.7661 35.6236 41.7661 33.2343 41.7661 30.7906C41.7661 30.6277 41.7661 30.5191 41.7661 30.3562C41.7661 30.1389 41.8204 30.0303 42.0376 30.0303C42.1462 30.0303 42.2549 30.0303 42.3635 30.0303C43.9383 30.0303 45.5674 30.0303 47.1422 30.0303C47.6852 30.0303 47.6853 30.0303 47.7939 30.5191C48.0111 31.2793 48.2283 32.0939 48.4455 32.8541C48.3912 33.0713 48.3912 33.18 48.5541 33.2886Z" fill="#5F7691"/>
<path d="M12.0074 13.5758C12.0074 10.3718 12.0074 7.16792 12.0074 3.964C12.0074 3.04084 11.8988 3.14945 12.8219 3.14945C15.4285 3.14945 18.0894 3.14945 20.696 3.14945C20.8046 3.14945 20.9132 3.14945 21.0218 3.14945C21.5648 3.14945 21.5648 3.14945 21.5648 3.69249C21.5648 6.8421 21.5648 9.93741 21.5648 13.087C21.5648 13.6301 21.5648 13.6301 21.0761 13.6301C18.035 13.5758 15.0484 13.5758 12.0074 13.5758Z" fill="#5F7691"/>
<path d="M21.7277 24.1652C21.7277 20.8527 21.7277 17.4858 21.7277 14.1733C21.7277 13.6846 21.7277 13.6846 22.2708 13.6846C24.3343 13.6846 26.3978 13.6846 28.4614 13.6846C29.2216 13.6846 30.0362 13.6846 30.7964 13.6846C31.0137 13.6846 31.1765 13.6846 31.1765 14.0104C31.1765 16.7799 30.525 19.2779 28.5157 21.2871C27.2124 22.5904 25.5833 23.2963 23.8455 23.7308C23.1396 23.948 22.4337 24.0023 21.7277 24.1652C21.7277 24.1652 21.6734 24.1652 21.7277 24.1652Z" fill="#5F7691"/>
<path d="M34.218 3.20392C34.1094 3.42113 34.1637 3.63835 34.1637 3.85557C34.1637 6.78797 34.1637 9.72038 34.1637 12.6528C34.1637 12.8157 34.1637 12.9243 34.1637 13.0872C34.1637 13.6845 34.1637 13.6302 33.6206 13.6302C33.2405 13.6302 32.8604 13.6302 32.426 13.6302C32.2088 13.6302 31.9916 13.6302 31.8287 13.6302C31.2856 13.6302 31.2856 13.6302 31.2856 13.0872C31.2856 10.0462 31.2856 7.05948 31.2856 4.01847C31.2856 3.85556 31.2856 3.69265 31.2856 3.52974C31.2856 3.25822 31.1227 3.09532 30.8512 3.14963C30.6883 3.14963 30.5253 3.14963 30.3624 3.14963C27.7015 3.14963 25.0407 3.14963 22.3798 3.14963C22.2712 3.14963 22.1626 3.14963 22.054 3.14963C21.8368 3.14963 21.6738 3.09532 21.6738 2.8238C21.6738 1.95494 21.6738 1.14038 21.6738 0.271519C21.6738 0.0543037 21.7825 0 21.9997 0C22.1083 0 22.2712 0 22.3798 0C26.0725 0 29.7651 0 33.4578 0C33.5664 0 33.6207 0 33.7293 0C34.1637 0 34.1637 0.0543004 34.218 0.48873C34.218 1.30329 34.218 2.28075 34.218 3.20392Z" fill="#A7B3C8"/>
<path d="M16.6232 26.5001C16.4603 26.4458 16.3517 26.3372 16.1888 26.2829C14.8312 25.7398 13.6908 24.871 12.5505 23.8935C12.3332 23.4048 11.8445 23.0246 11.573 22.5359C10.3783 20.7982 9.78093 18.8432 9.45511 16.7797C9.2922 15.9108 9.18359 14.9877 9.18359 14.0645C9.18359 13.5758 9.18359 13.5758 9.72663 13.5215C10.4869 13.5215 11.3015 13.5215 12.0617 13.5215C12.1703 15.042 12.3332 16.6168 12.822 18.083C13.8538 21.1783 15.9716 23.0247 19.1212 23.7849C19.9901 24.0021 20.8589 24.0021 21.7278 24.1107C21.6192 24.9796 21.7278 25.8484 21.6735 26.7173C21.6735 27.3146 21.6735 27.3146 21.0761 27.3146C19.8271 27.3146 18.5782 26.9888 17.3835 26.663C17.112 26.663 16.8405 26.5544 16.6232 26.5001Z" fill="#A7B3C8"/>
<path d="M88.7931 40.4563C88.8474 40.5649 88.956 40.6192 89.0646 40.5106C89.1732 40.4563 89.2275 40.3477 89.2818 40.2934C89.6076 39.9676 89.7705 39.5332 90.3135 39.4246C90.5851 39.3703 90.8023 38.9901 91.0195 38.7729C91.1824 38.61 91.3453 38.4471 91.6168 38.2842C91.3996 38.9358 91.0738 39.4246 90.748 39.9676C90.1507 40.9994 89.499 42.0311 88.8474 43.0629C88.6302 43.443 88.4129 43.4973 88.0871 43.2801C87.8699 43.1715 87.8156 43.0086 87.9785 42.8457C88.0871 42.7371 88.25 42.5742 88.4129 42.4656C88.7387 42.1941 89.0646 41.9225 89.1732 41.4881C89.2275 41.2166 89.499 41.1623 89.6076 40.9451C89.2818 40.8365 89.0646 41.108 88.8474 40.9994C88.7931 40.9994 88.7387 41.108 88.6844 41.2166C88.6844 41.4338 88.4672 41.4881 88.3043 41.5424C88.3043 41.2709 88.5758 41.0537 88.4672 40.7822C88.5215 40.6735 88.7388 40.6192 88.7931 40.4563ZM90.042 40.6193C90.2592 40.5649 90.3135 40.402 90.3135 40.2391C90.3135 40.2391 90.2593 40.1848 90.205 40.1848C90.0964 40.2934 89.9877 40.402 90.042 40.6193Z" fill="#5F7691"/>
<path d="M88.1414 48.0049C88.25 48.385 88.4672 48.0592 88.6301 48.1135C88.6301 48.6565 88.6301 48.8195 88.4129 49.0367C88.3043 49.1453 88.1957 49.2539 88.0871 49.091C87.9785 48.9823 87.9242 49.091 87.8156 49.1453C87.6527 49.2539 87.5984 49.4711 87.2183 49.4711C87.4898 49.1996 87.707 48.9281 87.9785 48.7108C88.1414 48.5479 88.3586 48.4393 88.0328 48.2221C87.9785 48.1678 88.0328 48.0592 88.1414 48.0049ZM88.1414 48.8737C88.1414 48.8737 88.1414 48.928 88.1414 48.8737C88.1414 48.928 88.1414 48.9281 88.1414 48.9281C88.1957 48.9281 88.1957 48.928 88.1414 48.8737Z" fill="#5F7691"/>
<path d="M87.4901 47.7328C87.4358 47.6242 87.0013 47.7871 87.3271 47.4069C87.5443 47.1354 87.6529 46.8096 87.8702 46.5381C87.8159 46.7553 87.7072 46.9725 87.6529 47.1897C87.5986 47.3526 87.5987 47.4612 87.7616 47.5699C87.8702 47.6242 88.0331 47.6242 88.0874 47.5155C88.2503 47.244 88.6304 47.5699 88.739 47.244C88.4675 47.0811 88.3589 47.244 88.2503 47.4612C88.196 47.5698 88.196 47.7328 88.0874 47.8414C87.9245 47.6785 87.7073 47.7871 87.4901 47.7328Z" fill="#5F7691"/>
<path d="M86.4035 38.9359C86.2406 38.5015 85.8062 38.2843 85.8062 37.7955C85.9691 37.8498 85.9148 38.1213 86.0777 38.1757C86.2406 38.067 86.0776 37.9041 86.1863 37.7412C86.5121 38.0127 86.5664 38.5015 86.8922 38.773C86.7293 38.9359 86.675 38.773 86.6207 38.773C86.5664 38.7187 86.4578 38.5558 86.4035 38.6644C86.3492 38.6644 86.4035 38.8273 86.4035 38.9359Z" fill="#5F7691"/>
<path d="M109.211 18.8425C109.102 19.0054 108.885 19.0597 108.722 19.1684C108.559 19.0597 108.668 18.8968 108.722 18.7882C108.777 18.6253 108.885 18.5167 108.722 18.3538C108.505 18.0823 108.288 18.1909 108.071 18.2995C107.908 18.028 108.016 17.8108 108.288 17.7021C108.342 17.8108 108.179 18.1366 108.559 17.9737C108.722 17.9194 108.885 18.028 109.102 18.028C108.994 18.2452 108.94 18.4081 108.885 18.571C108.885 18.8425 109.048 18.8425 109.211 18.8425Z" fill="#5F7691"/>
<path d="M103.51 20.0927C103.455 19.8212 103.564 19.604 103.672 19.3868C103.781 19.1696 104.053 19.0609 103.998 18.7894C103.998 18.7351 104.161 18.6265 104.27 18.6808C104.433 18.7351 104.378 18.8437 104.324 18.898C104.053 19.2782 103.944 19.7669 103.51 20.0927Z" fill="#5F7691"/>
<path d="M109.809 16.9429C110.026 16.5628 110.134 16.1826 110.46 16.0197C110.569 15.9654 110.677 15.9111 110.732 16.0197C110.786 16.074 110.786 16.1826 110.677 16.2369C110.46 16.4542 110.297 16.8343 109.809 16.9429Z" fill="#5F7691"/>
<path d="M108.451 17.5405C108.451 17.2147 108.614 17.0518 108.94 17.0518C108.94 17.269 109.211 17.2147 109.32 17.3776C109.157 17.4862 109.048 17.7577 108.831 17.4862C108.723 17.3776 108.614 17.5948 108.451 17.5405Z" fill="#5F7691"/>
<path d="M105.899 26.3913C105.79 26.0112 106.007 25.794 106.224 25.5225C106.387 26.0112 106.333 26.1198 105.899 26.3913Z" fill="#5F7691"/>
<path d="M103.51 20.0387C103.455 20.3645 103.347 20.5817 103.075 20.7989C102.912 20.4731 103.129 20.2559 103.184 20.0387C103.238 19.8215 103.401 20.093 103.51 20.0387C103.51 20.093 103.51 20.0387 103.51 20.0387Z" fill="#5F7691"/>
<path d="M80.1586 31.0612C79.9414 30.8983 79.7785 30.7354 79.8871 30.4639C80.4301 30.6811 80.4301 30.6811 80.1586 31.0612Z" fill="#5F7691"/>
<path d="M110.08 20.3091C109.808 19.9833 110.08 19.766 110.297 19.5488C110.134 19.766 110.406 20.1462 110.08 20.3091Z" fill="#5F7691"/>
<path d="M85.5351 45.8867C85.4265 45.941 85.4808 46.0496 85.4265 46.1582C85.3722 46.2668 85.3179 46.2668 85.2093 46.2125C85.155 46.1582 85.0464 46.1039 85.0464 46.0496C85.0464 45.941 85.155 45.8867 85.2636 45.941C85.3179 45.941 85.4265 45.941 85.5351 45.8867Z" fill="#5F7691"/>
<path d="M104.378 18.3546C104.433 18.083 104.596 17.9744 104.759 17.8115C104.813 18.1373 104.65 18.246 104.378 18.3546Z" fill="#5F7691"/>
<path d="M93.1375 46.1582C93.1919 46.2125 93.2461 46.2125 93.2461 46.2668C93.3004 46.3754 93.2462 46.484 93.1375 46.5383C93.0289 46.5926 93.0289 46.484 92.9746 46.4297C93.0289 46.3211 93.0289 46.2125 93.1375 46.1582Z" fill="#5F7691"/>
<path d="M78.1498 36.2207C78.2584 36.2207 78.3128 36.275 78.3128 36.3293C78.0412 36.1664 77.9869 36.5465 77.7697 36.5465C77.7154 36.2207 78.0412 36.3293 78.1498 36.2207Z" fill="#5F7691"/>
<path d="M84.2856 34.9719C84.1227 35.0262 84.177 35.1891 84.0684 35.2977C83.9055 35.1891 83.8512 35.0262 83.7969 34.8633C83.9055 34.9719 84.177 34.7003 84.2856 34.9719Z" fill="#5F7691"/>
<path d="M109.754 24.0016C109.7 24.0016 109.646 23.9473 109.646 23.893C109.646 23.7301 109.808 23.7301 109.917 23.6758C109.971 23.6758 110.026 23.7301 109.971 23.8387C109.917 23.893 109.863 24.0016 109.754 24.0016Z" fill="#5F7691"/>
<path d="M109.7 21.4497C109.537 21.4497 109.428 21.3954 109.482 21.2325C109.537 21.1238 109.537 21.0152 109.645 20.9609C109.7 21.0695 109.537 21.2868 109.7 21.4497Z" fill="#5F7691"/>
<path d="M84.5029 35.5694C84.34 35.4065 84.2856 35.2436 84.2856 35.0264C84.4486 35.1893 84.4486 35.4065 84.5029 35.5694Z" fill="#5F7691"/>
<path d="M109.754 20.6907C109.809 20.4735 109.972 20.4192 110.134 20.3105C110.08 20.5278 109.863 20.5821 109.754 20.6907Z" fill="#5F7691"/>
<path d="M86.5667 48.5476C86.4581 48.7106 86.3495 48.7649 86.1323 48.7106C86.2952 48.602 86.3495 48.4933 86.5667 48.5476Z" fill="#5F7691"/>
<path d="M83.7976 34.8086C83.6347 34.7543 83.4718 34.7543 83.4175 34.5371C83.5804 34.5371 83.7433 34.5914 83.7976 34.8086Z" fill="#5F7691"/>
<path d="M77.9321 35.6777C78.0407 35.732 78.095 35.7863 78.0407 35.8949C77.9864 35.8949 77.9321 35.7863 77.9321 35.6777Z" fill="#5F7691"/>
<path d="M84.612 35.8406C84.5577 35.7863 84.5034 35.732 84.5034 35.6777C84.612 35.732 84.612 35.732 84.612 35.8406Z" fill="#5F7691"/>
<path d="M84.7747 36.0574C84.7204 36.0031 84.666 35.9488 84.666 35.8945C84.7203 35.9488 84.7747 36.0031 84.7747 36.0574Z" fill="#5F7691"/>
<path d="M83.4168 34.5373C83.3624 34.5373 83.3081 34.483 83.3081 34.4287C83.3624 34.4287 83.4168 34.483 83.4168 34.5373Z" fill="#5F7691"/>
<path d="M84.8835 36.2742C84.8292 36.2742 84.7749 36.2199 84.7749 36.1113C84.8835 36.1656 84.8835 36.2199 84.8835 36.2742Z" fill="#5F7691"/>
<path d="M85.0461 36.4383C84.9918 36.384 84.9375 36.384 84.9375 36.2754C84.9918 36.3297 85.0461 36.384 85.0461 36.4383Z" fill="#5F7691"/>
<path d="M85.155 36.6551C85.1007 36.6551 85.0464 36.6008 85.0464 36.4922C85.1007 36.5465 85.155 36.6008 85.155 36.6551Z" fill="#5F7691"/>
<path d="M85.2629 36.8182C85.2086 36.7639 85.1543 36.7639 85.1543 36.6553C85.2086 36.7096 85.2629 36.7096 85.2629 36.8182Z" fill="#5F7691"/>
<path d="M85.426 37.036C85.3717 36.9817 85.3174 36.9817 85.3174 36.873C85.3717 36.9274 85.426 36.9817 85.426 37.036Z" fill="#5F7691"/>
<path d="M85.4802 37.1981C85.4259 37.1438 85.3716 37.1438 85.3716 37.0352C85.4802 37.0895 85.5345 37.0895 85.4802 37.1981Z" fill="#5F7691"/>
<path d="M85.6437 37.4149C85.5894 37.3606 85.5352 37.3063 85.5352 37.252C85.5895 37.3063 85.6437 37.3606 85.6437 37.4149Z" fill="#5F7691"/>
<path d="M85.7521 37.6863C85.6978 37.632 85.6436 37.5777 85.6436 37.5234C85.7522 37.5234 85.7521 37.5777 85.7521 37.6863Z" fill="#5F7691"/>
<path d="M83.3083 34.4276C83.254 34.4276 83.1997 34.3733 83.1997 34.2646C83.254 34.319 83.3083 34.3732 83.3083 34.4276Z" fill="#5F7691"/>
<path d="M83.1453 34.2117C83.091 34.1574 83.0366 34.1031 83.0366 34.0488C83.1452 34.0488 83.1453 34.1031 83.1453 34.2117Z" fill="#5F7691"/>
<path d="M86.5129 39.1531C86.4586 39.0988 86.4043 39.0445 86.4043 38.9902C86.4586 39.0445 86.5129 39.0988 86.5129 39.1531Z" fill="#5F7691"/>
<path d="M86.6755 39.3709C86.6212 39.3709 86.5669 39.3166 86.5669 39.208C86.6212 39.2623 86.6212 39.3166 86.6755 39.3709Z" fill="#5F7691"/>
<path d="M86.7839 39.533C86.7296 39.533 86.6753 39.4787 86.6753 39.3701C86.7296 39.4244 86.7839 39.4787 86.7839 39.533Z" fill="#5F7691"/>
<path d="M83.0368 33.9393C82.9825 33.885 82.9282 33.8307 82.9282 33.7764C82.9825 33.8307 83.0368 33.885 83.0368 33.9393Z" fill="#5F7691"/>
<path d="M82.9279 33.7225C82.8736 33.6682 82.8193 33.6139 82.8193 33.5596C82.8736 33.5596 82.9279 33.6139 82.9279 33.7225Z" fill="#5F7691"/>
<path d="M82.7653 33.451C82.711 33.3967 82.6567 33.3424 82.6567 33.2881C82.7653 33.3424 82.8196 33.3967 82.7653 33.451Z" fill="#5F7691"/>
<path d="M82.6569 33.2342C82.6026 33.1799 82.5483 33.1799 82.5483 33.0713C82.6026 33.0713 82.6569 33.1256 82.6569 33.2342Z" fill="#5F7691"/>
<path d="M82.5476 33.0715C82.4933 33.0715 82.439 33.0172 82.439 32.9629C82.4933 32.9629 82.5476 33.0172 82.5476 33.0715Z" fill="#5F7691"/>
<path d="M82.4391 32.9631C82.3848 32.9631 82.3306 32.9088 82.3306 32.8545C82.3849 32.8545 82.4391 32.8545 82.4391 32.9631Z" fill="#5F7691"/>
<path d="M82.3308 32.7996C82.2765 32.7996 82.2222 32.7453 82.2222 32.6367C82.2765 32.691 82.2765 32.7453 82.3308 32.7996Z" fill="#5F7691"/>
<path d="M110.298 19.55C110.298 19.4957 110.352 19.4414 110.406 19.4414C110.406 19.4414 110.352 19.4957 110.298 19.55Z" fill="#5F7691"/>
<path d="M107.148 18.8438C106.876 19.3325 106.714 19.4954 106.116 19.9298C106.333 19.3868 106.551 18.9524 107.148 18.8438Z" fill="#5F7691"/>
<path d="M88.7388 47.2449C88.7388 46.919 88.956 46.6475 89.0646 46.376C89.1189 46.2674 89.1732 46.2131 89.2818 46.2674C89.3904 46.3217 89.3361 46.4303 89.2818 46.4846C89.1189 46.7561 88.9017 46.9733 88.7388 47.2449Z" fill="#5F7691"/>
<path d="M104.432 22.2101C104.486 21.7756 104.704 21.6127 104.975 21.3955C104.975 21.8299 104.975 21.8299 104.432 22.2101Z" fill="#5F7691"/>
<path d="M108.071 18.3002C108.289 18.1373 108.506 18.0287 108.723 18.3545C108.452 18.3002 108.343 18.5718 108.071 18.5718V18.5174C108.017 18.4631 108.071 18.3545 108.071 18.3002Z" fill="#5F7691"/>
<path d="M108.071 18.5719C108.071 18.6262 108.016 18.6805 107.962 18.6805L107.908 18.6262C107.962 18.5719 108.016 18.4633 108.071 18.5719C108.071 18.5719 108.071 18.5176 108.071 18.5719Z" fill="#5F7691"/>
<path d="M87.0007 46.7561C86.9464 46.7018 86.9464 46.7018 87.0007 46.6475H87.055C87.055 46.7018 87.055 46.7561 87.0007 46.7561Z" fill="#5F7691"/>
<path d="M103.726 28.8894C103.726 28.9437 103.672 28.9437 103.618 28.9437V28.8894C103.672 28.8351 103.726 28.8351 103.726 28.8894C103.781 28.8894 103.726 28.8894 103.726 28.8894Z" fill="#5F7691"/>
<path d="M90.0418 40.619C89.9875 40.4018 90.0961 40.2932 90.2047 40.1846L90.3133 40.2389C90.3133 40.4018 90.259 40.5647 90.0418 40.619Z" fill="#5F7691"/>
<path d="M88.1411 48.873C88.1954 48.9274 88.1954 48.9274 88.1411 48.9274C88.1411 48.9817 88.1411 48.9274 88.1411 48.873C88.1411 48.9274 88.1411 48.873 88.1411 48.873Z" fill="#5F7691"/>
</svg>
