<svg width="121" height="69" viewBox="0 0 121 69" fill="none" xmlns="http://www.w3.org/2000/svg">
<path d="M119.8 33.0729C119.735 33.1381 119.735 33.2033 119.735 33.2685C119.539 36.006 118.887 38.6132 117.779 41.1552C117.453 41.8722 117.127 42.6543 116.736 43.3061C115.889 44.74 114.716 45.9133 113.347 46.891C111.913 47.9338 110.284 48.6508 108.654 49.2374C107.09 49.7589 105.525 50.1499 103.896 50.4106C103.375 50.4758 102.788 50.6062 102.266 50.6714C102.136 50.6714 102.006 50.7365 101.941 50.8669C101.745 51.3232 101.549 51.7794 101.354 52.1705C100.832 53.2134 100.116 54.1911 99.2682 55.0384C98.8772 55.3643 98.486 55.6902 98.095 55.9509C97.5083 56.342 96.8566 56.5375 96.2048 56.6679C95.3575 56.7982 94.5101 56.9286 93.6628 56.8634C93.1413 56.8634 92.6851 56.733 92.2288 56.6027C91.2511 56.2768 90.5342 55.5598 90.1431 54.6473C89.8824 54.0607 89.752 53.4089 89.6869 52.7571C89.5565 51.9098 89.6216 51.1276 89.6216 50.2803C89.6216 49.9544 89.6217 49.6285 89.5565 49.3026C89.5565 49.2374 89.5565 49.1722 89.4913 49.1071C89.4261 48.8463 89.2958 48.7812 89.0351 48.9115C88.8395 48.9767 88.644 49.1071 88.5136 49.1722C88.3181 49.3026 88.1877 49.433 88.0574 49.5633C87.7315 49.824 87.5359 50.1499 87.4056 50.541C87.0797 51.8446 86.5582 53.1482 85.8412 54.3214C85.4502 55.0384 84.9287 55.6902 84.4073 56.342C83.4296 57.3848 82.2564 57.9715 80.8224 58.167C79.9099 58.2974 78.9974 58.2322 78.0849 57.9063C77.4983 57.7107 76.9117 57.3848 76.4554 56.9286C75.6081 56.2116 75.0215 55.2991 74.5652 54.2562C74.3697 53.8 74.3697 53.8 74.0438 54.1259C73.1313 54.908 72.2188 55.625 71.1759 56.2768C70.5893 56.6679 70.0027 56.9938 69.2857 57.2545C68.8946 57.3848 68.5035 57.5152 68.1124 57.5152C67.6562 57.5152 67.2651 57.3197 67.0696 56.8634C67.0044 56.7331 66.9392 56.6027 66.8741 56.4723C66.7437 56.0813 66.8089 55.8205 67.2 55.5598C67.2651 55.4947 67.3303 55.4295 67.4607 55.4295C67.9169 55.2339 68.308 54.9732 68.6339 54.6473C70.0027 53.5393 71.1107 52.2357 72.0232 50.6714C72.4143 50.0196 72.7402 49.3026 72.8054 48.5204C72.8706 48.1294 72.8706 47.7383 72.8054 47.3472C72.6098 46.3695 72.4143 45.3267 72.2188 44.349C72.0884 43.5016 71.958 42.6543 71.8277 41.807C71.6973 40.9596 71.567 40.1775 71.5018 39.3302C71.4366 38.548 71.3714 37.7007 71.3063 36.9185C71.2411 36.0712 71.2411 35.289 71.1759 34.4417C71.1107 33.3988 71.1107 32.356 71.1759 31.3131C71.1759 31.1176 71.1759 30.9872 71.1759 30.7917C71.2411 28.7711 71.5018 26.7505 72.0884 24.73C72.4795 23.296 73.0661 21.8621 73.9786 20.6237C74.5652 19.8415 75.217 19.1246 76.1295 18.6031C77.1724 18.0165 78.3456 17.821 79.5188 18.0165C81.0832 18.2772 82.3868 18.9942 83.4948 20.1022C83.8207 20.4281 84.0814 20.8844 84.3421 21.2755C85.1895 22.5139 85.7761 23.8175 86.102 25.2514C86.2975 26.1639 86.3627 27.0764 86.3627 27.9889C86.3627 29.2925 86.102 30.5961 85.7761 31.8345C85.385 33.3988 84.7984 34.9631 84.1466 36.4623C83.0386 39.0694 81.6698 41.4811 80.1706 43.8927C79.5188 44.9356 78.8671 45.9133 78.2153 46.9561C78.0849 47.1517 78.0197 47.3472 78.0849 47.6079C78.3456 48.8463 78.6064 50.1499 78.9323 51.3883C79.1278 52.1705 79.3885 52.8875 79.7144 53.6045C79.8448 53.9303 80.0403 54.2562 80.2358 54.517C80.3662 54.7125 80.4966 54.8428 80.6921 54.9732C81.0832 55.2991 81.4743 55.2991 81.8653 55.0384C82.1912 54.8428 82.3868 54.5821 82.6475 54.3214C82.9082 53.9303 83.2341 53.6044 83.4296 53.2134C84.0162 52.366 84.4725 51.5187 84.9939 50.6062C85.0591 50.541 85.1243 50.4107 85.1243 50.3455C85.0591 50.2151 84.9939 50.2803 84.9288 50.2151C84.5377 50.1499 84.1466 50.0196 83.7555 49.8892C83.4296 49.7589 83.1689 49.6285 82.9082 49.3678C82.5171 49.0419 82.2564 48.5856 82.2564 48.0642C82.2564 47.6731 82.2564 47.282 82.3216 46.9561C82.6475 45.8481 83.3644 45.1311 84.5377 44.9356C85.2546 44.8052 85.9064 44.9356 86.5582 45.1311C86.9493 45.2615 87.1448 45.5222 87.3404 45.8481C87.4707 46.1088 87.5359 46.3695 87.5359 46.6302C87.5359 46.8258 87.5359 46.9561 87.6011 47.1517C87.7315 47.1517 87.7966 47.0213 87.927 46.9561C88.2529 46.7606 88.644 46.4999 88.9698 46.3695C89.4913 46.1088 89.9476 45.9133 90.5342 45.8481C90.7297 45.8481 90.7297 45.7829 90.7297 45.5874C90.7297 45.1311 90.7297 44.6749 90.7297 44.1534C90.7949 43.2409 90.9252 42.3284 91.2511 41.4811C91.6422 40.4382 92.294 39.5909 93.2717 39.0043C94.0539 38.548 94.9012 38.4176 95.8137 38.4828C96.4003 38.548 96.9217 38.6784 97.4432 38.8739C98.7468 39.3953 99.7244 40.3079 100.376 41.5463C100.963 42.5891 101.354 43.7623 101.68 44.8704C101.941 45.6525 102.136 46.4347 102.266 47.282C102.332 47.4776 102.332 47.6731 102.332 47.8687C102.332 47.999 102.397 48.0642 102.592 48.0642C103.114 47.999 103.57 47.8687 104.091 47.6731C105.916 47.0865 107.546 46.3043 109.045 45.1963C111.392 43.4365 113.021 41.1552 113.868 38.3525C114.194 37.1141 114.455 35.8757 114.651 34.6372C114.716 34.181 114.716 33.7899 114.781 33.3337C114.846 32.5515 114.846 31.7042 114.846 30.922C114.716 28.1193 114.259 25.447 113.151 22.905C112.565 21.5362 111.848 20.2326 110.87 19.1245C110.088 18.212 109.175 17.4951 108.067 16.9736C106.959 16.4522 105.851 16.0611 104.613 15.9308C102.853 15.67 101.158 15.8656 99.5289 16.387C97.7039 16.9736 96.1396 17.8861 94.6405 18.9942C94.5101 19.0594 94.4449 19.1897 94.3146 19.2549C93.7931 19.5808 93.2717 19.7112 92.6851 19.5808C92.2288 19.4504 91.9681 19.1897 91.7074 18.7986C91.5118 18.5379 91.4467 18.2772 91.3163 17.9513C91.1208 17.3647 90.9904 16.8433 90.8601 16.2567C90.5342 14.8879 90.2083 13.5191 89.8172 12.1504C89.361 10.6512 88.7743 9.15211 87.927 7.78334C87.4056 6.93601 86.819 6.15385 86.102 5.43688C85.0591 4.39401 83.8207 3.74223 82.3867 3.41633C81.4091 3.15562 80.3662 3.02525 79.3885 3.02525C78.2153 3.02525 77.042 3.22078 75.934 3.4815C73.9134 4.06811 72.0232 4.98063 70.3286 6.21904C68.7643 7.32709 67.3303 8.63067 66.0267 9.99943C65.2446 10.8468 64.658 11.8245 64.1365 12.8022C63.4847 14.1057 62.8981 15.5397 62.3767 16.9085C62.2463 17.1692 62.1811 17.4299 62.0508 17.7558C61.9204 18.0165 61.8553 18.2772 61.6597 18.4728C61.2686 18.929 60.8124 18.929 60.3561 18.7335C60.1606 18.6683 59.9651 18.5379 59.8347 18.4076C59.7043 18.2772 59.5088 18.0817 59.3784 17.9513C58.857 17.2344 58.14 16.7129 57.4231 16.1915C56.5757 15.67 55.7284 15.2138 54.8159 14.8227C53.4471 14.2361 52.0783 13.7147 50.6444 13.3888C49.8622 13.1932 49.0149 13.0629 48.2327 13.0629C47.7765 13.0629 47.2551 12.9977 46.7988 12.9977C45.4952 12.9977 44.1264 13.0629 42.8229 13.2584C40.346 13.6495 38.0648 14.3665 35.9139 15.6049C33.7629 16.7781 31.9379 18.2772 30.3084 20.1022C28.4834 22.0576 26.9843 24.1434 25.6807 26.4246C25.3548 27.0113 25.0289 27.5979 24.6378 28.2497C24.2468 28.9015 23.7253 29.1622 23.0084 29.0318C22.4869 28.9666 22.0306 28.7059 21.6396 28.38C21.3137 28.1193 20.9878 27.7934 20.5967 27.5327C19.8797 26.9461 19.1628 26.4898 18.3154 26.2291C17.0118 25.7729 15.7082 25.838 14.4698 26.2943C13.6225 26.6202 12.8404 27.1416 12.1234 27.663C11.2761 28.38 10.5591 29.2274 9.90727 30.0747C8.92958 31.5086 8.14744 33.0078 7.43046 34.5721C6.58313 36.3319 5.93133 38.2221 5.34472 40.0471C4.7581 42.0025 4.23666 43.9579 3.91076 45.9785C3.7804 46.891 3.65005 47.8035 3.58487 48.716C3.51969 49.433 3.5197 50.0848 3.5197 50.8017C3.5197 51.8446 3.65005 52.8875 3.91076 53.8652C4.30184 55.3643 4.95366 56.733 5.93135 57.9715C7.10458 59.5358 8.53851 60.7742 10.2332 61.6867C11.993 62.7296 13.9484 63.3813 15.9689 63.7724C16.9466 63.968 17.8592 64.0983 18.8369 64.2287C19.8797 64.359 20.8574 64.4894 21.9003 64.5546C22.9432 64.6198 24.0512 64.6849 25.0941 64.6849C25.7459 64.6849 26.3325 64.6849 26.9843 64.6849C29.3959 64.6198 31.7424 64.2938 34.0236 63.642C36.2397 62.9903 38.3255 61.9474 40.0853 60.4483C40.9978 59.6661 41.9103 58.884 42.6925 58.0366C44.5827 56.0813 46.2122 53.8652 47.3854 51.3883C48.1024 49.8892 48.6238 48.3901 48.9497 46.7606C49.0801 46.2392 49.1453 45.7177 49.1453 45.1963C49.1453 44.8704 49.1453 44.5445 49.0801 44.2186C49.0149 43.8275 48.8845 43.4365 48.8194 43.0454C48.689 42.3284 48.9497 41.8721 49.6667 41.6114C50.1881 41.4159 50.7096 41.4159 51.231 41.5463C51.7524 41.6766 52.1435 41.8722 52.5998 42.1981C52.8605 42.3936 52.9909 42.5891 53.056 42.8499C53.1864 43.3061 53.2516 43.7624 53.3168 44.2838C53.4471 45.8481 53.3819 47.4124 53.3819 48.9767C53.3819 49.5633 53.3168 50.2151 53.3168 50.8017C53.3168 51.5187 53.3819 52.2357 53.3819 53.0178C53.3819 53.4089 53.4471 53.7348 53.5123 54.1259C53.5775 54.3214 53.6426 54.4518 53.7078 54.5821C53.8382 54.7125 53.9685 54.7777 54.0989 54.7125C54.2292 54.6473 54.3596 54.517 54.49 54.4518C55.207 53.8 55.7935 53.0178 56.3802 52.2357C57.2927 50.9321 58.0748 49.4981 58.7918 48.0642C59.3132 47.0213 59.7695 45.9785 60.2258 44.9356C60.4865 44.4141 60.7472 43.8275 61.0731 43.3713C61.2034 43.1757 61.2686 43.0454 61.4642 42.915C61.9204 42.5239 62.3767 42.5239 62.8329 42.9802C63.0285 43.1757 63.1588 43.4365 63.2892 43.6972C63.6151 44.349 63.8106 45.0659 64.0062 45.8481C64.0713 46.174 64.1365 46.5651 64.2017 46.9561C64.2669 47.4776 64.2017 47.999 64.0714 48.4553C63.8758 49.6937 63.6151 50.8669 63.3544 52.1053C63.1588 53.3437 62.9633 54.5821 63.0285 55.8857C63.0285 56.4723 63.1588 57.1241 63.3544 57.7107C63.8106 59.0795 64.658 59.992 66.0267 60.5134C67.3303 60.9697 68.6339 61.2956 70.0027 61.4911C70.9152 61.6215 71.8277 61.6867 72.7402 61.6867C74.109 61.6867 75.4777 61.5563 76.8465 61.1001C77.1724 61.0349 77.4331 60.9697 77.759 60.9697C78.2805 60.9697 78.6715 61.3608 78.8019 61.817C78.8019 61.8822 78.8019 62.0126 78.7367 62.0778C78.6064 62.2081 78.4108 62.3385 78.2805 62.4037C77.8894 62.5992 77.4983 62.7947 77.1072 62.9251C75.934 63.3162 74.7608 63.6421 73.5224 63.9028C72.6099 64.0983 71.6321 64.2287 70.7196 64.2938C69.8071 64.359 68.8294 64.4242 67.9169 64.359C67.0044 64.2939 66.0919 64.1635 65.1794 63.9679C64.2669 63.7724 63.4196 63.4465 62.6374 62.9251C61.3338 62.0778 60.4213 60.9045 59.8347 59.4706C59.4436 58.5581 59.2481 57.5152 59.1829 56.5375C59.1177 55.8205 59.1177 55.1036 59.1829 54.3214C59.1829 54.191 59.1829 54.0607 59.1829 53.8652C59.0525 53.8652 59.0525 53.9303 58.9873 53.9955C58.6614 54.5821 58.2704 55.1036 57.8141 55.6902C57.2927 56.342 56.7061 56.9938 55.9891 57.5152C55.4025 57.9063 54.8159 58.2322 54.1641 58.2974C53.5775 58.3625 53.056 58.2974 52.5998 58.0366C51.948 57.7107 51.4265 57.2545 50.9703 56.6679C50.514 56.1464 50.123 55.4946 49.7971 54.908C49.7319 54.7777 49.6667 54.6473 49.6015 54.517C49.4712 54.5821 49.4712 54.6473 49.406 54.7777C48.689 56.0161 47.9068 57.1241 47.0595 58.2974C46.2774 59.3402 45.4952 60.3179 44.6479 61.2304C43.4746 62.4688 42.1711 63.4465 40.8023 64.359C39.238 65.3367 37.6085 66.1841 35.8487 66.7055C34.871 67.0314 33.9585 67.2269 32.9808 67.4225C31.8076 67.6832 30.6343 67.8787 29.4611 68.0091C28.7441 68.0742 28.0923 68.1394 27.3753 68.2046C25.811 68.335 24.1816 68.4002 22.6173 68.4002C22.0958 68.4002 21.6396 68.4002 21.1181 68.4002C20.336 68.335 19.619 68.2698 18.8369 68.2046C17.9895 68.1394 17.1422 68.0091 16.36 67.8787C14.9261 67.6832 13.4921 67.3573 12.0582 66.901C10.8198 66.5099 9.64655 66.0537 8.47332 65.4671C7.16973 64.7501 5.93134 63.9679 4.82329 62.9903C3.8456 62.1429 2.99825 61.1653 2.28128 60.0572C1.49913 58.8188 1.04289 57.5152 0.716997 56.1464C0.325921 54.5821 0.195546 52.9526 0.130367 51.3883C0.130367 51.1276 0.130367 50.9321 0.130367 50.6714C0.0651873 50.1499 0.0652032 49.6285 0.0652032 49.1071C0.0652032 48.5856 0 48.0642 0 47.5428C0 47.2169 0.0652032 46.9562 0.0652032 46.6954C0.0652032 46.174 0.130367 45.6526 0.130367 45.1311C0.195546 44.349 0.325905 43.5016 0.456264 42.7195C0.716981 41.2855 0.977714 39.9168 1.36879 38.548C2.02058 36.2667 2.80273 34.0506 3.8456 31.8997C4.82329 29.8791 5.93136 27.9889 7.3653 26.2943C8.66889 24.73 10.2332 23.5567 12.1234 22.7746C13.5573 22.188 15.0564 21.8621 16.6207 21.7969C17.4681 21.7317 18.3154 21.7969 19.0976 21.9925C20.0753 22.188 21.053 22.5139 21.9003 22.9701C22.2914 23.2309 22.7476 23.4916 23.0735 23.8175C23.2039 23.8826 23.269 24.013 23.4646 24.0782C23.5298 23.9478 23.5298 23.8826 23.5949 23.7523C23.7905 23.2309 23.986 22.7094 24.1816 22.2532C25.42 19.646 27.1146 17.4951 29.3307 15.6049C31.0254 14.1709 32.9808 12.9977 35.0013 12.1504C36.4353 11.5638 37.9344 11.1075 39.4987 10.7164C40.9979 10.3253 42.4318 9.99944 43.9961 9.8039C44.7131 9.67354 45.43 9.60837 46.2122 9.60837C47.3854 9.54319 48.5586 9.54318 49.6667 9.67354C50.514 9.73872 51.4265 9.86908 52.2739 10.0646C54.2944 10.5209 56.2498 11.303 58.0748 12.2807C58.7266 12.6066 59.3784 12.9977 60.0302 13.3888C60.0954 13.4539 60.2258 13.5191 60.3561 13.5191C60.3561 13.454 60.4213 13.4539 60.4213 13.3888C60.7472 12.6718 61.0731 12.02 61.4642 11.3682C62.7678 9.15211 64.3321 7.13156 66.2223 5.37171C67.4607 4.19848 68.7643 3.22079 70.2634 2.43864C72.1536 1.39577 74.109 0.678787 76.2599 0.287711C76.9768 0.157352 77.6938 0.0921767 78.4108 0.0269974C78.5412 0.0269974 78.7367 0.0269974 78.8671 0.0269974C79.5188 -0.038182 80.2358 0.0270013 80.8876 0.0921807C81.0832 0.0921807 81.3439 0.0921847 81.5394 0.157364C82.126 0.287723 82.6475 0.352902 83.2341 0.483261C85.5154 1.06988 87.4708 2.17792 89.1654 3.74223C90.1431 4.65474 90.9904 5.6976 91.7726 6.80565C93.3369 9.08693 94.3798 11.6289 95.0316 14.3013C95.1619 14.6924 95.0967 14.6923 95.4878 14.562C98.1601 13.7147 100.898 13.128 103.635 12.9325C105.004 12.8673 106.308 12.8673 107.676 13.0629C108.784 13.1932 109.892 13.454 110.935 13.845C111.848 14.1709 112.695 14.6272 113.477 15.2138C114.455 15.8656 115.237 16.7781 115.954 17.6906C117.193 19.2549 118.17 20.9496 118.952 22.7746C119.8 24.9255 120.386 27.1416 120.517 29.4881C120.517 29.6184 120.5 29.5 120.582 29.814C119.8 30.7265 119.8 31.8997 119.8 33.0729ZM76.651 42.8499C76.7813 42.7847 76.8465 42.6543 76.9117 42.5891C77.4983 41.6114 78.0849 40.5686 78.6715 39.5257C79.6492 37.7659 80.6269 36.006 81.4091 34.1158C82.0609 32.6167 82.5823 31.0524 82.843 29.4229C82.9734 28.5104 83.0385 27.5979 82.9082 26.6854C82.7778 26.0987 82.6475 25.5121 82.3216 24.9907C81.8653 24.2737 81.2135 23.8826 80.3662 24.013C79.9751 24.0782 79.6492 24.2085 79.3233 24.4041C78.6063 24.8603 78.0849 25.447 77.6287 26.1639C76.9769 27.1416 76.5858 28.2497 76.2599 29.3577C75.8688 30.7265 75.6733 32.1604 75.6081 33.5944C75.4777 35.289 75.5429 36.9185 75.8036 38.6132C75.9992 39.7864 76.1947 40.8945 76.5206 42.0677C76.4554 42.2632 76.4554 42.5891 76.651 42.8499ZM93.9235 43.3061C93.9235 43.9579 94.119 44.4793 94.4449 45.0008C94.836 45.6526 95.4226 46.174 96.0093 46.6302C96.4655 47.0213 96.9869 47.282 97.5735 47.4124C98.2253 47.6079 98.8771 47.7383 99.5289 47.9338C99.6593 47.999 99.7896 47.9338 99.7896 47.7383C99.7896 47.4776 99.7896 47.2169 99.7244 46.891C99.5289 45.3918 99.0727 43.9579 98.4861 42.5891C98.2905 42.0677 98.0298 41.6114 97.6387 41.2204C97.4432 40.9596 97.1825 40.6989 96.8566 40.5686C96.5959 40.4382 96.3351 40.373 96.0744 40.5034C95.0315 40.8293 93.9235 41.9373 93.9235 43.3061ZM93.7931 51.5839C93.7931 51.7794 93.7931 51.975 93.7931 52.1705C93.7931 52.366 93.8583 52.6268 93.8583 52.8223C93.9235 53.2134 94.0538 53.6696 94.3146 53.9955C94.7708 54.7125 95.6181 54.7777 96.1396 54.4518C96.9869 53.9303 97.7691 53.3437 98.3557 52.6268C98.7468 52.1053 99.0727 51.5839 99.2682 50.9321C99.3334 50.6714 99.3986 50.3455 99.3986 50.0847C99.3986 49.9544 99.3334 49.8892 99.203 49.8892C98.6164 49.824 98.0298 49.824 97.378 49.7589C96.4003 49.6285 95.3575 49.4981 94.3798 49.2374C94.3146 49.2374 94.1842 49.1722 94.119 49.1722C94.0539 49.1722 94.0538 49.1722 93.9887 49.2374C93.9887 49.3026 93.9235 49.3678 93.9235 49.433C93.8583 50.1499 93.728 50.8669 93.7931 51.5839ZM86.102 48.7812C86.102 48.5856 86.1671 48.4553 86.1671 48.3249C86.2323 47.4124 85.9064 46.7606 85.1895 46.2392C84.8636 46.0436 84.5377 46.1088 84.3421 46.4347C84.1466 46.6954 84.1466 46.9561 84.277 47.282C84.3421 47.4776 84.4725 47.6731 84.6029 47.8687C84.9939 48.2597 85.5154 48.5856 86.102 48.7812Z" fill="#5F7691"/>
<path d="M29.3957 44.6093C29.4609 44.6093 29.5261 44.5442 29.5261 44.479C30.0475 43.6317 30.6993 42.8495 31.4162 42.1977C31.9377 41.7415 32.5243 41.3504 33.1761 41.0897C33.5672 40.9593 33.9583 40.8289 34.4145 40.8289C34.61 40.8289 34.8708 40.7638 35.0663 40.7638C35.5226 40.6986 35.9788 40.7638 36.3699 40.8289C36.8913 40.9593 37.2824 41.22 37.5431 41.6763C37.7387 41.937 37.869 42.1977 37.9342 42.5236C38.2601 43.4361 38.5208 44.3486 38.586 45.2611C38.6511 45.8477 38.6511 46.4995 38.586 47.0862C38.5208 47.6076 38.5208 48.1942 38.4556 48.7156C38.3904 49.3023 38.3253 49.8889 38.3253 50.4755C38.2601 51.3228 38.1949 52.1702 38.1949 52.9523C38.1949 53.4086 38.2601 53.7996 38.3904 54.2559C38.4556 54.5166 38.586 54.7773 38.7163 54.9729C38.9119 55.2987 39.1726 55.4291 39.5637 55.4291C39.8244 55.4291 40.0851 55.4291 40.2807 55.3639C40.4762 55.2988 40.6065 55.3639 40.7369 55.4291C41.0628 55.6898 41.3235 56.0157 41.5842 56.4068C41.6494 56.5372 41.6494 56.7327 41.5842 56.8631C41.4539 57.0586 41.3235 57.2541 41.128 57.4497C40.411 58.0363 39.5637 58.4274 38.6512 58.6881C38.1949 58.8184 37.6735 58.8836 37.2172 58.8836C35.9788 58.8184 35.1315 58.297 34.61 57.189C34.4145 56.7979 34.3493 56.3416 34.2841 55.9505C34.219 55.6898 34.2189 55.4291 34.2189 55.2336C34.1538 54.2559 34.0886 53.213 34.1538 52.1701C34.219 51.1925 34.2189 50.1496 34.3493 49.1719C34.4797 48.129 34.61 47.0862 34.7404 46.0433C34.7404 45.7826 34.7404 45.4567 34.8056 45.1959C34.8056 45.0656 34.8056 45.0004 34.7404 44.87C34.7404 44.8049 34.61 44.7397 34.5448 44.8049C34.4797 44.8701 34.3493 44.9352 34.2841 45.0004C33.8931 45.3915 33.5672 45.8477 33.1761 46.304C32.068 47.7379 31.2207 49.3023 30.4385 50.9317C29.526 52.8871 28.6787 54.8425 28.0269 56.8631C28.0269 56.9282 27.9617 57.0586 27.9617 57.1238C27.9617 57.189 27.8965 57.2541 27.8314 57.2541C27.0492 57.4497 26.3322 57.6452 25.5501 57.4497C24.9635 57.3193 24.7028 56.9934 24.7028 56.4068C24.5724 54.3862 24.5724 52.3005 24.6376 50.2799C24.7028 49.1067 24.768 47.9987 24.8331 46.8906C24.8983 46.304 24.8983 45.6522 24.9635 45.0656C25.0287 44.479 25.0287 43.8924 25.0287 43.2406C25.0287 42.9147 25.0287 42.5888 25.0287 42.1977C25.0287 42.0022 24.9635 41.8066 24.8983 41.6111C24.7679 41.2852 24.5072 41.0896 24.1161 41.0245C23.7251 41.0245 23.3992 41.0897 23.0733 41.22C22.4215 41.4807 21.9 41.8066 21.3134 42.1977C20.4661 42.7191 19.6188 43.3058 18.7715 43.8272C17.7938 44.479 16.6857 44.87 15.5777 45.1959C15.3169 45.2611 15.0562 45.2611 14.8607 45.2611C14.4696 45.2611 14.1437 45.1308 13.8178 44.87C13.2964 44.4138 13.0356 43.8272 13.0356 43.1102C13.0356 42.8495 13.1009 42.654 13.2312 42.4584C13.3616 42.2629 13.4919 42.1977 13.6874 42.1977C14.0133 42.1977 14.4044 42.1977 14.7303 42.1977C15.3169 42.1977 15.8384 42.0673 16.3598 41.8066C17.142 41.4156 17.9241 40.8941 18.6411 40.3727C19.2277 39.9164 19.7491 39.5253 20.2706 39.0691C20.9876 38.4825 21.7697 38.0914 22.7474 37.9611C24.1813 37.7003 25.5501 37.8307 26.8537 38.4173C28.0269 38.9387 28.9394 39.7209 29.3957 40.8941C29.7216 41.6763 29.8519 42.5236 29.7216 43.3709C29.6564 43.8272 29.5912 44.2834 29.4609 44.7397C29.4609 44.479 29.3957 44.5442 29.3957 44.6093Z" fill="#5F7691"/>
</svg>
