<svg width="40" height="40" viewBox="0 0 40 40" fill="none" xmlns="http://www.w3.org/2000/svg">
<rect width="40" height="40" rx="8" fill="#FFF3D6"/>
<g clip-path="url(#clip0_631_8777)">
<path d="M20.8333 17.1416C20.1749 17.1416 19.6416 17.6749 19.6416 18.3333C19.6416 18.9916 20.1749 19.5249 20.8333 19.5249C21.4916 19.5249 22.0249 18.9916 22.0249 18.3333C22.0249 17.6749 21.4916 17.1416 20.8333 17.1416Z" fill="#E16919"/>
<path d="M21.0085 12.4995C17.8085 12.4079 15.1752 14.8912 15.0168 18.0329L13.4168 20.1662C13.2085 20.4412 13.4085 20.8329 13.7502 20.8329H15.0002V23.3329C15.0002 24.2495 15.7502 24.9995 16.6668 24.9995H17.5002V26.6662C17.5002 27.1245 17.8752 27.4995 18.3335 27.4995H22.5002C22.9585 27.4995 23.3335 27.1245 23.3335 26.6662V23.5995C25.3668 22.6329 26.7502 20.5329 26.6668 18.1162C26.5502 15.0995 24.0168 12.5912 21.0085 12.4995ZM23.3335 18.3329C23.3335 18.4412 23.3252 18.5495 23.3168 18.6579L24.0085 19.2079C24.0752 19.2579 24.0918 19.3412 24.0502 19.4162L23.3835 20.5745C23.3418 20.6495 23.2502 20.6745 23.1835 20.6495L22.3585 20.3162C22.1835 20.4495 22.0002 20.5579 21.8002 20.6412L21.6668 21.5245C21.6585 21.6079 21.5835 21.6662 21.5002 21.6662H20.1668C20.0835 21.6662 20.0168 21.6079 20.0002 21.5245L19.8752 20.6412C19.6668 20.5579 19.4835 20.4495 19.3085 20.3162L18.4835 20.6495C18.4085 20.6745 18.3168 20.6495 18.2752 20.5745L17.6085 19.4162C17.5668 19.3495 17.5835 19.2579 17.6502 19.2079L18.3502 18.6579C18.3418 18.5495 18.3335 18.4412 18.3335 18.3329C18.3335 18.2245 18.3502 18.1079 18.3668 18.0079L17.6585 17.4579C17.5918 17.4079 17.5752 17.3245 17.6168 17.2412L18.2835 16.0912C18.3252 16.0162 18.4085 15.9912 18.4835 16.0162L19.3168 16.3495C19.4835 16.2245 19.6752 16.1079 19.8752 16.0245L20.0002 15.1412C20.0168 15.0579 20.0835 14.9995 20.1668 14.9995H21.5002C21.5835 14.9995 21.6502 15.0579 21.6668 15.1412L21.7918 16.0245C21.9918 16.1079 22.1752 16.2162 22.3502 16.3495L23.1835 16.0162C23.2585 15.9912 23.3502 16.0162 23.3835 16.0912L24.0502 17.2412C24.0918 17.3162 24.0752 17.4079 24.0085 17.4579L23.3002 18.0079C23.3252 18.1079 23.3335 18.2162 23.3335 18.3329Z" fill="#E16919"/>
</g>
<defs>
<clipPath id="clip0_631_8777">
<rect width="20" height="20" fill="white" transform="translate(10 10)"/>
</clipPath>
</defs>
</svg>
