<svg width="40" height="40" viewBox="0 0 40 40" fill="none" xmlns="http://www.w3.org/2000/svg">
<rect width="40" height="40" rx="8" fill="#FFF3D6"/>
<g clip-path="url(#clip0_631_8760)">
<path d="M15.2417 21.9087L17.5001 24.167V27.5003C17.5001 27.9587 17.8751 28.3337 18.3334 28.3337H21.6667C22.1251 28.3337 22.5001 27.9587 22.5001 27.5003V24.167L24.7584 21.9087C24.9167 21.7503 25.0001 21.542 25.0001 21.317V18.3337C25.0001 17.8753 24.6251 17.5003 24.1667 17.5003H15.8334C15.3751 17.5003 15.0001 17.8753 15.0001 18.3337V21.3253C15.0001 21.542 15.0917 21.7587 15.2417 21.9087ZM20.0001 11.667C20.4584 11.667 20.8334 12.042 20.8334 12.5003V13.3337C20.8334 13.792 20.4584 14.167 20.0001 14.167C19.5417 14.167 19.1667 13.792 19.1667 13.3337V12.5003C19.1667 12.042 19.5417 11.667 20.0001 11.667ZM13.5084 14.3087C13.8334 13.9837 14.3584 13.9837 14.6917 14.3087L15.2834 14.9003C15.6084 15.2253 15.6084 15.7503 15.2834 16.0753C14.9584 16.4003 14.4334 16.4003 14.1084 16.0753L13.5084 15.4837C13.1834 15.1587 13.1834 14.6337 13.5084 14.3087ZM24.7251 14.9003L25.3167 14.3087C25.6417 13.9837 26.1667 13.9837 26.4917 14.3087C26.8167 14.6337 26.8167 15.1587 26.4917 15.4837L25.9001 16.0753C25.5751 16.4003 25.0501 16.4003 24.7251 16.0753C24.4001 15.7503 24.4001 15.2253 24.7251 14.9003Z" fill="#E16919"/>
</g>
<defs>
<clipPath id="clip0_631_8760">
<rect width="20" height="20" fill="white" transform="translate(10 10)"/>
</clipPath>
</defs>
</svg>
