<svg width="40" height="40" viewBox="0 0 40 40" fill="none" xmlns="http://www.w3.org/2000/svg">
<rect width="40" height="40" rx="8" fill="#FFF3D6"/>
<g clip-path="url(#clip0_631_8726)">
<path d="M27.5002 16.667C26.2918 16.667 25.6168 17.867 25.8918 18.7587L22.9335 21.7253C22.6835 21.6503 22.3168 21.6503 22.0668 21.7253L19.9418 19.6003C20.2252 18.7087 19.5502 17.5003 18.3335 17.5003C17.1252 17.5003 16.4418 18.7003 16.7252 19.6003L12.9252 23.392C12.0335 23.117 10.8335 23.792 10.8335 25.0003C10.8335 25.917 11.5835 26.667 12.5002 26.667C13.7085 26.667 14.3835 25.467 14.1085 24.5753L17.9002 20.7753C18.1502 20.8503 18.5168 20.8503 18.7668 20.7753L20.8918 22.9003C20.6085 23.792 21.2835 25.0003 22.5002 25.0003C23.7085 25.0003 24.3918 23.8003 24.1085 22.9003L27.0752 19.942C27.9668 20.217 29.1668 19.542 29.1668 18.3337C29.1668 17.417 28.4168 16.667 27.5002 16.667Z" fill="#E16919"/>
<path d="M22.5 17.5L23.2833 15.775L25 15L23.2833 14.225L22.5 12.5L21.7333 14.225L20 15L21.7333 15.775L22.5 17.5Z" fill="#E16919"/>
<path d="M12.9168 19.1667L13.3335 17.5L15.0002 17.0833L13.3335 16.6667L12.9168 15L12.5002 16.6667L10.8335 17.0833L12.5002 17.5L12.9168 19.1667Z" fill="#E16919"/>
</g>
<defs>
<clipPath id="clip0_631_8726">
<rect width="20" height="20" fill="white" transform="translate(10 10)"/>
</clipPath>
</defs>
</svg>
