<svg width="31" height="26" viewBox="0 0 31 26" fill="none" xmlns="http://www.w3.org/2000/svg">
<path d="M20.2383 12.0164L10.6077 0.772461L10.0338 1.27744L0.724521 8.84883C0.429403 9.08493 0.216263 9.39316 0.0883789 9.73419L20.2383 12.0131V12.0164Z" fill="#109DAD"/>
<path d="M21.2519 11.5348L29.5513 7.48838C29.2562 7.07522 28.8463 6.74075 28.3479 6.54401L12.9723 0.494106L12.9526 0.487548C12.5362 0.339989 12.1 0.303919 11.6836 0.362943L21.2519 11.5348Z" fill="#109DAD"/>
<path d="M18.4481 12.9019L0 10.8164C0.0950933 11.3247 0.373815 11.7772 0.800095 12.0887L0.836166 12.1149L10.2078 16.9221L18.4448 12.9052L18.4481 12.9019Z" fill="#109DAD"/>
<path d="M11.431 17.5327L22.1143 21.9266L29.3676 10.8073L29.3873 10.7778C29.42 10.722 29.4561 10.663 29.4987 10.6073C29.7971 10.2138 29.9808 9.74159 30.03 9.24973C30.0562 8.99068 30.0365 8.73163 29.9841 8.48242L11.4277 17.5327H11.431Z" fill="#109DAD"/>
<path d="M12.2866 19.057L16.3855 24.9265L16.4347 24.9724C16.8872 25.3791 17.4512 25.6151 18.0512 25.6578C18.1529 25.6643 18.2578 25.6676 18.3628 25.6611C19.0743 25.6315 19.7367 25.3266 20.222 24.8052L20.2581 24.7691L21.5107 22.8476L12.2866 19.0537V19.057Z" fill="#109DAD"/>
</svg>
