<svg width="137" height="59" viewBox="0 0 137 59" fill="none" xmlns="http://www.w3.org/2000/svg">
<path d="M37.6468 21.2601C37.5291 21.6134 37.4113 21.9668 37.2935 22.2613C37.2935 22.3202 37.2346 22.3202 37.2346 22.3791C37.1757 22.7324 37.1168 23.1447 36.999 23.498C36.9401 23.7925 36.7634 24.087 36.6456 24.4403C36.6456 24.4992 36.5868 24.617 36.5868 24.6759C36.469 25.0881 36.2923 25.5004 36.2334 25.9126C36.1745 26.2071 36.1745 26.5016 36.1745 26.7371C37.8235 27.6794 39.4136 28.5628 41.0626 29.4462C40.7682 29.6229 40.4737 29.7996 40.2381 29.9763C39.8848 30.153 39.5314 30.3885 39.1781 30.5652C38.7069 30.8008 38.2947 30.9775 37.8235 31.2719C37.4702 31.4486 37.1757 31.6842 36.8812 31.8609C36.6456 31.9786 36.4101 32.1553 36.1745 32.2731C36.1156 32.332 36.1156 32.4498 36.1156 32.5087C36.1745 32.6854 36.2334 32.862 36.2923 33.0387C36.4101 33.3921 36.5279 33.8043 36.6456 34.1577C36.7045 34.4522 36.8223 34.6877 36.8812 34.9822C36.999 35.3356 37.0579 35.7478 37.1757 36.1012C37.2935 36.4545 37.4113 36.8079 37.529 37.1613C37.5879 37.3379 37.5879 37.5146 37.5879 37.7502C35.7623 37.2201 33.9955 36.6901 32.1109 36.1601C31.9342 36.5723 31.6986 36.9846 31.463 37.3968C31.3453 37.6324 31.1686 37.868 31.0508 38.1624C30.8741 38.5158 30.6385 38.8103 30.4619 39.1636C30.2852 39.517 30.0496 39.8115 29.8729 40.1648C29.814 40.2826 29.6962 40.4593 29.6374 40.636C29.5785 40.8126 29.4607 40.9304 29.3429 41.166C28.4006 39.4581 27.5172 37.868 26.5749 36.1601C26.4571 36.219 26.2804 36.219 26.1038 36.2779C25.8093 36.3956 25.4559 36.4545 25.1615 36.5723C24.6903 36.6901 24.2781 36.8079 23.8069 36.9257C23.4536 37.0435 23.1002 37.1024 22.7468 37.1613C22.3346 37.279 21.9812 37.3968 21.6279 37.5146C21.5101 37.5735 21.3334 37.5146 21.1567 37.5735C21.3334 36.9846 21.5101 36.4545 21.6868 35.9245C21.8046 35.5711 21.8634 35.2178 21.9223 34.8055C21.9812 34.5111 22.099 34.2166 22.1579 33.981C22.2757 33.5099 22.4524 33.0387 22.5702 32.5676C22.5702 32.5087 22.5702 32.4498 22.6291 32.3909C22.9235 32.1553 22.6291 31.9787 22.5113 31.9198C22.099 31.6842 21.6279 31.4486 21.1567 31.213C20.7445 30.9775 20.3322 30.683 19.92 30.4474C19.5077 30.2119 19.0366 29.9763 18.6243 29.7407C18.3887 29.6229 18.0943 29.4462 17.7998 29.2107C18.1532 29.034 18.4476 28.8573 18.7421 28.6806C19.0366 28.5039 19.331 28.3273 19.6255 28.2095C19.9789 28.0328 20.3911 27.8561 20.7445 27.6205C20.98 27.5028 21.2745 27.3261 21.5101 27.1494C21.8046 26.9727 22.1579 26.796 22.4524 26.5605C22.7468 26.3838 22.8646 26.0304 22.688 25.736C22.6291 25.6182 22.5702 25.5004 22.5702 25.3826C22.4524 24.9703 22.3346 24.5581 22.2168 24.2047C22.099 23.8514 22.0401 23.498 21.9223 23.1447C21.8045 22.7324 21.6868 22.379 21.569 22.0257C21.569 21.9668 21.5101 21.9079 21.5101 21.849C21.4512 21.6134 21.3923 21.4368 21.3334 21.2012C21.3334 21.0834 21.3334 21.0245 21.3334 20.9656C21.8045 21.0834 22.3346 21.2012 22.8057 21.319C23.1591 21.4368 23.5125 21.5545 23.8658 21.6723C24.2192 21.7901 24.5136 21.849 24.867 21.9079C25.2204 22.0257 25.6326 22.1435 25.986 22.2613C26.2215 22.3202 26.516 22.4968 26.7516 22.4379C26.9283 22.379 27.1049 22.1435 27.2227 21.9079C27.5172 21.4956 27.7528 21.0245 27.9883 20.6123C28.165 20.2589 28.3417 19.9055 28.5184 19.5522C28.6362 19.3166 28.8128 19.0221 28.9895 18.7866C29.1073 18.6099 29.2251 18.4332 29.3429 18.2565C29.4607 18.0209 29.5785 17.8443 29.6963 17.5498C29.8729 17.9032 30.0496 18.1976 30.2263 18.4921C30.403 18.8455 30.6385 19.1399 30.8152 19.4933C31.0508 19.9055 31.2864 20.3767 31.463 20.7889C31.7575 21.319 32.052 21.849 32.3464 22.3791C32.5231 22.6146 32.6998 22.6735 32.9354 22.4968C32.9943 22.4968 33.0532 22.4379 33.0532 22.4379C33.4065 22.3202 33.8188 22.2613 34.1721 22.1435C34.5255 22.0257 34.8789 21.9079 35.2322 21.7901C35.4678 21.7312 35.7622 21.6134 35.9978 21.5545C36.4101 21.4368 36.8223 21.3779 37.1757 21.2601C37.2346 21.2601 37.2935 21.2012 37.4113 21.2012C37.5291 21.1423 37.7057 21.0834 37.8235 21.0245C37.5879 21.2012 37.5879 21.2012 37.6468 21.2601Z" fill="#5F7691"/>
<path d="M112.147 25.1477C112.147 24.3232 112.147 23.4987 112.147 22.6742C112.206 21.7908 112.265 20.9074 112.324 20.0829C112.383 19.6118 112.442 19.1406 112.501 18.7284C112.677 18.0805 112.854 17.3738 113.031 16.726C113.089 16.4315 113.207 16.1371 113.325 15.8426C113.443 15.4892 113.62 15.1948 113.796 14.8414C113.973 14.5469 114.15 14.2525 114.385 13.958C114.621 13.6635 114.974 13.428 115.269 13.1335C115.504 12.9568 115.74 12.839 115.975 12.7212C116.505 12.3679 117.094 12.309 117.683 12.309C117.86 12.309 118.037 12.2501 118.213 12.1912C118.272 12.1912 118.331 12.1323 118.331 12.1912C118.567 12.4857 118.92 12.309 119.155 12.309C119.921 12.3679 120.51 12.7213 121.158 13.0746C121.747 13.428 122.1 13.958 122.512 14.488C122.748 14.7825 122.866 15.1359 123.042 15.4892C123.219 15.9015 123.396 16.3726 123.572 16.8438C123.69 17.1971 123.808 17.6094 123.867 18.0216C123.985 18.7284 124.103 19.4351 124.22 20.1418C124.279 20.3185 124.279 20.5541 124.279 20.7307C124.279 21.3786 124.22 22.0853 124.338 22.7331C124.574 23.9699 124.456 25.2066 124.456 26.4434C124.456 27.5624 124.397 28.6813 124.22 29.7414C124.161 30.2126 124.161 30.6837 124.044 31.1548C123.985 31.5671 123.808 32.0382 123.69 32.4505C123.572 32.8039 123.514 33.1572 123.396 33.5106C123.278 33.805 123.16 34.0995 123.042 34.3351C122.866 34.6884 122.748 35.0418 122.512 35.3952C122.218 35.8663 121.806 36.2197 121.452 36.6319C121.276 36.8086 121.04 36.9853 120.863 37.1031C120.628 37.2209 120.392 37.3386 120.098 37.4564C119.744 37.5742 119.332 37.7509 118.92 37.8098C118.449 37.8687 117.919 37.9865 117.389 37.7509C117.33 37.692 117.212 37.692 117.094 37.692C116.388 37.692 115.857 37.3386 115.269 36.9853C114.915 36.7497 114.562 36.5141 114.326 36.1608C113.973 35.6896 113.678 35.1596 113.443 34.5707C113.207 34.0995 113.031 33.6284 112.854 33.1572C112.736 32.745 112.677 32.3327 112.618 31.9205C112.501 31.3315 112.383 30.7426 112.265 30.1537C112.206 29.9181 112.206 29.6825 112.206 29.5058C112.206 28.9758 112.206 28.4458 112.147 27.9746C112.088 26.9734 112.029 26.0311 111.912 25.0299C112.088 25.1477 112.147 25.1477 112.147 25.1477ZM114.621 25.0888H114.68C114.68 26.4434 114.621 27.8568 114.68 29.2114C114.739 29.977 114.856 30.7426 115.033 31.5082C115.151 32.0971 115.269 32.6272 115.445 33.2161C115.681 33.805 115.916 34.3351 116.329 34.8062C116.859 35.3952 117.506 35.8074 118.272 35.7485C118.567 35.7485 118.92 35.6896 119.214 35.5718C119.509 35.4541 119.862 35.2774 120.098 35.0418C120.746 34.4529 121.04 33.6284 121.335 32.8628C121.57 32.2738 121.629 31.6849 121.747 31.096C121.865 30.3303 121.982 29.5647 121.982 28.7991C122.041 26.679 121.982 24.5588 121.982 22.4386C121.982 21.8497 121.982 21.3197 121.923 20.7307C121.865 20.0829 121.688 19.3762 121.57 18.7284C121.511 18.3161 121.393 17.845 121.335 17.4327V17.3738C121.099 16.8438 120.805 16.3137 120.569 15.8426C120.157 15.077 119.391 14.7236 118.625 14.5469C118.272 14.4881 117.86 14.488 117.506 14.6647C117.271 14.7825 116.976 14.7825 116.8 14.9592C116.446 15.3126 116.034 15.5481 115.857 16.0782C115.74 16.4904 115.445 16.9027 115.269 17.3149C115.092 17.7861 114.974 18.3161 114.856 18.8462C114.738 19.3762 114.68 19.9651 114.621 20.4952C114.621 22.0264 114.621 23.5576 114.621 25.0888Z" fill="#5F7691"/>
<path d="M99.9561 25.0889C99.9561 21.0841 99.9561 17.0794 99.9561 13.0747C99.9561 12.6035 99.956 12.6035 100.427 12.6035C101.723 12.6035 103.018 12.6035 104.314 12.6624C104.903 12.6624 105.492 12.9569 106.081 13.0158C106.67 13.0747 107.141 13.428 107.553 13.7225C107.966 14.017 108.201 14.4292 108.554 14.7826C108.731 15.0181 108.908 15.3126 109.085 15.6071C109.202 15.9015 109.32 16.1371 109.438 16.4316C109.497 16.6672 109.556 16.9616 109.673 17.1972C109.909 17.9039 109.968 18.6106 110.145 19.3174C110.321 20.0241 110.145 20.7308 110.321 21.4375C110.616 22.6743 110.439 23.8521 110.498 25.0889C110.557 26.3256 110.557 27.5624 110.439 28.7403C110.38 29.447 110.38 30.2126 110.262 30.9193C110.145 31.626 110.027 32.3328 109.85 32.9806C109.615 33.6873 109.379 34.394 109.026 34.983C108.672 35.6308 108.142 36.2197 107.494 36.5731C107.023 36.8086 106.552 37.1031 106.022 37.2209C105.728 37.2798 105.433 37.3387 105.08 37.3976C103.549 37.8098 102.017 37.5154 100.427 37.5743C100.015 37.5743 100.015 37.5743 100.015 37.162C99.956 33.1573 99.9561 29.0936 99.9561 25.0889ZM102.253 25.1478C102.253 28.4458 102.253 31.6849 102.253 34.983C102.253 35.4541 102.253 35.513 102.783 35.4541C103.372 35.3952 103.961 35.513 104.491 35.2774C104.726 35.1596 105.08 35.1007 105.374 35.0419C105.551 34.983 105.728 34.9241 105.845 34.8063C106.258 34.394 106.67 34.0407 106.964 33.5106C107.318 32.8628 107.494 32.1561 107.671 31.5083C107.789 31.096 107.789 30.6838 107.848 30.2715C108.024 29.2114 107.966 28.1513 108.024 27.0324C108.083 25.56 108.201 24.0288 107.907 22.4976C107.73 21.4964 107.907 20.4363 107.73 19.3762C107.612 18.7284 107.553 18.0217 107.259 17.3739C107.082 16.9616 106.964 16.5494 106.788 16.196C106.317 15.4893 105.61 15.077 104.785 14.8415C104.137 14.6648 103.431 14.6648 102.783 14.6059C102.312 14.547 102.194 14.6648 102.194 15.1948C102.253 18.5517 102.253 21.8498 102.253 25.1478Z" fill="#5F7691"/>
<path d="M94.5967 32.5088C93.9488 32.5088 93.2421 32.5088 92.5943 32.5088C91.652 32.5088 90.6508 32.5088 89.7085 32.5088C89.5318 32.5088 89.4141 32.5677 89.3552 32.8032C89.2963 33.2155 89.2963 33.6866 89.1196 34.0989C88.9429 34.5111 89.0018 34.9234 88.9429 35.2767C88.8251 35.8068 88.7073 36.3368 88.5895 36.8669C88.5306 37.1024 88.5307 37.338 88.5307 37.5736C87.7061 37.5736 86.8816 37.5736 86.0571 37.5736C86.0571 37.338 86.116 37.1024 86.116 36.9258C86.1749 36.6902 86.2338 36.3957 86.2927 36.1601C86.4105 35.6301 86.5283 35.1001 86.6461 34.57V34.5111C86.705 33.9811 86.7639 33.451 86.8816 32.921C86.9994 32.391 87.1172 31.9198 87.235 31.3898V31.3309C87.2939 30.8009 87.3528 30.2708 87.4706 29.7408C87.5884 29.2696 87.7061 28.7396 87.8239 28.2684C87.8239 28.2096 87.8239 28.2096 87.8239 28.1507C87.8828 27.6206 88.0006 27.1495 88.0595 26.6194C88.1773 26.0305 88.2951 25.5005 88.4129 24.9115C88.4129 24.8526 88.4129 24.8526 88.4129 24.7937C88.5306 24.2048 88.5895 23.6159 88.7073 23.0858C88.8251 22.6147 88.9429 22.1435 89.0607 21.6724V21.6135C89.1196 21.0835 89.1785 20.5534 89.2963 20.0234C89.414 19.4933 89.5319 19.0222 89.6496 18.4922V18.4333C89.7085 17.9032 89.7674 17.3143 89.8852 16.7843C90.003 16.2542 90.1208 15.7242 90.2386 15.1941V15.1352C90.2975 14.6052 90.4152 14.0752 90.4741 13.4862C90.533 13.1918 90.6508 12.8384 90.7097 12.5439C91.4164 12.5439 92.182 12.5439 92.8888 12.5439C93.0066 13.1329 93.0654 13.6629 93.1832 14.1929C93.301 14.6641 93.4188 15.1352 93.5366 15.6653C93.5366 15.6653 93.5366 15.6653 93.5366 15.7242C93.5955 16.2542 93.6544 16.7254 93.7722 17.2554C93.89 17.7854 94.0077 18.2566 94.1255 18.7866C94.1255 18.8455 94.1255 18.8455 94.1255 18.9044C94.2433 19.4345 94.3022 20.0234 94.42 20.5534C94.5378 21.0246 94.6555 21.5546 94.7733 22.0258V22.0847C94.8911 22.6147 94.95 23.2036 95.0678 23.7337C95.1856 24.2048 95.3034 24.7349 95.4212 25.206V25.2649C95.4801 25.7949 95.5389 26.2661 95.6567 26.7961C95.7745 27.3262 95.8923 27.7973 96.069 28.2684V28.3273C96.1279 28.8574 96.1868 29.3285 96.3046 29.8586C96.4224 30.3886 96.5401 30.9186 96.6579 31.4487C96.6579 31.5076 96.6579 31.5076 96.6579 31.5665C96.7168 32.0965 96.8346 32.6265 96.8935 33.0977C97.0113 33.6277 97.1291 34.0989 97.2468 34.57C97.2468 34.6289 97.2468 34.6289 97.2468 34.6878C97.3646 35.2767 97.4235 35.8068 97.5413 36.3957C97.6002 36.7491 97.6591 37.1024 97.718 37.4558C97.718 37.5147 97.718 37.5736 97.718 37.6914C96.9524 37.6914 96.1868 37.6914 95.3623 37.6914C95.3034 37.6914 95.1856 37.5736 95.1856 37.4558C95.0678 36.8669 95.0089 36.2779 94.95 35.689C94.8911 35.2178 94.7733 34.7467 94.7144 34.2756C94.6556 33.9222 94.5967 33.5688 94.5378 33.2744C94.8322 32.9799 94.7144 32.7443 94.5967 32.5088ZM94.3611 30.3886C94.2433 29.9763 94.1844 29.623 94.1255 29.2696C94.0077 28.8574 94.1255 28.3862 93.9488 27.9151C93.7722 27.5028 93.8899 27.0906 93.7133 26.6194C93.5366 26.2072 93.5366 25.7949 93.4777 25.3238C93.3599 24.5582 93.301 23.7926 93.0654 23.0269C92.9477 22.6147 92.8887 22.1435 92.8299 21.7313C92.7121 20.9068 92.5354 20.0823 92.4176 19.2578C92.3587 18.6099 92.4176 17.9032 92.2409 17.2554C92.1231 16.9609 92.2409 16.5487 92.182 16.2542C92.182 16.1364 92.1231 16.0186 92.0642 15.842C91.9465 16.1364 91.8287 16.3131 91.8287 16.5487C91.7109 17.2554 91.652 18.021 91.5931 18.7866C91.5342 19.5522 91.4164 20.259 91.3575 21.0246V21.0835C91.2397 21.7313 91.122 22.3202 91.0042 22.9681C90.9453 23.3214 90.9453 23.7337 90.8275 24.1459C90.7097 24.7348 90.7097 25.3238 90.5919 25.9716C90.4741 26.6194 90.4741 27.385 90.2975 28.0329C90.1797 28.504 90.1797 28.9163 90.1208 29.3285C90.1208 29.3874 90.0619 29.5052 90.0619 29.5641C90.003 29.8586 89.9441 30.153 89.8852 30.4475C91.2986 30.3886 92.771 30.3886 94.3611 30.3886Z" fill="#5F7691"/>
<path d="M71.0982 12.5439C71.8049 12.5439 72.3939 12.5439 73.0417 12.5439C73.2773 12.5439 73.3362 12.6617 73.3362 12.8384C73.3951 13.3685 73.454 13.9574 73.5717 14.4285C73.7484 15.1352 73.8662 15.7831 73.984 16.4898C74.0429 16.8432 74.0429 17.2554 74.2196 17.5499C74.3962 17.9032 74.3373 18.2566 74.3962 18.6099C74.514 19.3167 74.6907 19.9645 74.8085 20.6712C74.8674 21.0246 74.9263 21.3779 75.0441 21.7313C75.1619 22.438 75.2796 23.0858 75.4563 23.7926C75.633 24.4993 75.8097 25.206 75.8686 25.9716C75.9275 26.6783 76.163 27.3261 76.2808 28.0329C76.3397 28.3862 76.3986 28.7396 76.5164 29.1518C76.6342 29.623 76.752 30.0352 76.8698 30.5064V30.5653C76.9287 31.0953 76.9875 31.6254 77.1053 32.1554C77.2231 32.6854 77.3409 33.1566 77.4587 33.6277C77.4587 33.6277 77.4587 33.6277 77.4587 33.6866C77.5176 34.2167 77.5765 34.6878 77.6943 35.2179C77.8121 35.7479 77.9298 36.2779 78.0476 36.808C78.1065 37.0435 78.1065 37.2791 78.1065 37.5736C78.0476 37.5736 77.9887 37.6325 77.9298 37.6325C77.2231 37.6325 76.5753 37.6325 75.8686 37.6325C75.6919 37.6325 75.5741 37.5736 75.5152 37.338C75.4563 36.7491 75.3385 36.1601 75.2796 35.5123C75.2207 35.159 75.1619 34.8056 75.103 34.4522C75.0441 34.04 74.9852 33.6277 74.8674 33.2155C74.8085 33.0388 74.7496 32.8621 74.6907 32.6265C74.6907 32.5676 74.5729 32.5677 74.514 32.5677C72.865 32.5677 71.1571 32.5677 69.5081 32.5677C69.5081 32.5677 69.5081 32.5676 69.3903 32.6265C69.3314 32.9799 69.2725 33.3922 69.2136 33.8633C69.0959 34.3933 68.9781 34.9234 68.8603 35.4534C68.8603 35.5123 68.8603 35.5123 68.8603 35.5712C68.7425 36.219 68.6836 36.8669 68.5658 37.5736C67.7413 37.5736 66.9168 37.5736 66.0923 37.5736C66.1512 37.2791 65.9745 36.9258 66.269 36.6902V36.6313C66.3279 36.1012 66.4457 35.5712 66.5045 35.0412C66.6223 34.5111 66.7401 34.04 66.8579 33.5099V33.4511C66.9168 32.921 66.9757 32.3321 67.0935 31.802C67.2113 31.272 67.3291 30.742 67.4468 30.2119C67.4468 30.153 67.4468 30.153 67.4468 30.0941C67.5057 29.5052 67.5646 28.9752 67.6824 28.3862C67.7413 27.9151 67.918 27.4439 68.0358 26.9728C68.0358 26.9139 68.0358 26.9139 68.0358 26.855C68.0947 26.325 68.2125 25.7949 68.3302 25.206C68.448 24.7349 68.5658 24.2048 68.6836 23.7337V23.6748C68.7425 23.1447 68.8603 22.5558 68.9192 22.0258C69.037 21.4957 69.1547 20.9657 69.2725 20.3767V20.3179C69.3314 19.7878 69.3903 19.3167 69.5081 18.7866C69.6259 18.2566 69.7437 17.7265 69.8615 17.1376V17.0787C69.9203 16.5487 69.9793 16.0186 70.097 15.4297C70.2148 14.9586 70.3326 14.4285 70.4504 13.9574C70.4504 13.8985 70.5093 13.8396 70.5093 13.7807C70.9215 13.5451 71.0393 13.074 71.0982 12.5439ZM74.4551 30.4475C74.4551 30.3886 74.4551 30.3297 74.4551 30.3297C74.3962 29.7408 74.2785 29.0929 74.2196 28.504C74.1018 27.9151 73.984 27.385 73.8662 26.855C73.8073 26.5016 73.8073 26.1483 73.6895 25.7949C73.5128 25.3238 73.6306 24.7937 73.4539 24.2637C73.2773 23.6748 73.2773 23.0269 73.1595 22.438C73.1595 22.438 73.1595 22.438 73.1595 22.3791C73.0417 21.8491 72.9239 21.3779 72.8061 20.8479C72.7472 20.3767 72.7472 19.9056 72.6294 19.4345C72.4528 18.7277 72.4528 18.021 72.3939 17.2554C72.335 16.902 72.335 16.5487 72.335 16.1953C72.335 16.1364 72.2761 16.0775 72.2761 15.9597C72.1583 16.1953 72.0405 16.372 71.9816 16.5487C71.9227 17.1376 71.9227 17.7854 71.8049 18.3744C71.6283 19.1989 71.5694 20.0823 71.5105 20.9657C71.5105 21.0246 71.5105 21.0246 71.5105 21.0835C71.3927 21.6724 71.2749 22.2024 71.1571 22.7914C71.0982 23.2625 71.0982 23.6748 70.9804 24.1459C70.8038 24.6171 70.8037 25.206 70.7448 25.736C70.686 26.1483 70.6271 26.5016 70.5682 26.9139C70.5093 27.5617 70.3915 28.1507 70.3326 28.7985C70.3326 29.0341 70.3915 29.2696 70.2737 29.4463C70.0381 29.7997 70.1559 30.153 70.1559 30.5064C71.5105 30.4475 72.9828 30.4475 74.4551 30.4475Z" fill="#5F7691"/>
<path d="M30.8745 3.00324C31.3457 2.59099 31.7579 2.11985 32.1702 1.76649C32.4058 1.53092 32.7002 1.35424 32.9947 1.17756C33.2892 1.00088 33.5836 0.824191 33.8781 0.647511C34.1137 0.529725 34.3492 0.470832 34.5848 0.353045C34.6437 0.353045 34.7026 0.353045 34.7615 0.353045C35.1149 -0.000314534 35.2915 0.294154 35.4682 0.529727C35.9983 1.11866 36.4694 1.7076 36.9405 2.35542C37.1761 2.64989 37.2939 3.06214 37.4117 3.35661C37.5884 3.82775 37.7651 4.29889 38.0006 4.77004C38.0006 4.82893 38.0006 4.82894 38.0006 4.88783C38.0595 5.59455 38.1773 6.24238 38.2362 6.9491C38.2362 7.00799 38.2362 7.06688 38.2951 7.24356C38.4718 7.12578 38.5307 7.06688 38.6484 7.00799C39.0607 6.71352 39.4141 6.36016 39.8263 6.12459C40.4152 5.77123 41.0042 5.41787 41.5931 5.1234C41.8876 4.94672 42.2998 5.00562 42.5943 4.88783C43.5366 4.53447 44.5378 4.71115 45.4801 4.65226C45.9512 4.65226 46.0101 4.77005 46.1868 5.1823C46.3046 5.47677 46.4813 5.71234 46.5402 6.0068C46.6579 6.24237 46.7168 6.53684 46.7757 6.77242C46.8346 7.65582 47.1291 8.48032 47.0113 9.36372C46.9524 9.71708 46.9524 9.77597 46.599 9.71708C46.1868 9.65819 45.7745 9.5404 45.3623 9.5404C44.7734 9.59929 44.3022 9.77597 43.7722 10.0704C43.2421 10.3649 42.8299 10.7772 42.4765 11.3072C42.0054 12.0728 41.8876 12.8973 42.0054 13.7807C42.0054 13.8985 42.0643 13.9574 42.1232 14.0752C41.7698 14.3108 41.5931 13.9574 41.3575 13.8396C40.8864 13.5451 40.4741 13.1918 40.003 12.8973C39.473 12.544 38.9429 12.2495 38.354 11.8961C38.1773 11.7783 37.9417 11.7195 37.7062 11.6606C37.5295 11.6017 37.2939 11.4839 37.1172 11.425C36.8228 11.3072 36.4694 11.1894 36.1749 11.0127C35.8805 10.8949 35.6449 10.7772 35.3504 10.6594C34.9971 10.5416 34.7026 10.4827 34.3492 10.3649C33.8192 10.2471 33.3481 10.1293 32.818 10.0115C32.7591 10.0115 32.7591 10.0115 32.7002 10.0115C32.0524 9.95265 31.4635 9.89375 30.8156 9.77597C30.6979 9.77597 30.639 9.71708 30.5801 9.65818C30.639 9.5404 30.6979 9.42261 30.7568 9.36372C31.4635 9.01036 31.9935 8.48032 32.288 7.7147C32.4647 7.24356 32.7002 6.71352 32.6413 6.18348C32.5824 5.77123 32.4058 5.35897 32.288 4.94672C32.1702 4.41668 31.8168 4.06333 31.4635 3.70997C31.3457 3.4155 31.1101 3.23882 30.8745 3.00324Z" fill="#5F7691"/>
<path d="M20.1558 7.18498C20.038 5.71264 20.3914 4.29921 21.0392 3.06245C21.687 1.82569 22.4526 0.706719 23.5716 0C25.2795 0.530039 26.693 1.47233 27.9297 2.82688C27.6941 3.00356 27.5175 3.23912 27.2819 3.29802C26.8107 3.4747 26.5752 3.82806 26.3396 4.24031C26.104 4.65257 25.8096 5.06482 25.7507 5.53596C25.6918 6.00711 25.574 6.53715 25.8685 7.00829C25.9862 7.24387 26.0451 7.53834 26.1629 7.83281C26.4574 8.48063 26.9285 9.01067 27.5764 9.30514C27.6941 9.5996 27.5764 9.71739 27.2819 9.71739C26.8107 9.77628 26.3985 9.83518 25.9274 9.89407C25.5151 10.0119 25.0439 10.1296 24.6317 10.2474C24.2194 10.3652 23.8661 10.4241 23.4538 10.5419C23.1594 10.6008 22.8649 10.7775 22.5704 10.8953C22.3349 10.9541 22.1582 11.0719 21.9226 11.1308C21.2748 11.4253 20.5681 11.7198 19.9202 12.0142C19.3313 12.3087 18.7424 12.6621 18.2123 13.0743C17.8001 13.3688 17.3878 13.7221 16.9756 14.0166C16.7989 14.1344 16.6222 14.2522 16.4455 14.3111C16.2689 14.37 16.1511 14.3111 16.1511 14.1344C16.21 13.8988 16.2688 13.6632 16.2688 13.4277C16.2688 13.3688 16.3277 13.251 16.3277 13.1921C16.2688 12.662 16.1511 12.1909 16.0333 11.7198C15.7977 11.0719 15.3855 10.6597 14.9143 10.2474C14.6787 10.0707 14.3843 9.89406 14.1487 9.77628C13.6187 9.5996 13.0886 9.42292 12.4997 9.48181C12.323 9.48181 12.0285 9.54071 11.9696 9.42292C11.8519 9.12846 11.793 8.83399 11.793 8.53952C11.793 8.24506 11.9107 7.95059 11.9107 7.65612C11.9107 7.0083 12.0874 6.36047 12.323 5.77154C12.4997 5.41818 12.6175 5.06482 12.7352 4.77035C12.7941 4.71146 12.9119 4.59368 12.9708 4.59368C13.3831 4.59368 13.8542 4.53478 14.2665 4.59368C14.8554 4.65257 15.3854 4.82924 15.9744 4.94703C16.4455 5.06482 16.9167 5.3004 17.3878 5.47708C17.6823 5.59486 17.9768 5.83043 18.2712 6.00711C18.8013 6.36047 19.2724 6.71383 19.7436 7.12608C19.8613 7.12608 19.9791 7.12608 20.1558 7.18498Z" fill="#5F7691"/>
<path d="M51.3105 20.1413C51.6639 20.1413 52.0173 20.1413 52.3117 20.2002C52.7829 20.2591 53.254 20.318 53.6663 20.4358C54.2552 20.6125 54.7853 20.7892 55.3742 21.0836C55.7864 21.2603 56.1398 21.6137 56.5521 21.7904C57.2588 22.1437 57.7299 22.7915 58.26 23.3216C58.4955 23.4983 58.5544 23.6749 58.4366 24.0283C58.2011 24.6761 57.9066 25.3239 57.4943 25.9129C57.1999 26.384 56.7876 26.8552 56.3754 27.2674C56.2576 27.4441 56.0809 27.5619 55.9042 27.6797C55.5509 27.9741 55.492 27.9741 55.2564 27.5619C54.9619 27.0319 54.5497 26.6785 54.0196 26.384C53.4307 26.0307 52.7829 25.854 52.1351 25.854C51.7228 25.854 51.3106 26.0307 50.9572 26.1485C50.1916 26.3251 49.7204 26.9141 49.2493 27.4441C49.2493 27.4441 49.1904 27.4441 49.1315 27.4441C49.1315 27.2674 49.1315 27.0907 49.0726 26.9141C48.9548 26.3251 48.837 25.7362 48.7192 25.1473C48.6603 24.7939 48.5426 24.4405 48.4837 24.0872C48.3659 23.7338 48.2481 23.3216 48.1303 22.9682C47.9536 22.4971 47.8358 22.0259 47.6592 21.5548C47.6003 21.3192 47.4236 21.1425 47.3647 20.9658C47.188 20.6714 47.0113 20.318 46.8347 20.0236C46.658 19.6702 46.4813 19.3757 46.2457 19.0813C46.0102 18.7279 45.7746 18.3745 45.539 18.0212C45.4212 17.8445 45.2445 17.6678 45.1267 17.4911C44.8323 17.1378 44.5967 16.7844 44.3022 16.4311C44.42 16.4311 44.5967 16.3722 44.7145 16.4311C45.2445 16.6666 45.7746 16.6666 46.3046 16.4311C46.5402 16.3133 46.8347 16.2544 47.0702 16.1955C47.5414 15.9599 48.0125 15.6655 48.307 15.1943C48.5426 14.8998 48.7781 14.5465 48.8959 14.1931C49.0137 13.7809 49.0726 13.3097 49.1315 12.8386C49.1315 12.603 49.0137 12.4263 48.9548 12.1907C48.9548 12.1319 49.0726 12.0141 49.1315 11.9552C49.6026 11.7785 50.0149 11.7196 50.486 11.9552C50.5449 12.0141 50.6627 11.9552 50.7805 11.9552C51.3694 12.073 51.9584 12.073 52.5473 12.2496C53.0184 12.3674 53.4307 12.603 53.843 12.7797C53.9019 12.8386 53.9607 12.9564 53.9607 13.0153C53.9607 13.5453 54.0196 14.0753 53.9607 14.6054C53.9018 15.0765 53.7252 15.5477 53.6074 16.0188C53.5485 16.3133 53.4307 16.6666 53.3129 16.9611C53.254 17.1378 53.1951 17.3734 53.0773 17.4911C52.6651 18.2568 52.1939 18.9635 51.605 19.6702C51.4872 19.788 51.3694 19.9058 51.1928 20.0236C51.3106 20.0236 51.3105 20.0824 51.3105 20.1413Z" fill="#5F7691"/>
<path d="M9.43674 27.8564C9.20117 27.9153 9.08337 27.8564 9.02448 27.6797C8.78891 27.1497 8.43555 26.7374 7.90551 26.443C7.55215 26.2663 7.19878 26.0896 6.84542 25.9129C6.78653 25.9129 6.72764 25.854 6.66875 25.854C5.96203 25.7951 5.19641 25.7951 4.54859 26.0896C3.95966 26.3252 3.54741 26.7374 3.13515 27.2086C3.07626 27.2675 3.01737 27.3853 2.95848 27.4442C2.89959 27.503 2.78179 27.4442 2.72289 27.4442C2.19285 26.9141 1.60392 26.3841 1.25056 25.6774C1.07388 25.2651 0.838324 24.9117 0.602751 24.4995C0.484964 24.2639 0.367174 23.9695 0.249387 23.675C0.131601 23.4394 0.36717 23.2627 0.484957 23.1449C0.956103 22.7916 1.30946 22.3204 1.83949 22.026C2.25175 21.7904 2.60511 21.437 3.01736 21.2604C3.42961 21.0248 3.95966 20.907 4.37192 20.7892C4.78417 20.6714 5.13753 20.5536 5.54978 20.4359C5.72646 20.377 5.90314 20.377 6.07982 20.377C6.43318 20.377 6.72764 20.377 7.19879 20.377C6.96321 20.0825 6.78654 19.9058 6.66875 19.7291C6.1976 19.1402 5.72645 18.6102 5.43199 17.9034C5.25531 17.4912 5.01974 17.1378 4.90195 16.7256C4.78416 16.3722 4.72527 15.96 4.60749 15.6066C4.37191 14.7821 4.43081 13.8987 4.43081 13.0742C4.43081 12.7797 4.54858 12.6619 4.78416 12.5442C5.01973 12.4264 5.25531 12.3086 5.54978 12.1908C5.78535 12.073 6.02092 12.0141 6.25649 11.9552C6.90432 11.8374 7.49326 11.7785 8.14108 11.6608C8.43555 11.6019 8.73001 11.543 9.02448 11.543C9.14227 11.543 9.37785 11.6608 9.43674 11.7785C9.49563 11.8374 9.37784 12.0141 9.37784 12.1908C9.37784 12.3086 9.31895 12.3675 9.31895 12.4853C9.31895 12.8386 9.26005 13.2509 9.31895 13.6042C9.43673 14.1343 9.61342 14.7232 10.0257 15.1944C10.379 15.6066 10.7324 15.9011 11.1446 16.1366C11.3802 16.2544 11.6158 16.3133 11.9102 16.4311C12.0869 16.49 12.3225 16.5489 12.5581 16.6078C12.7348 16.6078 12.9114 16.6078 13.0881 16.6078C13.3237 16.5489 13.5593 16.49 13.7948 16.49C13.9126 16.49 14.0304 16.6078 14.1482 16.7256C14.1482 16.7256 14.0893 16.9023 14.0304 16.9612C13.677 17.4912 13.2648 17.9623 12.9114 18.4924C12.617 18.9635 12.3225 19.4347 12.028 19.9058C11.7925 20.3181 11.498 20.7303 11.2624 21.2015C11.1446 21.437 11.0857 21.7315 10.9679 21.9671C10.9091 22.1438 10.8502 22.3204 10.7324 22.4971C10.6146 22.7916 10.4968 23.0272 10.379 23.3216C10.2612 23.5572 10.2023 23.7928 10.1434 24.0283C10.0257 24.3817 9.96677 24.794 9.90788 25.1473C9.79009 25.6774 9.6723 26.2074 9.55452 26.7374C9.55452 26.8552 9.55452 26.973 9.55452 27.0319C9.43673 27.2086 9.43674 27.5619 9.43674 27.8564Z" fill="#5F7691"/>
<path d="M48.9547 46.9971C49.0725 45.7604 49.0725 44.5825 48.1891 43.5813C47.3057 42.5801 46.2457 42.2268 44.8911 42.2268C45.0678 41.9323 45.2445 41.6378 45.4211 41.4023C45.6567 41.0489 45.9512 40.6955 46.1868 40.3422C46.3635 40.0477 46.599 39.7532 46.7757 39.3999C46.9524 39.0465 47.1291 38.6932 47.3057 38.3398C47.4824 37.9275 47.718 37.5742 47.8358 37.1619C47.9536 36.9264 48.0125 36.6319 48.1302 36.3374C48.248 36.043 48.3658 35.7485 48.4836 35.454C48.5425 35.2185 48.6603 34.9829 48.7192 34.7473C48.837 34.3351 48.8959 33.8639 48.9547 33.4517C49.0725 32.7449 49.1314 32.0971 49.2492 31.3315C50.1326 32.3916 51.1338 33.0983 52.6061 32.9805C54.0196 32.8627 54.903 32.0382 55.6097 30.8604C56.1397 31.3904 56.6698 31.8615 57.1409 32.4505C57.4354 32.8038 57.6121 33.2161 57.8476 33.6283C58.0832 33.9817 58.2599 34.394 58.4366 34.7473C58.5544 35.0418 58.4955 35.2773 58.2599 35.454C57.8476 35.8663 57.3176 36.2196 56.9053 36.6319C56.4342 37.0441 55.8453 37.2797 55.3152 37.5742C54.8441 37.8098 54.314 37.8687 53.8429 38.1042C53.3129 38.3398 52.7239 38.2809 52.1939 38.3398C52.0172 38.3398 51.7816 38.4576 51.5461 38.5754C51.605 38.6932 51.7227 38.8109 51.7816 38.8698C52.135 39.341 52.4883 39.7532 52.7828 40.2244C53.1951 40.8133 53.4306 41.4611 53.7251 42.1679C54.1374 43.2279 54.1374 44.288 54.1374 45.3481C54.1374 45.407 54.1374 45.5248 54.1374 45.5837C54.1374 46.1726 54.1374 46.1726 53.6073 46.3493C53.1362 46.526 52.6061 46.7026 52.135 46.9382C52.135 46.9382 52.135 46.9382 52.0761 46.9382C51.1338 46.9971 50.1915 47.2916 49.1903 47.1738C49.0725 46.9971 49.0725 46.9971 48.9547 46.9971Z" fill="#5F7691"/>
<path d="M2.72338 30.8604C3.3712 31.8615 4.07793 32.5094 5.1969 32.7449C6.02141 32.9216 6.78702 32.8038 7.49374 32.4505C8.20045 32.0971 8.7305 31.5671 9.08386 30.8604C9.37833 31.037 9.43722 31.2726 9.37833 31.5671C9.37833 31.7437 9.37833 31.9793 9.37833 32.156C9.49611 32.7449 9.6139 33.3339 9.73169 33.9228C9.73169 33.9817 9.73168 34.0995 9.79057 34.1584C9.90836 34.6295 10.085 35.1007 10.2028 35.5718C10.2617 35.8663 10.3795 36.1607 10.4384 36.4552C10.5562 36.6908 10.674 36.9264 10.7918 37.2208C10.9095 37.3975 10.9684 37.6331 11.0273 37.8098C11.204 38.222 11.4396 38.6343 11.6752 39.0465C11.9696 39.5766 12.2052 40.1066 12.5586 40.6366C12.7941 40.99 13.0886 41.2845 13.3242 41.5789C13.442 41.6967 13.5009 41.8734 13.5598 41.9912C13.6186 42.1679 13.5008 42.1679 13.3831 42.1679C12.9708 42.1679 12.5586 42.109 12.2052 42.1679C11.8518 42.2267 11.4985 42.3445 11.204 42.5212C10.9096 42.639 10.6151 42.8157 10.3795 42.9924C10.085 43.2279 9.84947 43.5813 9.6139 43.8758C9.08386 44.5825 9.14274 45.4659 9.20164 46.2904C9.20164 46.4082 9.20164 46.526 9.20164 46.5849C9.20164 46.6437 9.20164 46.6438 9.20164 46.7026C8.6127 46.6438 8.02378 46.8204 7.49374 46.526C7.43484 46.526 7.37596 46.526 7.31706 46.4671C6.84592 46.4082 6.37476 46.3493 5.96251 46.2315C5.55025 46.1137 5.13802 45.8781 4.72576 45.6426C4.66687 45.5837 4.54907 45.4659 4.54907 45.3481C4.54907 44.7003 4.54908 44.0524 4.60797 43.4046C4.66686 42.9924 4.84355 42.5801 4.96133 42.1679C5.02023 41.8734 5.13801 41.5789 5.2558 41.2845C5.37359 40.99 5.55026 40.6366 5.72694 40.4011C5.96251 39.9888 6.25699 39.6354 6.49256 39.2821C6.66924 39.1054 6.84591 38.9287 6.9637 38.6932C7.02259 38.6343 7.08149 38.5165 7.0226 38.3987C7.0226 38.3398 6.90481 38.2809 6.78703 38.2809C6.55145 38.2809 6.25698 38.2809 6.0214 38.2809C5.49136 38.222 4.96132 38.1631 4.49018 38.0453C3.90124 37.8686 3.37121 37.6331 2.78227 37.3975C2.42892 37.2208 2.07557 36.9853 1.7811 36.6908C1.25106 36.2785 0.779911 35.8074 0.249872 35.3362C0.0731917 35.1596 -0.103499 35.0418 0.0731809 34.6884C0.190967 34.4528 0.249861 34.0995 0.367647 33.8639C0.485434 33.5694 0.603227 33.275 0.779907 33.0394C1.01548 32.6271 1.30994 32.2738 1.60441 31.9204C1.95777 31.6849 2.37002 31.2726 2.72338 30.8604Z" fill="#5F7691"/>
<path d="M38.5303 51.4132C38.5303 51.531 38.4714 51.5899 38.4714 51.5899C38.4125 52.2377 38.3536 52.9444 38.2359 53.5923C38.177 53.9456 38.0003 54.299 37.8825 54.5935C37.8236 54.7701 37.7647 55.0057 37.6469 55.1824C37.4702 55.5357 37.1758 55.8891 37.058 56.3014C36.9402 56.7136 36.6457 56.9492 36.3513 57.3025C35.9979 57.7148 35.5857 58.127 35.2323 58.4804C35.1734 58.5393 35.0556 58.5982 34.9378 58.5393C34.5256 58.3626 34.1722 58.1859 33.76 58.0093C33.5833 57.9504 33.4655 57.8326 33.2888 57.7737C32.5821 57.5381 32.0521 57.0081 31.522 56.5369C31.2865 56.3602 31.1098 56.1836 30.9331 55.948C30.6975 55.7124 30.8153 55.5357 31.0509 55.3591C31.3453 55.1235 31.6398 54.829 31.8754 54.5346C32.1109 54.1812 32.2876 53.8278 32.4643 53.4745C32.5232 53.3567 32.5232 53.2978 32.5232 53.18C32.5232 52.7678 32.5821 52.2966 32.5232 51.8844C32.4643 51.5899 32.2876 51.2954 32.1698 51.001C31.9932 50.4709 31.5809 50.1765 31.2864 49.8231C31.2276 49.7642 31.1687 49.7053 30.992 49.5875C35.1145 49.1164 38.7659 47.7029 42.005 45.0527C41.9461 45.995 41.9461 46.8195 42.4173 47.5852C42.8884 48.2919 43.4773 48.763 44.243 49.1164C45.0675 49.4697 45.892 49.4108 46.8343 49.0575C46.8343 49.7642 46.8932 50.3531 46.7754 50.9421C46.7165 51.2365 46.7165 51.531 46.5987 51.8255C46.5398 52.1788 46.422 52.5322 46.3042 52.8267C46.1864 53.1211 46.1276 53.4156 45.9509 53.7101C45.892 53.8278 45.7153 54.0045 45.5975 54.0045C44.8319 54.0045 44.0663 54.0634 43.3007 53.9456C42.7118 53.8867 42.1228 53.5923 41.5339 53.4156C41.1216 53.2978 40.7094 53.1211 40.4149 52.9444C39.8849 52.5911 39.4137 52.1788 38.8837 51.8255C38.8248 51.6488 38.707 51.531 38.5303 51.4132Z" fill="#5F7691"/>
<path d="M20.0969 51.5321C19.5669 51.9444 19.0958 52.3566 18.5068 52.71C18.0357 53.0044 17.5645 53.2989 17.0345 53.5345C16.74 53.6523 16.4456 53.7112 16.0922 53.7701C15.6799 53.8878 15.2088 54.0056 14.7965 54.1234C14.561 54.1823 14.3843 54.1823 14.1487 54.1823C13.7954 54.1823 13.442 54.1823 13.0886 54.1823C12.6175 54.1823 12.3819 53.9467 12.2641 53.5345C12.2052 53.1811 12.0286 52.8867 11.9108 52.5333C11.9108 52.4744 11.8519 52.4744 11.8519 52.4155C11.7341 51.8266 11.5574 51.1788 11.6163 50.5898C11.6163 50.4131 11.4985 50.2953 11.4985 50.1187C11.4985 49.942 11.4985 49.7064 11.5574 49.5297C11.5574 49.4119 11.6163 49.2942 11.6752 49.1175C12.9709 49.4709 14.0898 49.1175 15.091 48.1752C16.0922 47.2329 16.21 45.9961 16.0333 44.6416C16.6222 45.1127 17.0934 45.4661 17.5645 45.8195C17.859 45.9961 18.1535 46.1728 18.4479 46.3495C18.6835 46.5262 18.9191 46.644 19.2135 46.8206C19.5669 46.9973 19.9203 47.2329 20.2736 47.4096C20.627 47.5863 21.0392 47.8218 21.3926 47.9985C21.5693 48.1163 21.746 48.1752 21.9815 48.2341C22.276 48.3519 22.5705 48.4108 22.8649 48.5286C23.1594 48.6463 23.4539 48.7641 23.7483 48.8819C23.7483 48.8819 23.7483 48.8819 23.8072 48.8819C24.2195 48.9408 24.6317 49.0586 24.9851 49.1175C25.6918 49.2353 26.3396 49.4119 27.0464 49.5297C26.693 49.8831 26.3396 50.2365 26.0452 50.5898C25.9274 50.7076 25.8685 50.8254 25.8096 51.0021C25.6918 51.2965 25.574 51.591 25.5151 51.8855C25.4562 52.2977 25.5151 52.71 25.5151 53.1222C25.5151 53.5345 25.6918 53.8878 25.8685 54.2412C26.1041 54.7123 26.3985 55.0068 26.8108 55.3602C26.9286 55.478 27.1052 55.5957 27.2819 55.6546C27.5764 55.7724 27.3997 55.8902 27.3408 56.008C26.9875 56.3025 26.6341 56.6558 26.2807 56.9503C25.8096 57.3036 25.3384 57.657 24.8673 57.9515C24.7495 58.0104 24.5728 58.0693 24.4551 58.1282C24.2195 58.2459 23.9839 58.3048 23.7483 58.4226C23.2183 58.5993 22.9827 58.1871 22.7471 57.8926C22.3349 57.4214 21.9815 56.8914 21.6282 56.3614C21.3926 55.9491 21.157 55.5368 20.9803 55.1246C20.7448 54.5946 20.5681 54.0645 20.3914 53.5345C20.3325 53.4167 20.3914 53.24 20.3325 53.1222C20.2736 52.6511 20.2147 52.1799 20.0969 51.6499C20.1558 51.591 20.0969 51.5321 20.0969 51.5321Z" fill="#5F7691"/>
<path d="M135.586 16.3725C135.469 16.3136 135.351 16.2547 135.292 16.1959C134.821 15.8425 134.467 15.3125 133.878 15.018C133.525 14.8413 133.113 14.7235 132.759 14.6057C132.347 14.488 131.994 14.429 131.582 14.4879C131.228 14.5468 130.934 14.6646 130.58 14.8413C130.286 14.9591 129.933 15.1358 129.697 15.3125C129.403 15.548 129.049 15.8425 128.931 16.2547C128.755 16.7259 128.46 17.197 128.401 17.6682C128.284 18.316 128.225 19.0227 128.519 19.7294C128.637 19.965 128.696 20.2595 128.814 20.4951C128.931 20.7895 129.108 21.084 129.285 21.3785C129.697 21.8496 130.109 22.3207 130.521 22.733C130.816 23.0275 131.228 23.263 131.582 23.4986C131.935 23.7342 132.229 23.9698 132.583 24.2053C132.936 24.4409 133.231 24.6765 133.584 24.9709C133.937 25.2654 134.35 25.5599 134.703 25.9132C135.056 26.2077 135.351 26.5611 135.645 26.9144C135.881 27.2089 136.057 27.5034 136.234 27.8567C136.47 28.269 136.646 28.7401 136.764 29.2113C136.882 29.5646 136.823 29.9769 136.882 30.3302C136.882 30.5069 136.941 30.6247 137 30.8014C137 30.9192 137 30.9781 137 31.0959C136.941 31.3314 136.882 31.567 136.882 31.7437C136.764 32.3326 136.764 32.9215 136.587 33.5105C136.411 34.0405 136.057 34.5117 135.822 35.0417C135.586 35.6306 135.115 36.1018 134.703 36.5729C134.526 36.7496 134.291 36.9263 134.055 37.0441C133.702 37.2796 133.348 37.5152 132.936 37.6919C132.701 37.8097 132.465 37.8686 132.288 37.8686C131.582 37.9275 130.875 38.2219 130.109 38.1041C129.638 38.0453 129.167 37.8686 128.696 37.7508C128.637 37.7508 128.578 37.6919 128.519 37.6919C127.989 37.6919 127.636 37.3385 127.223 37.1619C127.106 37.103 127.047 37.0441 126.929 36.9852C126.752 36.8674 126.693 36.6907 126.693 36.4551C126.693 35.7484 126.693 35.0417 126.693 34.2761C126.693 34.1583 126.693 34.0405 126.693 33.8638C126.87 33.9816 126.988 34.0994 127.106 34.1583C127.341 34.335 127.577 34.5706 127.812 34.7472C128.284 35.0417 128.755 35.3362 129.285 35.5717C129.933 35.8073 130.639 35.984 131.346 35.8073C132.288 35.5717 133.113 35.1006 133.702 34.2172C133.996 33.8049 134.173 33.3338 134.35 32.8038C134.644 32.0381 134.526 31.2136 134.467 30.448C134.467 30.0947 134.173 29.8002 134.114 29.4468C133.878 28.6223 133.289 28.0923 132.701 27.5034C132.171 27.0322 131.64 26.62 131.052 26.1488C130.404 25.6777 129.756 25.2654 129.108 24.7943C128.519 24.3231 127.989 23.852 127.518 23.263C127.165 22.9097 126.988 22.4385 126.752 22.0263C126.517 21.614 126.34 21.1429 126.222 20.6717C126.104 20.3184 126.104 19.9061 126.104 19.5528C126.104 18.9049 126.105 18.2571 126.163 17.6682C126.222 17.197 126.399 16.7848 126.517 16.3725C126.576 16.137 126.635 15.9014 126.752 15.7247C126.87 15.4302 127.047 15.0769 127.223 14.8413C127.518 14.4291 127.871 14.0168 128.284 13.6634C128.637 13.369 129.049 13.1334 129.403 12.8978C129.991 12.4856 130.698 12.4267 131.405 12.4267C131.523 12.4267 131.699 12.25 131.758 12.3089C132.288 12.5445 132.818 12.3678 133.348 12.4856C133.878 12.6034 134.408 12.8389 134.88 13.1334C135.174 13.3101 135.527 13.4279 135.704 13.7223C135.763 13.7812 135.763 13.8401 135.763 13.899C135.763 14.7235 135.763 15.4891 135.763 16.3136C135.645 16.2547 135.645 16.3136 135.586 16.3725Z" fill="#5F7691"/>
<path d="M83.2896 37.5734C82.524 37.5734 81.7584 37.5734 80.9928 37.5734C80.9928 29.9172 80.9928 22.32 80.9928 14.6639C80.875 14.6639 80.7572 14.6639 80.6394 14.6639C79.6382 14.6639 78.6371 14.6639 77.6359 14.6639C77.3414 14.6639 77.2236 14.605 77.2236 14.3105C77.2236 13.8394 77.2236 13.4271 77.2236 12.956C77.2236 12.6615 77.3414 12.5437 77.6359 12.6026C78.2248 12.6026 78.8138 12.6026 79.4616 12.6026C81.8762 12.6026 84.3497 12.6026 86.7643 12.6026C87.0588 12.6026 87.1766 12.6615 87.1177 12.956C87.1177 13.5449 87.1177 14.0749 87.1177 14.6639C86.941 14.6639 86.8233 14.6639 86.7055 14.6639C85.7043 14.6639 84.6442 14.6639 83.643 14.6639C83.4074 14.6639 83.2896 14.7228 83.2896 15.0172C83.2896 15.135 83.2896 15.2528 83.2896 15.3117C83.2896 22.5556 83.2896 29.8583 83.2896 37.1022C83.2896 37.22 83.2896 37.3967 83.2896 37.5734Z" fill="#5F7691"/>
<path d="M32.5826 37.6924C32.8181 37.8102 32.9359 37.928 33.1126 38.0457C33.5249 38.3402 33.9371 38.6347 34.3494 38.9291C34.7616 39.2236 35.1739 39.5181 35.5861 39.8125C35.9984 40.107 36.4106 40.4604 36.8229 40.6959C37.3529 40.9904 37.7652 41.4027 38.2952 41.6971C38.6486 41.9327 39.0019 42.1683 39.3553 42.4038C39.7675 42.6983 40.1209 42.9339 40.4743 43.2284C40.4743 43.2284 40.4743 43.405 40.4154 43.4639C40.062 43.7584 39.7675 44.0529 39.4142 44.2884C38.8841 44.6418 38.2952 44.9951 37.7063 45.3485C37.3529 45.5252 36.9996 45.643 36.6462 45.8197C36.2339 45.9963 35.8806 46.2319 35.4683 46.4086C35.2917 46.5264 35.0561 46.5853 34.8205 46.6442C34.4671 46.7619 34.1727 46.8208 33.8193 46.8797C33.3482 46.9975 32.877 47.1742 32.4059 47.2331C32.0525 47.292 31.6403 47.292 31.228 47.292C31.3458 46.7031 31.1102 46.173 31.4636 45.7019C31.4636 45.643 31.4636 45.643 31.4636 45.5841C31.5814 44.7596 31.5814 43.9351 31.7581 43.1106C31.8758 42.5805 31.817 41.9916 31.9936 41.5204C32.1114 41.0493 32.1114 40.637 32.1703 40.1659C32.2881 39.4003 32.4648 38.5758 32.5826 37.6924Z" fill="#5F7691"/>
<path d="M25.7505 37.5742C25.8094 37.6331 25.8094 37.6331 25.8094 37.692C25.9272 38.3398 25.9861 38.9877 26.1039 39.6355C26.1628 40.1066 26.1628 40.5778 26.3395 40.99C26.5161 41.4023 26.4573 41.7556 26.5161 42.1679C26.6339 42.6979 26.7517 43.228 26.8695 43.758V43.8169C26.9284 44.4058 27.0462 44.9948 27.1051 45.5837C27.164 46.0549 27.2229 46.4671 27.3406 46.9382C27.3406 47.056 27.3406 47.1738 27.3406 47.2916C26.8695 47.2327 26.4572 47.4094 26.045 47.1149C25.9861 47.1149 25.9861 47.1149 25.9272 47.1149C25.4561 47.056 24.9849 46.9382 24.5727 46.8205C24.2782 46.7616 23.9837 46.5849 23.6893 46.4671C23.4537 46.4082 23.2181 46.2904 23.0414 46.2315C22.5703 46.0548 22.0991 45.8193 21.628 45.6426C21.1568 45.407 20.6857 45.1714 20.2146 44.9359C19.8612 44.7003 19.5078 44.4647 19.2134 44.1703C18.9778 43.9936 18.7422 43.8758 18.5067 43.6991C18.2122 43.4635 18.2122 43.3458 18.4478 43.1691C18.7422 42.9335 19.0367 42.6979 19.3312 42.5212C19.7434 42.2268 20.1557 41.9323 20.5679 41.6967C20.9802 41.4023 21.3924 41.1078 21.8047 40.8133C22.2758 40.46 22.6881 40.1066 23.1003 39.8122C23.5715 39.4588 24.1015 39.0465 24.5727 38.6932C24.926 38.3987 25.3383 38.1632 25.7505 37.8687C25.6327 37.692 25.6916 37.6331 25.7505 37.5742Z" fill="#5F7691"/>
<path d="M47.1292 31.2129C47.0703 31.5663 47.0114 31.8018 46.9525 32.0374C46.9525 32.0963 46.8936 32.1552 46.8936 32.2141C46.8347 32.7441 46.7758 33.333 46.658 33.8631C46.5991 34.2164 46.4224 34.5698 46.3046 34.9232C46.1869 35.2176 46.128 35.571 46.0102 35.8655C45.9513 36.101 45.8924 36.3366 45.7746 36.5133C45.6568 36.8078 45.4801 37.1611 45.3624 37.4556C45.1268 37.8678 44.8912 38.2801 44.7145 38.6334C44.5379 38.9279 44.3612 39.2224 44.1845 39.5757C43.9489 39.8702 43.7722 40.2236 43.4778 40.518C43.4189 40.5769 43.1833 40.518 43.1244 40.4591C42.771 39.988 42.4177 39.5168 42.0643 39.0457C41.711 38.6334 41.3576 38.2212 41.0631 37.75C40.7098 37.2789 40.3564 36.7489 40.0031 36.2188C39.7086 35.8066 39.3552 35.3943 39.0608 34.9821C38.7074 34.5698 38.4129 34.0987 38.1185 33.6864C38.0007 33.5686 37.8829 33.4508 37.824 33.2742C37.7651 33.1564 37.7062 32.9797 37.7651 32.8619C37.7651 32.803 37.9418 32.7441 38.0596 32.7441C38.7074 32.6852 39.3552 32.5674 39.9442 32.5085C40.7687 32.3908 41.5343 32.2141 42.3588 32.0963C42.7711 32.0374 43.1244 31.9785 43.5367 31.9196C44.0667 31.8018 44.5967 31.684 45.0679 31.5662C45.6568 31.4485 46.3635 31.3307 47.1292 31.2129Z" fill="#5F7691"/>
<path d="M11.616 31.4492C12.0872 31.5081 12.5583 31.567 13.0295 31.6259C13.265 31.6259 13.4417 31.6848 13.6773 31.6848C14.384 31.7437 15.1496 31.7437 15.7975 31.9204C16.2686 32.0382 16.7397 32.0382 17.2109 32.097C17.7409 32.1559 18.2121 32.2148 18.7421 32.3326C19.2722 32.3915 19.8022 32.4504 20.3322 32.5682C20.5089 32.5682 20.7445 32.7449 20.7445 32.8038C20.7445 32.9804 20.5678 33.1571 20.5089 33.3338C20.2733 33.6872 19.9789 34.0994 19.7433 34.4528C19.5077 34.8061 19.2722 35.1006 19.0366 35.454C18.801 35.8073 18.5654 36.2196 18.271 36.5729C18.0354 36.9263 17.7998 37.2208 17.5642 37.5152C17.4465 37.633 17.3876 37.8097 17.2698 37.9864C16.7986 38.6342 16.3275 39.282 15.8563 39.9299C15.7386 40.1065 15.6797 40.2243 15.5619 40.401C15.4441 40.6366 15.2674 40.5777 15.1496 40.401C14.8552 39.9887 14.5607 39.5765 14.2662 39.1053C13.9129 38.5753 13.5595 37.9864 13.265 37.4563C13.0295 37.0441 12.9117 36.6318 12.7939 36.2196C12.6172 35.7484 12.3816 35.2773 12.2639 34.8061C12.1461 34.4528 12.0872 34.0994 11.9694 33.6872C11.8516 33.1571 11.7338 32.6271 11.7338 32.0382C11.7338 31.8615 11.616 31.6848 11.5571 31.567C11.5571 31.5081 11.5571 31.4492 11.616 31.4492Z" fill="#5F7691"/>
<path d="M43.0062 18.1982C43.3007 18.6105 43.6541 18.9639 43.8896 19.3761C44.243 19.965 44.6552 20.554 44.9497 21.1429C45.1853 21.5552 45.4209 22.0263 45.5975 22.4975C45.7742 22.9097 46.0098 23.322 46.1865 23.7931C46.3043 24.1465 46.3632 24.4998 46.4809 24.8532C46.5987 25.2654 46.7754 25.6777 46.8343 26.1488C46.8932 26.5022 46.8932 26.8556 46.8932 27.2678C46.8932 27.3267 46.7754 27.3856 46.7165 27.3856C46.2454 27.3267 45.7742 27.2678 45.2442 27.2089H45.1853C44.4786 27.15 43.713 27.0911 43.0062 26.9733C42.2995 26.8556 41.5928 26.7378 40.8861 26.62H40.8272C40.0616 26.5611 39.3549 26.4433 38.5892 26.3255C38.2948 26.2666 38.0003 26.2077 37.7058 26.1488C37.647 26.1488 37.5881 25.9722 37.647 25.9722C37.7647 25.7366 37.9414 25.5599 38.1181 25.3243C38.3537 24.971 38.6481 24.5587 38.8837 24.2054C39.1782 23.7931 39.4726 23.3809 39.7671 22.9686C39.9438 22.6741 40.1205 22.3797 40.356 22.0852C40.5916 21.7318 40.8272 21.4374 41.0628 21.1429C41.2983 20.7895 41.5928 20.3773 41.8284 20.0239C42.064 19.6706 42.2995 19.3761 42.5351 19.0228C42.7118 18.6694 42.8296 18.4927 43.0062 18.1982Z" fill="#5F7691"/>
<path d="M11.6162 27.4443C11.6751 27.2087 11.734 27.032 11.734 26.7964C11.734 26.1486 11.9107 25.5597 12.0874 24.9707C12.2052 24.6174 12.264 24.264 12.3818 23.9107C12.4996 23.6162 12.6174 23.3217 12.7352 23.0273C12.9119 22.6739 13.0297 22.2617 13.2063 21.9083C13.383 21.5549 13.5597 21.2016 13.7364 20.9071C13.9131 20.6126 14.0308 20.3182 14.2664 20.0237C14.502 19.6704 14.7376 19.3759 14.9731 19.0225C15.0909 18.8458 15.2676 18.6692 15.3854 18.4336C15.7976 19.0225 16.151 19.5526 16.5632 20.0826C16.8577 20.4949 17.2111 20.8482 17.5055 21.2605C17.8589 21.6727 18.1534 22.1439 18.4478 22.5561C18.5656 22.7328 18.7423 22.9095 18.8601 23.0862C19.1546 23.4984 19.449 23.9107 19.7435 24.3229C20.0969 24.7941 20.4502 25.2063 20.8036 25.6775C20.9214 25.8541 20.8625 26.0308 20.6269 26.0897C20.0969 26.1486 19.5668 26.2075 19.0368 26.3253C18.3889 26.4431 17.7411 26.5609 17.0344 26.6787C16.9755 26.6787 16.9755 26.6787 16.9166 26.6787C16.2688 26.7375 15.6799 26.7964 15.032 26.9142C14.502 27.032 13.9719 27.1498 13.4419 27.2676C13.3241 27.2676 13.2063 27.2676 13.1474 27.3265C12.853 27.3854 12.4996 27.4443 12.2051 27.5032C12.0285 27.4443 11.7929 27.4443 11.6162 27.4443Z" fill="#5F7691"/>
<path d="M31.1099 11.8379C31.581 11.8968 31.9933 12.0146 32.4055 12.0735C32.4644 12.0735 32.4644 12.0735 32.5233 12.1324C32.9944 12.1913 33.5245 12.309 33.9956 12.3679C34.2901 12.4268 34.5257 12.5446 34.8201 12.6035C35.1735 12.7213 35.5269 12.8391 35.8213 13.0158C36.2336 13.1924 36.6458 13.428 36.9992 13.6047C37.2348 13.7225 37.4703 13.7814 37.647 13.8992C37.9415 14.0758 38.1771 14.2525 38.4715 14.3703C38.766 14.547 39.0605 14.7237 39.3549 14.9003C39.5905 15.077 39.8261 15.1948 40.0616 15.3715C40.1205 15.4304 40.1205 15.5482 40.1205 15.6071C37.7059 17.4328 35.2913 19.2584 32.8178 21.143C32.7589 21.0252 32.6411 20.8486 32.5822 20.6719C32.4644 20.0829 32.4055 19.4351 32.3466 18.8462C32.2877 18.3162 32.2877 17.7861 32.1111 17.3739C31.9933 17.0205 31.9933 16.6671 31.9344 16.3138C31.8166 15.7837 31.6988 15.3126 31.581 14.7826C31.581 14.7237 31.581 14.7237 31.581 14.6648C31.5221 14.0758 31.4043 13.428 31.3454 12.8391C31.2865 12.6624 31.2277 12.4857 31.1688 12.309C31.1099 12.1913 31.1099 12.0735 31.1099 11.8379Z" fill="#5F7691"/>
<path d="M27.1642 12.0146C27.1053 12.5446 26.9875 13.0158 26.9286 13.5458C26.8697 13.8403 26.8697 14.1936 26.8697 14.4881C26.8108 15.077 26.8108 15.666 26.6341 16.196C26.4575 16.6671 26.5753 17.1972 26.4575 17.6683C26.2808 18.1984 26.3397 18.7284 26.2808 19.2584C26.2219 19.7296 26.163 20.2007 26.0452 20.6719C25.9863 21.0252 25.8685 21.0252 25.5741 20.8486C24.9851 20.4363 24.3962 20.0829 23.8662 19.6707C23.5717 19.4351 23.2183 19.1996 22.9239 18.964C22.5705 18.7284 22.2171 18.4339 21.8638 18.1984C21.5104 17.9628 21.1571 17.6683 20.8037 17.4328C20.4504 17.1972 20.097 16.9616 19.8025 16.726C19.3314 16.4316 18.9191 16.0782 18.448 15.7248C18.2124 15.5482 18.2713 15.4893 18.6247 15.2537C19.0369 15.0181 19.3903 14.6648 19.8025 14.4292C20.097 14.2525 20.3915 14.1347 20.6859 13.9581C21.0393 13.7814 21.3338 13.5458 21.6871 13.428C21.9227 13.3102 22.1583 13.2513 22.4527 13.1335C22.6883 13.0747 22.865 12.9569 23.1006 12.898C23.6306 12.7213 24.1606 12.4857 24.6907 12.309C25.1618 12.1913 25.633 12.1324 26.1041 12.0735C26.3986 12.0146 26.7519 11.9557 27.0464 11.8379C27.1053 11.8968 27.1642 11.9557 27.1642 12.0146Z" fill="#5F7691"/>
<path d="M103.548 43.8169C104.137 44.7003 104.137 46.1726 103.136 46.7615C103.254 46.9382 103.372 47.056 103.548 47.1738C104.137 47.6449 104.019 48.2927 103.902 48.8228C103.843 49.1761 103.489 49.4117 103.077 49.5884C102.724 49.7651 102.37 49.7651 101.958 49.7651C101.251 49.824 100.78 49.3528 100.368 48.8817C100.25 48.7639 100.309 48.5283 100.309 48.3516C100.545 48.2927 100.721 48.3516 100.721 48.5872C100.78 48.8817 101.31 49.3528 101.664 49.4117C101.958 49.4117 102.253 49.4706 102.547 49.4117C103.254 49.3528 103.784 48.4105 103.43 47.8216C103.313 47.586 103.018 47.4682 102.842 47.3505C102.488 47.056 102.076 47.2327 101.723 47.1149C101.193 46.9971 100.78 46.7026 100.486 46.1726C100.25 45.6426 100.309 45.1714 100.309 44.7003C100.309 44.2291 100.839 43.6402 101.31 43.5224C101.546 43.4635 101.781 43.3457 102.076 43.3457C102.37 43.3457 102.724 43.4046 103.018 43.5813C103.195 43.6991 103.313 43.5224 103.43 43.5224C103.548 43.5224 103.548 43.2279 103.725 43.4046C103.784 43.4635 103.666 43.6991 103.666 43.8169C103.607 43.758 103.607 43.758 103.548 43.8169ZM103.548 45.1714C103.666 44.288 102.9 43.6991 102.194 43.6991C101.428 43.6991 100.78 44.288 100.78 45.1714C100.78 45.9959 101.428 46.7026 102.194 46.6437C102.9 46.6437 103.666 45.937 103.548 45.1714Z" fill="#5F7691"/>
<path d="M124.161 46.7023C124.161 46.879 124.102 47.0557 124.102 47.2912C123.985 47.2912 123.867 47.2913 123.749 47.3501C123.749 45.5245 123.749 43.6988 123.749 41.8731C124.043 41.8142 124.161 41.8731 124.161 42.1675C124.161 42.6387 124.161 43.1687 124.161 43.6399C124.161 43.7576 124.22 43.8165 124.22 43.9343C124.279 43.8754 124.338 43.8165 124.397 43.7577C124.927 43.4043 125.516 43.1687 126.105 43.3454C126.517 43.4632 126.87 43.7576 127.224 43.9932C127.342 44.111 127.459 44.3466 127.459 44.5233C127.518 45.0533 127.518 45.6422 127.459 46.1723C127.4 46.5845 127.047 46.8201 126.694 47.0557C126.164 47.409 125.575 47.2912 125.045 47.2324C124.75 47.1735 124.456 46.879 124.161 46.7023ZM124.102 45.2889C123.985 46.2312 124.75 46.879 125.575 46.879C126.694 46.879 127.165 46.0545 127.224 45.2889C127.224 44.8177 127.047 44.2877 126.635 43.9932C126.34 43.8165 125.987 43.6988 125.692 43.6988C124.75 43.6399 124.102 44.3466 124.102 45.2889Z" fill="#5F7691"/>
<path d="M92.1825 41.8147C92.3003 41.8147 92.4181 41.8148 92.5359 41.7559C92.5359 43.5816 92.5359 45.4072 92.5359 47.2329C92.4181 47.2329 92.3003 47.2329 92.1825 47.2329C92.1236 46.9974 92.1236 46.8207 92.0647 46.5851C91.8291 46.8207 91.5936 46.9973 91.4169 47.174C91.358 47.2329 91.2402 47.2329 91.1813 47.2329C90.7691 47.2329 90.4157 47.2918 90.0035 47.2329C89.709 47.174 89.4145 46.9385 89.1201 46.7618C88.59 46.3495 88.6489 45.7017 88.6489 45.1128C88.6489 44.2883 89.0023 43.6993 89.8268 43.4049C90.1801 43.2871 90.4746 43.2282 90.7691 43.2871C91.1224 43.346 91.5347 43.4638 91.8291 43.7582C91.888 43.8171 91.947 43.8171 92.0058 43.876C92.0647 43.8171 92.0647 43.7582 92.0647 43.6404C92.0647 43.1693 92.0647 42.6981 92.0647 42.227C92.1825 42.1681 92.1825 41.9914 92.1825 41.8147ZM92.1825 45.2895C92.1825 45.0539 92.1825 44.7594 92.0647 44.5827C91.8291 44.2883 91.5936 43.9938 91.1813 43.8171C90.5924 43.5227 90.0624 43.6993 89.6501 43.9349C89.179 44.2294 89.0023 44.7594 89.0023 45.2895C89.0023 45.6428 89.1201 45.9962 89.3556 46.2906C89.709 46.7029 90.7691 46.9974 91.2402 46.7618C91.888 46.4673 92.2414 45.9962 92.1825 45.2895Z" fill="#5F7691"/>
<path d="M116.976 45.7008C117.153 45.9953 117.389 46.2309 117.565 46.5253C117.683 46.6431 117.801 46.702 117.919 46.7609C118.331 46.9965 119.332 46.8198 119.744 46.4665C119.803 46.4076 119.98 46.4076 120.098 46.4076C120.039 46.5253 120.039 46.702 119.98 46.7609C119.391 47.3499 118.625 47.291 117.919 47.1732C117.565 47.1143 117.212 46.7609 116.976 46.4665C116.682 46.1131 116.505 45.6419 116.564 45.1708C116.682 44.5819 116.858 43.934 117.447 43.5807C117.919 43.2862 118.449 43.1095 118.979 43.2273C119.391 43.3451 119.803 43.5218 120.098 43.934C120.392 44.3463 120.51 44.7585 120.451 45.2297C120.451 45.4064 120.392 45.5242 120.157 45.5242C119.214 45.5242 118.331 45.5242 117.389 45.5242C117.271 45.5242 117.094 45.5242 116.976 45.5831C117.035 45.6419 117.035 45.7008 116.976 45.7008ZM120.098 45.1708C120.157 45.1708 120.157 45.1119 120.215 45.1119C120.157 44.8763 120.039 44.6996 119.98 44.4641C119.862 43.934 119.391 43.8163 118.979 43.7574C118.625 43.6985 118.213 43.6985 117.86 43.934C117.506 44.1107 117.094 44.5819 117.153 44.9352C117.153 45.053 117.271 45.1708 117.33 45.1708C118.272 45.1708 119.155 45.1708 120.098 45.1708Z" fill="#5F7691"/>
<path d="M136.529 43.9342C136.529 43.8164 136.529 43.6986 136.588 43.6397C136.647 43.5808 136.706 43.463 136.764 43.463C136.882 43.5219 137 43.5808 137 43.6397C137 43.9931 137 44.3464 137 44.6998C137 45.5243 137 46.3488 137 47.2322C136.882 47.2322 136.764 47.2322 136.588 47.2911C136.588 47.0555 136.529 46.8789 136.529 46.6433C135.528 47.5267 134.409 47.7034 133.466 46.7022C132.642 45.8188 132.878 44.6998 133.29 44.1698C134.055 43.2275 134.998 42.8741 136.529 43.9342ZM134.998 43.6986C134.173 43.6397 133.408 44.4642 133.408 45.2298C133.408 46.1721 134.055 46.8788 134.998 46.8788C135.881 46.8788 136.588 46.0544 136.588 45.2887C136.529 44.4642 135.822 43.6986 134.998 43.6986Z" fill="#5F7691"/>
<path d="M104.903 45.5839C105.139 46.055 105.197 46.4673 105.669 46.7028C106.14 46.9384 106.611 46.8795 107.082 46.8795C107.318 46.8795 107.494 46.7028 107.73 46.6439C107.848 46.585 107.965 46.5262 108.142 46.4084C108.26 46.8795 107.848 46.9384 107.671 47.1151C107.141 47.4684 106.493 47.4096 105.963 47.2918C105.669 47.2329 105.315 46.9384 105.08 46.7028C104.55 46.1728 104.55 45.4661 104.667 44.8182C104.726 44.406 105.021 44.0526 105.374 43.7582C105.845 43.4048 106.434 43.2281 107.023 43.3459C107.435 43.4637 107.907 43.6404 108.201 43.9937C108.495 44.406 108.554 44.8771 108.495 45.3483C108.495 45.5838 108.378 45.6427 108.142 45.6427C107.259 45.6427 106.375 45.6427 105.492 45.6427C105.256 45.5838 105.139 45.5839 104.903 45.5839ZM105.021 45.1127C105.139 45.1127 105.197 45.1127 105.315 45.1127C106.081 45.1127 106.846 45.1127 107.553 45.1127C107.789 45.1127 107.965 45.0538 108.024 44.8182C107.671 43.7582 106.905 43.4048 105.904 43.6993C105.315 43.9937 104.903 44.6416 105.021 45.1127Z" fill="#5F7691"/>
<path d="M83.2894 43.4638C83.2894 44.7005 83.2894 45.9962 83.2894 47.2329C83.1716 47.2329 83.0538 47.2329 82.9361 47.2329C82.8772 46.9974 82.8772 46.8207 82.8183 46.644C82.5827 46.8207 82.4649 46.9385 82.2882 47.0563C81.7582 47.4685 81.1692 47.3507 80.6392 47.174C80.0503 46.9974 79.5203 46.5262 79.4614 45.7606C79.4614 45.5839 79.2847 45.4073 79.2847 45.2306C79.4613 44.5828 79.5202 43.9349 80.227 43.5816C80.6392 43.346 81.0515 43.1693 81.5226 43.2282C81.9349 43.2871 82.2882 43.4638 82.6416 43.6994C82.7005 43.7582 82.7594 43.7583 82.8183 43.8171C82.8772 43.7583 82.8772 43.6993 82.9361 43.6405C82.9361 43.4638 82.936 43.4638 83.2894 43.4638ZM82.9361 45.3484C83.0538 44.4061 82.1116 43.6994 81.4048 43.6994C80.3448 43.6994 79.8147 44.4061 79.8147 45.2895C79.7558 46.114 80.3448 46.9385 81.4048 46.9385C82.2882 46.8796 82.995 46.2318 82.9361 45.3484Z" fill="#5F7691"/>
<path d="M130.286 47.2919C129.697 47.4686 129.226 47.1741 128.873 46.8207C128.637 46.5852 128.402 46.1729 128.343 45.8196C128.166 44.9362 128.46 44.1117 129.226 43.6405C129.697 43.346 130.345 43.1694 130.993 43.4638C131.287 43.6405 131.582 43.6994 131.758 43.935C131.876 44.1117 131.994 44.3472 132.112 44.5828C132.289 44.8773 132.289 45.1717 132.289 45.5251C132.23 46.2907 131.876 46.7618 131.228 47.1741C130.934 47.2919 130.64 47.233 130.286 47.2919ZM131.935 45.2895C131.994 44.465 131.17 43.6405 130.404 43.6405C129.579 43.6405 128.755 44.4061 128.755 45.2895C128.755 46.1729 129.462 46.8796 130.345 46.8796C131.228 46.9385 131.935 46.0551 131.935 45.2895Z" fill="#5F7691"/>
<path d="M95.5392 47.2916C95.3626 47.2916 95.1859 47.2916 95.0681 47.2916C94.4791 47.2327 94.0669 46.9382 93.7724 46.4082C93.4191 45.8192 93.478 45.1714 93.6546 44.5825C93.7724 44.1113 94.1258 43.6991 94.6558 43.5224C94.9503 43.4046 95.1859 43.3457 95.4803 43.3457C96.2459 43.3457 96.8349 43.6991 97.1882 44.3469C97.5416 44.9358 97.4238 45.5837 97.306 46.1137C97.1883 46.5259 96.8938 46.8793 96.4226 47.1149C96.1282 47.2915 95.7748 47.2327 95.5392 47.2916ZM97.0705 45.3481C97.0116 45.1125 97.0704 44.7591 96.9527 44.5825C96.7171 44.288 96.4226 43.9346 96.1282 43.8169C95.7748 43.6991 95.3625 43.6991 95.0092 43.8169C94.6558 43.9346 94.3025 44.1702 94.1847 44.5236C94.0669 44.818 93.9491 45.1125 93.9491 45.4659C93.9491 45.7603 94.1258 46.0548 94.3025 46.3493C94.5969 46.8793 95.657 47.1149 96.1871 46.8793C96.3637 46.8204 96.4815 46.7026 96.6582 46.5848C96.9527 46.2315 97.0705 45.8192 97.0705 45.3481Z" fill="#5F7691"/>
<path d="M75.692 47.2319C75.5153 47.2319 75.4564 47.2319 75.2797 47.2319C75.2797 47.1141 75.2797 46.9963 75.2797 46.9375C75.2797 46.3485 75.2797 45.7007 75.2797 45.1118C75.2797 44.6995 75.1619 44.3462 74.8675 43.9928C74.573 43.6394 73.7485 43.5805 73.3951 43.8161C73.2774 43.875 73.1007 43.9339 72.9829 44.0517C72.6884 44.3462 72.5117 44.6995 72.5706 45.1707C72.5706 45.8774 72.5706 46.5252 72.5706 47.2319C72.4529 47.2319 72.3351 47.2319 72.1584 47.2319C72.1584 47.173 72.1584 47.0552 72.1584 46.9375C72.1584 45.8774 72.1584 44.8173 72.1584 43.7572C72.1584 43.6394 72.0995 43.4628 72.3351 43.4039C72.5706 43.4039 72.5706 43.5216 72.5706 43.6983C72.5706 43.7572 72.6295 43.8161 72.6295 43.875C73.0418 43.2861 73.6307 43.1094 74.2785 43.2861C74.8086 43.4039 75.3386 43.5805 75.5153 44.2873C75.6331 44.6406 75.692 45.0529 75.692 45.4062C75.692 46.0541 75.692 46.643 75.692 47.2319Z" fill="#5F7691"/>
<path d="M87.942 47.233C87.7653 47.233 87.6475 47.233 87.5297 47.233C87.5297 47.1153 87.5297 46.9975 87.5297 46.9386C87.5297 46.3496 87.5297 45.7018 87.5297 45.1129C87.5297 44.7006 87.4119 44.3473 87.1175 43.9939C86.823 43.6406 85.9985 43.5817 85.6451 43.8172C85.5274 43.8761 85.3507 43.935 85.2329 44.0528C84.9385 44.2884 84.8207 44.6417 84.8207 44.9951C84.8207 45.7018 84.8207 46.4674 84.8207 47.233C84.7029 47.233 84.5851 47.233 84.4084 47.233C84.4084 46.703 84.4084 46.173 84.4084 45.6429C84.4084 45.054 84.4084 44.4062 84.4084 43.8172C84.4084 43.6995 84.3495 43.5228 84.5851 43.4639C84.8206 43.405 84.8206 43.5817 84.8795 43.7583C84.8795 43.8172 84.9385 43.8761 84.9385 43.935C85.3507 43.405 85.8807 43.2283 86.5285 43.2872C87.1175 43.3461 87.5886 43.7583 87.8242 44.2884C88.0598 44.8184 88.0009 45.2896 88.0009 45.8196C87.942 46.2908 87.942 46.7619 87.942 47.233Z" fill="#5F7691"/>
<path d="M112.971 47.2324C112.795 47.2324 112.736 47.2324 112.559 47.2324C112.559 46.5256 112.559 45.8189 112.559 45.1122C112.559 44.641 112.441 44.2877 112.147 43.9932C111.852 43.6399 111.028 43.581 110.616 43.7577C109.909 44.111 109.791 44.6411 109.791 45.2889C109.791 45.9367 109.791 46.5256 109.791 47.1735C109.673 47.1735 109.556 47.1735 109.379 47.1735C109.379 45.9367 109.379 44.6411 109.379 43.4043C109.497 43.4043 109.614 43.4043 109.732 43.4043C109.791 43.5221 109.791 43.6988 109.85 43.8754C110.262 43.3454 110.792 43.1687 111.44 43.2276C112.029 43.2865 112.5 43.7576 112.736 44.2288C112.971 44.6999 112.913 45.1122 112.913 45.5834C112.971 46.1723 112.971 46.7023 112.971 47.2324Z" fill="#5F7691"/>
<path d="M71.0397 43.2871C71.0397 43.4049 71.0986 43.5227 71.0986 43.6405C71.0986 44.7594 71.0986 45.8784 71.0986 46.9974C71.0986 47.0563 71.0397 47.1741 70.9808 47.233C70.9219 47.1741 70.863 47.1152 70.8041 46.9974C70.7452 46.9385 70.7453 46.8207 70.6864 46.8207C70.6275 46.8207 70.5097 46.8796 70.4508 46.9385C70.2152 47.1152 70.0385 47.2919 69.7441 47.233C69.5085 47.233 69.2729 47.233 69.0373 47.233C68.5073 47.233 68.1539 46.9974 67.9184 46.5262C67.8006 46.2907 67.7417 46.0551 67.7417 45.8195C67.7417 45.1128 67.7417 44.3472 67.7417 43.6405C67.7417 43.5227 67.8006 43.4049 67.8006 43.2871C68.0362 43.4049 68.1539 43.5227 68.1539 43.7583C68.1539 44.465 68.1539 45.1128 68.1539 45.8195C68.095 46.4085 68.6251 46.8796 69.1551 46.9385C69.803 46.9974 70.333 46.8207 70.6275 46.2318C70.8041 45.9373 70.8041 45.584 70.863 45.2306C70.9219 44.7595 70.863 44.2294 70.863 43.7583C70.863 43.5816 70.9219 43.4638 70.9219 43.2871C70.9808 43.2871 70.9808 43.2871 71.0397 43.2871Z" fill="#5F7691"/>
<path d="M76.9876 43.7582C76.6931 43.6993 76.3987 43.6993 76.1631 43.6993C76.1631 43.6404 76.1631 43.6404 76.1631 43.5815C76.2809 43.5815 76.4576 43.5226 76.5753 43.5226C76.9287 43.5815 76.9876 43.4048 76.9876 43.1103C76.9876 42.8748 76.9876 42.5803 76.9876 42.3447C77.1054 42.3447 77.2232 42.3447 77.3998 42.3447C77.3998 42.6392 77.3998 42.9337 77.3998 43.2281C77.3998 43.4637 77.5176 43.5815 77.7532 43.5815C77.9888 43.5815 78.2244 43.5815 78.5188 43.5815C78.5777 43.5815 78.6366 43.6404 78.6955 43.6993C78.6366 43.7582 78.5777 43.8171 78.5188 43.8171C78.2244 43.8171 77.9888 43.8171 77.6943 43.8171C77.5176 43.8171 77.4587 43.8759 77.4587 44.0526C77.4587 44.8771 77.4587 45.7016 77.4587 46.5261C77.4587 46.7617 77.6354 46.9384 77.871 46.9384C78.1066 46.9384 78.2832 46.8795 78.5188 46.9384C78.6366 46.9384 78.8133 47.0562 78.8133 47.1151C78.8722 47.2917 78.6955 47.3507 78.5188 47.3507C78.2832 47.3507 77.9888 47.3507 77.7532 47.3507C77.4587 47.3507 77.2821 47.174 77.1643 46.9384C76.9287 46.5261 76.9876 46.1139 76.9876 45.7016C76.9876 44.9949 76.9876 44.3471 76.9876 43.7582Z" fill="#5F7691"/>
<path d="M114.267 43.7575C113.973 43.6986 113.678 43.6986 113.443 43.6397C113.443 43.5808 113.443 43.5219 113.443 43.5219C113.62 43.5219 113.796 43.463 113.914 43.463C114.15 43.463 114.267 43.3452 114.267 43.1686C114.267 42.8741 114.267 42.5796 114.267 42.2852C114.385 42.2852 114.503 42.2852 114.68 42.2852C114.68 42.5796 114.68 42.8741 114.68 43.1097C114.68 43.3452 114.797 43.463 115.033 43.463C115.21 43.463 115.445 43.463 115.622 43.463C115.74 43.463 115.799 43.5219 115.916 43.5808C115.799 43.6397 115.74 43.6986 115.622 43.6986C115.386 43.6986 115.151 43.6986 114.915 43.6986C114.739 43.6986 114.621 43.7575 114.621 43.9342C114.621 44.7587 114.621 45.5243 114.621 46.3488C114.621 46.6433 114.856 46.8199 115.151 46.8788C115.327 46.8788 115.563 46.8199 115.74 46.8788C115.858 46.8788 116.034 46.9966 116.034 47.0555C116.093 47.2322 115.916 47.2911 115.74 47.2911C115.445 47.2911 115.151 47.2911 114.856 47.2911C114.562 47.2911 114.444 47.1144 114.326 46.8788C113.914 46.0543 114.208 45.2298 114.15 44.3464C114.208 44.1697 114.267 43.9342 114.267 43.7575Z" fill="#5F7691"/>
<path d="M66.269 43.2871C66.3868 43.2871 66.5045 43.2871 66.6223 43.2871C66.6223 43.4049 66.6812 43.4638 66.6812 43.5227C66.6812 44.995 66.6812 46.4674 66.6812 47.9397C66.6812 48.7053 65.9156 49.1764 65.2089 48.882C65.15 48.8231 65.0911 48.7053 65.0322 48.5875C65.0911 48.5286 65.2089 48.4697 65.2678 48.4697C65.3856 48.4697 65.5034 48.4697 65.6801 48.4697C66.1512 48.4697 66.3279 48.2342 66.3279 47.8219C66.3279 46.4674 66.3279 45.1128 66.3279 43.7583C66.269 43.6405 66.269 43.4638 66.269 43.2871Z" fill="#5F7691"/>
<path d="M66.6812 41.8733C66.6812 42.05 66.6223 42.2267 66.6223 42.4034C66.3279 42.58 66.2101 42.3445 66.0923 42.2267C66.0923 42.2267 66.0923 42.05 66.1512 42.05C66.269 41.9322 66.4456 41.8733 66.6223 41.8144C66.6223 41.7555 66.6812 41.8144 66.6812 41.8733Z" fill="#5F7691"/>
</svg>
